<svg width="24" height="24" viewBox="0 0 24 24" fill="none" xmlns="http://www.w3.org/2000/svg">
<rect width="24" height="24" fill="#1E1E1E"/>
<g id="Profile" clip-path="url(#clip0_4_11138)">
<rect width="360" height="800" transform="translate(-32 -458)" fill="white"/>
<g id="profile section ">
<g id="Share App">
<g id="Share App_2">
<g id="Frame">
<g id="Vector">
<mask id="path-2-inside-1_4_11138" fill="white">
<path d="M13.6828 19.5342C13.0912 19.6914 12.466 19.3446 12.3412 18.7842C11.698 15.903 9.3016 14.307 6.8152 14.583C4.3672 14.859 2.134 17.0862 1.9756 19.5342C1.936 20.1654 2.0896 21.627 2.2876 22.2186H18.6568C18.8548 22.2186 19.1344 22.2582 19.3312 22.2186C21.0688 21.8634 22.5232 19.545 22.1692 17.8074L19.2494 2.68513C19.168 2.26355 18.799 1.95897 18.3696 1.95897H15.1761C14.2474 1.95897 13.3845 2.43834 12.8938 3.22684L12.82 3.34547C12.3495 4.10157 12.5056 5.08845 13.1865 5.66244L14.3304 6.62684C14.7164 6.95221 15.2948 6.89468 15.6091 6.49967L16.012 5.99337C16.3672 5.51937 17.0776 5.44137 17.512 5.83497C17.986 6.19017 17.908 6.78657 17.512 7.22097L16.2376 8.93217L13.9768 17.0382C14.0956 17.2362 14.3536 17.955 14.4328 18.1914C14.507 18.4688 14.4701 18.7642 14.3301 19.0149C14.1901 19.2656 13.9579 19.4518 13.6828 19.5342ZM12.5788 15.0342L14.2756 8.79657L10.288 5.95257C9.8536 5.63816 9.6964 5.00577 9.9724 4.53297L12.1444 0.780565C12.3004 0.385765 12.6568 0.188965 13.0516 0.188965H19.5256C20.0392 0.188965 20.4736 0.544165 20.5912 1.05777L23.8672 17.4402C24.5392 20.7558 21.9736 23.8746 18.5776 23.8746H2.5504C2.10036 23.869 1.66274 23.7262 1.29605 23.4652C0.92936 23.2042 0.651074 22.8376 0.498395 22.4142C0.223252 21.5608 0.102958 20.6651 0.143195 19.7694C0.300395 16.2174 3.1036 13.2954 6.6172 12.9006C7.70712 12.783 8.80952 12.9136 9.84176 13.2827C10.874 13.6518 11.8093 14.2498 12.5776 15.0318L12.5788 15.0342Z"/>
</mask>
<path d="M13.6828 19.5342C13.0912 19.6914 12.466 19.3446 12.3412 18.7842C11.698 15.903 9.3016 14.307 6.8152 14.583C4.3672 14.859 2.134 17.0862 1.9756 19.5342C1.936 20.1654 2.0896 21.627 2.2876 22.2186H18.6568C18.8548 22.2186 19.1344 22.2582 19.3312 22.2186C21.0688 21.8634 22.5232 19.545 22.1692 17.8074L19.2494 2.68513C19.168 2.26355 18.799 1.95897 18.3696 1.95897H15.1761C14.2474 1.95897 13.3845 2.43834 12.8938 3.22684L12.82 3.34547C12.3495 4.10157 12.5056 5.08845 13.1865 5.66244L14.3304 6.62684C14.7164 6.95221 15.2948 6.89468 15.6091 6.49967L16.012 5.99337C16.3672 5.51937 17.0776 5.44137 17.512 5.83497C17.986 6.19017 17.908 6.78657 17.512 7.22097L16.2376 8.93217L13.9768 17.0382C14.0956 17.2362 14.3536 17.955 14.4328 18.1914C14.507 18.4688 14.4701 18.7642 14.3301 19.0149C14.1901 19.2656 13.9579 19.4518 13.6828 19.5342ZM12.5788 15.0342L14.2756 8.79657L10.288 5.95257C9.8536 5.63816 9.6964 5.00577 9.9724 4.53297L12.1444 0.780565C12.3004 0.385765 12.6568 0.188965 13.0516 0.188965H19.5256C20.0392 0.188965 20.4736 0.544165 20.5912 1.05777L23.8672 17.4402C24.5392 20.7558 21.9736 23.8746 18.5776 23.8746H2.5504C2.10036 23.869 1.66274 23.7262 1.29605 23.4652C0.92936 23.2042 0.651074 22.8376 0.498395 22.4142C0.223252 21.5608 0.102958 20.6651 0.143195 19.7694C0.300395 16.2174 3.1036 13.2954 6.6172 12.9006C7.70712 12.783 8.80952 12.9136 9.84176 13.2827C10.874 13.6518 11.8093 14.2498 12.5776 15.0318L12.5788 15.0342Z" fill="#BB2525"/>
<path d="M13.6828 19.5342L15.9941 28.2323L16.1293 28.1964L16.2633 28.1563L13.6828 19.5342ZM12.3412 18.7842L21.126 16.8278L21.125 16.8233L12.3412 18.7842ZM6.8152 14.583L5.82226 5.63791L5.81457 5.63876L5.80688 5.63963L6.8152 14.583ZM1.9756 19.5342L-7.00562 18.953L-7.00619 18.9618L-7.00674 18.9706L1.9756 19.5342ZM2.2876 22.2186L-6.24709 25.075L-4.19092 31.2186H2.2876V22.2186ZM19.3312 22.2186L21.1066 31.0417L21.1201 31.039L21.1337 31.0362L19.3312 22.2186ZM22.1692 17.8074L13.3324 19.5136L13.3411 19.5588L13.3504 19.604L22.1692 17.8074ZM16.012 5.99337L23.0546 11.5971L23.1359 11.4949L23.2142 11.3904L16.012 5.99337ZM17.512 5.83497L11.469 12.5044L11.7795 12.7858L12.1149 13.0372L17.512 5.83497ZM17.512 7.22097L10.8609 1.15777L10.5603 1.48747L10.2938 1.84529L17.512 7.22097ZM16.2376 8.93217L9.01942 3.55649L8.0186 4.90033L7.56846 6.51431L16.2376 8.93217ZM13.9768 17.0382L5.30766 14.6203L4.26767 18.3491L6.25936 21.6686L13.9768 17.0382ZM14.4328 18.1914L23.1274 15.8668L23.0553 15.597L22.9666 15.3323L14.4328 18.1914ZM12.5788 15.0342L4.52959 19.0604L15.0754 40.1436L21.2632 17.3966L12.5788 15.0342ZM14.2756 8.79657L22.96 11.159L24.6056 5.10954L19.5015 1.46924L14.2756 8.79657ZM10.288 5.95257L5.01123 13.2434L5.03659 13.2617L5.06207 13.2799L10.288 5.95257ZM9.9724 4.53297L17.745 9.07026L17.7533 9.05595L17.7616 9.0416L9.9724 4.53297ZM12.1444 0.780565L19.9336 5.28921L20.2688 4.71018L20.5147 4.08796L12.1444 0.780565ZM20.5912 1.05777L29.4165 -0.707031L29.392 -0.829377L29.3642 -0.950998L20.5912 1.05777ZM23.8672 17.4402L15.0419 19.205L15.0442 19.2164L15.0465 19.2279L23.8672 17.4402ZM2.5504 23.8746L2.43911 32.8739L2.49475 32.8746H2.5504V23.8746ZM0.498395 22.4142L-8.06739 25.1759L-8.02015 25.3224L-7.96794 25.4672L0.498395 22.4142ZM0.143195 19.7694L9.13413 20.1733L9.13439 20.1673L0.143195 19.7694ZM6.6172 12.9006L5.65194 3.95248L5.63209 3.95462L5.61225 3.95685L6.6172 12.9006ZM12.5776 15.0318L20.6268 11.0056L19.992 9.73653L18.9976 8.72435L12.5776 15.0318ZM15.6091 6.49967L8.56656 0.895907L15.6091 6.49967ZM12.82 3.34547L5.1787 -1.40958L12.82 3.34547ZM13.1865 5.66244L7.38555 12.5435L13.1865 5.66244ZM12.8938 3.22684L20.5351 7.98188L12.8938 3.22684ZM11.3715 10.836C15.0871 9.84871 20.0013 11.7777 21.126 16.8278L3.5564 20.7405C4.93065 26.9115 11.0953 29.534 15.9941 28.2323L11.3715 10.836ZM21.125 16.8233C19.5218 9.64171 13.0536 4.8352 5.82226 5.63791L7.80813 23.528C6.81208 23.6386 5.78207 23.3682 4.95461 22.7627C4.10304 22.1396 3.68885 21.3338 3.55741 20.7451L21.125 16.8233ZM5.80688 5.63963C-0.715522 6.375 -6.54929 11.9006 -7.00562 18.953L10.9568 20.1153C10.8728 21.4136 10.3048 22.1983 9.94774 22.5607C9.59038 22.9234 8.92118 23.4025 7.82351 23.5263L5.80688 5.63963ZM-7.00674 18.9706C-7.07609 20.076 -6.97761 21.2159 -6.90128 21.8956C-6.83344 22.4997 -6.66774 23.8181 -6.24709 25.075L10.8223 19.3621C10.9106 19.6261 10.9578 19.8186 10.9753 19.8931C10.996 19.9808 11.0051 20.0314 11.006 20.0361C11.0069 20.0414 10.9975 19.9872 10.9863 19.8868C10.9753 19.7893 10.9699 19.7129 10.9682 19.6806C10.9675 19.6664 10.9688 19.6859 10.9692 19.7358C10.9696 19.7761 10.97 19.9058 10.9579 20.0977L-7.00674 18.9706ZM2.2876 31.2186H18.6568V13.2186H2.2876V31.2186ZM18.6568 31.2186C18.4446 31.2186 18.291 31.2088 18.3314 31.211C18.3812 31.2137 18.3158 31.2102 18.4107 31.2154C18.4564 31.2179 18.5324 31.222 18.6212 31.2257C18.7867 31.2325 19.0928 31.2426 19.4637 31.2305C19.8198 31.2189 20.4064 31.1826 21.1066 31.0417L17.5558 13.3954C18.1576 13.2743 18.6354 13.2479 18.8776 13.24C19.1345 13.2317 19.3214 13.2392 19.3677 13.2412C19.3969 13.2424 19.4132 13.2433 19.3999 13.2426C19.393 13.2422 19.386 13.2418 19.3685 13.2408C19.3539 13.24 19.3303 13.2387 19.3047 13.2373C19.2308 13.2333 18.968 13.2186 18.6568 13.2186V31.2186ZM21.1337 31.0362C25.1351 30.2182 27.7503 27.5224 29.1224 25.3712C30.5033 23.2062 31.7643 19.8211 30.988 16.0107L13.3504 19.604C12.9281 17.5312 13.6389 16.1741 13.9467 15.6915C14.2457 15.2228 15.2649 13.8637 17.5287 13.4009L21.1337 31.0362ZM31.006 16.1012L28.0862 0.978929L10.4126 4.39133L13.3324 19.5136L31.006 16.1012ZM18.3696 -7.04103H15.1761V10.959H18.3696V-7.04103ZM5.25252 -1.5282L5.1787 -1.40958L20.4613 8.10051L20.5351 7.98188L5.25252 -1.5282ZM7.38555 12.5435L8.52953 13.5079L20.1313 -0.254254L18.9874 -1.21865L7.38555 12.5435ZM22.6517 12.1034L23.0546 11.5971L8.96943 0.389601L8.56656 0.895907L22.6517 12.1034ZM23.2142 11.3904C20.5063 15.0041 15.1044 15.7984 11.469 12.5044L23.555 -0.83449C19.0508 -4.91566 12.2281 -3.96534 8.80981 0.596283L23.2142 11.3904ZM12.1149 13.0372C9.94841 11.4136 8.74038 8.80852 8.84521 6.14442C8.93632 3.8287 9.96067 2.14525 10.8609 1.15777L24.1631 13.2842C25.4593 11.8623 26.7207 9.66343 26.8313 6.85211C26.9556 3.69241 25.5496 0.611488 22.9091 -1.36722L12.1149 13.0372ZM10.2938 1.84529L9.01942 3.55649L23.4558 14.3078L24.7302 12.5966L10.2938 1.84529ZM7.56846 6.51431L5.30766 14.6203L22.6459 19.456L24.9067 11.35L7.56846 6.51431ZM6.25936 21.6686C6.1489 21.4845 6.06754 21.3329 6.01799 21.2378C5.96578 21.1375 5.92591 21.0556 5.89959 21.0002C5.84874 20.8933 5.81672 20.8187 5.80671 20.7952C5.78698 20.7488 5.78783 20.7481 5.81054 20.8077C5.82962 20.8577 5.85182 20.918 5.8727 20.9762C5.89546 21.0397 5.9046 21.0672 5.89899 21.0504L22.9666 15.3323C22.8864 15.0931 22.7604 14.7381 22.6288 14.3931C22.625 14.3833 22.2469 13.3288 21.6942 12.4077L6.25936 21.6686ZM5.73819 20.516C5.20772 18.5319 5.47118 16.4192 6.47265 14.6262L22.1876 23.4035C23.4691 21.1091 23.8062 18.4056 23.1274 15.8668L5.73819 20.516ZM6.47265 14.6262C7.47411 12.8332 9.13478 11.5009 11.1023 10.912L16.2633 28.1563C18.781 27.4028 20.9061 25.6979 22.1876 23.4035L6.47265 14.6262ZM21.2632 17.3966L22.96 11.159L5.59118 6.43417L3.89438 12.6718L21.2632 17.3966ZM19.5015 1.46924L15.5139 -1.37476L5.06207 13.2799L9.04967 16.1239L19.5015 1.46924ZM15.5648 -1.33823C18.6352 0.884014 19.9522 5.28911 17.745 9.07026L2.19982 -0.00432707C-0.559453 4.72242 1.072 10.3923 5.01123 13.2434L15.5648 -1.33823ZM17.7616 9.0416L19.9336 5.28921L4.35516 -3.72808L2.18316 0.0243252L17.7616 9.0416ZM20.5147 4.08796C19.8888 5.67179 18.7582 7.04543 17.2726 7.97236C15.8395 8.86649 14.337 9.18896 13.0516 9.18896V-8.81104C9.55127 -8.81104 5.49167 -6.8735 3.77414 -2.52683L20.5147 4.08796ZM13.0516 9.18896H19.5256V-8.81104H13.0516V9.18896ZM19.5256 9.18896C15.6663 9.18896 12.5974 6.46941 11.8182 3.06653L29.3642 -0.950998C28.3498 -5.38108 24.4121 -8.81104 19.5256 -8.81104V9.18896ZM11.7659 2.82256L15.0419 19.205L32.6925 15.6754L29.4165 -0.707031L11.7659 2.82256ZM15.0465 19.2279C14.5782 16.9169 16.337 14.8746 18.5776 14.8746V32.8746C27.6102 32.8746 34.5002 24.5946 32.6879 15.6524L15.0465 19.2279ZM18.5776 14.8746H2.5504V32.8746H18.5776V14.8746ZM2.66168 14.8753C4.04408 14.8924 5.38829 15.331 6.51461 16.1326L-3.92251 30.7978C-2.06281 32.1213 0.156634 32.8457 2.43911 32.8739L2.66168 14.8753ZM6.51461 16.1326C7.64095 16.9343 8.49575 18.0606 8.96473 19.3611L-7.96794 25.4672C-7.19361 27.6145 -5.78223 29.4742 -3.92251 30.7978L6.51461 16.1326ZM9.06418 19.6524C9.11836 19.8205 9.14205 19.9968 9.13413 20.1733L-8.84774 19.3655C-8.93614 21.3333 -8.67186 23.3011 -8.06739 25.1759L9.06418 19.6524ZM9.13439 20.1673C9.11182 20.6774 8.89807 21.0843 8.65455 21.3413C8.41678 21.5922 8.06415 21.7946 7.62214 21.8443L5.61225 3.95685C-2.19518 4.83412 -8.49012 11.285 -8.848 19.3714L9.13439 20.1673ZM7.58245 21.8487C7.3219 21.8768 7.05837 21.8455 6.8116 21.7573L12.8719 4.80818C10.5607 3.98177 8.09234 3.68923 5.65194 3.95248L7.58245 21.8487ZM6.8116 21.7573C6.56484 21.6691 6.34125 21.5261 6.15759 21.3392L18.9976 8.72435C17.2774 6.97343 15.1832 5.63459 12.8719 4.80818L6.8116 21.7573ZM4.52839 19.058L4.52959 19.0604L20.628 11.008L20.6268 11.0056L4.52839 19.058ZM8.52953 13.5079C12.7921 17.1014 19.1804 16.4661 22.6517 12.1034L8.56656 0.895907C11.4093 -2.6767 16.6407 -3.19697 20.1313 -0.254254L8.52953 13.5079ZM5.1787 -1.40958C2.34525 3.14374 3.28524 9.08688 7.38555 12.5435L18.9874 -1.21865C21.7259 1.09001 22.3537 5.05939 20.4613 8.10051L5.1787 -1.40958ZM15.1761 -7.04103C11.138 -7.04103 7.38598 -4.95666 5.25252 -1.5282L20.5351 7.98188C19.383 9.83335 17.3568 10.959 15.1761 10.959V-7.04103ZM28.0862 0.978929C27.1872 -3.67714 23.1117 -7.04103 18.3696 -7.04103V10.959C14.4863 10.959 11.1488 8.20423 10.4126 4.39133L28.0862 0.978929Z" fill="#BB2525" mask="url(#path-2-inside-1_4_11138)"/>
</g>
<path id="Vector_2" d="M9.1476 10.2658L10.9416 8.47182C11.0292 8.40292 11.1374 8.36546 11.2488 8.36546C11.3602 8.36546 11.4684 8.40292 11.556 8.47182C11.6508 8.51862 11.6976 8.61342 11.6976 8.75502C11.6976 8.84862 11.6496 8.99142 11.556 9.03822L9.762 10.8802C9.5724 10.9738 9.384 10.9282 9.2424 10.7854C9.1008 10.6438 9.0528 10.4074 9.1464 10.2658H9.1476ZM6.5784 7.28982C6.65696 7.24361 6.74645 7.21924 6.8376 7.21924C6.92875 7.21924 7.01824 7.24361 7.0968 7.28982C7.2396 7.38582 7.2864 7.57422 7.2396 7.76262V10.3126C7.21341 10.4062 7.15789 10.4888 7.0812 10.5485C7.00451 10.6081 6.91071 10.6415 6.8136 10.6438C6.71669 10.6413 6.62316 10.6077 6.54671 10.5481C6.47027 10.4885 6.41492 10.406 6.3888 10.3126V7.76382C6.3408 7.57542 6.3888 7.38582 6.5784 7.29222V7.28982ZM2.1192 8.51982C2.2608 8.37822 2.4972 8.33142 2.6388 8.42502L4.4328 10.2202C4.51888 10.3092 4.56964 10.4265 4.5756 10.5502C4.5756 10.645 4.5276 10.7866 4.4328 10.8334C4.34533 10.902 4.23737 10.9393 4.1262 10.9393C4.01503 10.9393 3.90707 10.902 3.8196 10.8334L2.0244 9.03822C1.9308 8.84862 1.9764 8.66022 2.1192 8.51862V8.51982Z" fill="#BB2525"/>
</g>
</g>
</g>
</g>
</g>
<defs>
<clipPath id="clip0_4_11138">
<rect width="360" height="800" fill="white" transform="translate(-32 -458)"/>
</clipPath>
</defs>
</svg>
