<svg width="25" height="24" viewBox="0 0 25 24" fill="none" xmlns="http://www.w3.org/2000/svg">
<g id="bi:check">
<path id="Vector" d="M16.955 7.45498C17.1663 7.25381 17.4475 7.1426 17.7392 7.14481C18.031 7.14702 18.3104 7.26247 18.5187 7.46681C18.7269 7.67115 18.8476 7.9484 18.8553 8.24004C18.863 8.53169 18.7571 8.81492 18.56 9.02998L12.575 16.515C12.4721 16.6258 12.3479 16.7148 12.2098 16.7765C12.0717 16.8383 11.9226 16.8715 11.7714 16.8743C11.6201 16.8771 11.4699 16.8494 11.3296 16.7928C11.1894 16.7362 11.0619 16.6519 10.955 16.545L6.98599 12.576C6.87546 12.473 6.78681 12.3488 6.72532 12.2108C6.66383 12.0728 6.63077 11.9238 6.6281 11.7728C6.62544 11.6217 6.65323 11.4717 6.70981 11.3316C6.76639 11.1915 6.85061 11.0643 6.95743 10.9574C7.06426 10.8506 7.19151 10.7664 7.3316 10.7098C7.47168 10.6532 7.62172 10.6254 7.77278 10.6281C7.92383 10.6308 8.0728 10.6638 8.2108 10.7253C8.3488 10.7868 8.473 10.8754 8.57599 10.986L11.717 14.1255L16.9265 7.48798C16.9359 7.47643 16.9444 7.46541 16.955 7.45498Z" fill="#BB2525"/>
</g>
</svg>
