<svg width="306" height="201" viewBox="0 0 306 201" fill="none" xmlns="http://www.w3.org/2000/svg">
<path d="M154.558 96.4161L154.574 96.4192L154.567 96.407L154.558 96.4127L154.558 96.4161Z" fill="#F5F5F5"/>
<path d="M154.614 96.5183L154.618 96.5281L154.62 96.525L154.614 96.5183Z" fill="#F5F5F5"/>
<path d="M154.638 96.4618L154.643 96.4764L154.653 96.4578L154.638 96.4618Z" fill="#F5F5F5"/>
<path d="M174.527 55.3102C174.557 55.3251 174.588 55.3399 174.618 55.3548L206.964 1.54492L189.425 1.62718C189.425 1.62718 178.756 1.54492 175.645 1.62718L162.252 51.3781C162.314 51.3887 162.376 51.3988 162.437 51.4094L154.746 95.9239L174.527 55.3102Z" fill="#F5F5F5"/>
<path d="M295.155 0.472656H259.793L185.31 62.6387C185.337 62.6637 185.364 62.6883 185.391 62.7129L154.726 96.3098L296.147 1.62721C295.87 1.19006 295.536 0.809312 295.155 0.472656Z" fill="#F5F5F5"/>
<path d="M305.494 60.4559L155.376 97.4499L154.712 96.6388L155.087 97.5211L154.916 97.5631L154.767 97.5152L154.852 97.4635L154.718 97.4995L154.717 97.4991L154.721 97.4923L154.709 97.497L154.825 97.2769L154.689 97.4261L154.678 97.4868L154.674 97.4885L154.599 96.7723L154.52 97.4219L154.474 97.3647L154.501 97.4295L154.357 97.3833L154.101 97.1416L154.365 96.7058L154.029 97.0738L153.81 96.8682L154.35 96.5396L153.659 96.7253L54.6648 3.44019H13.0785L116.95 71.942C116.95 71.9416 116.95 71.9412 116.95 71.9408L153.447 96.7821L152.049 97.1578L0.503906 70.9083V95.0556L95.3205 98.286C95.3205 98.2835 94.7489 99.5686 94.7485 99.5661L149.772 97.7704L110.583 108.31C110.569 108.256 110.555 108.203 110.541 108.15L0.503906 152.105V181.109L123.116 115.564L152.474 97.6822L153.505 97.6487L60.7831 199.226H92.2338L153.8 97.639L154.497 97.6161L142.203 199.226H165.356L154.694 97.6687L154.798 97.7607L154.69 97.6284L155.313 98.0528L172.445 138.409C172.415 138.422 172.385 138.434 172.356 138.446L210.997 199.226H241.9L183.465 131.692C183.452 131.702 183.44 131.712 183.428 131.722L156.571 98.9084L192.26 123.199C192.242 123.226 192.224 123.253 192.206 123.28L299.591 200.403H305.494V174.365L197.973 111.488C197.965 111.513 197.957 111.538 197.949 111.563L155.815 97.9858L155.442 97.5296L305.494 85.3481L305.494 60.4559ZM153.693 97.4423L153.05 97.3312L153.685 96.9445L153.97 97.1387L153.693 97.4423ZM154.504 97.5648L154.459 97.575L153.898 97.4779L154.065 97.2023L154.303 97.3642L154.14 97.3117L154.501 97.5572L154.494 97.5589H154.503L154.503 97.5593L154.504 97.5589L154.504 97.5648ZM154.691 97.6233L154.689 97.6225L154.683 97.5699L154.686 97.5648L154.894 97.5695L154.705 97.6203L155.126 97.6314L154.939 97.5707L155.103 97.5576L155.201 97.7882L154.691 97.6233Z" fill="#F5F5F5"/>
<path d="M136.782 54.3999C136.785 54.3986 136.787 54.3974 136.79 54.3961L154.535 96.222L149.302 51.066C149.307 51.0652 149.313 51.0647 149.318 51.0643L143.1 1.54492C143.1 1.54492 110.164 1.62718 112.105 1.62718L136.782 54.3999Z" fill="#F5F5F5"/>
<path d="M154.494 96.565L154.435 96.9042L154.58 96.6053L154.566 96.4849L154.494 96.565Z" fill="#F5F5F5"/>
<path d="M154.624 96.4655L154.632 96.4711L154.632 96.4636L154.624 96.4655Z" fill="#F5F5F5"/>
<path d="M239.378 60.5415C240.505 59.3997 301.778 20.8738 301.778 20.8738L302.814 29.0523L239.378 60.5415Z" fill="#EBEBEB"/>
<path d="M117.111 38.148L93.6996 4.23608H85.5405L117.111 38.148Z" fill="#EBEBEB"/>
<path d="M5.73779 26.4512V36.1497L47.7375 54.9643L5.73779 26.4512Z" fill="#EBEBEB"/>
<path d="M15.26 193.076C16.5231 192.445 48.2955 174.448 48.2955 174.448L25.6811 196.55L15.26 193.076Z" fill="#EBEBEB"/>
<path d="M76.9375 42.0009L73.4127 40.0963L69.8452 41.9199L70.5677 37.9789L67.7307 35.1495L71.7023 34.6191L73.5166 31.0469L75.2482 34.6594L79.2063 35.2809L76.3057 38.0446L76.9375 42.0009Z" fill="#E0E0E0"/>
<path d="M178.889 21.347L175.364 19.4424L171.797 21.2661L172.519 17.325L169.682 14.4956L173.653 13.9652L175.468 10.3926L177.2 14.0055L181.158 14.6271L178.257 17.3907L178.889 21.347Z" fill="#E0E0E0"/>
<path d="M81.6994 179.244L78.1747 177.339L74.6072 179.163L75.3297 175.222L72.4927 172.392L76.4643 171.862L78.2782 168.29L80.0102 171.903L83.9682 172.524L81.0672 175.287L81.6994 179.244Z" fill="#E0E0E0"/>
<path d="M232.497 177.789L228.973 175.884L225.405 177.708L226.128 173.767L223.291 170.938L227.262 170.407L229.076 166.834L230.808 170.447L234.766 171.069L231.865 173.833L232.497 177.789Z" fill="#E0E0E0"/>
<path d="M51.0057 44.8395L49.1791 43.8525L47.3305 44.7976L47.7049 42.7551L46.2349 41.289L48.2925 41.0138L49.233 39.1626L50.1306 41.035L52.1815 41.3568L50.6784 42.7891L51.0057 44.8395Z" fill="#E0E0E0"/>
<path d="M101.054 187.805L99.2269 186.817L97.3778 187.762L97.7522 185.72L96.2822 184.254L98.3403 183.979L99.2803 182.128L100.178 184L102.229 184.322L100.726 185.754L101.054 187.805Z" fill="#E0E0E0"/>
<path d="M211.012 156.041L209.185 155.054L207.336 155.999L207.71 153.957L206.24 152.491L208.298 152.216L209.238 150.365L210.136 152.237L212.187 152.559L210.684 153.991L211.012 156.041Z" fill="#E0E0E0"/>
<path d="M254.747 43.9938L252.92 43.0068L251.071 43.9519L251.446 41.9094L249.976 40.4433L252.034 40.1681L252.974 38.3169L253.872 40.1893L255.923 40.5115L254.419 41.9434L254.747 43.9938Z" fill="#E0E0E0"/>
<path d="M298.439 56.1123H225.667V157.26H298.439V56.1123Z" fill="white"/>
<path d="M298.439 56.1123H225.667V92.7234H298.439V56.1123Z" fill="#455A64"/>
<path d="M285.839 101.685C285.839 101.746 275.834 101.795 263.495 101.795C251.152 101.795 241.15 101.746 241.15 101.685C241.15 101.625 251.152 101.575 263.495 101.575C275.834 101.575 285.839 101.624 285.839 101.685Z" fill="#263238"/>
<path d="M285.839 111.545C285.839 111.606 275.834 111.656 263.495 111.656C251.152 111.656 241.15 111.606 241.15 111.545C241.15 111.484 251.152 111.435 263.495 111.435C275.834 111.435 285.839 111.484 285.839 111.545Z" fill="#263238"/>
<path d="M285.839 121.405C285.839 121.466 275.834 121.516 263.495 121.516C251.152 121.516 241.15 121.466 241.15 121.405C241.15 121.345 251.152 121.295 263.495 121.295C275.834 121.295 285.839 121.344 285.839 121.405Z" fill="#263238"/>
<path d="M285.655 149.154H241.942C237.644 149.154 234.159 145.67 234.159 141.371V140.556C234.159 136.258 237.644 132.773 241.942 132.773H285.655C289.953 132.773 293.438 136.258 293.438 140.556V141.371C293.438 145.67 289.953 149.154 285.655 149.154Z" fill="#455A64"/>
<path d="M247.49 81.1342C247.812 81.2796 248.061 81.487 248.237 81.7566C248.412 82.0263 248.499 82.3434 248.499 82.7077C248.499 83.0719 248.412 83.3878 248.237 83.6553C248.061 83.9228 247.812 84.1293 247.49 84.2743C247.167 84.4198 246.786 84.4923 246.348 84.4923H245.505V85.7579H244.135V80.9163H246.349C246.786 80.9163 247.167 80.9892 247.49 81.1342ZM246.902 83.23C247.045 83.1079 247.116 82.9336 247.116 82.7077C247.116 82.4817 247.045 82.3066 246.902 82.1819C246.758 82.0572 246.546 81.9949 246.265 81.9949H245.505V83.4128H246.265C246.547 83.4132 246.759 83.3521 246.902 83.23Z" fill="white"/>
<path d="M251.28 84.4715H250.533V85.7579H249.164V80.9163H251.377C251.815 80.9163 252.196 80.9888 252.519 81.1342C252.841 81.2796 253.09 81.487 253.266 81.7566C253.441 82.0263 253.528 82.3434 253.528 82.7077C253.528 83.0583 253.446 83.3636 253.283 83.6243C253.119 83.8847 252.885 84.0891 252.581 84.2362L253.625 85.7579H252.159L251.28 84.4715ZM251.93 82.1819C251.787 82.0572 251.575 81.9949 251.294 81.9949H250.533V83.4128H251.294C251.575 83.4128 251.787 83.3517 251.93 83.2296C252.073 83.1075 252.145 82.9332 252.145 82.7072C252.145 82.4817 252.073 82.3066 251.93 82.1819Z" fill="white"/>
<path d="M258.169 84.6996V85.7579H254.281V80.9163H258.079V81.9746H255.637V82.7908H257.788V83.8143H255.637V84.6996H258.169Z" fill="white"/>
<path d="M263.3 85.7579L263.287 83.1919L262.042 85.2805H261.433L260.195 83.261V85.7579H258.929V80.9163H260.056L261.758 83.7104L263.418 80.9163H264.545L264.559 85.7579H263.3Z" fill="white"/>
<path d="M265.527 80.9163H266.897V85.7579H265.527V80.9163Z" fill="white"/>
<path d="M268.429 85.267C268.031 84.8752 267.831 84.3194 267.831 83.6002V80.9167H269.2V83.5587C269.2 84.3333 269.507 84.7209 270.12 84.7209C270.729 84.7209 271.033 84.3333 271.033 83.5587V80.9167H272.382V83.6002C272.382 84.3194 272.182 84.8752 271.784 85.267C271.385 85.6588 270.826 85.8551 270.107 85.8551C269.387 85.8547 268.828 85.6588 268.429 85.267Z" fill="white"/>
<path d="M277.679 85.7579L277.666 83.1919L276.42 85.2805H275.812L274.574 83.261V85.7579H273.308V80.9163H274.436L276.137 83.7104L277.797 80.9163H278.925L278.938 85.7579H277.679Z" fill="white"/>
<path d="M252.694 142.62C252.323 142.42 252.031 142.144 251.819 141.79C251.607 141.436 251.501 141.036 251.501 140.59C251.501 140.144 251.607 139.745 251.819 139.391C252.031 139.037 252.323 138.76 252.694 138.561C253.065 138.361 253.482 138.262 253.945 138.262C254.335 138.262 254.688 138.33 255.003 138.468C255.318 138.605 255.583 138.802 255.798 139.06L255.128 139.677C254.824 139.326 254.447 139.15 253.996 139.15C253.718 139.15 253.469 139.211 253.25 139.333C253.031 139.455 252.861 139.626 252.739 139.845C252.617 140.063 252.555 140.312 252.555 140.591C252.555 140.869 252.616 141.118 252.739 141.337C252.861 141.556 253.031 141.726 253.25 141.848C253.469 141.971 253.718 142.032 253.996 142.032C254.447 142.032 254.824 141.854 255.128 141.498L255.798 142.116C255.583 142.377 255.317 142.576 255 142.713C254.682 142.851 254.329 142.919 253.938 142.919C253.48 142.919 253.065 142.819 252.694 142.62Z" fill="white"/>
<path d="M259.57 139.715C259.833 139.973 259.965 140.355 259.965 140.86V142.841H258.962V141.014C258.962 140.74 258.902 140.535 258.782 140.4C258.662 140.266 258.488 140.198 258.261 140.198C258.008 140.198 257.806 140.276 257.656 140.433C257.506 140.59 257.431 140.822 257.431 141.131V142.841H256.427V138.069H257.431V139.741C257.564 139.608 257.724 139.506 257.913 139.435C258.102 139.365 258.308 139.329 258.531 139.329C258.96 139.329 259.306 139.458 259.57 139.715Z" fill="white"/>
<path d="M261.577 142.665C261.287 142.512 261.061 142.301 260.898 142.031C260.735 141.761 260.654 141.454 260.654 141.111C260.654 140.768 260.735 140.461 260.898 140.191C261.061 139.921 261.287 139.71 261.577 139.558C261.866 139.406 262.193 139.329 262.558 139.329C262.922 139.329 263.248 139.406 263.535 139.558C263.823 139.71 264.048 139.921 264.211 140.191C264.374 140.461 264.456 140.768 264.456 141.111C264.456 141.454 264.374 141.761 264.211 142.031C264.048 142.301 263.823 142.512 263.535 142.665C263.248 142.817 262.922 142.893 262.558 142.893C262.193 142.893 261.866 142.817 261.577 142.665ZM263.191 141.809C263.356 141.635 263.438 141.403 263.438 141.111C263.438 140.82 263.356 140.587 263.191 140.414C263.026 140.24 262.815 140.153 262.557 140.153C262.3 140.153 262.088 140.24 261.92 140.414C261.753 140.587 261.67 140.82 261.67 141.111C261.67 141.403 261.753 141.635 261.92 141.809C262.088 141.983 262.3 142.07 262.557 142.07C262.815 142.07 263.026 141.983 263.191 141.809Z" fill="white"/>
<path d="M265.79 142.665C265.5 142.512 265.274 142.301 265.111 142.031C264.948 141.761 264.866 141.454 264.866 141.111C264.866 140.768 264.948 140.461 265.111 140.191C265.274 139.921 265.5 139.71 265.79 139.558C266.079 139.406 266.406 139.329 266.77 139.329C267.134 139.329 267.461 139.406 267.748 139.558C268.035 139.71 268.261 139.921 268.424 140.191C268.587 140.461 268.668 140.768 268.668 141.111C268.668 141.454 268.587 141.761 268.424 142.031C268.261 142.301 268.035 142.512 267.748 142.665C267.461 142.817 267.135 142.893 266.77 142.893C266.406 142.893 266.079 142.817 265.79 142.665ZM267.404 141.809C267.569 141.635 267.652 141.403 267.652 141.111C267.652 140.82 267.569 140.587 267.404 140.414C267.239 140.24 267.028 140.153 266.771 140.153C266.514 140.153 266.301 140.24 266.134 140.414C265.966 140.587 265.883 140.82 265.883 141.111C265.883 141.403 265.966 141.635 266.134 141.809C266.301 141.983 266.514 142.07 266.771 142.07C267.028 142.07 267.239 141.983 267.404 141.809Z" fill="white"/>
<path d="M269.659 142.787C269.384 142.716 269.166 142.627 269.003 142.519L269.337 141.799C269.491 141.898 269.678 141.978 269.896 142.04C270.115 142.103 270.329 142.134 270.54 142.134C270.965 142.134 271.177 142.029 271.177 141.819C271.177 141.72 271.118 141.649 271.003 141.606C270.887 141.563 270.709 141.527 270.469 141.497C270.186 141.454 269.952 141.405 269.768 141.349C269.584 141.293 269.424 141.194 269.289 141.053C269.154 140.912 269.086 140.71 269.086 140.448C269.086 140.229 269.149 140.036 269.276 139.866C269.402 139.697 269.587 139.565 269.829 139.47C270.071 139.376 270.357 139.329 270.688 139.329C270.932 139.329 271.175 139.356 271.418 139.409C271.66 139.463 271.86 139.537 272.019 139.631L271.685 140.346C271.38 140.174 271.048 140.088 270.688 140.088C270.473 140.088 270.312 140.118 270.205 140.179C270.098 140.239 270.044 140.316 270.044 140.41C270.044 140.517 270.102 140.592 270.218 140.635C270.333 140.678 270.518 140.719 270.771 140.757C271.054 140.804 271.286 140.855 271.466 140.908C271.646 140.962 271.802 141.06 271.935 141.201C272.068 141.342 272.135 141.54 272.135 141.793C272.135 142.007 272.071 142.198 271.942 142.365C271.813 142.533 271.626 142.662 271.379 142.754C271.132 142.847 270.84 142.893 270.501 142.893C270.214 142.893 269.933 142.857 269.659 142.787Z" fill="white"/>
<path d="M276.122 141.394H273.505C273.552 141.609 273.663 141.778 273.839 141.902C274.015 142.026 274.234 142.088 274.495 142.088C274.675 142.088 274.835 142.062 274.975 142.008C275.114 141.955 275.243 141.87 275.363 141.754L275.898 142.333C275.572 142.706 275.096 142.892 274.47 142.892C274.08 142.892 273.734 142.816 273.434 142.664C273.134 142.512 272.903 142.301 272.739 142.031C272.577 141.76 272.495 141.454 272.495 141.111C272.495 140.772 272.575 140.466 272.736 140.194C272.897 139.922 273.118 139.709 273.399 139.557C273.68 139.405 273.994 139.329 274.341 139.329C274.68 139.329 274.987 139.402 275.261 139.548C275.535 139.694 275.751 139.903 275.907 140.175C276.064 140.448 276.142 140.764 276.142 141.124C276.142 141.137 276.136 141.227 276.122 141.394ZM273.775 140.281C273.621 140.41 273.526 140.586 273.492 140.809H275.197C275.163 140.59 275.068 140.415 274.914 140.285C274.759 140.154 274.57 140.088 274.348 140.088C274.12 140.088 273.93 140.153 273.775 140.281Z" fill="white"/>
<path d="M236.603 103.523C236.454 103.523 236.304 103.471 236.183 103.364L234.938 102.269C234.674 102.037 234.649 101.635 234.881 101.371C235.112 101.107 235.515 101.082 235.778 101.314L236.553 101.995L238.309 100.056C238.546 99.7948 238.947 99.7753 239.207 100.011C239.468 100.247 239.488 100.649 239.252 100.91L237.075 103.314C236.95 103.453 236.777 103.523 236.603 103.523Z" fill="#455A64"/>
<path d="M236.603 113.383C236.454 113.383 236.304 113.331 236.183 113.225L234.938 112.129C234.674 111.897 234.649 111.495 234.881 111.231C235.112 110.968 235.515 110.942 235.778 111.174L236.553 111.856L238.309 109.916C238.546 109.655 238.947 109.636 239.207 109.872C239.468 110.108 239.488 110.51 239.252 110.77L237.075 113.174C236.95 113.313 236.777 113.383 236.603 113.383Z" fill="#455A64"/>
<path d="M236.603 123.244C236.454 123.244 236.304 123.192 236.183 123.085L234.938 121.989C234.674 121.757 234.649 121.355 234.881 121.092C235.113 120.828 235.515 120.802 235.778 121.034L236.553 121.716L238.309 119.776C238.545 119.516 238.947 119.496 239.207 119.732C239.468 119.968 239.487 120.37 239.252 120.63L237.075 123.035C236.95 123.173 236.776 123.244 236.603 123.244Z" fill="#455A64"/>
<path d="M266.389 65.8923L267.439 68.0187L269.785 68.3596L268.088 70.0149L268.488 72.352L266.389 71.2487L264.291 72.352L264.691 70.0149L262.993 68.3596L265.34 68.0187L266.389 65.8923Z" fill="white"/>
<path d="M258.144 65.8923L259.193 68.0187L261.54 68.3596L259.842 70.0149L260.242 72.352L258.144 71.2487L256.045 72.352L256.445 70.0149L254.747 68.3596L257.094 68.0187L258.144 65.8923Z" fill="white"/>
<path d="M264.81 74.6547L262.054 73.1652L259.264 74.5911L259.829 71.5095L257.611 69.297L260.716 68.8819L262.135 66.0886L263.489 68.9137L266.584 69.3996L264.316 71.5608L264.81 74.6547Z" fill="white"/>
<path d="M257.067 69.1134L260.551 68.6483L262.142 65.5149L263.661 68.6834L267.133 69.2287L264.589 71.6527L265.143 75.1227L262.052 73.4522L258.923 75.0515L259.556 71.5951L257.067 69.1134ZM266.037 69.5709L263.318 69.1439L262.128 66.6622L260.882 69.1159L258.154 69.4801L260.103 71.4233L259.607 74.1301L262.057 72.8777L264.478 74.1861L264.044 71.4687L266.037 69.5709Z" fill="#455A64"/>
<path d="M298.439 157.26C298.438 156.372 298.398 115.9 298.339 56.1122L298.439 56.2123C276.479 56.2152 251.747 56.2186 225.676 56.2224H225.667L225.778 56.1122C225.77 93.9576 225.763 128.976 225.757 157.26L225.667 157.171C269.815 157.225 297.701 157.26 298.439 157.26C297.701 157.261 269.815 157.296 225.667 157.35H225.577V157.26C225.571 128.976 225.564 93.958 225.557 56.1122V56.002H225.667H225.675C251.747 56.0058 276.479 56.0092 298.439 56.0121H298.539V56.1122C298.48 115.9 298.44 156.373 298.439 157.26Z" fill="#263238"/>
<path d="M80.3318 56.1123H7.55981V157.26H80.3318V56.1123Z" fill="white"/>
<path d="M80.3318 56.1123H7.55981V92.7234H80.3318V56.1123Z" fill="#455A64"/>
<path d="M67.7314 101.685C67.7314 101.746 57.7267 101.795 45.3879 101.795C33.0448 101.795 23.0422 101.746 23.0422 101.685C23.0422 101.625 33.0448 101.575 45.3879 101.575C57.7267 101.575 67.7314 101.624 67.7314 101.685Z" fill="#263238"/>
<path d="M67.7314 111.545C67.7314 111.606 57.7267 111.656 45.3879 111.656C33.0448 111.656 23.0422 111.606 23.0422 111.545C23.0422 111.484 33.0448 111.435 45.3879 111.435C57.7267 111.435 67.7314 111.484 67.7314 111.545Z" fill="#263238"/>
<path d="M67.7314 121.405C67.7314 121.466 57.7267 121.516 45.3879 121.516C33.0448 121.516 23.0422 121.466 23.0422 121.405C23.0422 121.345 33.0448 121.295 45.3879 121.295C57.7267 121.295 67.7314 121.344 67.7314 121.405Z" fill="#263238"/>
<path d="M67.5474 149.154H23.8347C19.5362 149.154 16.0518 145.67 16.0518 141.371V140.556C16.0518 136.258 19.5362 132.773 23.8347 132.773H67.5474C71.8459 132.773 75.3303 136.258 75.3303 140.556V141.371C75.3303 145.67 71.8459 149.154 67.5474 149.154Z" fill="#455A64"/>
<path d="M37.1864 83.6867C37.3433 83.892 37.4218 84.14 37.4218 84.4304C37.4218 84.8544 37.2513 85.1818 36.91 85.4124C36.5687 85.6431 36.0751 85.758 35.4298 85.758H32.8154V80.9167H35.2912C35.9089 80.9167 36.3791 81.0308 36.7022 81.2589C37.0249 81.4875 37.1864 81.7953 37.1864 82.1824C37.1864 82.413 37.1301 82.6195 37.0173 82.8014C36.9041 82.9838 36.7438 83.1279 36.5365 83.2339C36.8129 83.3306 37.0296 83.482 37.1864 83.6867ZM34.1705 81.9059V82.8396H35.1114C35.5723 82.8396 35.8029 82.6827 35.8029 82.3694C35.8029 82.0607 35.5723 81.9059 35.1114 81.9059H34.1705ZM36.0383 84.2782C36.0383 83.9509 35.7987 83.7872 35.3192 83.7872H34.171V84.7692H35.3192C35.7983 84.7692 36.0383 84.6056 36.0383 84.2782Z" fill="white"/>
<path d="M41.3776 84.8178H39.3301L38.9498 85.7582H37.5527L39.6897 80.917H41.0384L43.1826 85.7582H41.758L41.3776 84.8178ZM40.9765 83.8078L40.3541 82.2585L39.7317 83.8078H40.9765Z" fill="white"/>
<path d="M44.1303 85.71C43.761 85.6129 43.4616 85.484 43.231 85.3225L43.6804 84.3129C43.8971 84.4558 44.1485 84.5711 44.4343 84.6585C44.72 84.7462 45.0016 84.7899 45.278 84.7899C45.8038 84.7899 46.0667 84.6585 46.0667 84.3956C46.0667 84.2574 45.9916 84.1548 45.8419 84.0878C45.6919 84.0212 45.451 83.9508 45.119 83.8766C44.7548 83.7986 44.4504 83.7142 44.2062 83.6243C43.9615 83.5344 43.7521 83.3903 43.5769 83.1919C43.4014 82.9934 43.3141 82.7263 43.3141 82.3896C43.3141 82.0945 43.3946 81.8283 43.5562 81.5908C43.7173 81.3534 43.9585 81.1656 44.2791 81.0269C44.5992 80.8887 44.9927 80.8196 45.4582 80.8196C45.7767 80.8196 46.09 80.8552 46.3987 80.9268C46.7078 80.9981 46.9795 81.1032 47.2149 81.2415L46.793 82.2582C46.3321 82.0093 45.8848 81.8847 45.451 81.8847C45.1788 81.8847 44.9808 81.9249 44.8561 82.0055C44.7319 82.0865 44.6696 82.1912 44.6696 82.3201C44.6696 82.4494 44.7434 82.5461 44.8909 82.611C45.0385 82.6754 45.2759 82.7424 45.6032 82.8115C45.9721 82.89 46.2778 82.9739 46.5199 83.0642C46.762 83.1541 46.9715 83.297 47.1491 83.4929C47.3264 83.6892 47.4154 83.9551 47.4154 84.2917C47.4154 84.5822 47.3349 84.845 47.1733 85.0799C47.0118 85.3152 46.7697 85.5031 46.447 85.6438C46.1243 85.7842 45.7321 85.8546 45.2712 85.8546C44.8795 85.855 44.4991 85.8067 44.1303 85.71Z" fill="white"/>
<path d="M48.0452 80.9167H49.4143V85.758H48.0452V80.9167Z" fill="white"/>
<path d="M51.437 85.5335C51.0333 85.3194 50.7166 85.0205 50.4859 84.638C50.2553 84.2556 50.1404 83.8218 50.1404 83.3376C50.1404 82.8534 50.2553 82.4201 50.4859 82.0376C50.7166 81.6547 51.0337 81.3562 51.437 81.1417C51.8402 80.9276 52.2956 80.8203 52.8031 80.8203C53.2458 80.8203 53.6443 80.8987 53.9996 81.0556C54.3545 81.2125 54.65 81.4385 54.8849 81.7336L54.0136 82.5218C53.6999 82.1436 53.3195 81.9549 52.8726 81.9549C52.6098 81.9549 52.3757 82.0126 52.1705 82.1279C51.9653 82.2433 51.8063 82.4056 51.6935 82.6155C51.5803 82.8254 51.5239 83.0662 51.5239 83.3384C51.5239 83.6107 51.5803 83.8515 51.6935 84.0614C51.8063 84.2712 51.9657 84.4336 52.1705 84.549C52.3757 84.6643 52.6098 84.722 52.8726 84.722C53.32 84.722 53.7003 84.5329 54.0136 84.1546L54.8849 84.9433C54.65 85.2384 54.3549 85.4644 53.9996 85.6213C53.6447 85.7781 53.2458 85.8566 52.8031 85.8566C52.296 85.8549 51.8406 85.7476 51.437 85.5335Z" fill="white"/>
<path d="M34.586 142.62C34.215 142.421 33.9232 142.144 33.7112 141.79C33.4988 141.437 33.3928 141.037 33.3928 140.591C33.3928 140.145 33.4988 139.745 33.7112 139.391C33.9232 139.037 34.215 138.761 34.586 138.562C34.957 138.362 35.3738 138.263 35.8372 138.263C36.2273 138.263 36.58 138.331 36.8955 138.468C37.2105 138.605 37.4755 138.802 37.6896 139.06L37.0206 139.678C36.7161 139.326 36.3388 139.15 35.8885 139.15C35.6099 139.15 35.361 139.212 35.1422 139.334C34.9235 139.456 34.753 139.626 34.6309 139.845C34.5088 140.064 34.4477 140.313 34.4477 140.591C34.4477 140.87 34.5088 141.119 34.6309 141.338C34.7534 141.556 34.9235 141.727 35.1422 141.849C35.361 141.971 35.6099 142.032 35.8885 142.032C36.3388 142.032 36.7161 141.854 37.0206 141.498L37.6896 142.116C37.4751 142.377 37.2092 142.577 36.8921 142.714C36.5745 142.851 36.2209 142.919 35.8308 142.919C35.3716 142.919 34.957 142.82 34.586 142.62Z" fill="white"/>
<path d="M41.462 139.716C41.7258 139.973 41.8576 140.355 41.8576 140.86V142.842H40.854V141.015C40.854 140.74 40.7938 140.536 40.6738 140.401C40.5538 140.266 40.38 140.198 40.1527 140.198C39.8996 140.198 39.6982 140.276 39.5481 140.433C39.398 140.59 39.3229 140.822 39.3229 141.131V142.841H38.3193V138.069H39.3229V139.741C39.4557 139.608 39.6164 139.506 39.8055 139.435C39.9941 139.365 40.1998 139.329 40.4228 139.329C40.8519 139.33 41.1983 139.459 41.462 139.716Z" fill="white"/>
<path d="M43.4689 142.665C43.1793 142.513 42.9533 142.302 42.7901 142.032C42.6268 141.761 42.5454 141.455 42.5454 141.111C42.5454 140.768 42.6268 140.462 42.7901 140.192C42.9529 139.921 43.1789 139.71 43.4689 139.558C43.7585 139.406 44.0854 139.33 44.45 139.33C44.8142 139.33 45.1403 139.406 45.4278 139.558C45.7148 139.71 45.9404 139.922 46.1032 140.192C46.266 140.462 46.3478 140.768 46.3478 141.111C46.3478 141.455 46.2664 141.761 46.1032 142.032C45.9404 142.302 45.7148 142.513 45.4278 142.665C45.1403 142.817 44.8147 142.893 44.45 142.893C44.0854 142.893 43.7585 142.818 43.4689 142.665ZM45.0835 141.81C45.2484 141.636 45.3311 141.404 45.3311 141.111C45.3311 140.82 45.2484 140.587 45.0835 140.414C44.9181 140.24 44.707 140.154 44.45 140.154C44.1926 140.154 43.9802 140.24 43.8132 140.414C43.6457 140.587 43.5622 140.82 43.5622 141.111C43.5622 141.404 43.6457 141.636 43.8132 141.81C43.9806 141.983 44.1926 142.07 44.45 142.07C44.707 142.07 44.9181 141.983 45.0835 141.81Z" fill="white"/>
<path d="M47.6815 142.665C47.3919 142.513 47.1659 142.302 47.0027 142.032C46.8395 141.761 46.7581 141.455 46.7581 141.111C46.7581 140.768 46.8395 140.462 47.0027 140.192C47.1655 139.921 47.3915 139.71 47.6815 139.558C47.9711 139.406 48.298 139.33 48.6627 139.33C49.0269 139.33 49.3529 139.406 49.6404 139.558C49.9275 139.71 50.1526 139.922 50.3158 140.192C50.4787 140.462 50.5605 140.768 50.5605 141.111C50.5605 141.455 50.4791 141.761 50.3158 142.032C50.153 142.302 49.9279 142.513 49.6404 142.665C49.3529 142.817 49.0273 142.893 48.6627 142.893C48.298 142.893 47.9711 142.818 47.6815 142.665ZM49.2961 141.81C49.4611 141.636 49.5437 141.404 49.5437 141.111C49.5437 140.82 49.4611 140.587 49.2961 140.414C49.1308 140.24 48.9196 140.154 48.6627 140.154C48.4053 140.154 48.1933 140.24 48.0258 140.414C47.8583 140.587 47.7748 140.82 47.7748 141.111C47.7748 141.404 47.8583 141.636 48.0258 141.81C48.1933 141.983 48.4053 142.07 48.6627 142.07C48.9196 142.07 49.1308 141.983 49.2961 141.81Z" fill="white"/>
<path d="M51.5507 142.787C51.2764 142.716 51.0576 142.627 50.8948 142.52L51.2293 141.8C51.3836 141.898 51.5702 141.979 51.789 142.041C52.0078 142.103 52.2219 142.134 52.4322 142.134C52.8566 142.134 53.069 142.029 53.069 141.819C53.069 141.721 53.011 141.65 52.8952 141.607C52.7795 141.564 52.6014 141.528 52.3614 141.497C52.0786 141.454 51.8445 141.405 51.6605 141.349C51.4761 141.294 51.3162 141.195 51.1814 141.053C51.0461 140.912 50.9787 140.71 50.9787 140.449C50.9787 140.23 51.0419 140.036 51.1687 139.867C51.295 139.697 51.4795 139.566 51.722 139.471C51.9641 139.376 52.2503 139.329 52.5806 139.329C52.8252 139.329 53.0682 139.356 53.3107 139.409C53.5528 139.463 53.7534 139.538 53.912 139.631L53.5774 140.346C53.273 140.174 52.9406 140.088 52.5802 140.088C52.3656 140.088 52.2049 140.118 52.0977 140.179C51.9904 140.239 51.937 140.316 51.937 140.41C51.937 140.517 51.9951 140.592 52.1108 140.635C52.2266 140.678 52.411 140.719 52.6641 140.757C52.9469 140.804 53.1789 140.855 53.3591 140.909C53.5393 140.963 53.6957 141.06 53.8284 141.201C53.9611 141.343 54.0277 141.54 54.0277 141.793C54.0277 142.007 53.9633 142.198 53.8348 142.365C53.7059 142.533 53.5185 142.662 53.2717 142.754C53.0254 142.847 52.7324 142.893 52.3936 142.893C52.1061 142.893 51.8255 142.858 51.5507 142.787Z" fill="white"/>
<path d="M58.015 141.395H55.3972C55.4442 141.609 55.5558 141.778 55.7317 141.903C55.9077 142.027 56.126 142.089 56.3876 142.089C56.5674 142.089 56.7273 142.062 56.8668 142.009C57.0063 141.955 57.136 141.87 57.256 141.755L57.7898 142.333C57.4638 142.707 56.9876 142.893 56.3618 142.893C55.9717 142.893 55.6266 142.817 55.3264 142.665C55.0262 142.512 54.7947 142.301 54.6319 142.031C54.4686 141.761 54.3872 141.454 54.3872 141.111C54.3872 140.772 54.4678 140.467 54.6285 140.195C54.7892 139.922 55.0101 139.71 55.2912 139.558C55.5723 139.406 55.8861 139.329 56.2337 139.329C56.5725 139.329 56.8791 139.402 57.1534 139.548C57.4277 139.694 57.6431 139.903 57.7996 140.175C57.956 140.448 58.0345 140.764 58.0345 141.124C58.034 141.137 58.0277 141.228 58.015 141.395ZM55.6673 140.282C55.5129 140.411 55.4184 140.587 55.3845 140.809H57.0889C57.0546 140.59 56.9605 140.416 56.8061 140.285C56.6518 140.154 56.4631 140.089 56.2401 140.089C56.0124 140.089 55.8216 140.154 55.6673 140.282Z" fill="white"/>
<path d="M18.496 103.523C18.3467 103.523 18.1966 103.471 18.0762 103.364L16.8309 102.269C16.5672 102.037 16.5414 101.635 16.7737 101.371C17.0061 101.108 17.408 101.082 17.6713 101.314L18.446 101.995L20.2022 100.056C20.4379 99.7957 20.8399 99.7757 21.1006 100.011C21.361 100.247 21.3809 100.649 21.1451 100.91L18.9679 103.314C18.842 103.453 18.6694 103.523 18.496 103.523Z" fill="#455A64"/>
<path d="M18.496 113.383C18.3467 113.383 18.1966 113.331 18.0762 113.225L16.8309 112.129C16.5672 111.897 16.5414 111.495 16.7737 111.231C17.0061 110.968 17.408 110.942 17.6713 111.174L18.446 111.855L20.2022 109.916C20.4379 109.656 20.8399 109.636 21.1006 109.872C21.361 110.108 21.3809 110.51 21.1451 110.77L18.9679 113.174C18.842 113.313 18.6694 113.383 18.496 113.383Z" fill="#455A64"/>
<path d="M18.496 123.244C18.3468 123.244 18.1967 123.192 18.0758 123.085L16.8305 121.989C16.5668 121.757 16.5414 121.355 16.7733 121.091C17.0056 120.828 17.4076 120.802 17.6709 121.034L18.4455 121.716L20.2018 119.776C20.4375 119.516 20.8394 119.496 21.1002 119.732C21.3605 119.968 21.3805 120.37 21.1447 120.63L18.9675 123.035C18.842 123.173 18.6694 123.244 18.496 123.244Z" fill="#455A64"/>
<path d="M46.7032 74.6547L43.9468 73.1652L41.1573 74.5911L41.722 71.5095L39.5037 69.297L42.6095 68.8819L44.0277 66.0886L45.3824 68.9137L48.4772 69.3996L46.2088 71.5608L46.7032 74.6547Z" fill="white"/>
<path d="M80.3319 157.26C80.331 156.372 80.2907 115.9 80.2318 56.1122L80.3319 56.2123C58.372 56.2152 33.6397 56.2186 7.56836 56.2224H7.55988L7.67012 56.1122C7.66249 93.9576 7.65528 128.976 7.64935 157.26L7.55946 157.171C51.7076 157.225 79.5932 157.26 80.3319 157.26C79.5937 157.261 51.7076 157.296 7.55988 157.35H7.46999V157.26C7.46406 128.976 7.45727 93.958 7.44922 56.1122V56.002H7.55946H7.56794C33.6393 56.0058 58.3716 56.0092 80.3314 56.0121H80.4319V56.1122C80.3726 115.9 80.3327 156.373 80.3319 157.26Z" fill="#263238"/>
<path d="M239.631 43.245C240.602 41.6266 239.865 39.2374 238.15 38.4483C238.506 36.1613 236.69 33.7657 234.392 33.4905C233.299 33.3595 232.192 33.6482 231.095 33.5617C230.04 33.4786 229.043 33.0542 228.003 32.8659C226.962 32.6777 225.759 32.7828 225.046 33.5643C224.254 34.4326 224.375 35.8513 225.004 36.8443C225.633 37.8373 226.654 38.5039 227.643 39.1394C227.054 39.078 226.528 39.6164 226.431 40.2003C226.334 40.7841 226.57 41.3752 226.887 41.8751C227.938 43.5346 229.983 44.506 231.934 44.2724L234.701 44.194C236.204 45.3362 238.659 44.8639 239.631 43.245Z" fill="#263238"/>
<path d="M230.88 45.9806C230.317 46.0688 229.754 45.6092 229.642 45.0499C229.529 44.4907 229.813 43.8975 230.266 43.5507C230.719 43.2034 231.312 43.0787 231.882 43.1059C232.452 43.133 233.005 43.3009 233.544 43.4896C234.375 43.7809 235.192 44.1277 235.929 44.6085C236.191 44.779 236.449 44.9732 236.611 45.2399C236.773 45.507 236.822 45.8623 236.66 46.1294C236.433 46.5051 235.92 46.5611 235.481 46.5653C233.843 46.5818 232.205 46.4495 230.591 46.171" fill="#BB2525"/>
<path d="M229.97 45.0453C229.644 41.9417 225.262 39.1564 223.372 39.6542C222.475 37.8365 219.974 37.0292 218.183 37.9798C216.464 37.2166 214.745 36.4538 213.026 35.691C212.147 35.3005 211.219 34.9016 210.261 34.9864C209.303 35.0712 208.33 35.825 208.364 36.7867C206.5 36.0451 204.175 37.9251 204.511 39.9031C203.379 40.1062 202.598 41.4358 202.973 42.5234C200.667 43.0937 198.46 44.0617 196.478 45.371C195.649 45.9188 194.811 46.5938 194.538 47.5495C194.266 48.5052 194.874 49.7483 195.868 49.7564C194.978 50.0388 194.297 50.8868 194.213 51.817C193.448 51.2836 192.371 52.2817 192.487 53.2069C192.602 54.1325 193.399 54.8054 194.163 55.3396C194.928 55.8739 195.771 56.4327 196.074 57.315C195.881 57.5194 195.684 57.6017 195.478 57.6118C193.417 57.7136 191.724 59.2531 191.698 61.3168C191.696 61.508 191.694 61.6852 191.692 61.8434C191.674 62.7813 192.336 64.1381 192.75 64.9797C193.8 67.1137 194.935 67.6891 196.631 69.3558C195.215 70.1996 196.308 75.1718 201.79 75.0963C207.44 82.1513 211.986 86.5922 219.259 91.9588C220.297 92.7246 221.649 93.5009 222.794 92.9073C223.473 93.7494 224.671 94.0258 225.742 93.8723C226.813 93.7188 227.793 93.2045 228.749 92.6978C230.903 93.5361 233.564 92.8178 235.004 91.0086C236.923 90.9518 238.8 90.0445 240.038 88.5766C242.18 89.3275 244.811 87.7646 245.176 85.5238C246.374 83.1023 247.168 80.4816 247.515 77.8023C248.896 78.4196 250.524 77.1413 250.854 75.6649C251.183 74.1885 250.626 72.6744 250.078 71.2646C250.795 72.1559 252.393 71.6064 252.839 70.5532C253.285 69.5 252.932 68.2886 252.49 67.2337C251.842 65.6878 251.006 64.2207 250.005 62.8754C250.733 60.9949 250.039 57.7374 249.08 55.9642C245.212 48.8122 241.581 45.0555 229.97 45.0453Z" fill="#263238"/>
<path d="M217.475 50.3548C218.299 49.0446 219.988 48.582 221.364 49.2905L236.782 54.627C241.311 56.9586 240.705 64.0216 238.183 68.4477C235.382 73.3648 231.768 79.2584 228.896 82.4147C223.121 88.7611 216.23 85.4068 216.23 85.4068C216.236 85.3971 212.818 90.5199 212.818 90.5199L208.897 96.5021C207.109 94.8408 196.262 83.1732 196.262 83.1732L217.475 50.3548Z" fill="#FFBF9D"/>
<path d="M224.016 74.0851C224.048 74.0266 224.725 74.3204 225.792 74.8411C226.059 74.9789 226.328 75.0844 226.482 74.942C226.66 74.7999 226.731 74.4624 226.801 74.0927C226.963 73.3346 227.133 72.54 227.31 71.7069C228.061 68.3272 228.78 65.6144 228.916 65.6458C229.052 65.6772 228.553 68.4421 227.802 71.8218C227.611 72.6511 227.429 73.4423 227.254 74.1987C227.162 74.5443 227.114 74.9729 226.74 75.2634C226.551 75.4058 226.278 75.4207 226.09 75.3588C225.898 75.3024 225.756 75.2133 225.628 75.1391C224.601 74.5421 223.984 74.1432 224.016 74.0851Z" fill="#263238"/>
<path d="M216.229 85.4063C216.229 85.4063 212.13 83.2778 209.271 77.3406C209.271 77.3406 206.95 83.3677 214.603 87.8435L216.229 85.4063Z" fill="#FF9A6C"/>
<path d="M227.602 60.6117C227.331 60.8144 226.438 60.0478 225.2 59.433C223.975 58.7936 222.829 58.5222 222.834 58.1839C222.841 58.0253 223.166 57.8812 223.709 57.8693C224.248 57.8557 225 57.9994 225.739 58.3751C226.477 58.7516 227.036 59.2744 227.342 59.7188C227.652 60.1648 227.726 60.5125 227.602 60.6117Z" fill="#263238"/>
<path d="M236.822 67.0394C236.504 67.1484 235.982 66.4759 235.179 65.9336C234.395 65.3634 233.585 65.1013 233.579 64.7651C233.584 64.6069 233.838 64.4556 234.276 64.442C234.709 64.4263 235.315 64.5794 235.86 64.9614C236.405 65.3443 236.756 65.862 236.888 66.2741C237.025 66.6905 236.968 66.9809 236.822 67.0394Z" fill="#263238"/>
<path d="M238.886 73.974C239.598 72.8513 240.05 71.5135 239.882 70.1953C239.789 69.4728 239.515 68.7758 239.497 68.0478C239.457 66.4747 240.584 65.1451 241.146 63.6755C241.87 61.7815 241.603 59.5385 240.454 57.8675C239.498 56.4772 237.994 55.4855 237.248 53.9718C236.697 52.8529 236.611 51.5393 235.995 50.4547C234.795 48.3428 232.054 47.7611 229.634 47.5474C228.329 48.6485 228.34 50.4255 228.352 52.1333C228.365 53.8412 229.172 55.5266 230.494 56.6082C231.52 57.4473 232.947 58.1092 233.149 59.4189C233.361 60.7965 232.029 61.9922 232.014 63.3859C231.994 65.3778 234.476 66.4069 235.281 68.2288C235.903 69.6356 235.425 71.2507 235.156 72.7648C234.887 74.2793 234.978 76.1275 236.267 76.9679C237.216 76.0376 238.175 75.0963 238.886 73.974Z" fill="#263238"/>
<path d="M230.545 51.9256C227.446 49.6152 223.895 47.9133 220.152 46.9449C219.037 46.6561 217.825 46.4382 216.758 46.8715C215.819 47.2527 215.143 48.0787 214.559 48.9067C212.733 51.5003 211.495 55.3961 210.759 58.4815L212.582 62.7228C215.478 63.9231 217.425 58.8334 218.851 56.607C221.124 57.0954 223.642 56.1448 225.025 54.2758C227.093 54.3899 229.193 53.4953 230.545 51.9256Z" fill="#263238"/>
<path d="M213.205 61.767C214.169 60.2262 212.57 58.6366 210.759 58.4823C209.764 58.3975 208.648 58.8431 207.61 60.4691C204.843 64.8058 209.767 66.6892 209.854 66.5701C209.908 66.4954 212.076 63.5711 213.205 61.767Z" fill="#FFBF9D"/>
<path d="M209.578 64.0812C209.568 64.0549 209.468 64.0859 209.304 64.063C209.143 64.0405 208.903 63.943 208.731 63.7145C208.38 63.2536 208.459 62.2805 208.937 61.4851C209.178 61.0835 209.5 60.7605 209.839 60.5387C210.174 60.3059 210.52 60.2152 210.777 60.3216C211.041 60.4149 211.116 60.6574 211.091 60.813C211.071 60.9716 210.989 61.0403 211.007 61.0628C211.012 61.0814 211.146 61.0496 211.226 60.8478C211.262 60.7503 211.277 60.6154 211.228 60.4675C211.178 60.3165 211.053 60.1758 210.881 60.0905C210.532 59.9002 210.034 60.0155 209.663 60.2589C209.272 60.4921 208.9 60.8491 208.629 61.3006C208.099 62.1923 208.025 63.2956 208.536 63.8764C208.79 64.1508 209.103 64.2211 209.3 64.2025C209.503 64.1809 209.588 64.0986 209.578 64.0812Z" fill="#FF9A6C"/>
<path d="M207.851 65.4978C207.853 65.4991 207.835 65.5148 207.799 65.5445C207.76 65.5686 207.716 65.6297 207.629 65.6628C207.471 65.7607 207.184 65.8095 206.834 65.7467C206.482 65.6853 206.073 65.5072 205.649 65.218C205.435 65.0755 205.22 64.9 205.011 64.6922C204.803 64.4845 204.596 64.2441 204.442 63.9456L204.509 63.9566C204.01 64.4586 203.194 64.8008 202.316 64.6723C201.446 64.5511 200.57 63.8824 200.261 62.8915L200.341 62.9301C200.085 63.0285 199.786 63.0166 199.532 62.9004C199.274 62.7915 199.057 62.5943 198.898 62.3573C198.74 62.1194 198.652 61.8218 198.673 61.525C198.692 61.2294 198.796 60.9403 198.957 60.6863C199.28 60.1775 199.818 59.8061 200.413 59.625C201.009 59.4338 201.646 59.3888 202.283 59.3481L202.22 59.4499C202.018 58.9911 202.061 58.445 202.272 57.9863C202.481 57.5237 202.833 57.1204 203.278 56.8436C203.723 56.5701 204.236 56.4158 204.756 56.3305C205.278 56.2449 205.811 56.2245 206.344 56.2076L206.27 56.2966C206.183 55.7658 206.385 55.2095 206.732 54.7923C207.078 54.3704 207.559 54.0511 208.095 53.8951C209.123 53.5991 210.175 53.7819 211.149 53.9434L211.064 53.9913C211.498 52.9169 212.48 52.13 213.559 51.9171C214.642 51.7038 215.77 52.0473 216.532 52.7456L216.416 52.7706C216.791 51.9052 217.613 51.3502 218.442 51.1505C219.277 50.9432 220.174 51.0814 220.825 51.5559L220.735 51.5707C221.287 50.8084 222.185 50.4603 222.991 50.4369C223.807 50.4085 224.577 50.707 225.079 51.2124L225.002 51.2188C225.308 50.8228 225.716 50.573 226.111 50.3945C226.511 50.219 226.914 50.1147 227.295 50.0867C228.06 50.0045 228.718 50.2215 229.163 50.5001C229.219 50.5349 229.274 50.5692 229.327 50.6023C229.377 50.64 229.421 50.682 229.466 50.7193C229.552 50.7986 229.642 50.8618 229.707 50.9402C229.833 51.0988 229.959 51.2179 230.024 51.3396C230.092 51.4524 230.145 51.541 230.185 51.6068C230.22 51.667 230.237 51.6979 230.235 51.6996C230.233 51.7009 230.211 51.6716 230.172 51.614C230.13 51.5504 230.074 51.4647 230.001 51.3557C229.932 51.2375 229.804 51.123 229.677 50.9695C229.612 50.894 229.521 50.8334 229.435 50.7571C229.39 50.721 229.346 50.6803 229.297 50.6443C229.244 50.6129 229.19 50.5803 229.134 50.5468C228.693 50.2809 228.05 50.0774 227.303 50.1656C226.93 50.197 226.537 50.3025 226.149 50.4772C225.764 50.6536 225.369 50.9033 225.085 51.2777L225.049 51.3248L225.008 51.2841C224.523 50.8037 223.783 50.5205 222.995 50.5527C222.217 50.5794 221.358 50.9207 220.84 51.6445L220.802 51.6971L220.75 51.6593C220.132 51.2124 219.275 51.0818 218.475 51.2837C217.68 51.4779 216.899 52.0125 216.55 52.8274L216.509 52.9212L216.434 52.8525C215.705 52.1872 214.62 51.8595 213.589 52.0651C212.562 52.2686 211.619 53.0255 211.209 54.0486L211.185 54.1067L211.124 54.0965C210.15 53.9345 209.12 53.7615 208.14 54.0452C207.634 54.1919 207.178 54.495 206.853 54.8911C206.527 55.2837 206.345 55.7933 206.424 56.2737L206.438 56.3606L206.35 56.3632C205.295 56.3933 204.217 56.4493 203.358 56.9729C202.941 57.232 202.605 57.6144 202.409 58.0473C202.211 58.4781 202.173 58.9767 202.355 59.3927L202.397 59.4881L202.293 59.4944C201.657 59.533 201.031 59.5771 200.457 59.7599C199.883 59.9333 199.378 60.2826 199.072 60.7601C198.762 61.2273 198.696 61.8497 199.006 62.2886C199.284 62.7274 199.838 63.0026 200.298 62.8194L200.358 62.7953L200.377 62.858C200.665 63.8014 201.502 64.451 202.332 64.5714C203.173 64.7007 203.965 64.3772 204.45 63.8981L204.492 63.857L204.518 63.9091C204.663 64.1962 204.864 64.4349 205.066 64.6405C205.269 64.847 205.478 65.0225 205.687 65.1654C206.101 65.4559 206.501 65.6373 206.843 65.7039C207.184 65.7717 207.462 65.7323 207.619 65.6437C207.778 65.561 207.845 65.4898 207.851 65.4978Z" fill="#455A64"/>
<path d="M195.21 49.5817C195.21 49.5817 195.199 49.4554 195.235 49.2171C195.274 48.9809 195.363 48.6269 195.61 48.2338C195.852 47.8463 196.266 47.4083 196.895 47.1738C197.511 46.9398 198.337 46.9093 199.097 47.304L199.025 47.3286C199.352 46.5942 200.005 45.9112 200.886 45.5457C201.323 45.3587 201.816 45.2544 202.326 45.2684C202.842 45.2747 203.342 45.4482 203.852 45.5546C204.108 45.608 204.37 45.644 204.632 45.6245C204.893 45.6067 205.147 45.5219 205.382 45.3867C205.856 45.1212 206.256 44.6926 206.8 44.4318C207.876 43.9226 209.319 44.0977 210.244 45.0059L210.122 45.0246C210.672 43.9756 211.738 43.1437 212.982 42.9016C214.278 42.6506 215.634 43.0687 216.548 43.9133L216.429 43.9319C217.188 42.6226 218.726 41.9374 220.086 42.1465C221.455 42.3563 222.549 43.3468 222.962 44.4844L222.891 44.4424C223.627 44.3258 224.344 44.4276 224.987 44.6057C225.629 44.791 226.218 45.0373 226.728 45.3417C227.766 45.9247 228.529 46.6477 229.076 47.2921C229.618 47.9459 229.943 48.5366 230.103 48.9606C230.199 49.1662 230.226 49.3413 230.264 49.4511C230.295 49.5635 230.307 49.6224 230.307 49.6224C230.293 49.6263 230.237 49.3909 230.067 48.9758C229.896 48.5603 229.565 47.9807 229.019 47.3409C228.469 46.71 227.707 46.0019 226.676 45.4342C226.17 45.1369 225.587 44.8986 224.955 44.7206C224.324 44.5493 223.623 44.4551 222.912 44.5713L222.859 44.5802L222.84 44.5298C222.439 43.4388 221.377 42.4861 220.065 42.2902C218.765 42.0918 217.283 42.757 216.563 44.0082L216.515 44.0918L216.444 44.0265C215.566 43.2158 214.255 42.813 213.012 43.0555C211.818 43.287 210.788 44.0901 210.258 45.0967L210.21 45.1887L210.136 45.1153C209.266 44.2559 207.884 44.0837 206.863 44.565C206.351 44.8062 205.951 45.2306 205.452 45.5109C205.204 45.6525 204.924 45.7458 204.642 45.7636C204.361 45.7831 204.086 45.7433 203.825 45.6877C203.302 45.5762 202.814 45.4049 202.323 45.3973C201.833 45.3816 201.356 45.4787 200.933 45.6572C200.078 46.0057 199.441 46.6633 199.12 47.3701L199.097 47.4202L199.048 47.3947C198.324 47.0102 197.522 47.0297 196.923 47.2497C196.312 47.4694 195.903 47.8887 195.658 48.2644C195.409 48.6451 195.312 48.9907 195.265 49.2226C195.219 49.4562 195.218 49.5826 195.21 49.5817Z" fill="#455A64"/>
<path d="M234.206 79.4899C234.209 79.4996 234.201 79.3135 234.437 79.1371C234.552 79.0531 234.722 78.987 234.93 78.9683C235.139 78.9446 235.379 78.9997 235.631 79.0815C235.884 79.1591 236.161 79.2736 236.477 79.2796C236.791 79.2859 237.13 79.168 237.428 78.9501C237.731 78.7356 237.993 78.4299 238.222 78.0733C238.456 77.7192 238.665 77.3164 238.946 76.9268C239.509 76.1314 240.423 75.5721 241.254 74.8488C241.667 74.4854 242.047 74.0461 242.3 73.5204C242.55 73.001 242.641 72.3658 242.391 71.804C242.156 71.2375 241.689 70.7813 241.289 70.2547C241.09 69.9901 240.903 69.6997 240.794 69.3681C240.679 69.0374 240.683 68.6715 240.744 68.3293C240.871 67.6352 241.224 67.0183 241.49 66.3743C241.626 66.0533 241.74 65.7192 241.772 65.3766C241.81 65.0336 241.726 64.6893 241.547 64.395C241.287 64.0011 240.872 63.7311 240.51 63.405C240.327 63.2422 240.154 63.0582 240.032 62.8373C239.909 62.6176 239.846 62.3632 239.853 62.116C239.861 61.617 240.054 61.1731 240.186 60.7376C240.331 60.3047 240.385 59.8591 240.342 59.4207C240.263 58.5451 239.814 57.7374 239.156 57.2434C238.5 56.7448 237.679 56.526 236.927 56.6057L236.836 56.6155L236.854 56.5256C237.157 55.0217 236.68 53.5712 235.924 52.6044C235.543 52.1164 235.084 51.7458 234.62 51.4787C234.157 51.2095 233.685 51.0437 233.246 50.9699C232.362 50.8219 231.657 51.025 231.223 51.2091C231 51.2977 230.841 51.3893 230.733 51.4512C230.683 51.4783 230.643 51.4999 230.609 51.5182C230.581 51.5326 230.566 51.5394 230.565 51.5377C230.565 51.5364 230.577 51.5266 230.604 51.5093C230.636 51.4889 230.674 51.4643 230.722 51.4334C230.827 51.3651 230.984 51.2671 231.207 51.1713C231.64 50.9737 232.354 50.7533 233.26 50.8928C233.708 50.9623 234.192 51.1264 234.668 51.3965C235.144 51.6644 235.616 52.0393 236.011 52.5366C236.792 53.5211 237.291 55.0017 236.986 56.5523L236.913 56.4722C237.7 56.3857 238.556 56.6095 239.243 57.1289C239.935 57.645 240.408 58.4904 240.493 59.4063C240.539 59.8621 240.481 60.3403 240.332 60.783C240.198 61.2256 240.013 61.6628 240.008 62.1173C239.988 62.5773 240.256 62.9831 240.615 63.2892C240.965 63.606 241.391 63.8782 241.679 64.3102C241.878 64.6342 241.969 65.0209 241.929 65.391C241.893 65.7612 241.773 66.108 241.635 66.4345C241.363 67.0883 241.016 67.7001 240.895 68.3573C240.837 68.6821 240.833 69.0171 240.939 69.3223C241.04 69.6293 241.215 69.9066 241.41 70.1653C241.798 70.6817 242.275 71.1455 242.526 71.7493C242.649 72.0478 242.708 72.3751 242.676 72.6902C242.649 73.0052 242.555 73.3058 242.425 73.5797C242.159 74.1271 241.765 74.5765 241.341 74.9463C240.491 75.6764 239.588 76.2229 239.037 76.9925C238.759 77.3707 238.546 77.7714 238.306 78.1284C238.071 78.4879 237.797 78.8034 237.48 79.0222C237.168 79.2448 236.81 79.3661 236.477 79.3546C236.142 79.3427 235.863 79.2206 235.614 79.1396C235.364 79.054 235.136 78.9972 234.935 79.0154C234.735 79.0285 234.57 79.0875 234.457 79.1638C234.224 79.322 234.219 79.5005 234.206 79.4899Z" fill="#455A64"/>
<path d="M246.947 78.883C246.945 78.8825 246.949 78.8457 246.96 78.774C246.974 78.6951 246.992 78.5904 247.014 78.4577C247.067 78.1711 247.142 77.7644 247.238 77.2446C247.332 76.718 247.474 76.0765 247.558 75.3235C247.636 74.5794 247.655 73.6796 247.244 72.8215C247.039 72.3953 246.737 71.9934 246.472 71.5372C246.341 71.3086 246.219 71.0636 246.144 70.7935C246.066 70.5251 246.052 70.2283 246.112 69.9433C246.227 69.3688 246.575 68.8744 246.74 68.3139C246.82 68.0349 246.844 67.736 246.751 67.4553C246.665 67.1721 246.49 66.916 246.305 66.662C246.122 66.4072 245.917 66.1519 245.773 65.8479C245.619 65.5482 245.575 65.1861 245.629 64.8477C245.746 64.1613 246.154 63.5889 246.441 62.9753C246.584 62.6692 246.707 62.3457 246.716 62.0116C246.732 61.677 246.597 61.3506 246.37 61.0996C245.905 60.5899 245.178 60.3554 244.639 59.8191C244.371 59.5481 244.197 59.1848 244.144 58.8159C244.089 58.4462 244.114 58.0798 244.144 57.7249C244.174 57.3696 244.214 57.0198 244.206 56.6768C244.2 56.3346 244.137 55.9963 243.972 55.7105C243.641 55.1241 242.989 54.8405 242.39 54.5873C241.786 54.3334 241.153 54.0722 240.71 53.5816C240.266 53.1012 240.014 52.5136 239.787 51.9611C239.558 51.4078 239.364 50.854 239.054 50.3957C238.423 49.4769 237.515 48.8828 236.641 48.5309C235.758 48.1773 234.88 48.0984 234.13 48.151C233.374 48.2057 232.752 48.4249 232.257 48.6161C231.773 48.8396 231.406 49.0355 231.177 49.1991C231.063 49.2708 230.974 49.3276 230.907 49.3704C230.845 49.4082 230.813 49.4268 230.811 49.4247C230.809 49.4226 230.839 49.3997 230.897 49.3577C230.963 49.3115 231.05 49.2504 231.16 49.1729C231.385 49.0003 231.749 48.7942 232.233 48.5606C232.729 48.3583 233.356 48.1277 234.123 48.0641C234.884 48.0022 235.779 48.0743 236.682 48.4283C237.575 48.7815 238.505 49.3785 239.162 50.324C239.487 50.8019 239.683 51.3582 239.915 51.9094C240.143 52.4589 240.393 53.0304 240.816 53.4845C241.233 53.9454 241.84 54.1968 242.449 54.4504C242.753 54.5801 243.067 54.7111 243.362 54.8947C243.655 55.0766 243.928 55.3209 244.106 55.6359C244.288 55.9496 244.355 56.3177 244.36 56.6734C244.369 57.0313 244.329 57.3857 244.299 57.7389C244.269 58.0913 244.247 58.4466 244.299 58.7926C244.35 59.1381 244.505 59.4599 244.751 59.711C245.25 60.2151 245.977 60.4479 246.486 60.9969C246.736 61.2721 246.89 61.6448 246.872 62.0162C246.86 62.3872 246.728 62.7281 246.58 63.0419C246.283 63.6681 245.884 64.235 245.777 64.8719C245.728 65.1861 245.765 65.5053 245.906 65.7856C246.039 66.0697 246.237 66.3203 246.422 66.5781C246.607 66.8346 246.793 67.1034 246.885 67.4146C246.988 67.7241 246.958 68.0591 246.872 68.3529C246.693 68.9427 246.347 69.4303 246.239 69.9696C246.114 70.509 246.321 71.036 246.577 71.4778C246.833 71.9268 247.136 72.3339 247.344 72.774C247.762 73.6661 247.731 74.5845 247.645 75.3337C247.551 76.0926 247.4 76.7316 247.297 77.2565C247.189 77.7738 247.105 78.1787 247.045 78.4641C247.016 78.5955 246.993 78.6989 246.976 78.7774C246.96 78.8478 246.95 78.8838 246.947 78.883Z" fill="#455A64"/>
<path d="M245.665 71.3245C245.666 71.322 245.695 71.336 245.751 71.3665C245.8 71.4038 245.88 71.4627 245.937 71.5755C246.053 71.7947 246.066 72.2064 245.818 72.6126C245.69 72.8149 245.492 72.9874 245.279 73.1706C245.067 73.3538 244.826 73.5454 244.651 73.8138C244.476 74.0822 244.407 74.4286 244.388 74.7945C244.368 75.1621 244.396 75.5573 244.346 75.9762C244.308 76.39 244.1 76.8514 243.693 77.0994C243.304 77.3576 242.832 77.4683 242.445 77.7375C242.054 78.0042 241.834 78.4693 241.731 78.9654C241.618 79.4632 241.583 79.9991 241.436 80.5368C241.365 80.8052 241.254 81.074 241.082 81.3093C240.91 81.545 240.68 81.7384 240.426 81.8842C239.911 82.1738 239.331 82.3053 238.776 82.499C238.225 82.6864 237.67 82.9731 237.383 83.4997C237.089 84.0191 237.042 84.6546 236.872 85.2682C236.786 85.576 236.666 85.8826 236.473 86.1454C236.278 86.4062 236.018 86.6089 235.737 86.7526C235.171 87.0397 234.561 87.141 233.988 87.2813C233.413 87.4183 232.861 87.593 232.409 87.9339C231.948 88.2578 231.542 88.6581 231.04 88.918C230.791 89.0464 230.516 89.1325 230.237 89.1393C229.957 89.1486 229.69 89.0757 229.443 88.9977C229.195 88.9188 228.957 88.8315 228.717 88.7861C228.477 88.7458 228.236 88.7382 227.999 88.7658C227.527 88.8264 227.088 88.9926 226.674 89.1639C226.258 89.3356 225.86 89.5124 225.463 89.6417C224.668 89.9101 223.869 89.8715 223.242 89.6608C222.61 89.4564 222.123 89.1295 221.788 88.8082C221.451 88.4859 221.248 88.1815 221.134 87.9657C221.021 87.749 220.981 87.6269 220.981 87.6269C221.007 87.6065 221.152 88.134 221.829 88.7636C222.165 89.0732 222.647 89.3861 223.268 89.5777C223.885 89.7757 224.655 89.805 225.429 89.537C225.818 89.4068 226.211 89.2288 226.627 89.0532C227.043 88.8785 227.49 88.7043 227.984 88.6381C228.231 88.6072 228.487 88.614 228.742 88.6555C228.996 88.7026 229.24 88.7908 229.484 88.8671C229.728 88.943 229.979 89.0096 230.233 88.999C230.487 88.9917 230.739 88.9129 230.974 88.7908C231.448 88.5448 231.851 88.148 232.323 87.813C232.79 87.4577 233.376 87.2707 233.952 87.1334C234.53 86.9917 235.131 86.8879 235.665 86.6157C235.93 86.4795 236.169 86.2926 236.348 86.0526C236.525 85.8117 236.638 85.5251 236.721 85.2275C236.888 84.6326 236.932 83.9869 237.248 83.4238C237.402 83.1439 237.635 82.9124 237.896 82.742C238.157 82.5711 238.443 82.4537 238.725 82.3549C239.291 82.1594 239.864 82.0288 240.351 81.7549C240.593 81.6175 240.804 81.4395 240.962 81.2228C241.121 81.007 241.228 80.7564 241.297 80.4978C241.441 79.9805 241.478 79.4458 241.596 78.9345C241.703 78.4274 241.943 77.9177 242.37 77.6307C242.789 77.3466 243.26 77.2406 243.626 76.9981C244.004 76.7687 244.192 76.3616 244.236 75.9614C244.288 75.559 244.264 75.1638 244.288 74.789C244.311 74.4159 244.386 74.0504 244.577 73.7663C244.766 73.4844 245.016 73.2936 245.23 73.1142C245.445 72.9357 245.642 72.7678 245.766 72.58C246.011 72.1967 246.01 71.8007 245.907 71.5895C245.799 71.3728 245.654 71.3351 245.665 71.3245Z" fill="#455A64"/>
<path d="M220.018 73.3182C220.334 73.1232 220.75 73.2202 220.958 73.5285C221.597 74.4761 222.235 75.4234 222.874 76.371L223.088 76.6869C222.631 77.0562 221.951 77.5768 221.407 77.7969C220.862 78.0165 220.216 78.0628 219.702 77.7782C219.315 77.5646 218.967 77.1193 218.801 76.7106C218.511 75.9945 218.27 75.2605 218.598 74.5609C218.83 74.064 219.551 73.6057 220.018 73.3182Z" fill="#FF9A6C"/>
<path d="M205.882 63.0378C205.882 63.0378 205.577 62.9301 204.999 62.9475C204.434 62.9653 203.559 63.1688 202.787 63.8803C202.401 64.2267 202.057 64.6977 201.832 65.2701C201.619 65.8434 201.522 66.5074 201.604 67.1913C201.678 67.8739 201.925 68.5778 202.364 69.1887C202.797 69.8023 203.443 70.2979 204.191 70.571C204.938 70.8462 205.742 70.9059 206.478 70.7508C207.216 70.6007 207.872 70.225 208.361 69.7399C209.345 68.7567 209.678 67.4321 209.521 66.4094C209.438 65.8896 209.226 65.4626 209.016 65.1132C208.802 64.7634 208.563 64.4976 208.349 64.3055C208.133 64.1143 207.938 63.9973 207.799 63.9371C207.66 63.8777 207.581 63.8608 207.58 63.8654C207.569 63.8862 207.89 63.9668 208.297 64.3619C208.498 64.5578 208.721 64.8237 208.921 65.1701C209.118 65.5148 209.314 65.9371 209.383 66.4285C209.516 67.4105 209.18 68.6782 208.233 69.6102C207.763 70.0694 207.142 70.4205 206.439 70.5612C205.739 70.7062 204.971 70.6481 204.259 70.3857C203.546 70.1249 202.935 69.6577 202.52 69.076C202.101 68.4963 201.86 67.8239 201.784 67.1701C201.701 66.515 201.789 65.8781 201.986 65.3274C202.193 64.78 202.516 64.3225 202.882 63.9824C203.613 63.2845 204.452 63.0649 205.005 63.0242C205.567 62.9839 205.879 63.0619 205.882 63.0378Z" fill="#E0E0E0"/>
<path d="M223.051 66.3747C222.744 66.878 222.065 67.0332 221.534 66.7224C221.003 66.412 220.82 65.7535 221.127 65.2498C221.434 64.7465 222.113 64.5909 222.644 64.9009C223.175 65.2117 223.358 65.8714 223.051 66.3747Z" fill="#263238"/>
<path d="M231.911 72.5575C231.604 73.0608 230.925 73.216 230.393 72.9052C229.863 72.5953 229.68 71.9364 229.987 71.4327C230.294 70.9294 230.973 70.7738 231.503 71.0837C232.035 71.3945 232.218 72.0543 231.911 72.5575Z" fill="#263238"/>
<path d="M234.449 70.1182C234.264 70.1916 233.913 69.2232 232.954 68.6805C232.006 68.1229 230.985 68.3006 230.957 68.1038C230.94 68.0139 231.188 67.8325 231.637 67.7451C232.082 67.6565 232.735 67.6959 233.329 68.0385C233.923 68.382 234.282 68.9251 234.425 69.3525C234.573 69.7854 234.537 70.0886 234.449 70.1182Z" fill="#263238"/>
<path d="M225.444 64.7189C225.222 64.7702 224.889 63.6297 223.815 62.8682C222.753 62.0905 221.548 62.1223 221.531 61.898C221.518 61.7946 221.82 61.6313 222.353 61.608C222.879 61.5809 223.638 61.7314 224.304 62.211C224.969 62.6918 225.344 63.3574 225.477 63.8586C225.614 64.3661 225.549 64.6994 225.444 64.7189Z" fill="#263238"/>
<path d="M220.529 77.8815C220.531 77.8959 220.373 77.9413 220.09 77.8866C219.808 77.8357 219.416 77.6419 219.064 77.2671C218.718 76.891 218.396 76.3504 218.278 75.6686C218.217 75.3303 218.249 74.9372 218.401 74.5828C218.551 74.2262 218.808 73.9158 219.107 73.6627C219.406 73.4062 219.73 73.2124 220.053 73.0453C220.22 72.9635 220.445 72.8736 220.688 72.9648C220.922 73.0653 221.016 73.2539 221.103 73.382C221.43 73.9022 221.736 74.3898 222.019 74.8406C222.532 75.6767 222.83 76.2071 222.79 76.2334C222.75 76.2597 222.38 75.7772 221.814 74.9758C221.511 74.5374 221.185 74.0638 220.836 73.558C220.651 73.2552 220.516 73.1806 220.207 73.3489C219.907 73.5092 219.601 73.6958 219.332 73.9268C218.776 74.378 218.49 75.0212 218.595 75.6233C218.681 76.2266 218.955 76.7443 219.248 77.1047C219.548 77.4655 219.879 77.6708 220.127 77.7564C220.376 77.8454 220.53 77.8484 220.529 77.8815Z" fill="#263238"/>
<path d="M258.935 61.3879C258.891 61.4032 258.836 60.7922 258.274 59.9086C257.989 59.477 257.574 58.9788 256.969 58.5607C256.373 58.1393 255.581 57.7941 254.667 57.7322L254.535 57.7233L254.549 57.5902C254.647 56.6061 254.325 55.474 253.571 54.5509C252.833 53.6338 251.645 52.9003 250.308 52.8978L250.142 52.8973L250.141 52.732C250.132 51.0932 249.439 49.3145 248.141 48.0014C247.148 46.9872 245.848 46.3677 244.546 46.146C243.242 45.9204 241.941 46.0782 240.845 46.5166L240.767 46.5475L240.698 46.5013C239.394 45.6325 238.006 45.1233 236.737 44.9058C235.468 44.6667 234.322 44.7027 233.396 44.8176C231.533 45.0695 230.551 45.619 230.531 45.5571C230.527 45.549 230.586 45.5147 230.705 45.4557C230.825 45.3998 230.998 45.3056 231.237 45.2123C231.711 45.0211 232.428 44.7816 233.369 44.6315C234.308 44.4877 235.478 44.4254 236.782 44.6488C238.085 44.8507 239.519 45.3552 240.874 46.241L240.727 46.2257C241.874 45.7555 243.236 45.5812 244.604 45.8119C245.968 46.037 247.343 46.6879 248.389 47.7563C249.754 49.1373 250.474 51.0033 250.474 52.7294L250.307 52.5641C251.772 52.5768 253.034 53.3803 253.807 54.3618C254.597 55.3506 254.928 56.5649 254.803 57.6186L254.685 57.4765C255.656 57.5588 256.479 57.9412 257.089 58.3954C257.708 58.8469 258.12 59.3769 258.396 59.8336C258.669 60.2957 258.799 60.6947 258.87 60.9652C258.93 61.2395 258.946 61.3858 258.935 61.3879Z" fill="#263238"/>
<path d="M231.776 39.5397C231.776 39.5397 231.289 39.5003 230.556 39.0377C229.847 38.5891 228.856 37.6423 228.527 36.0777C228.374 35.3078 228.434 34.4017 228.812 33.5448C229.184 32.6925 229.84 31.8738 230.76 31.3366C231.673 30.793 232.865 30.6073 233.996 30.8884C235.124 31.1572 236.216 31.8594 236.877 32.9351L236.686 32.8575C237.395 32.6743 238.2 32.765 238.899 33.097C239.48 33.3667 239.976 33.797 240.322 34.3232C240.663 34.8553 240.823 35.4863 240.799 36.0926C240.758 37.3065 240.078 38.4331 239.081 38.969L239.016 38.6646C239.998 38.7506 240.784 39.4125 241.192 40.171C241.62 40.9359 241.657 41.8475 241.38 42.576C240.834 44.0655 239.477 44.8397 238.388 44.969C237.273 45.1191 236.401 44.8287 235.863 44.5929C235.589 44.4729 235.392 44.3534 235.262 44.2698C235.135 44.1825 235.071 44.1333 235.076 44.1257C235.09 44.1024 235.355 44.286 235.903 44.495C236.443 44.6964 237.3 44.9436 238.357 44.7723C239.388 44.6252 240.64 43.8628 241.122 42.4869C241.364 41.8132 241.32 41.0084 240.927 40.3169C240.551 39.6313 239.835 39.0538 238.992 38.9885L238.444 38.9457L238.927 38.6836C239.808 38.2054 240.426 37.1759 240.457 36.0824C240.477 35.5363 240.333 34.983 240.031 34.5111C239.723 34.0447 239.276 33.655 238.75 33.4121C238.119 33.1119 237.397 33.0321 236.772 33.1924L236.648 33.2242L236.581 33.1144C235.978 32.1282 234.966 31.4672 233.917 31.2115C232.863 30.9452 231.768 31.108 230.914 31.6037C230.052 32.0951 229.424 32.8583 229.063 33.6554C228.697 34.4581 228.626 35.3035 228.755 36.0345C229.035 37.5219 229.957 38.4653 230.626 38.9321C231.316 39.4142 231.791 39.5024 231.776 39.5397Z" fill="#263238"/>
<path d="M204.163 36.0502C204.153 36.0477 204.164 35.9743 204.195 35.8344C204.224 35.6937 204.285 35.4897 204.386 35.2328C204.59 34.7244 204.977 33.9888 205.723 33.2866C206.458 32.5942 207.587 31.9294 208.999 31.8225C210.387 31.7081 212.027 32.138 213.282 33.2925L213.09 33.2675C214.418 32.5442 216.138 32.2648 217.803 32.6489C219.04 32.9321 220.139 33.5893 220.968 34.4229C221.798 35.2599 222.373 36.2661 222.665 37.2798L222.534 37.1683C223.913 37.3617 225.108 37.918 226.006 38.6036C226.922 39.2756 227.554 40.063 227.984 40.7532C228.412 41.4499 228.637 42.0587 228.757 42.4798C228.869 42.9038 228.9 43.137 228.887 43.1395C228.826 43.1624 228.703 42.197 227.826 40.855C227.383 40.1961 226.75 39.4473 225.852 38.8147C224.971 38.1677 223.813 37.6517 222.495 37.4804L222.393 37.4672L222.363 37.3689C222.075 36.4089 221.521 35.4558 220.728 34.6638C219.934 33.8747 218.895 33.2569 217.724 32.9885C216.146 32.6243 214.509 32.8847 213.247 33.5614L213.142 33.6178L213.055 33.5363C211.888 32.4467 210.338 32.0176 209.019 32.107C207.681 32.1872 206.593 32.7939 205.864 33.4418C205.125 34.0977 204.72 34.7948 204.489 35.279C204.261 35.7679 204.188 36.0575 204.163 36.0502Z" fill="#263238"/>
<path d="M178.167 67.8946C178.167 67.8946 178.624 67.0805 182.154 67.541C185.685 68.0014 199.678 77.6941 199.678 77.6941C199.678 77.6941 197.133 87.703 204.83 89.6123C210.434 91.0022 213.409 89.438 213.409 89.438C213.409 89.438 222.791 101.107 223.559 105.865C223.559 105.865 178.34 137.504 185.679 134.064L178.168 134.149L178.167 67.8946Z" fill="#BB2525"/>
<path d="M222.825 103.721C222.947 104.059 224.702 106.144 222.965 115.437C221.388 123.879 214.472 132.4 214.472 132.4L200.724 120.013L222.825 103.721Z" fill="#BB2525"/>
<path d="M215.646 110.344C215.651 110.35 215.578 110.42 215.435 110.548C215.273 110.689 215.063 110.872 214.801 111.1C214.244 111.571 213.429 112.244 212.408 113.057C210.37 114.688 207.52 116.896 204.35 119.306C201.178 121.715 198.29 123.873 196.191 125.423C195.153 126.182 194.307 126.802 193.697 127.248C193.414 127.448 193.186 127.61 193.011 127.734C192.853 127.843 192.768 127.897 192.763 127.891C192.758 127.885 192.835 127.819 192.984 127.698C193.153 127.566 193.372 127.394 193.645 127.179C194.244 126.719 195.077 126.081 196.097 125.299C198.193 123.706 201.055 121.533 204.216 119.13C207.386 116.721 210.249 114.533 212.312 112.935C213.325 112.144 214.152 111.499 214.747 111.034C215.019 110.819 215.238 110.646 215.407 110.514C215.559 110.397 215.642 110.338 215.646 110.344Z" fill="#263238"/>
<path d="M192.763 30.3977H92.6104V169.603H192.763V30.3977Z" fill="white"/>
<path d="M192.763 30.3977H92.6104V80.7837H192.763V30.3977Z" fill="#BB2525"/>
<path d="M182.331 44.4945H164.528C161.887 44.4945 159.746 42.3538 159.746 39.7131V39.2124C159.746 36.5717 161.887 34.4309 164.528 34.4309H182.331C184.971 34.4309 187.112 36.5717 187.112 39.2124V39.7131C187.112 42.3538 184.971 44.4945 182.331 44.4945Z" fill="#263238"/>
<path d="M175.422 93.1171C175.422 93.1781 161.653 93.2273 144.672 93.2273C127.684 93.2273 113.918 93.1777 113.918 93.1171C113.918 93.056 127.684 93.0068 144.672 93.0068C161.653 93.0064 175.422 93.056 175.422 93.1171Z" fill="#263238"/>
<path d="M175.422 106.687C175.422 106.748 161.653 106.797 144.672 106.797C127.684 106.797 113.918 106.748 113.918 106.687C113.918 106.627 127.684 106.577 144.672 106.577C161.653 106.576 175.422 106.626 175.422 106.687Z" fill="#263238"/>
<path d="M175.422 120.257C175.422 120.319 161.653 120.368 144.672 120.368C127.684 120.368 113.918 120.318 113.918 120.257C113.918 120.197 127.684 120.147 144.672 120.147C161.653 120.147 175.422 120.196 175.422 120.257Z" fill="#263238"/>
<path d="M175.169 158.447H115.009C109.093 158.447 104.298 153.651 104.298 147.736V146.614C104.298 140.698 109.093 135.903 115.009 135.903H175.169C181.084 135.903 185.88 140.698 185.88 146.614V147.736C185.88 153.651 181.084 158.447 175.169 158.447Z" fill="#BB2525"/>
<path d="M118.797 72.9881C118.289 72.855 117.877 72.6773 117.56 72.4551L118.179 71.0657C118.477 71.2624 118.823 71.421 119.216 71.5418C119.61 71.6622 119.997 71.7225 120.378 71.7225C121.101 71.7225 121.463 71.5418 121.463 71.1802C121.463 70.9898 121.36 70.8486 121.153 70.7566C120.947 70.6646 120.615 70.5679 120.159 70.4661C119.658 70.3584 119.239 70.2427 118.902 70.1189C118.566 69.9951 118.277 69.7971 118.036 69.524C117.795 69.2514 117.675 68.8833 117.675 68.4199C117.675 68.0137 117.786 67.6474 118.008 67.3205C118.23 66.9936 118.562 66.7349 119.003 66.5446C119.443 66.3542 119.984 66.2588 120.626 66.2588C121.064 66.2588 121.495 66.308 121.92 66.4063C122.345 66.5047 122.72 66.6489 123.043 66.8392L122.463 68.2384C121.828 67.8954 121.212 67.7246 120.616 67.7246C120.242 67.7246 119.969 67.7801 119.798 67.8912C119.626 68.0023 119.541 68.1469 119.541 68.3241C119.541 68.5017 119.642 68.6353 119.845 68.7239C120.048 68.813 120.375 68.905 120.826 68.9999C121.333 69.1076 121.754 69.2234 122.087 69.3472C122.42 69.471 122.709 69.6677 122.953 69.9374C123.198 70.2075 123.32 70.5738 123.32 71.0368C123.32 71.4367 123.209 71.7983 122.986 72.1219C122.764 72.4454 122.431 72.7044 121.987 72.8978C121.543 73.0915 121.003 73.1882 120.369 73.1882C119.828 73.1882 119.304 73.1212 118.797 72.9881Z" fill="white"/>
<path d="M125.508 67.886H123.461V66.3918H129.429V67.886H127.392V73.0546H125.507V67.886H125.508Z" fill="white"/>
<path d="M134.265 71.7603H131.447L130.924 73.0548H129.001L131.943 66.3916H133.799L136.749 73.0548H134.788L134.265 71.7603ZM133.713 70.3704L132.856 68.2385L131.999 70.3704H133.713Z" fill="white"/>
<path d="M143.622 66.3916V73.0548H142.07L139.129 69.5042V73.0548H137.282V66.3916H138.834L141.776 69.9418V66.3916H143.622Z" fill="white"/>
<path d="M144.954 66.3916H148.105C148.835 66.3916 149.482 66.5281 150.047 66.8008C150.612 67.0738 151.05 67.4609 151.361 67.9621C151.671 68.4637 151.827 69.0505 151.827 69.723C151.827 70.3954 151.671 70.9827 151.361 71.4838C151.05 71.985 150.612 72.3721 150.047 72.6452C149.482 72.9182 148.835 73.0543 148.105 73.0543H144.954V66.3916ZM148.029 71.5508C148.6 71.5508 149.059 71.3889 149.405 71.0654C149.75 70.7418 149.923 70.2945 149.923 69.7234C149.923 69.1523 149.75 68.7049 149.405 68.3814C149.059 68.0579 148.6 67.896 148.029 67.896H146.839V71.5513H148.029V71.5508Z" fill="white"/>
<path d="M157.186 71.7603H154.368L153.845 73.0548H151.922L154.864 66.3916H156.719L159.67 73.0548H157.709L157.186 71.7603ZM156.633 70.3704L155.777 68.2385L154.921 70.3704H156.633Z" fill="white"/>
<path d="M163.116 71.2841H162.088V73.0548H160.203V66.3916H163.25C163.852 66.3916 164.376 66.4917 164.82 66.6914C165.264 66.8915 165.607 67.1769 165.848 67.5483C166.089 67.9197 166.21 68.356 166.21 68.8572C166.21 69.3397 166.097 69.7599 165.872 70.1186C165.647 70.4773 165.325 70.758 164.906 70.9611L166.343 73.0552H164.325L163.116 71.2841ZM164.011 68.1338C163.813 67.9625 163.522 67.8769 163.135 67.8769H162.088V69.8281H163.135C163.522 69.8281 163.814 69.7442 164.011 69.5758C164.207 69.4079 164.305 69.1684 164.305 68.8572C164.306 68.5464 164.207 68.3047 164.011 68.1338Z" fill="white"/>
<path d="M167.247 66.3916H170.398C171.128 66.3916 171.775 66.5281 172.339 66.8008C172.904 67.0738 173.342 67.4609 173.653 67.9621C173.964 68.4637 174.119 69.0505 174.119 69.723C174.119 70.3954 173.964 70.9827 173.653 71.4838C173.342 71.985 172.904 72.3721 172.339 72.6452C171.775 72.9182 171.128 73.0543 170.398 73.0543H167.247V66.3916ZM170.322 71.5508C170.893 71.5508 171.351 71.3889 171.697 71.0654C172.042 70.7418 172.216 70.2945 172.216 69.7234C172.216 69.1523 172.043 68.7049 171.697 68.3814C171.351 68.0579 170.893 67.896 170.322 67.896H169.132V71.5513H170.322V71.5508Z" fill="white"/>
<path d="M168.253 38.2753C168.428 38.355 168.564 38.4678 168.659 38.6137C168.754 38.76 168.801 38.933 168.801 39.1331C168.801 39.3307 168.754 39.5032 168.659 39.6504C168.564 39.7979 168.428 39.9107 168.253 39.9887C168.077 40.0672 167.87 40.1057 167.632 40.1057H167.089V40.8482H166.466V38.1558H167.632C167.87 38.1562 168.077 38.196 168.253 38.2753ZM168.024 39.4774C168.121 39.3968 168.17 39.2819 168.17 39.1331C168.17 38.9821 168.121 38.866 168.024 38.785C167.926 38.7044 167.784 38.6637 167.597 38.6637H167.089V39.5982H167.597C167.784 39.5986 167.927 39.5584 168.024 39.4774Z" fill="white"/>
<path d="M169.595 40.743C169.422 40.6523 169.287 40.5255 169.189 40.364C169.092 40.2024 169.043 40.0193 169.043 39.814C169.043 39.6093 169.091 39.4257 169.189 39.2641C169.287 39.1026 169.422 38.9762 169.595 38.8851C169.768 38.7939 169.963 38.7485 170.182 38.7485C170.4 38.7485 170.595 38.7939 170.766 38.8851C170.938 38.9762 171.073 39.1026 171.17 39.2641C171.267 39.4257 171.316 39.6088 171.316 39.814C171.316 40.0193 171.267 40.2029 171.17 40.364C171.073 40.5255 170.938 40.6519 170.766 40.743C170.595 40.8342 170.4 40.8796 170.182 40.8796C169.963 40.8796 169.768 40.8338 169.595 40.743ZM170.561 40.2313C170.659 40.1274 170.709 39.9883 170.709 39.814C170.709 39.6398 170.659 39.5007 170.561 39.3968C170.462 39.293 170.335 39.2408 170.182 39.2408C170.028 39.2408 169.901 39.293 169.801 39.3968C169.702 39.5007 169.651 39.6398 169.651 39.814C169.651 39.9887 169.701 40.1278 169.801 40.2313C169.901 40.3351 170.028 40.3873 170.182 40.3873C170.335 40.3873 170.461 40.3351 170.561 40.2313Z" fill="white"/>
<path d="M173.465 38.8813C173.622 38.9699 173.746 39.0942 173.836 39.2544C173.926 39.4147 173.97 39.6013 173.97 39.8141C173.97 40.027 173.926 40.2135 173.836 40.3738C173.746 40.5341 173.622 40.6583 173.465 40.7469C173.307 40.8351 173.132 40.8796 172.94 40.8796C172.676 40.8796 172.468 40.7961 172.317 40.6295V41.5949H171.717V38.7796H172.29V39.0183C172.439 38.8389 172.655 38.749 172.94 38.749C173.132 38.7486 173.307 38.7927 173.465 38.8813ZM173.215 40.2313C173.313 40.1275 173.363 39.9884 173.363 39.8141C173.363 39.6399 173.313 39.5008 173.215 39.3969C173.116 39.293 172.989 39.2409 172.835 39.2409C172.682 39.2409 172.555 39.293 172.457 39.3969C172.358 39.5008 172.308 39.6399 172.308 39.8141C172.308 39.9888 172.358 40.1279 172.457 40.2313C172.555 40.3352 172.682 40.3874 172.835 40.3874C172.989 40.3874 173.116 40.3352 173.215 40.2313Z" fill="white"/>
<path d="M176.455 38.7795V40.8486H175.886V40.6027C175.806 40.6926 175.711 40.7608 175.601 40.8083C175.49 40.8558 175.371 40.8795 175.243 40.8795C174.971 40.8795 174.756 40.8011 174.597 40.6447C174.438 40.4882 174.358 40.2563 174.358 39.9484V38.7791H174.958V39.8598C174.958 40.1935 175.098 40.3601 175.378 40.3601C175.521 40.3601 175.636 40.3135 175.724 40.2194C175.811 40.1261 175.854 39.987 175.854 39.8022V38.7791L176.455 38.7795Z" fill="white"/>
<path d="M177.013 37.9946H177.613V40.8486H177.013V37.9946Z" fill="white"/>
<path d="M179.744 38.9776C179.915 39.1302 180.001 39.36 180.001 39.6678V40.8487H179.44V40.5909C179.327 40.7834 179.116 40.8796 178.809 40.8796C178.65 40.8796 178.512 40.8529 178.395 40.7986C178.279 40.7448 178.19 40.6706 178.128 40.5756C178.066 40.4806 178.036 40.3729 178.036 40.2525C178.036 40.06 178.108 39.9091 178.253 39.7988C178.398 39.6886 178.622 39.6335 178.924 39.6335H179.401C179.401 39.5029 179.361 39.4024 179.282 39.3316C179.202 39.2612 179.083 39.226 178.924 39.226C178.814 39.226 178.705 39.2434 178.599 39.2782C178.492 39.3125 178.402 39.3596 178.328 39.4185L178.112 38.9992C178.225 38.9195 178.36 38.858 178.518 38.8143C178.675 38.7706 178.838 38.749 179.004 38.749C179.326 38.7486 179.572 38.8249 179.744 38.9776ZM179.232 40.4043C179.311 40.3568 179.368 40.2873 179.401 40.1949V39.9833H178.989C178.743 39.9833 178.62 40.0639 178.62 40.2254C178.62 40.3026 178.65 40.3632 178.711 40.4081C178.771 40.4531 178.854 40.4756 178.959 40.4756C179.062 40.4756 179.152 40.4518 179.232 40.4043Z" fill="white"/>
<path d="M181.407 38.8257C181.529 38.7744 181.669 38.7485 181.828 38.7485V39.3027C181.761 39.2976 181.716 39.2946 181.694 39.2946C181.522 39.2946 181.387 39.343 181.29 39.4388C181.192 39.5351 181.144 39.6792 181.144 39.8717V40.8486H180.544V38.7795H181.117V39.0525C181.188 38.9525 181.285 38.877 181.407 38.8257Z" fill="white"/>
<path d="M129.806 149.454C129.296 149.179 128.894 148.798 128.602 148.312C128.31 147.825 128.164 147.275 128.164 146.661C128.164 146.047 128.31 145.497 128.602 145.01C128.894 144.523 129.296 144.142 129.806 143.868C130.317 143.593 130.891 143.456 131.528 143.456C132.065 143.456 132.55 143.551 132.984 143.739C133.418 143.928 133.782 144.2 134.077 144.554L133.157 145.403C132.738 144.92 132.219 144.678 131.599 144.678C131.215 144.678 130.873 144.762 130.572 144.93C130.271 145.098 130.037 145.333 129.868 145.634C129.7 145.935 129.616 146.277 129.616 146.661C129.616 147.044 129.7 147.387 129.868 147.688C130.036 147.989 130.271 148.224 130.572 148.391C130.873 148.56 131.215 148.644 131.599 148.644C132.219 148.644 132.738 148.399 133.157 147.909L134.077 148.759C133.782 149.119 133.416 149.393 132.98 149.582C132.543 149.771 132.056 149.866 131.519 149.866C130.887 149.866 130.317 149.728 129.806 149.454Z" fill="white"/>
<path d="M139.269 145.457C139.632 145.811 139.813 146.336 139.813 147.032V149.759H138.432V147.245C138.432 146.867 138.35 146.586 138.184 146.4C138.019 146.214 137.78 146.121 137.467 146.121C137.119 146.121 136.842 146.229 136.635 146.444C136.429 146.66 136.326 146.98 136.326 147.405V149.76H134.945V143.191H136.326V145.493C136.508 145.31 136.73 145.17 136.99 145.073C137.249 144.976 137.532 144.926 137.839 144.926C138.429 144.926 138.906 145.103 139.269 145.457Z" fill="white"/>
<path d="M142.031 149.516C141.633 149.306 141.321 149.016 141.097 148.644C140.872 148.272 140.76 147.85 140.76 147.378C140.76 146.906 140.872 146.484 141.097 146.112C141.321 145.741 141.632 145.45 142.031 145.24C142.429 145.031 142.879 144.926 143.381 144.926C143.882 144.926 144.331 145.031 144.726 145.24C145.121 145.45 145.431 145.741 145.656 146.112C145.88 146.484 145.992 146.906 145.992 147.378C145.992 147.85 145.88 148.272 145.656 148.644C145.431 149.016 145.121 149.306 144.726 149.516C144.331 149.725 143.882 149.83 143.381 149.83C142.879 149.83 142.429 149.725 142.031 149.516ZM144.252 148.338C144.48 148.099 144.593 147.779 144.593 147.378C144.593 146.976 144.48 146.656 144.252 146.417C144.025 146.178 143.735 146.059 143.381 146.059C143.026 146.059 142.735 146.178 142.504 146.417C142.274 146.656 142.159 146.976 142.159 147.378C142.159 147.779 142.274 148.099 142.504 148.338C142.734 148.578 143.026 148.697 143.381 148.697C143.735 148.697 144.025 148.578 144.252 148.338Z" fill="white"/>
<path d="M147.829 149.516C147.431 149.306 147.119 149.016 146.895 148.644C146.671 148.272 146.558 147.85 146.558 147.378C146.558 146.906 146.67 146.484 146.895 146.112C147.119 145.741 147.431 145.45 147.829 145.24C148.227 145.031 148.678 144.926 149.179 144.926C149.681 144.926 150.129 145.031 150.524 145.24C150.92 145.45 151.23 145.741 151.454 146.112C151.678 146.484 151.79 146.906 151.79 147.378C151.79 147.85 151.678 148.272 151.454 148.644C151.23 149.016 150.92 149.306 150.524 149.516C150.129 149.725 149.68 149.83 149.179 149.83C148.678 149.83 148.227 149.725 147.829 149.516ZM150.051 148.338C150.278 148.099 150.392 147.779 150.392 147.378C150.392 146.976 150.278 146.656 150.051 146.417C149.824 146.178 149.533 146.059 149.179 146.059C148.825 146.059 148.533 146.178 148.303 146.417C148.072 146.656 147.957 146.976 147.957 147.378C147.957 147.779 148.072 148.099 148.303 148.338C148.532 148.578 148.825 148.697 149.179 148.697C149.533 148.697 149.824 148.578 150.051 148.338Z" fill="white"/>
<path d="M153.154 149.684C152.776 149.587 152.475 149.464 152.251 149.317L152.711 148.325C152.924 148.461 153.181 148.572 153.481 148.657C153.782 148.743 154.078 148.785 154.366 148.785C154.951 148.785 155.243 148.641 155.243 148.352C155.243 148.216 155.163 148.119 155.004 148.06C154.845 148.001 154.6 147.951 154.269 147.91C153.88 147.85 153.558 147.783 153.304 147.706C153.05 147.63 152.831 147.494 152.645 147.299C152.459 147.104 152.366 146.827 152.366 146.467C152.366 146.166 152.453 145.899 152.627 145.666C152.801 145.432 153.055 145.251 153.389 145.121C153.722 144.991 154.116 144.927 154.57 144.927C154.906 144.927 155.241 144.963 155.575 145.037C155.908 145.111 156.184 145.213 156.402 145.343L155.942 146.325C155.523 146.089 155.066 145.971 154.57 145.971C154.275 145.971 154.054 146.013 153.906 146.095C153.759 146.178 153.685 146.284 153.685 146.414C153.685 146.561 153.765 146.665 153.924 146.723C154.084 146.783 154.337 146.838 154.686 146.891C155.075 146.956 155.394 147.026 155.642 147.1C155.889 147.173 156.105 147.307 156.287 147.502C156.471 147.697 156.562 147.968 156.562 148.316C156.562 148.611 156.474 148.874 156.297 149.104C156.12 149.334 155.862 149.513 155.522 149.64C155.183 149.767 154.78 149.83 154.314 149.83C153.918 149.83 153.531 149.781 153.154 149.684Z" fill="white"/>
<path d="M162.05 147.768H158.447C158.512 148.063 158.666 148.295 158.907 148.467C159.149 148.638 159.45 148.723 159.81 148.723C160.058 148.723 160.278 148.686 160.47 148.612C160.662 148.538 160.84 148.422 161.006 148.263L161.74 149.06C161.291 149.573 160.636 149.83 159.775 149.83C159.238 149.83 158.763 149.725 158.35 149.515C157.937 149.306 157.618 149.015 157.394 148.643C157.17 148.271 157.057 147.849 157.057 147.378C157.057 146.911 157.168 146.491 157.389 146.116C157.611 145.741 157.914 145.449 158.301 145.24C158.687 145.03 159.12 144.926 159.598 144.926C160.064 144.926 160.486 145.026 160.864 145.227C161.241 145.428 161.538 145.715 161.754 146.089C161.969 146.465 162.077 146.9 162.077 147.395C162.077 147.414 162.068 147.537 162.05 147.768ZM158.819 146.236C158.606 146.413 158.477 146.655 158.429 146.962H160.775C160.728 146.661 160.598 146.421 160.386 146.24C160.173 146.06 159.913 145.97 159.606 145.97C159.294 145.97 159.032 146.059 158.819 146.236Z" fill="white"/>
<path d="M107.661 95.4071C107.512 95.4071 107.362 95.3549 107.242 95.2485L105.528 93.7404C105.264 93.5084 105.239 93.1065 105.471 92.8427C105.703 92.5794 106.106 92.5536 106.369 92.7855L107.612 93.8794L110.187 91.0357C110.423 90.7753 110.825 90.755 111.086 90.9911C111.346 91.2269 111.366 91.6293 111.13 91.8896L108.134 95.1981C108.007 95.3367 107.835 95.4071 107.661 95.4071Z" fill="#BB2525"/>
<path d="M107.661 108.977C107.512 108.977 107.362 108.925 107.242 108.819L105.528 107.31C105.264 107.078 105.239 106.677 105.471 106.413C105.703 106.15 106.106 106.124 106.369 106.356L107.612 107.449L110.187 104.606C110.423 104.345 110.825 104.325 111.086 104.561C111.346 104.797 111.366 105.199 111.13 105.459L108.134 108.768C108.007 108.907 107.835 108.977 107.661 108.977Z" fill="#BB2525"/>
<path d="M107.661 122.547C107.512 122.547 107.362 122.495 107.242 122.389L105.528 120.881C105.264 120.649 105.239 120.247 105.471 119.983C105.703 119.72 106.106 119.694 106.369 119.926L107.612 121.02L110.187 118.176C110.423 117.916 110.825 117.895 111.086 118.132C111.346 118.368 111.366 118.77 111.13 119.03L108.134 122.338C108.007 122.477 107.835 122.547 107.661 122.547Z" fill="#BB2525"/>
<path d="M149.432 45.5286L151.131 48.971L154.93 49.5231L152.181 52.2028L152.83 55.9865L149.432 54.1998L146.034 55.9865L146.683 52.2028L143.934 49.5231L147.733 48.971L149.432 45.5286Z" fill="white"/>
<path d="M142.831 45.5286L145.076 50.0768L150.095 50.8065L146.463 54.3469L147.321 59.3459L142.831 56.9859L138.342 59.3459L139.199 54.3469L135.567 50.8065L140.586 50.0768L142.831 45.5286Z" fill="white"/>
<path d="M147.867 60.0977L142.831 57.4502L137.796 60.0977L138.757 54.4903L134.684 50.5191L140.314 49.7008L142.832 44.5996L145.349 49.7008L150.979 50.5191L146.905 54.4898L147.867 60.0977ZM136.45 51.0936L139.641 54.2032L138.888 58.5946L142.832 56.5212L146.775 58.5946L146.022 54.2036L149.213 51.0936L144.804 50.4529L142.832 46.458L140.86 50.4529L136.45 51.0936Z" fill="#BB2525"/>
<path d="M192.763 169.603C192.762 168.715 192.722 112.7 192.662 30.3978L192.762 30.4978C162.541 30.5008 128.502 30.5042 92.6217 30.508H92.6102L92.7205 30.3978C92.7128 82.4832 92.7056 130.677 92.6997 169.603L92.6098 169.513C153.388 169.568 192.024 169.602 192.763 169.603C192.024 169.604 153.388 169.639 92.6107 169.693H92.5208V169.603C92.5148 130.677 92.5076 82.4828 92.5 30.3974V30.2871H92.6102H92.6217C128.502 30.2909 162.541 30.2943 192.762 30.2973H192.863V30.3974C192.804 112.7 192.763 168.715 192.763 169.603Z" fill="#263238"/>
<path d="M143.754 114.139C143.754 114.139 142.268 111.91 145.24 111.786C148.212 111.662 162.824 114.139 167.776 116.615L172.111 119.34L167.405 128.627C167.405 128.627 157.87 128.627 156.632 128.627C155.394 128.627 151.926 126.522 155.146 125.036C155.146 125.036 151.926 122.807 154.898 120.949C154.898 120.949 152.545 119.216 155.022 116.863L143.754 114.139Z" fill="#FFBF9D"/>
<path d="M168.648 117.537L193.245 130.418L202.472 121.589L213.466 131.493C213.466 131.493 202.562 144.291 196.238 145.405C189.914 146.52 165.333 126.751 165.333 126.751L168.648 117.537Z" fill="#FFBF9D"/>
<path d="M194.445 77.9435C194.371 77.9901 194.294 78.0342 194.216 78.0753C193.862 78.2623 193.478 78.3891 193.086 78.4709C192.907 78.5087 192.702 78.5091 192.53 78.5735C192.414 78.6172 192.327 78.7109 192.221 78.7732C191.547 79.1684 190.692 79.2159 189.934 79.2952C189.08 79.3847 188.179 79.5191 187.513 80.063C186.848 80.607 186.559 81.7001 187.139 82.3336C186.594 82.2996 186.102 82.7906 186.037 83.3338C185.973 83.8769 186.269 84.4197 186.701 84.755C187.134 85.09 187.682 85.2426 188.225 85.3045C187.585 85.3541 187.125 86.055 187.204 86.6927C187.282 87.33 187.785 87.8562 188.372 88.1182C188.958 88.3802 189.619 88.4184 190.261 88.4057C190.902 88.393 192.107 88.376 192.744 88.4574C192.744 88.4574 192.726 89.2736 192.74 89.6425C192.761 90.1432 192.744 89.7506 192.744 89.7506C193.043 89.983 193.53 90.1216 194.176 90.3332C195.293 90.6991 196.011 90.9963 197.015 91.2554C197.768 91.4496 198.505 91.5412 198.908 91.037C199.879 89.8235 197.325 88.0605 197.325 88.0605C198.075 87.659 197.874 85.2312 196.757 84.9068C197.311 84.6367 197.657 84.6634 197.982 84.1402C198.307 83.617 198.42 82.9399 198.178 82.3734C197.936 81.8065 197.302 81.4033 196.697 81.5199C197.429 80.9149 197.717 79.8286 197.382 78.9403C197.181 78.4061 196.763 77.9668 196.257 77.7081C196.002 77.578 195.728 77.4979 195.445 77.4648C195.343 77.4529 195.223 77.4258 195.122 77.4512C195.072 77.4639 195.031 77.4898 194.99 77.5195C194.803 77.6543 194.643 77.8192 194.445 77.9435Z" fill="#FFBF9D"/>
<path d="M195.636 75.1874C195.583 74.66 195.397 74.1033 194.957 73.8069C194.436 73.4554 193.504 73.4974 192.89 73.6297C192.852 74.3759 192.877 74.7558 192.839 75.5025C192.831 75.6598 192.887 75.7823 192.814 75.9222C192.622 76.2903 191.812 76.3458 191.442 76.5341C190.8 76.8605 190.589 77.7696 190.928 78.4048C191.267 79.0399 192.038 79.3736 192.756 79.3096C193.474 79.246 194.128 78.8364 194.612 78.3026C195.368 77.4686 195.749 76.3076 195.636 75.1874Z" fill="#FFBF9D"/>
<path d="M196.907 81.5003C196.913 81.561 194.73 81.7967 192.034 82.0269C189.336 82.2572 187.146 82.3941 187.141 82.3335C187.136 82.2729 189.317 82.0371 192.015 81.8069C194.712 81.5767 196.902 81.4393 196.907 81.5003Z" fill="#FF9A6C"/>
<path d="M196.906 84.9063C196.91 84.9347 196.424 85.0424 195.628 85.1615C194.832 85.2811 193.726 85.404 192.499 85.4664C191.271 85.5274 190.158 85.516 189.354 85.477C188.55 85.438 188.056 85.3794 188.057 85.351C188.059 85.3188 188.556 85.3222 189.358 85.3209C190.16 85.3201 191.267 85.3069 192.487 85.2459C193.708 85.184 194.81 85.086 195.608 85.0068C196.407 84.9275 196.901 84.874 196.906 84.9063Z" fill="#FF9A6C"/>
<path d="M196.906 88.2347C196.909 88.2631 196.504 88.3373 195.842 88.4035C195.181 88.4705 194.263 88.5209 193.25 88.5362C192.237 88.551 191.321 88.5408 190.659 88.5311C189.996 88.5201 189.586 88.5052 189.585 88.4738C189.584 88.4442 189.993 88.4039 190.657 88.3746C191.32 88.3449 192.236 88.3301 193.246 88.3153C194.257 88.3 195.17 88.2746 195.831 88.2478C196.493 88.2216 196.903 88.2025 196.906 88.2347Z" fill="#FF9A6C"/>
<path d="M195.44 76.2831C195.461 76.2755 195.549 76.61 195.373 77.1116C195.208 77.6085 194.724 78.2127 194.016 78.5778C193.668 78.766 193.316 78.8962 192.995 78.9984C192.674 79.0955 192.384 79.1892 192.115 79.2087C191.847 79.2303 191.627 79.1548 191.505 79.0688C191.381 78.9823 191.346 78.9017 191.356 78.8949C191.37 78.8678 191.609 79.1328 192.098 79.0535C192.334 79.0187 192.616 78.9123 192.93 78.8055C193.242 78.6948 193.58 78.5629 193.91 78.3836C194.581 78.0351 195.035 77.5025 195.227 77.0531C195.427 76.6045 195.401 76.2822 195.44 76.2831Z" fill="#FF9A6C"/>
</svg>
