<svg width="21" height="22" viewBox="0 0 21 22" fill="none" xmlns="http://www.w3.org/2000/svg">
<path d="M20.358 9.84305C20.358 10.64 20.2627 11.42 20.072 12.183C19.8987 12.946 19.6213 13.639 19.24 14.263C18.8587 14.87 18.3907 15.364 17.836 15.745C17.2813 16.109 16.6227 16.291 15.86 16.291C15.0627 16.291 14.43 16.066 13.962 15.615C13.5113 15.147 13.234 14.618 13.13 14.029H13C12.688 14.67 12.2287 15.208 11.622 15.641C11.0153 16.074 10.2527 16.291 9.334 16.291C8.0167 16.291 6.994 15.849 6.266 14.965C5.5553 14.081 5.2 12.911 5.2 11.455C5.2 10.311 5.4253 9.30603 5.876 8.43903C6.3267 7.55503 6.9593 6.86204 7.774 6.35904C8.606 5.85604 9.5853 5.60504 10.712 5.60504C11.4747 5.60504 12.22 5.67405 12.948 5.81305C13.6933 5.93405 14.274 6.07303 14.69 6.22903L14.43 11.507C14.4127 11.819 14.404 12.044 14.404 12.183C14.404 12.304 14.404 12.391 14.404 12.443C14.404 13.344 14.56 13.942 14.872 14.237C15.2013 14.532 15.5827 14.679 16.016 14.679C16.5533 14.679 17.004 14.462 17.368 14.029C17.7493 13.578 18.0353 12.989 18.226 12.261C18.434 11.516 18.538 10.701 18.538 9.81705C18.538 8.20505 18.2087 6.84405 17.55 5.73505C16.9087 4.60805 16.016 3.75004 14.872 3.16104C13.7453 2.57204 12.4627 2.27704 11.024 2.27704C9.5507 2.27704 8.242 2.51103 7.098 2.97903C5.954 3.44703 4.992 4.10605 4.212 4.95505C3.4493 5.80405 2.8687 6.81004 2.47 7.97104C2.0713 9.11504 1.872 10.38 1.872 11.767C1.872 13.466 2.1753 14.913 2.782 16.109C3.3887 17.288 4.2727 18.189 5.434 18.813C6.6127 19.42 8.0513 19.723 9.75 19.723C10.8073 19.723 11.8127 19.602 12.766 19.359C13.7367 19.134 14.5947 18.882 15.34 18.605V20.373C14.5947 20.685 13.754 20.936 12.818 21.127C11.8993 21.335 10.8767 21.439 9.75 21.439C7.7047 21.439 5.954 21.058 4.498 20.295C3.042 19.532 1.924 18.44 1.144 17.019C0.381301 15.58 0 13.856 0 11.845C0 10.233 0.251302 8.74205 0.754002 7.37305C1.2567 5.98605 1.9847 4.79003 2.938 3.78503C3.8913 2.76203 5.044 1.97404 6.396 1.41904C7.7653 0.847037 9.308 0.561035 11.024 0.561035C12.376 0.561035 13.6153 0.778029 14.742 1.21103C15.886 1.62703 16.874 2.24204 17.706 3.05704C18.5553 3.85404 19.2053 4.82502 19.656 5.96902C20.124 7.11302 20.358 8.40405 20.358 9.84305ZM7.228 11.507C7.228 12.616 7.4447 13.422 7.878 13.925C8.3287 14.428 8.9267 14.679 9.672 14.679C10.6427 14.679 11.336 14.315 11.752 13.587C12.1853 12.859 12.4367 11.914 12.506 10.753L12.662 7.50302C12.4367 7.43402 12.1507 7.37304 11.804 7.32104C11.4573 7.26904 11.102 7.24304 10.738 7.24304C9.8887 7.24304 9.204 7.45104 8.684 7.86703C8.164 8.28303 7.7913 8.82003 7.566 9.47903C7.3407 10.12 7.228 10.796 7.228 11.507Z" fill="#9D9FA0"/>
</svg>
