<svg width="24" height="24" viewBox="0 0 24 24" fill="none" xmlns="http://www.w3.org/2000/svg">
<path d="M19.3 6.04545V6.54545H19.8H21.6C21.6036 6.54545 21.6091 6.54616 21.6167 6.54975C21.6245 6.55342 21.6361 6.5609 21.6489 6.57547C21.6759 6.6061 21.7 6.65988 21.7 6.72727V10.8182V11.3182H22.2H23.5V11.6818H22.2H21.7V12.1818V16.2727C21.7 16.3401 21.6759 16.3939 21.6489 16.4245C21.6361 16.4391 21.6245 16.4466 21.6167 16.4503C21.6091 16.4538 21.6036 16.4545 21.6 16.4545H19.8H19.3V16.9545V18.3182C19.3 18.3856 19.2759 18.4394 19.2489 18.47C19.2361 18.4846 19.2245 18.492 19.2167 18.4957C19.2091 18.4993 19.2036 18.5 19.2 18.5H16.8C16.7964 18.5 16.7909 18.4993 16.7833 18.4957C16.7755 18.492 16.7639 18.4846 16.7511 18.47C16.7241 18.4394 16.7 18.3856 16.7 18.3182V12.1818V11.6818H16.2H7.8H7.3V12.1818V18.3182C7.3 18.3856 7.27586 18.4394 7.24891 18.47C7.23609 18.4846 7.22448 18.492 7.21667 18.4957C7.20906 18.4993 7.20365 18.5 7.2 18.5H4.8C4.79635 18.5 4.79094 18.4993 4.78333 18.4957C4.77553 18.492 4.76391 18.4846 4.75109 18.47C4.72414 18.4394 4.7 18.3856 4.7 18.3182V16.9545V16.4545H4.2H2.4C2.39636 16.4545 2.39094 16.4538 2.38333 16.4503C2.37552 16.4466 2.36391 16.4391 2.35109 16.4245C2.32414 16.3939 2.3 16.3401 2.3 16.2727V12.1818V11.6818H1.8H0.5V11.3182H1.8H2.3V10.8182V6.72727C2.3 6.65988 2.32414 6.6061 2.35109 6.57547C2.36391 6.5609 2.37552 6.55342 2.38333 6.54975C2.39094 6.54616 2.39635 6.54545 2.4 6.54545H4.2H4.7V6.04545V4.68182C4.7 4.61442 4.72414 4.56065 4.75109 4.53001C4.76391 4.51545 4.77553 4.50796 4.78333 4.50429C4.79094 4.50071 4.79635 4.5 4.8 4.5H7.2C7.20365 4.5 7.20906 4.50071 7.21667 4.50429C7.22448 4.50796 7.23609 4.51545 7.24891 4.53001L7.62426 4.1997L7.24891 4.53001C7.27586 4.56065 7.3 4.61442 7.3 4.68182V10.8182V11.3182H7.8H16.2H16.7V10.8182V4.68182C16.7 4.61442 16.7241 4.56065 16.7511 4.53001C16.7639 4.51545 16.7755 4.50796 16.7833 4.50429C16.7909 4.50071 16.7964 4.5 16.8 4.5H19.2C19.2036 4.5 19.2091 4.50071 19.2167 4.50429C19.2245 4.50796 19.2361 4.51545 19.2489 4.53001C19.2759 4.56065 19.3 4.61442 19.3 4.68182V6.04545ZM4.9 17.6364V18.1364H5.4H6.6H7.1V17.6364V5.36364V4.86364H6.6H5.4H4.9V5.36364V17.6364ZM4.7 7.40909V6.90909H4.2H3H2.5V7.40909V15.5909V16.0909H3H4.2H4.7V15.5909V7.40909ZM19.3 15.5909V16.0909H19.8H21H21.5V15.5909V7.40909V6.90909H21H19.8H19.3V7.40909V15.5909ZM19.1 5.36364V4.86364H18.6H17.4H16.9V5.36364V17.6364V18.1364H17.4H18.6H19.1V17.6364V5.36364Z" stroke="#848484"/>
</svg>
