<svg width="25" height="25" viewBox="0 0 25 25" fill="none" xmlns="http://www.w3.org/2000/svg">
<g clip-path="url(#clip0_553_108)">
<path d="M13.5 17H11.5C10.67 17 10 17.67 10 18.5V22H15V18.5C15 17.67 14.33 17 13.5 17Z" stroke="#BB2525" stroke-width="1.5" stroke-miterlimit="10" stroke-linejoin="round"/>
<path d="M10.57 3.31985L3.64002 8.86985C2.86002 9.48985 2.36002 10.7998 2.53002 11.7798L3.86002 19.7398C4.10002 21.1598 5.46002 22.3098 6.90002 22.3098H18.1C19.53 22.3098 20.9 21.1498 21.14 19.7398L22.47 11.7798C22.63 10.7998 22.13 9.48985 21.36 8.86985L14.43 3.32985C13.36 2.46985 11.63 2.46985 10.57 3.31985Z" stroke="#BB2525" stroke-width="1.5" stroke-linecap="round" stroke-linejoin="round"/>
</g>
<defs>
<clipPath id="clip0_553_108">
<rect width="24" height="24" fill="white" transform="translate(0.5 0.5)"/>
</clipPath>
</defs>
</svg>
