<svg width="25" height="25" viewBox="0 0 25 25" fill="none" xmlns="http://www.w3.org/2000/svg">
<g id="Apartment_Home_Icon_UIA" clip-path="url(#clip0_204_21953)">
<path id="Vector" d="M13.5 17H11.5C10.67 17 10 17.67 10 18.5V22H15V18.5C15 17.67 14.33 17 13.5 17Z" stroke="#848484" stroke-width="1.5" stroke-miterlimit="10" stroke-linejoin="round"/>
<path id="Vector_2" d="M10.57 3.31997L3.64002 8.86997C2.86002 9.48997 2.36002 10.8 2.53002 11.78L3.86002 19.74C4.10002 21.16 5.46002 22.31 6.90002 22.31H18.1C19.53 22.31 20.9 21.15 21.14 19.74L22.47 11.78C22.63 10.8 22.13 9.48997 21.36 8.86997L14.43 3.32997C13.36 2.46997 11.63 2.46997 10.57 3.31997Z" stroke="#848484" stroke-width="1.5" stroke-linecap="round" stroke-linejoin="round"/>
</g>
<defs>
<clipPath id="clip0_204_21953">
<rect width="24" height="24" fill="white" transform="translate(0.5 0.5)"/>
</clipPath>
</defs>
</svg>
