<svg width="312" height="312" viewBox="0 0 312 312" fill="none" xmlns="http://www.w3.org/2000/svg">
<path d="M156.636 306.896C238.878 306.896 305.548 266.565 305.548 216.815C305.548 167.065 238.878 126.734 156.636 126.734C74.395 126.734 7.7251 167.065 7.7251 216.815C7.7251 266.565 74.395 306.896 156.636 306.896Z" fill="#F5F5F5"/>
<path d="M183.456 139.508C175.918 143.876 175.918 150.921 183.456 155.276C190.994 159.632 203.224 159.644 210.769 155.276C218.313 150.908 218.313 143.863 210.769 139.508C203.224 135.152 191.013 135.152 183.456 139.508Z" fill="#E0E0E0"/>
<path d="M63.96 222.575L18.8198 196.753C18.7126 196.703 18.622 196.623 18.5585 196.523C18.495 196.423 18.4613 196.307 18.4613 196.189C18.4613 196.07 18.495 195.954 18.5585 195.854C18.622 195.754 18.7126 195.674 18.8198 195.624L142.066 124.488C142.37 124.334 142.705 124.254 143.046 124.254C143.386 124.254 143.722 124.334 144.025 124.488L189.166 150.309C189.273 150.359 189.363 150.439 189.427 150.539C189.49 150.639 189.524 150.755 189.524 150.874C189.524 150.992 189.49 151.108 189.427 151.208C189.363 151.308 189.273 151.388 189.166 151.439L65.9194 222.575C65.6158 222.729 65.2801 222.809 64.9397 222.809C64.5993 222.809 64.2636 222.729 63.96 222.575Z" fill="#E0E0E0"/>
<path d="M99.4407 262.018C105.541 262.018 110.485 259.162 110.485 255.64C110.485 252.118 105.541 249.263 99.4407 249.263C93.3408 249.263 88.3959 252.118 88.3959 255.64C88.3959 259.162 93.3408 262.018 99.4407 262.018Z" fill="#E0E0E0"/>
<path d="M295.32 225.919L177.653 293.785L117.911 259.484L235.579 191.618L295.32 225.919Z" fill="#E0E0E0"/>
<path d="M30.1891 182.077C30.1891 182.077 30.4699 172.823 28.2173 166.427C25.9646 160.031 21.5654 155.413 17.0789 153.947C12.5923 152.481 7.91855 155.819 12.1243 159.881C16.3301 163.943 24.336 168.935 25.7774 180.673L30.1891 182.077Z" fill="#BB2525"/>
<g opacity="0.15">
<path d="M30.1891 182.077C30.1891 182.077 30.4699 172.823 28.2173 166.427C25.9646 160.031 21.5654 155.413 17.0789 153.947C12.5923 152.481 7.91855 155.819 12.1243 159.881C16.3301 163.943 24.336 168.935 25.7774 180.673L30.1891 182.077Z" fill="black"/>
</g>
<path d="M28.3733 178.008H28.4232C28.489 177.998 28.548 177.962 28.5876 177.908C28.6272 177.854 28.6443 177.787 28.6353 177.721C26.6136 164.736 18.6014 157.597 14.6515 155.651C14.5919 155.621 14.523 155.616 14.4598 155.637C14.3966 155.658 14.3443 155.703 14.3145 155.763C14.2848 155.822 14.2798 155.891 14.3009 155.955C14.322 156.018 14.3673 156.07 14.4269 156.1C18.3019 158.003 26.1456 164.998 28.1549 177.796C28.1617 177.851 28.1871 177.902 28.2268 177.941C28.2665 177.979 28.3182 178.003 28.3733 178.008Z" fill="white"/>
<path d="M9.93408 169.865C9.984 170.851 10.739 171.644 11.4691 172.318C12.1992 172.991 12.9854 173.715 13.1414 174.689C13.4659 176.654 11.0635 178.339 11.4691 180.305C11.8747 182.27 14.3083 182.863 15.8933 183.525C16.9549 183.881 17.8336 184.641 18.3394 185.64C18.5864 186.533 18.6438 187.469 18.5078 188.386C18.4454 190.07 18.7387 192.573 20.124 193.727C21.7277 195.069 24.4483 195.805 26.364 194.888C29.9582 193.165 33.6086 190.426 33.9518 186.12C34.0453 184.856 33.8532 183.586 33.3899 182.405C32.9265 181.225 32.2037 180.164 31.2749 179.3C30.5635 178.645 29.7461 178.121 29.0722 177.428C27.6931 176.024 27.924 174.102 27.4997 172.299C27.119 170.689 25.559 169.909 24.0365 169.603C22.5139 169.297 20.9914 169.603 19.6186 168.979C18.2458 168.355 17.1226 167.531 15.6811 167.107C14.94 166.849 14.1499 166.762 13.3705 166.854C12.5911 166.946 11.8428 167.214 11.1821 167.638C10.8084 167.879 10.4994 168.208 10.2819 168.597C10.0644 168.985 9.94504 169.42 9.93408 169.865Z" fill="#BB2525"/>
<path d="M27.2438 190.245C27.273 190.249 27.3026 190.246 27.3308 190.238C27.359 190.23 27.3853 190.216 27.408 190.197C27.4307 190.178 27.4494 190.155 27.4631 190.129C27.4767 190.103 27.4849 190.075 27.4872 190.045C28.9349 176.13 16.3176 169.235 13.1352 168.274C13.1073 168.266 13.078 168.263 13.049 168.265C13.02 168.268 12.9919 168.277 12.9663 168.291C12.9407 168.305 12.9182 168.324 12.9001 168.347C12.8819 168.37 12.8685 168.396 12.8606 168.424C12.8429 168.48 12.848 168.541 12.8748 168.594C12.9017 168.646 12.9481 168.686 13.0041 168.705C16.1241 169.641 28.4793 176.386 27.0691 190.002C27.0617 190.057 27.0757 190.113 27.1082 190.158C27.1406 190.203 27.1892 190.234 27.2438 190.245Z" fill="white"/>
<path d="M14.8949 178.208C14.9372 178.223 14.9836 178.223 15.0259 178.208C16.659 177.607 18.4047 177.374 20.1382 177.526C21.8717 177.679 23.5501 178.212 25.0536 179.088C25.105 179.118 25.1659 179.126 25.2232 179.11C25.2804 179.095 25.3294 179.058 25.3594 179.007C25.3737 178.981 25.3829 178.953 25.3863 178.923C25.3896 178.894 25.3872 178.864 25.3791 178.836C25.371 178.807 25.3573 178.781 25.339 178.758C25.3206 178.735 25.2978 178.715 25.272 178.701C23.7084 177.79 21.963 177.237 20.1604 177.079C18.3578 176.922 16.5428 177.164 14.845 177.79C14.8007 177.808 14.7636 177.84 14.7394 177.881C14.7152 177.923 14.7051 177.971 14.7108 178.018C14.7164 178.066 14.7375 178.11 14.7708 178.144C14.804 178.179 14.8476 178.201 14.8949 178.208Z" fill="white"/>
<path d="M182.283 124.482C182.292 124.388 182.325 124.298 182.38 124.221C182.435 124.145 182.509 124.084 182.595 124.045C182.828 123.928 183.086 123.867 183.347 123.867C183.608 123.867 183.865 123.928 184.099 124.045C184.184 124.084 184.258 124.145 184.313 124.221C184.368 124.298 184.402 124.388 184.411 124.482L180.623 146.833C180.615 146.898 180.591 146.959 180.553 147.012C180.514 147.064 180.463 147.106 180.405 147.133C180.24 147.216 180.058 147.259 179.874 147.259C179.69 147.259 179.508 147.216 179.344 147.133C179.285 147.106 179.234 147.064 179.196 147.012C179.157 146.959 179.133 146.898 179.125 146.833L182.283 124.482Z" fill="#455A64"/>
<path d="M211.48 124.482C211.472 124.388 211.439 124.297 211.384 124.22C211.329 124.143 211.254 124.083 211.168 124.045C210.934 123.928 210.677 123.867 210.416 123.867C210.155 123.867 209.897 123.928 209.664 124.045C209.578 124.084 209.504 124.145 209.449 124.221C209.395 124.298 209.361 124.388 209.352 124.482L213.14 146.833C213.149 146.897 213.173 146.958 213.211 147.01C213.249 147.063 213.3 147.105 213.358 147.133C213.524 147.216 213.706 147.259 213.892 147.259C214.077 147.259 214.259 147.216 214.425 147.133C214.483 147.105 214.534 147.063 214.572 147.01C214.61 146.958 214.634 146.897 214.643 146.833L211.48 124.482Z" fill="#455A64"/>
<path d="M198.076 126.173C198.067 126.08 198.033 125.991 197.978 125.916C197.923 125.84 197.85 125.78 197.764 125.742C197.532 125.622 197.274 125.56 197.012 125.56C196.751 125.56 196.493 125.622 196.26 125.742C196.175 125.78 196.101 125.84 196.047 125.916C195.992 125.991 195.958 126.08 195.948 126.173L196.26 152.761C196.268 152.826 196.292 152.888 196.33 152.94C196.368 152.993 196.42 153.034 196.479 153.061C196.644 153.147 196.827 153.192 197.012 153.192C197.198 153.192 197.381 153.147 197.546 153.061C197.605 153.034 197.657 152.993 197.695 152.94C197.733 152.888 197.757 152.826 197.764 152.761L198.076 126.173Z" fill="#455A64"/>
<path d="M216.066 117.118C216.066 114.304 214.194 111.502 210.5 109.337C203.055 105.044 190.994 105.044 183.549 109.337C179.805 111.49 177.983 114.329 177.983 117.118V118.628C178.027 121.411 179.893 124.182 183.562 126.297C191.006 130.597 203.068 130.597 210.512 126.297C214.188 124.182 216.047 121.411 216.091 118.628L216.066 117.118Z" fill="#BB2525"/>
<path d="M183.537 109.337C176.093 113.637 176.093 120.6 183.537 124.9C190.981 129.199 203.043 129.193 210.488 124.9C217.932 120.607 217.932 113.668 210.488 109.337C203.043 105.007 190.981 105.044 183.537 109.337Z" fill="#BB2525"/>
<path opacity="0.45" d="M183.537 109.337C176.093 113.637 176.093 120.6 183.537 124.9C190.981 129.199 203.043 129.193 210.488 124.9C217.932 120.607 217.932 113.668 210.488 109.337C203.043 105.007 190.981 105.044 183.537 109.337Z" fill="white"/>
<g opacity="0.05">
<path d="M201.184 113.481C203.561 114.853 203.561 117.075 201.184 118.473C199.852 119.146 198.38 119.498 196.888 119.498C195.395 119.498 193.923 119.146 192.591 118.473C190.214 117.1 190.214 114.878 192.591 113.481C193.923 112.807 195.395 112.456 196.888 112.456C198.38 112.456 199.852 112.807 201.184 113.481Z" fill="black"/>
</g>
<path d="M193.109 116.27C191.038 114.161 189.827 108.894 191.861 107.222H202.12C204.135 108.894 202.925 114.161 200.872 116.27L200.816 116.326L200.741 116.395L200.554 116.563L200.504 116.601L200.348 116.719C200.263 116.78 200.176 116.836 200.086 116.888C199.132 117.374 198.077 117.627 197.006 117.627C195.936 117.627 194.88 117.374 193.927 116.888C193.833 116.838 193.746 116.782 193.652 116.719L193.509 116.607L193.446 116.563L193.271 116.401L193.184 116.32L193.109 116.27Z" fill="#EBEBEB"/>
<path d="M201.209 106.548C203.555 107.896 203.555 110.092 201.209 111.44C199.896 112.107 198.444 112.454 196.972 112.454C195.499 112.454 194.048 112.107 192.735 111.44C190.395 110.092 190.395 107.896 192.735 106.548C194.048 105.881 195.499 105.534 196.972 105.534C198.444 105.534 199.896 105.881 201.209 106.548Z" fill="#FAFAFA"/>
<path d="M199.549 107.503C200.978 108.326 200.978 109.662 199.549 110.485C198.75 110.889 197.867 111.099 196.972 111.099C196.077 111.099 195.194 110.889 194.395 110.485C192.972 109.662 192.972 108.326 194.395 107.503C195.194 107.099 196.077 106.889 196.972 106.889C197.867 106.889 198.75 107.099 199.549 107.503Z" fill="#EBEBEB"/>
<path d="M194.395 108.919C195.193 108.513 196.076 108.301 196.972 108.301C197.868 108.301 198.751 108.513 199.549 108.919C199.893 109.105 200.187 109.373 200.404 109.699C200.189 110.029 199.895 110.299 199.549 110.485C198.75 110.889 197.867 111.099 196.972 111.099C196.077 111.099 195.194 110.889 194.395 110.485C194.048 110.299 193.754 110.029 193.54 109.699C193.757 109.373 194.05 109.105 194.395 108.919Z" fill="#E0E0E0"/>
<path d="M199.237 109.699C199.97 108.955 200.6 108.115 201.109 107.203C201.97 105.681 202.132 103.64 201.683 103.384C201.234 103.128 199.424 105.169 199.424 105.169C199.591 104.312 199.656 103.439 199.618 102.567C199.543 101.213 199.212 99.9772 198.819 99.7339C198.426 99.4905 197.571 101.194 197.19 102.436C196.81 103.678 196.597 104.695 196.597 104.695C196.447 103.729 196.224 102.775 195.93 101.843C195.474 100.551 195.062 100.264 194.744 100.389C194.426 100.514 194.22 101.119 194.12 102.829C194.084 103.649 194.109 104.471 194.195 105.287C194.195 105.287 193.571 104.582 192.847 103.902C192.123 103.222 191.736 103.047 191.512 103.191C191.287 103.334 191.225 104.501 192.435 106.685C193.034 107.796 193.802 108.807 194.713 109.68C194.713 109.68 196.385 110.779 199.237 109.699Z" fill="#BB2525"/>
<path opacity="0.3" d="M199.237 109.699C199.97 108.955 200.6 108.115 201.109 107.203C201.97 105.681 202.132 103.64 201.683 103.384C201.234 103.128 199.424 105.169 199.424 105.169C199.591 104.312 199.656 103.439 199.618 102.567C199.543 101.213 199.212 99.9772 198.819 99.7339C198.426 99.4905 197.571 101.194 197.19 102.436C196.81 103.678 196.597 104.695 196.597 104.695C196.447 103.729 196.224 102.775 195.93 101.843C195.474 100.551 195.062 100.264 194.744 100.389C194.426 100.514 194.22 101.119 194.12 102.829C194.084 103.649 194.109 104.471 194.195 105.287C194.195 105.287 193.571 104.582 192.847 103.902C192.123 103.222 191.736 103.047 191.512 103.191C191.287 103.334 191.225 104.501 192.435 106.685C193.034 107.796 193.802 108.807 194.713 109.68C194.713 109.68 196.385 110.779 199.237 109.699Z" fill="black"/>
<path d="M198.089 79.1918C197.877 79.047 197.629 78.9634 197.372 78.9502C197.116 78.9369 196.861 78.9947 196.635 79.1169C195.212 79.7409 193.858 81.8875 193.615 83.9467C193.471 85.1947 193.752 86.0745 194.301 86.4801L195.73 87.5409C195.942 87.683 196.189 87.7644 196.444 87.7765C196.699 87.7886 196.953 87.7309 197.178 87.6096C198.6 86.9856 199.955 84.839 200.198 82.7798C200.341 81.5693 200.067 80.6645 199.524 80.2838C199.281 80.0717 198.332 79.3728 198.089 79.1918Z" fill="#BB2525"/>
<path opacity="0.3" d="M198.089 79.1918C197.877 79.047 197.629 78.9634 197.372 78.9502C197.116 78.9369 196.861 78.9947 196.635 79.1169C195.212 79.7409 193.858 81.8875 193.615 83.9467C193.471 85.1947 193.752 86.0745 194.301 86.4801L195.73 87.5409C195.942 87.683 196.189 87.7644 196.444 87.7765C196.699 87.7886 196.953 87.7309 197.178 87.6096C198.6 86.9856 199.955 84.839 200.198 82.7798C200.341 81.5693 200.067 80.6645 199.524 80.2838C199.281 80.0717 198.332 79.3728 198.089 79.1918Z" fill="black"/>
<path d="M200.591 72.1282C199.412 71.2608 197.845 71.1173 196.03 71.8973C192.91 73.2264 190.463 76.3339 188.66 80.6021C188.292 81.4694 188.323 82.3368 188.729 82.6613C189.203 83.0419 190.02 83.591 190.42 83.9093C190.925 84.3149 191.818 83.7034 192.292 82.6114C193.54 79.585 195.143 77.557 197.327 76.621C198.033 76.2854 198.828 76.189 199.593 76.3464C199.838 76.7331 200.025 77.1535 200.148 77.5944C200.187 77.7588 200.279 77.9058 200.41 78.0125L202.114 79.2605C202.475 79.5226 203.075 79.2605 203.574 78.5928C203.827 78.2651 204.01 77.8887 204.111 77.4871C204.212 77.0856 204.228 76.6675 204.16 76.259C203.872 75.1305 203.229 74.1244 202.326 73.3886L200.591 72.1282Z" fill="#BB2525"/>
<path opacity="0.3" d="M200.591 72.1282C199.412 71.2608 197.845 71.1173 196.03 71.8973C192.91 73.2264 190.463 76.3339 188.66 80.6021C188.292 81.4694 188.323 82.3368 188.729 82.6613C189.203 83.0419 190.02 83.591 190.42 83.9093C190.925 84.3149 191.818 83.7034 192.292 82.6114C193.54 79.585 195.143 77.557 197.327 76.621C198.033 76.2854 198.828 76.189 199.593 76.3464C199.838 76.7331 200.025 77.1535 200.148 77.5944C200.187 77.7588 200.279 77.9058 200.41 78.0125L202.114 79.2605C202.475 79.5226 203.075 79.2605 203.574 78.5928C203.827 78.2651 204.01 77.8887 204.111 77.4871C204.212 77.0856 204.228 76.6675 204.16 76.259C203.872 75.1305 203.229 74.1244 202.326 73.3886L200.591 72.1282Z" fill="black"/>
<path d="M206.681 70.0003C206.163 68.5882 205.262 67.3481 204.079 66.4186C203.786 66.2002 202.638 65.3453 202.351 65.1706C200.479 63.7603 197.933 63.5295 195.019 64.7775C190.414 66.7555 186.688 70.6431 183.743 76.8643C183.312 77.7816 183.287 78.7363 183.743 79.1045C184.236 79.5039 184.991 80.0031 185.434 80.3525C185.921 80.7519 186.763 80.184 187.25 79.1482C189.64 74.0563 192.548 71.1235 196.317 69.5011C198.263 68.6712 199.992 68.6463 201.408 69.2952C201.985 69.9516 202.44 70.7061 202.75 71.5229C202.8 71.6582 202.886 71.777 203 71.8661L204.697 73.1141C205.065 73.3887 205.652 73.1578 206.157 72.4901C206.428 72.1422 206.616 71.7371 206.707 71.3057C206.797 70.8743 206.789 70.4279 206.681 70.0003Z" fill="#BB2525"/>
<path opacity="0.3" d="M206.681 70.0003C206.163 68.5882 205.262 67.3481 204.079 66.4186C203.786 66.2002 202.638 65.3453 202.351 65.1706C200.479 63.7603 197.933 63.5295 195.019 64.7775C190.414 66.7555 186.688 70.6431 183.743 76.8643C183.312 77.7816 183.287 78.7363 183.743 79.1045C184.236 79.5039 184.991 80.0031 185.434 80.3525C185.921 80.7519 186.763 80.184 187.25 79.1482C189.64 74.0563 192.548 71.1235 196.317 69.5011C198.263 68.6712 199.992 68.6463 201.408 69.2952C201.985 69.9516 202.44 70.7061 202.75 71.5229C202.8 71.6582 202.886 71.777 203 71.8661L204.697 73.1141C205.065 73.3887 205.652 73.1578 206.157 72.4901C206.428 72.1422 206.616 71.7371 206.707 71.3057C206.797 70.8743 206.789 70.4279 206.681 70.0003Z" fill="black"/>
<path d="M200.198 82.7799C199.955 84.8391 198.6 86.9981 197.178 87.6096C195.755 88.2211 194.794 87.0543 195.037 85.0013C195.281 82.9483 196.635 80.7831 198.058 80.1715C199.48 79.56 200.441 80.7269 200.198 82.7799Z" fill="#BB2525"/>
<path d="M197.727 73.1515C194.607 74.4869 192.155 77.5944 190.357 81.8875C189.989 82.7549 190.02 83.6223 190.42 83.9467C190.925 84.3523 191.818 83.7408 192.292 82.6488C193.54 79.6224 195.144 77.5944 197.328 76.6584C199.512 75.7224 201.203 76.6584 201.845 78.8736C202.076 79.6786 202.912 79.5475 203.574 78.6365C203.827 78.3088 204.01 77.9324 204.111 77.5308C204.212 77.1293 204.228 76.7112 204.16 76.3027C203.224 73.1703 200.828 71.8224 197.727 73.1515Z" fill="#BB2525"/>
<path d="M196.716 66.0005C192.105 67.9848 188.379 71.8661 185.44 78.0936C185.003 79.0047 184.985 79.9656 185.44 80.3276C185.927 80.7269 186.769 80.1591 187.256 79.1232C189.646 74.0314 192.554 71.0986 196.323 69.4762C200.092 67.8538 203.074 69.2765 204.435 72.7522C204.716 73.4636 205.502 73.3325 206.145 72.4464C206.412 72.1039 206.599 71.7058 206.692 71.2813C206.785 70.8569 206.781 70.417 206.681 69.9941C204.99 65.7634 201.34 64.0224 196.716 66.0005Z" fill="#BB2525"/>
<path d="M143.551 128.4L146.128 126.915L160.162 53.4955C160.63 51.0432 159.264 50.0635 157.098 51.3115L44.4163 116.289C42.0407 117.839 40.3397 120.231 39.6552 122.984L25.8897 195.006C25.8094 195.413 25.8568 195.835 26.0255 196.213C26.1942 196.592 26.4759 196.909 26.832 197.122L58.4126 215.399L176.274 147.383L143.551 128.4Z" fill="#455A64"/>
<path d="M41.0654 123.889L27.3374 195.774L147.769 126.703L161.579 54.3941C162.047 51.948 160.674 50.9683 158.515 52.2163L45.8328 117.193C43.4548 118.743 41.7515 121.135 41.0654 123.889Z" fill="#263238"/>
<path d="M145.18 127.727L27.3124 195.774L59.3361 214.269L177.197 146.222L145.18 127.727Z" fill="#37474F"/>
<path d="M160.424 53.6203L46.8562 119.065C44.3602 120.501 43.5864 122.809 44.0295 125.892L56.3597 211.91C56.8028 214.974 59.2426 216.771 61.7324 215.33L174.283 150.384C176.779 148.949 178.433 145.298 177.996 142.228L165.728 56.5718C165.291 53.508 162.914 52.1851 160.424 53.6203Z" fill="#455A64"/>
<path d="M168.081 55.6233C167.575 55.4493 167.036 55.3931 166.505 55.459C165.974 55.525 165.465 55.7114 165.017 56.004L52.4659 120.962C51.2048 121.753 50.2061 122.9 49.5955 124.257L45.9639 122.716C46.7626 120.975 48.1541 120.338 49.3459 119.646L161.891 54.6873C162.355 54.3799 162.888 54.1898 163.442 54.1332C163.996 54.0767 164.556 54.1555 165.073 54.3628L168.081 55.6233Z" fill="#BB2525"/>
<path opacity="0.1" d="M168.081 55.6233C167.575 55.4493 167.036 55.3931 166.505 55.459C165.974 55.525 165.465 55.7114 165.017 56.004L52.4659 120.962C51.2048 121.753 50.2061 122.9 49.5955 124.257L45.9639 122.716C46.7626 120.975 48.1541 120.338 49.3459 119.646L161.891 54.6873C162.355 54.3799 162.888 54.1898 163.442 54.1332C163.996 54.0767 164.556 54.1555 165.073 54.3628L168.081 55.6233Z" fill="black"/>
<path d="M60.0102 216.278C58.8932 215.823 58.0695 214.662 57.8262 212.977L45.6332 127.795C45.3587 125.879 45.2651 124.164 45.9639 122.716L49.5956 124.257C49.502 124.457 49.4147 124.663 49.3273 124.881C49.2399 125.1 49.2025 125.218 49.1463 125.387C49.1428 125.411 49.1428 125.437 49.1463 125.461C49.0777 125.655 49.0215 125.855 48.9716 126.048C48.9217 126.241 48.8718 126.46 48.8406 126.672C48.8106 126.827 48.7898 126.983 48.7782 127.14C48.6846 127.8 48.6846 128.47 48.7782 129.131L61.0211 214.762C61.2644 216.466 62.1068 217.639 63.2363 218.088L60.0102 216.278Z" fill="#BB2525"/>
<path opacity="0.3" d="M63.2362 218.088L63.0552 218.013L60.0101 216.285C58.8932 215.829 58.0695 214.675 57.8261 212.984L45.6332 127.801C45.3524 125.879 45.265 124.164 45.9576 122.716L49.0776 124.026C48.5373 125.376 48.3923 126.852 48.6596 128.282L48.7844 129.118L61.021 214.775C61.0337 214.882 61.0524 214.988 61.0772 215.093C61.086 215.15 61.0985 215.206 61.1146 215.261C61.1267 215.34 61.1455 215.417 61.1708 215.492C61.1708 215.573 61.2082 215.648 61.2332 215.723L61.308 215.941C61.337 216.029 61.3725 216.115 61.4141 216.197C61.4516 216.285 61.489 216.366 61.5327 216.447C61.5764 216.528 61.6138 216.603 61.6575 216.678C61.7854 216.901 61.936 217.11 62.1068 217.302L62.269 217.47L62.45 217.632C62.6872 217.824 62.9523 217.977 63.2362 218.088Z" fill="black"/>
<path d="M165.017 56.0102L51.4488 121.449C48.9528 122.891 48.1853 125.193 48.6221 128.313L61.0085 214.8C61.4453 217.87 63.8227 219.168 66.3125 217.751L178.87 152.768C181.366 151.332 183.025 147.676 182.614 144.612L170.352 58.9617C169.884 55.8917 167.507 54.575 165.017 56.0102Z" fill="#BB2525"/>
<path opacity="0.2" d="M165.017 56.0102L51.4488 121.449C48.9528 122.891 48.1853 125.193 48.6221 128.313L61.0085 214.8C61.4453 217.87 63.8227 219.168 66.3125 217.751L178.87 152.768C181.366 151.332 183.025 147.676 182.614 144.612L170.352 58.9617C169.884 55.8917 167.507 54.575 165.017 56.0102Z" fill="black"/>
<path d="M172.255 152.256L71.7912 210.226C70.4995 210.974 69.2952 210.288 69.0394 208.697L57.1584 125.686C57.0634 124.873 57.1922 124.049 57.5309 123.303C57.8696 122.558 58.4053 121.919 59.0803 121.455L159.544 63.4857C160.836 62.7369 162.04 63.4233 162.29 65.0145L174.177 148.038C174.273 148.849 174.144 149.672 173.805 150.415C173.466 151.159 172.93 151.795 172.255 152.256Z" fill="#263238"/>
<path d="M57.1585 125.686L69.0457 208.709L69.0831 208.896L169.547 150.921C170.224 150.461 170.762 149.823 171.101 149.078C171.44 148.333 171.567 147.509 171.469 146.696L159.551 63.4857L59.0866 121.455C58.4104 121.918 57.8735 122.557 57.5337 123.302C57.1939 124.048 57.0641 124.872 57.1585 125.686Z" fill="#BB2525"/>
<path opacity="0.85" d="M57.1585 125.686L69.0457 208.709L69.0831 208.896L169.547 150.921C170.224 150.461 170.762 149.823 171.101 149.078C171.44 148.333 171.567 147.509 171.469 146.696L159.551 63.4857L59.0866 121.455C58.4104 121.918 57.8735 122.557 57.5337 123.302C57.1939 124.048 57.0641 124.872 57.1585 125.686Z" fill="white"/>
<path d="M60.6341 172.124C60.6824 172.532 60.6178 172.946 60.4473 173.32C60.2767 173.694 60.0068 174.014 59.6669 174.246C59.0429 174.62 58.4189 174.277 58.2816 173.478C58.2367 173.066 58.3061 172.65 58.4822 172.274C58.6583 171.899 58.9343 171.579 59.28 171.35C59.904 170.976 60.528 171.319 60.6341 172.124Z" fill="#263238"/>
<path d="M57.408 158.265C57.1436 158.446 56.9335 158.695 56.8004 158.987C56.6674 159.278 56.6164 159.6 56.653 159.919L57.7138 167.313C57.8012 167.937 58.2816 168.199 58.7871 167.937C59.0515 167.756 59.2616 167.507 59.3947 167.215C59.5277 166.924 59.5787 166.602 59.5421 166.284L58.4813 158.889C58.3628 158.246 57.8823 157.978 57.408 158.265Z" fill="#263238"/>
<path d="M140.912 167.425L127.04 175.431L123.802 177.303L101.999 189.877C103.547 176.149 106.105 156.899 108.863 150.74L139.439 151.364L140.912 167.425Z" fill="#455A64"/>
<path d="M135.701 158.87C133.661 165.741 127.421 169.104 127.421 169.104L127.04 175.463L123.802 177.335L124.713 167.775C124.713 167.775 132.669 164.536 135.701 158.87Z" fill="#37474F"/>
<path d="M128.875 109.381C131.283 107.865 135.876 106.66 139.788 108.002C145.504 104.726 150.527 105.369 155.345 106.099C156.537 106.28 160.486 105.706 161.235 106.386C161.803 106.904 161.965 107.509 162.24 108.713L159.838 115.109C155.663 115.939 153.254 116.981 147.276 117.905C142.565 118.647 139.551 119.109 139.033 121.337C134.83 118.125 131.366 114.048 128.875 109.381Z" fill="#FFA8A7"/>
<path d="M164.274 112.769C165.067 111.777 165.092 110.56 164.998 108.969C164.855 106.417 164.418 101.4 164.037 99.1973C163.413 95.6842 163.195 93.4814 162.465 91.235C161.522 88.3272 161.841 86.5176 160.53 84.5458C159.22 82.5739 152.88 81.12 151.488 84.0216C150.708 85.6877 153.566 86.5176 153.648 87.7656C153.648 87.7656 151.414 89.5128 153.024 90.1118C154.272 90.5861 155.482 90.7858 155.856 94.7357C156.187 98.2238 155.02 102.111 155.02 107.384C155.02 109.556 156.112 115.945 156.112 115.945C158.796 115.222 162.502 114.991 164.274 112.769Z" fill="#FFA8A7"/>
<path d="M153.217 89.6001C153.404 90.2865 156.555 90.8481 157.26 90.7109C157.452 90.684 157.633 90.6069 157.786 90.4875C157.938 90.368 158.056 90.2104 158.128 90.0307L160.293 90.6921L160.374 88.8888L153.36 88.5518C153.252 88.8903 153.204 89.245 153.217 89.6001Z" fill="#F28F8F"/>
<path d="M159.838 108.576C159.838 108.576 159.407 106.292 155.089 104.745C155.089 105.163 155.02 105.649 155.02 106.036C156.835 106.407 158.506 107.288 159.838 108.576Z" fill="#F28F8F"/>
<path d="M151.807 82.4616C151.636 81.8263 151.3 81.2473 150.835 80.7829C150.369 80.3184 149.789 79.9849 149.153 79.816C148.517 79.6471 147.848 79.6487 147.213 79.8206C146.578 79.9926 145.999 80.3288 145.536 80.7955L145.467 80.8766C145.437 80.9027 145.409 80.932 145.386 80.964C144.649 81.8366 144.12 82.8652 143.839 83.9721C143.558 85.079 143.532 86.2354 143.763 87.3538C143.763 87.4661 143.826 87.5722 143.863 87.6782C144.185 88.5525 144.821 89.2754 145.647 89.7058C146.473 90.1362 147.43 90.2432 148.331 90.0058C148.599 89.9311 148.858 89.8286 149.105 89.7C149.459 89.5265 149.782 89.2944 150.06 89.0136C150.85 88.1355 151.422 87.0836 151.73 85.9431C152.038 84.8026 152.073 83.6056 151.832 82.4491C151.824 82.4537 151.815 82.4579 151.807 82.4616Z" fill="#455A64"/>
<path d="M148.032 81.4757C147.241 82.3538 146.669 83.4057 146.361 84.5462C146.053 85.6867 146.018 86.8837 146.259 88.0402C146.815 90.1306 148.512 90.5923 150.047 89.0635C150.837 88.1855 151.41 87.1336 151.718 85.993C152.025 84.8525 152.06 83.6555 151.819 82.4991C151.264 80.4087 149.567 79.9469 148.032 81.4757Z" fill="#37474F"/>
<path d="M162.596 87.1041H162.564L149.76 83.5349C149.596 83.4968 149.425 83.5059 149.266 83.5612C149.107 83.6164 148.967 83.7154 148.861 83.8469C148.56 84.1806 148.342 84.5801 148.222 85.0135C148.103 85.4469 148.087 85.9021 148.175 86.3429C148.204 86.5081 148.277 86.6623 148.387 86.7888C148.497 86.9153 148.639 87.0093 148.799 87.0605L161.616 90.6547C161.779 90.6881 161.947 90.676 162.104 90.6199C162.26 90.5638 162.398 90.4657 162.502 90.3365C162.802 90.0022 163.02 89.6024 163.138 89.169C163.256 88.7357 163.271 88.2807 163.182 87.8405C163.159 87.6766 163.092 87.522 162.989 87.3926C162.886 87.2631 162.75 87.1636 162.596 87.1041Z" fill="#263238"/>
<path d="M161.029 89.9434C161.242 90.7483 161.891 90.9231 162.483 90.3365C162.783 90.0022 163.001 89.6024 163.119 89.1691C163.237 88.7357 163.252 88.2808 163.164 87.8405C163.155 87.6737 163.093 87.514 162.989 87.3841C162.884 87.2542 162.74 87.1608 162.579 87.1172C162.418 87.0736 162.247 87.0821 162.091 87.1414C161.935 87.2006 161.801 87.3078 161.71 87.4474C161.41 87.7817 161.192 88.1814 161.074 88.6148C160.956 89.0482 160.941 89.5031 161.029 89.9434Z" fill="#455A64"/>
<path d="M160.767 84.9701C160.175 83.2478 160.374 82.8922 158.945 82.5802C157.516 82.2682 157.504 81.0826 156.081 81.251C154.658 81.4195 153.585 81.875 152.961 81.7066C152.337 81.5381 151.058 82.1995 150.465 83.1542C149.872 84.109 149.885 85.5192 149.966 86.4864C150.047 87.4536 151.039 88.6517 153.086 89.1758C155.133 89.7 157.211 90.1493 157.641 89.1758C157.978 88.4021 157.672 87.7406 157.772 87.3038C157.835 87.0407 157.956 86.7951 158.126 86.5855C158.297 86.3758 158.513 86.2075 158.758 86.0933L159.763 86.3678L160.767 84.9701Z" fill="#FFA8A7"/>
<path d="M167.045 86.6611C166.875 86.0253 166.54 85.4456 166.074 84.9805C165.609 84.5153 165.029 84.1811 164.393 84.0115C163.757 83.8419 163.088 83.843 162.452 84.0145C161.817 84.1861 161.238 84.5221 160.774 84.9888L160.699 85.0637L160.618 85.151C159.883 86.0263 159.357 87.0562 159.077 88.1638C158.797 89.2715 158.771 90.428 159.002 91.547C159.002 91.6593 159.07 91.7654 159.108 91.8715C159.43 92.7446 160.067 93.4661 160.893 93.8953C161.719 94.3245 162.675 94.4305 163.575 94.1928C164.223 94.0143 164.816 93.6752 165.298 93.2068C166.091 92.3307 166.666 91.2791 166.975 90.1382C167.284 88.9972 167.319 87.7993 167.076 86.6424C167.067 86.6507 167.056 86.6571 167.045 86.6611Z" fill="#455A64"/>
<path d="M163.263 85.6752C162.473 86.5532 161.901 87.6051 161.593 88.7457C161.285 89.8862 161.25 91.0832 161.491 92.2397C162.053 94.3301 163.744 94.7918 165.279 93.263C166.069 92.385 166.642 91.3333 166.951 90.1929C167.26 89.0526 167.297 87.8555 167.057 86.6985C166.496 84.6019 164.805 84.1464 163.263 85.6752Z" fill="#37474F"/>
<path d="M155.75 94.068C155.432 93.0321 153.435 91.7217 152.2 91.054C151.712 90.834 151.279 90.51 150.929 90.1047C150.58 89.6994 150.324 89.2226 150.178 88.7078C150.128 88.5222 150.122 88.3277 150.16 88.1394C150.198 87.9511 150.279 87.774 150.396 87.622C150.686 87.3767 151.005 87.1672 151.345 86.998L152.693 86.2867C153.204 86.0121 153.691 85.6627 154.184 85.3507C154.302 85.2703 154.43 85.2053 154.565 85.1573C154.634 85.1358 154.707 85.1292 154.779 85.1378C154.851 85.1464 154.921 85.17 154.983 85.2072C155.47 85.5504 155.407 86.4926 155.208 86.9668C154.973 87.4175 154.658 87.8215 154.278 88.1587C153.933 88.4451 153.667 88.8145 153.504 89.232C153.429 89.6251 153.922 89.9246 154.215 90.0557C154.755 90.308 155.32 90.5025 155.9 90.636C156.655 90.7857 155.526 93.3379 155.75 94.068Z" fill="#FFA8A7"/>
<path d="M137.904 118.984C137.049 114.08 132.75 109.768 126.51 109.106L118.117 108.963C118.117 108.963 115.952 109.325 112.208 110.111C108.464 110.897 106.529 112.663 106.199 115.646C105.98 117.649 106.061 118.766 106.735 122.104L107.559 127.826C107.559 127.826 110.454 135.789 110.679 138.84C111.017 142.895 110.391 146.973 108.851 150.74C119.895 155.594 130.191 157.129 138.746 150.964C140.032 143.52 140.269 132.375 137.904 118.984Z" fill="#FFA8A7"/>
<path d="M140.163 126.56C139.152 114.816 128.875 109.381 128.875 109.381L121.911 107.952L112.089 110.136C112.089 110.136 114.541 122.329 107.584 127.82C107.584 127.82 108.102 129.992 109.294 134.472C110.485 138.952 111.372 144.949 107.74 152.069C107.74 152.069 110.797 155.089 122.398 155.906C133.998 156.724 139.464 151.364 139.464 151.364C139.464 151.364 141.149 138.335 140.163 126.56Z" fill="#BB2525"/>
<path opacity="0.1" d="M120.226 155.719C120.85 154.721 121.474 153.379 121.474 152.506C121.412 150.971 115.727 150.309 114.679 149.704C113.63 149.099 114.005 144.144 113.618 140.15C113.231 136.157 110.735 129.542 109.499 126.36L109.774 125.518C109.167 126.39 108.436 127.167 107.603 127.826C107.603 127.826 108.12 129.998 109.312 134.478C110.504 138.959 111.39 144.955 107.759 152.075C107.74 152.075 110.448 154.708 120.226 155.719Z" fill="black"/>
<path d="M112.089 110.142C112.089 110.142 107.303 108.894 104.146 110.766C101.55 112.301 100.139 114.155 98.9227 117.861C96.8738 119.472 95.0352 121.333 93.4502 123.402C90.5798 127.327 88.4582 131.907 86.8545 134.422C85.9809 135.782 84.8203 137.087 85.1198 139.046C85.2384 139.807 85.7438 140.244 86.6237 141.086L95.4221 138.634C98.0054 135.814 103.74 131.77 107.278 127.196L107.584 127.82C109.092 126.88 110.353 125.592 111.262 124.065C112.17 122.537 112.7 120.815 112.807 119.04C113.225 111.796 112.089 110.142 112.089 110.142Z" fill="#FFA8A7"/>
<path d="M85.6503 140.076C86.6237 141.068 88.2024 143.345 91.2663 145.966C93.5938 147.963 98.7043 150.958 100.626 152.063C103.272 153.585 104.277 154.334 106.317 155.551C107.858 156.462 111.259 158.221 114.498 158.24C116.37 158.24 118.722 157.048 120.17 154.228C120.913 152.786 118.579 151.863 115.44 151.357C111.521 150.733 110.76 149.885 109.793 149.373C109.169 149.024 109.169 148.593 109.412 147.894C109.589 147.398 109.721 146.886 109.805 146.365C109.656 146.259 108.901 146.365 108.033 147.052C106.985 147.894 106.105 148.1 103.615 145.548C101.038 142.902 99.9898 140.3 96.6202 137.436C93.2506 134.572 85.6503 140.076 85.6503 140.076Z" fill="#FFA8A7"/>
<path d="M109.418 125.299C109.481 124.351 109.468 123.895 109.468 123.895C108.798 125.028 108.067 126.124 107.278 127.177L107.584 127.801C108.267 127.393 108.895 126.9 109.456 126.335C109.406 125.992 109.394 125.645 109.418 125.299Z" fill="#F28F8F"/>
<path d="M96.6077 137.424C95.828 137.005 94.9717 136.748 94.0902 136.669C93.2087 136.589 92.3203 136.689 91.4784 136.962C91.4784 136.962 93.6187 134.821 97.7558 136.381L96.6077 137.424Z" fill="#F28F8F"/>
<path d="M115.147 83.8094C114.509 83.9889 113.927 84.3294 113.458 84.7981C112.99 85.2669 112.649 85.8482 112.47 86.4864C112.002 88.0277 112.27 90.9418 113.237 94.7606C113.844 97.2807 114.76 99.716 115.964 102.012C116.338 102.661 116.948 103.142 117.668 103.353L117.53 98.8229L117.343 95.6592C117.343 95.6592 119.359 92.8762 119.565 90.6048C119.833 87.6845 119.209 86.4927 119.209 86.4927L115.147 83.8094Z" fill="#37474F"/>
<path d="M115.353 84.8203L111.983 84.1277C112.078 83.6618 112.348 83.2496 112.736 82.9749C113.124 82.7003 113.602 82.5837 114.073 82.6488C114.301 82.7062 114.514 82.8081 114.702 82.9487C114.89 83.0892 115.047 83.2656 115.166 83.4675C115.285 83.6695 115.363 83.8931 115.395 84.1253C115.427 84.3575 115.413 84.5937 115.353 84.8203Z" fill="#37474F"/>
<path d="M115.44 83.9529L112.944 81.6254C113.259 81.2669 113.703 81.0464 114.179 81.0114C114.655 80.9764 115.126 81.1297 115.49 81.4382C115.654 81.6054 115.783 81.8036 115.87 82.0213C115.956 82.2391 115.998 82.4718 115.994 82.7061C115.989 82.9403 115.938 83.1712 115.843 83.3853C115.748 83.5995 115.611 83.7924 115.44 83.9529Z" fill="#37474F"/>
<path d="M122.217 89.1883C122.23 90.647 122.676 92.0689 123.498 93.2742C124.32 94.4795 125.48 95.414 126.833 95.9597C128.186 96.5053 129.67 96.6375 131.098 96.3396C132.526 96.0417 133.834 95.3271 134.856 94.286C135.878 93.245 136.568 91.9243 136.839 90.491C137.11 89.0577 136.95 87.5762 136.38 86.2337C135.809 84.8912 134.853 83.7482 133.633 82.949C132.412 82.1498 130.982 81.7305 129.524 81.744C128.555 81.753 127.598 81.9527 126.706 82.3316C125.815 82.7106 125.007 83.2615 124.328 83.9528C123.65 84.644 123.114 85.4622 122.752 86.3605C122.389 87.2588 122.208 88.2197 122.217 89.1883Z" fill="#37474F"/>
<path d="M117.462 95.1538C116.7 95.8215 116.07 94.1117 115.428 93.4503C114.785 92.7888 112.682 91.8965 111.684 94.0743C110.685 96.252 112.632 99.4407 114.242 100.065C114.616 100.232 115.028 100.296 115.435 100.25C115.842 100.204 116.23 100.049 116.557 99.8026L116.619 109.418C117.724 111.571 122.079 114.354 127.046 113.499C129.174 113.137 128.182 110.542 127.046 109.088L127.003 105.543C128.266 105.731 129.546 105.786 130.822 105.706C132.906 105.362 133.979 103.784 134.566 101.525C135.545 97.8932 135.913 91.8029 134.478 84.7767C132.138 82.9858 124.051 83.3352 119.178 86.4677C119.608 92.7264 118.217 94.4924 117.462 95.1538Z" fill="#FFA8A7"/>
<path d="M135.639 79.8096C135.614 79.748 135.573 79.6941 135.52 79.6536C135.468 79.613 135.405 79.5872 135.339 79.5787C135.233 79.5897 135.133 79.6333 135.052 79.7035C134.465 80.1717 133.838 80.5892 133.18 80.9515C133.339 80.127 133.339 79.28 133.18 78.4555C133.087 77.9438 132.931 76.752 132.294 76.6334C131.92 76.5586 131.589 76.8768 131.308 77.1389C128.781 79.535 125.449 78.4555 122.385 78.5741C119.82 78.6677 116.732 79.7347 115.59 82.2307C115.066 83.3789 114.966 84.577 116.033 85.3507C116.971 85.9685 118.038 86.3614 119.153 86.4989C124.27 87.3538 131.633 89.413 135.377 84.6269C135.923 83.9133 136.197 83.0284 136.151 82.1309C136.151 81.3417 135.972 80.5628 135.626 79.8533L135.639 79.8096Z" fill="#37474F"/>
<path d="M127.009 105.568C127.009 105.568 122.354 104.676 120.719 103.827C119.627 103.26 118.161 102.33 117.892 101.693C117.952 102.267 118.132 102.822 118.421 103.321C118.711 103.82 119.102 104.252 119.571 104.589C122.067 106.461 127.028 107.085 127.028 107.085L127.009 105.568Z" fill="#F28F8F"/>
<path d="M125.736 93.3878C125.743 93.6384 125.65 93.8814 125.478 94.0638C125.306 94.2462 125.069 94.3531 124.819 94.3613C124.566 94.3564 124.325 94.2521 124.149 94.0711C123.973 93.89 123.875 93.6468 123.876 93.3941C123.876 93.1458 123.975 92.9078 124.151 92.7322C124.326 92.5567 124.564 92.4581 124.812 92.4581C125.061 92.4581 125.299 92.5567 125.474 92.7322C125.65 92.9078 125.748 93.1458 125.748 93.3941L125.736 93.3878Z" fill="#263238"/>
<path d="M125.218 90.5487L123.146 91.4909C123.026 91.207 123.02 90.8878 123.13 90.5996C123.239 90.3114 123.455 90.0764 123.733 89.9434C123.87 89.8824 124.018 89.8496 124.167 89.8472C124.317 89.8448 124.466 89.8726 124.605 89.9292C124.743 89.9857 124.869 90.0698 124.975 90.1762C125.08 90.2827 125.163 90.4094 125.218 90.5487Z" fill="#263238"/>
<path d="M125.861 99.3595L129.605 100.72C129.525 100.967 129.397 101.196 129.228 101.393C129.058 101.591 128.851 101.752 128.619 101.868C128.387 101.985 128.133 102.053 127.874 102.07C127.615 102.087 127.354 102.053 127.109 101.968C126.603 101.78 126.19 101.403 125.957 100.916C125.724 100.43 125.689 99.8712 125.861 99.3595Z" fill="#B16668"/>
<path d="M127.078 101.974C127.408 102.093 127.764 102.117 128.107 102.043C128.086 101.578 127.886 101.14 127.548 100.82C127.211 100.5 126.763 100.323 126.298 100.327C126.128 100.331 125.96 100.358 125.798 100.408C125.855 100.758 126.003 101.088 126.227 101.363C126.452 101.638 126.745 101.849 127.078 101.974Z" fill="#F28F8F"/>
<path d="M134.21 91.1664L132.051 90.3864C132.096 90.2437 132.169 90.1116 132.266 89.9979C132.364 89.8843 132.483 89.7915 132.617 89.725C132.751 89.6586 132.897 89.6199 133.046 89.6113C133.196 89.6027 133.345 89.6244 133.486 89.675C133.774 89.7849 134.009 90.0003 134.143 90.2774C134.278 90.5544 134.302 90.8724 134.21 91.1664Z" fill="#263238"/>
<path d="M133.729 93.1133C133.723 93.2952 133.664 93.4713 133.559 93.6198C133.453 93.7683 133.307 93.8826 133.137 93.9485C132.968 94.0145 132.782 94.0293 132.604 93.9909C132.426 93.9526 132.264 93.8629 132.136 93.733C132.009 93.603 131.922 93.4385 131.888 93.2599C131.853 93.0812 131.871 92.8963 131.94 92.728C132.01 92.5597 132.127 92.4155 132.277 92.3131C132.428 92.2108 132.605 92.1549 132.787 92.1523C133.039 92.1556 133.28 92.2585 133.456 92.4386C133.633 92.6186 133.731 92.8612 133.729 93.1133Z" fill="#263238"/>
<path d="M128.625 92.0775L129.199 97.9743L132.319 96.9135L128.625 92.0775Z" fill="#F28F8F"/>
<path d="M295.32 220.927L177.653 288.794L117.911 254.492L235.579 186.626L295.32 220.927Z" fill="#BB2525"/>
<path opacity="0.7" d="M295.32 220.927L177.653 288.794L117.911 254.492L235.579 186.626L295.32 220.927Z" fill="white"/>
<path d="M295.321 220.927V222.593L177.653 290.46V288.793L295.321 220.927Z" fill="#BB2525"/>
<path opacity="0.5" d="M295.321 220.927V222.593L177.653 290.46V288.793L295.321 220.927Z" fill="white"/>
<path d="M177.653 288.793L117.911 254.492V256.158L177.653 290.46V288.793Z" fill="#BB2525"/>
<path opacity="0.4" d="M177.653 288.793L117.911 254.492V256.158L177.653 290.46V288.793Z" fill="white"/>
<path opacity="0.1" d="M185.515 274.242L184.186 273.474C183.281 272.95 183.281 272.108 184.186 271.602L187.156 269.886L177.884 264.526L174.913 266.242C174.405 266.497 173.844 266.63 173.275 266.63C172.707 266.63 172.146 266.497 171.637 266.242L170.308 265.468C169.404 264.95 169.404 264.102 170.308 263.596L179.319 258.336C179.825 258.077 180.385 257.943 180.954 257.943C181.522 257.943 182.082 258.077 182.589 258.336L183.924 259.104C184.829 259.628 184.829 260.47 183.924 260.976L180.642 262.848L189.914 268.208L193.197 266.336C193.704 266.08 194.264 265.947 194.832 265.947C195.399 265.947 195.959 266.08 196.466 266.336L197.802 267.109C198.707 267.627 198.707 268.476 197.802 268.981L188.791 274.179C188.289 274.448 187.73 274.593 187.161 274.604C186.591 274.615 186.027 274.491 185.515 274.242Z" fill="black"/>
<path d="M180.96 256.065C180.96 256.065 180.96 256.065 180.96 256.033C180.96 255.211 180.742 254.402 180.329 253.691C179.915 252.979 179.321 252.39 178.607 251.982C177.892 251.574 177.082 251.362 176.26 251.368C175.437 251.374 174.63 251.597 173.921 252.015H173.89L173.778 252.09C173.734 252.113 173.692 252.14 173.653 252.171C172.484 252.988 171.516 254.061 170.822 255.307C170.128 256.553 169.726 257.941 169.647 259.366V259.416C169.647 259.559 169.647 259.703 169.647 259.84C169.706 260.501 169.906 261.143 170.233 261.72C170.561 262.298 171.009 262.799 171.546 263.189C172.083 263.58 172.698 263.85 173.349 263.983C174 264.115 174.672 264.107 175.319 263.958C175.803 263.864 176.268 263.687 176.692 263.434C177.927 262.63 178.956 261.546 179.693 260.27C180.43 258.994 180.856 257.561 180.935 256.09C180.935 256.09 180.96 256.077 180.96 256.065Z" fill="#455A64"/>
<path d="M176.698 253.662C175.463 254.466 174.434 255.55 173.697 256.826C172.96 258.103 172.534 259.535 172.455 261.007C172.455 263.715 174.358 264.813 176.698 263.459C177.934 262.655 178.962 261.571 179.699 260.295C180.437 259.019 180.862 257.586 180.941 256.115C180.96 253.406 179.038 252.308 176.698 253.662Z" fill="#37474F"/>
<path d="M189.602 262.823H189.571L178.664 256.464C178.442 256.346 178.191 256.293 177.94 256.312C177.689 256.331 177.449 256.42 177.247 256.57C176.678 256.941 176.203 257.442 175.863 258.03C175.523 258.619 175.326 259.279 175.288 259.958C175.269 260.203 175.318 260.449 175.428 260.668C175.538 260.888 175.705 261.074 175.912 261.206L186.819 267.528C187.042 267.639 187.29 267.686 187.538 267.665C187.786 267.644 188.023 267.556 188.223 267.409C188.792 267.037 189.266 266.537 189.605 265.948C189.944 265.36 190.14 264.699 190.176 264.021C190.188 263.789 190.141 263.558 190.041 263.349C189.941 263.14 189.79 262.959 189.602 262.823Z" fill="#263238"/>
<path d="M186.239 266.329C186.239 267.577 187.113 268.083 188.192 267.459C188.761 267.087 189.234 266.587 189.574 265.998C189.913 265.409 190.109 264.749 190.145 264.071C190.145 262.823 189.272 262.317 188.192 262.941C187.623 263.313 187.15 263.813 186.811 264.402C186.471 264.991 186.275 265.651 186.239 266.329Z" fill="#455A64"/>
<path d="M195.075 264.226C195.076 263.613 194.956 263.005 194.721 262.438C194.487 261.871 194.144 261.356 193.71 260.922C193.277 260.488 192.762 260.144 192.195 259.909C191.628 259.674 191.021 259.553 190.407 259.553C189.577 259.544 188.76 259.76 188.042 260.177H188.011L187.899 260.245L187.768 260.326C186.6 261.145 185.634 262.218 184.941 263.464C184.248 264.71 183.847 266.097 183.768 267.521V267.577C183.768 267.715 183.768 267.858 183.768 268.002C183.828 268.664 184.029 269.305 184.357 269.883C184.685 270.461 185.133 270.961 185.671 271.351C186.209 271.742 186.824 272.012 187.476 272.145C188.127 272.277 188.799 272.269 189.446 272.12C189.932 272.029 190.397 271.851 190.819 271.596C192.055 270.792 193.083 269.708 193.821 268.432C194.558 267.156 194.983 265.723 195.062 264.251C195.062 264.251 195.075 264.245 195.075 264.226Z" fill="#455A64"/>
<path d="M190.838 261.824C189.601 262.628 188.573 263.713 187.835 264.991C187.098 266.268 186.673 267.702 186.595 269.175C186.595 271.877 188.467 272.975 190.838 271.621C192.074 270.817 193.102 269.733 193.839 268.457C194.577 267.181 195.002 265.748 195.081 264.276C195.081 261.568 193.178 260.476 190.838 261.824Z" fill="#37474F"/>
<path d="M107.216 242.012C106.896 240.861 106.464 239.745 105.924 238.68C105.868 238.555 105.805 238.437 105.749 238.312C105.233 237.314 104.971 236.204 104.986 235.081C105.001 233.958 105.293 232.855 105.837 231.872C105.88 231.803 105.918 231.735 105.955 231.666C106.624 230.515 106.969 229.204 106.954 227.872C106.911 227.143 106.692 226.436 106.315 225.81C105.938 225.185 105.414 224.661 104.788 224.284C104.465 224.098 104.13 223.936 103.784 223.798C103.463 223.672 103.187 223.454 102.993 223.17C102.798 222.886 102.693 222.551 102.692 222.206V220.272H96.4079V222.238C96.4026 222.582 96.2946 222.916 96.0978 223.199C95.901 223.481 95.6244 223.698 95.3035 223.823C94.954 223.955 94.6159 224.116 94.2926 224.303C93.6644 224.675 93.1365 225.194 92.7548 225.816C92.3731 226.438 92.1491 227.144 92.1024 227.872C92.0734 229.203 92.4078 230.517 93.0695 231.672L93.1756 231.866C93.7142 232.855 94.001 233.962 94.0108 235.088C94.0206 236.214 93.753 237.326 93.2318 238.324C93.1694 238.443 93.107 238.561 93.0508 238.686C92.4993 239.747 92.0581 240.861 91.7342 242.012C91.5082 243.125 91.4057 244.259 91.4284 245.394L91.391 254.542C91.391 255.728 92.1647 256.919 93.7247 257.824C95.1243 258.592 96.6746 259.046 98.2675 259.153C99.0233 259.216 99.783 259.216 100.539 259.153C102.123 259.056 103.666 258.616 105.063 257.862C106.635 256.969 107.422 255.784 107.428 254.598V247.984C107.428 247.16 107.465 246.299 107.465 245.438C107.51 244.29 107.426 243.141 107.216 242.012Z" fill="#455A64"/>
<path d="M105.837 231.872C105.88 231.804 105.918 231.735 105.955 231.666C106.526 230.686 106.859 229.585 106.929 228.453C106.775 228.911 106.566 229.35 106.305 229.757C105.529 230.89 104.572 231.887 103.472 232.708C102.392 233.588 101.194 234.58 101.063 235.972C100.932 237.363 101.88 238.53 102.935 239.341C103.989 240.153 105.269 240.72 106.23 241.656C106.645 242.07 107.013 242.529 107.328 243.023C107.284 242.68 107.234 242.343 107.166 242.012C106.846 240.861 106.414 239.745 105.874 238.68C105.818 238.555 105.755 238.437 105.699 238.312C105.19 237.31 104.937 236.198 104.961 235.075C104.985 233.951 105.285 232.851 105.837 231.872Z" fill="#37474F"/>
<path d="M95.3533 222.412V223.467C95.3867 223.844 95.5199 224.205 95.7393 224.513C95.9587 224.821 96.2562 225.065 96.6013 225.22C97.5376 225.694 98.5722 225.941 99.6215 225.941C100.671 225.941 101.705 225.694 102.642 225.22C103.011 225.022 103.333 224.745 103.584 224.409C103.781 224.141 103.89 223.818 103.896 223.486V222.412C103.898 222.316 103.888 222.219 103.865 222.125C103.78 221.808 103.628 221.513 103.419 221.26C103.21 221.007 102.949 220.802 102.654 220.659L102.592 220.628C101.664 220.163 100.64 219.921 99.6028 219.921C98.5651 219.921 97.5417 220.163 96.6138 220.628C96.3136 220.764 96.0465 220.965 95.8311 221.215C95.6156 221.465 95.4569 221.758 95.3658 222.075C95.3464 222.187 95.3422 222.3 95.3533 222.412Z" fill="#BB2525"/>
<path opacity="0.1" d="M95.3533 222.412V223.467C95.3867 223.844 95.5199 224.205 95.7393 224.513C95.9587 224.821 96.2562 225.065 96.6013 225.22C97.5376 225.694 98.5722 225.941 99.6215 225.941C100.671 225.941 101.705 225.694 102.642 225.22C103.011 225.022 103.333 224.745 103.584 224.409C103.781 224.141 103.89 223.818 103.896 223.486V222.412C103.898 222.316 103.888 222.219 103.865 222.125C103.78 221.808 103.628 221.513 103.419 221.26C103.21 221.007 102.949 220.802 102.654 220.659L102.592 220.628C101.664 220.163 100.64 219.921 99.6028 219.921C98.5651 219.921 97.5417 220.163 96.6138 220.628C96.3136 220.764 96.0465 220.965 95.8311 221.215C95.6156 221.465 95.4569 221.758 95.3658 222.075C95.3464 222.187 95.3422 222.3 95.3533 222.412Z" fill="black"/>
<path opacity="0.2" d="M102.636 224.172C104.302 223.217 104.308 221.676 102.636 220.684C101.7 220.209 100.665 219.961 99.6154 219.961C98.5658 219.961 97.531 220.209 96.5952 220.684C94.9229 221.639 94.9166 223.18 96.5952 224.166C97.5305 224.642 98.565 224.891 99.6146 224.892C100.664 224.893 101.699 224.646 102.636 224.172Z" fill="black"/>
<path d="M95.3533 221.177V221.801C95.3516 221.901 95.3621 222.002 95.3845 222.1C95.4714 222.415 95.6243 222.709 95.8329 222.96C96.0416 223.212 96.3014 223.417 96.5951 223.56C97.417 224.005 98.3317 224.251 99.2658 224.278C100.432 224.362 101.599 224.12 102.635 223.579C103.007 223.382 103.331 223.105 103.584 222.768C103.72 222.582 103.815 222.369 103.865 222.144C103.888 222.048 103.898 221.949 103.896 221.851V221.195C103.863 220.819 103.73 220.459 103.51 220.152C103.291 219.845 102.993 219.602 102.648 219.448C102.573 219.405 102.498 219.361 102.417 219.323C101.503 218.903 100.507 218.694 99.5009 218.711C98.4952 218.728 97.5064 218.972 96.6076 219.423C96.2613 219.577 95.9625 219.821 95.742 220.129C95.5214 220.438 95.3873 220.799 95.3533 221.177Z" fill="#BB2525"/>
<path opacity="0.1" d="M95.3533 221.177V221.801C95.3516 221.901 95.3621 222.002 95.3845 222.1C95.4714 222.415 95.6243 222.709 95.8329 222.96C96.0416 223.212 96.3014 223.417 96.5951 223.56C97.417 224.005 98.3317 224.251 99.2658 224.278C100.432 224.362 101.599 224.12 102.635 223.579C103.007 223.382 103.331 223.105 103.584 222.768C103.72 222.582 103.815 222.369 103.865 222.144C103.888 222.048 103.898 221.949 103.896 221.851V221.195C103.863 220.819 103.73 220.459 103.51 220.152C103.291 219.845 102.993 219.602 102.648 219.448C102.573 219.405 102.498 219.361 102.417 219.323C101.503 218.903 100.507 218.694 99.5009 218.711C98.4952 218.728 97.5064 218.972 96.6076 219.423C96.2613 219.577 95.9625 219.821 95.742 220.129C95.5214 220.438 95.3873 220.799 95.3533 221.177Z" fill="black"/>
<path d="M95.3534 221.158C95.3534 222.512 97.2566 223.617 99.6153 223.654C101.974 223.691 103.89 222.568 103.896 221.214C103.902 219.86 101.993 218.756 99.634 218.718C97.2753 218.681 95.3596 219.804 95.3534 221.158Z" fill="#BB2525"/>
<path d="M98.1552 218.637V220.852C98.1521 220.885 98.1521 220.919 98.1552 220.952C98.1862 221.062 98.24 221.163 98.3131 221.25C98.3863 221.337 98.477 221.408 98.5795 221.458C98.8627 221.614 99.1796 221.7 99.503 221.707C99.9072 221.74 100.312 221.655 100.67 221.464C100.799 221.397 100.91 221.301 100.994 221.183C101.044 221.119 101.078 221.044 101.094 220.965C101.097 220.931 101.097 220.898 101.094 220.865V218.65C101.085 218.516 101.04 218.388 100.965 218.278C100.889 218.169 100.785 218.081 100.664 218.026L100.589 217.988C100.272 217.842 99.9263 217.769 99.5774 217.774C99.2286 217.78 98.8854 217.863 98.5732 218.019C98.4549 218.076 98.3537 218.163 98.2802 218.271C98.2067 218.38 98.1635 218.506 98.1552 218.637Z" fill="#BB2525"/>
<path opacity="0.1" d="M98.1552 218.637V220.852C98.1521 220.885 98.1521 220.919 98.1552 220.952C98.1862 221.062 98.24 221.163 98.3131 221.25C98.3863 221.337 98.477 221.408 98.5795 221.458C98.8627 221.614 99.1796 221.7 99.503 221.707C99.9072 221.74 100.312 221.655 100.67 221.464C100.799 221.397 100.91 221.301 100.994 221.183C101.044 221.119 101.078 221.044 101.094 220.965C101.097 220.931 101.097 220.898 101.094 220.865V218.65C101.085 218.516 101.04 218.388 100.965 218.278C100.889 218.169 100.785 218.081 100.664 218.026L100.589 217.988C100.272 217.842 99.9263 217.769 99.5774 217.774C99.2286 217.78 98.8854 217.863 98.5732 218.019C98.4549 218.076 98.3537 218.163 98.2802 218.271C98.2067 218.38 98.1635 218.506 98.1552 218.637Z" fill="black"/>
<path d="M98.1552 218.631C98.1552 219.099 98.8166 219.486 99.634 219.486C100.451 219.486 101.113 219.111 101.113 218.643C101.113 218.175 100.489 217.788 99.6403 217.788C98.7916 217.788 98.1552 218.163 98.1552 218.631Z" fill="#BB2525"/>
<path d="M99.1099 218.637C99.1099 218.799 99.3407 218.937 99.634 218.937C99.9273 218.937 100.158 218.806 100.158 218.637C100.158 218.469 99.9273 218.338 99.634 218.338C99.3407 218.338 99.1099 218.469 99.1099 218.637Z" fill="#BB2525"/>
<path opacity="0.3" d="M99.1099 218.637C99.1099 218.799 99.3407 218.937 99.634 218.937C99.9273 218.937 100.158 218.806 100.158 218.637C100.158 218.469 99.9273 218.338 99.634 218.338C99.3407 218.338 99.1099 218.469 99.1099 218.637Z" fill="black"/>
<path opacity="0.1" d="M252.489 211.748C252.065 213.414 252.265 215.193 251.784 216.84C251.091 219.199 249.095 220.952 246.954 222.156C238.449 226.936 227.679 224.652 218.388 227.641C215.511 228.571 212.491 230.4 211.929 233.37C211.524 235.504 212.553 237.738 214.151 239.204C215.81 240.615 217.756 241.65 219.854 242.237C228.134 244.97 237.07 244.689 245.694 243.36C254.848 241.944 263.478 236.714 266.685 234.275C271.677 230.499 275.321 224.384 274.441 218.207C273.637 212.591 268.382 208.435 263.253 206.538C259.191 205.034 253.594 207.436 252.489 211.748Z" fill="black"/>
<path d="M259.933 95.2036C262.155 93.7996 266.404 92.7076 270.017 93.9556C276.257 91.8028 279.377 92.196 284.369 92.1897C285.486 92.1897 289.124 91.834 289.811 92.4643C290.335 92.9385 290.491 93.5001 290.74 94.6108L288.519 100.526C284.663 101.288 282.441 102.23 276.913 103.103C272.545 103.796 269.774 104.214 269.293 106.28C265.418 103.298 262.227 99.5216 259.933 95.2036Z" fill="#B16668"/>
<path d="M292.656 98.3362C293.392 97.4189 293.411 96.2957 293.33 94.823C293.193 92.4643 292.332 87.959 291.976 85.9498C291.414 82.6987 290.778 80.7394 290.316 78.1435C289.823 75.3605 290.116 73.9003 289.118 71.6976C288.207 69.6883 282.104 69.0893 280.844 71.7662C280.12 73.3075 282.766 74.0813 282.841 75.2544C282.841 75.2544 280.426 74.4994 280.931 75.9845C281.555 77.7691 283.833 77.663 284.107 79.9469C284.5 83.1605 284.107 88.5144 284.107 93.3878C284.107 95.3971 285.118 101.3 285.118 101.3C287.583 100.601 291.009 100.389 292.656 98.3362Z" fill="#B16668"/>
<path d="M288.769 78.1435L289.698 75.1982L281.48 73.632C282.104 74.1873 282.791 74.6865 282.828 75.2856C282.828 75.2856 280.413 74.5305 280.919 76.0156C281.059 76.4065 281.295 76.7561 281.605 77.0328C282.406 77.4998 283.24 77.9065 284.101 78.2496C285.592 78.7051 286.728 78.5616 287.29 77.688C287.315 77.6318 288.769 78.1435 288.769 78.1435Z" fill="#9A4A4D"/>
<path d="M284.095 92.1211C285.807 92.1536 287.446 92.8207 288.694 93.9931C288.694 93.9931 288.382 91.6781 284.101 90.923V92.0712L284.095 92.1211Z" fill="#9A4A4D"/>
<path d="M281.125 70.331C280.968 69.7429 280.658 69.2066 280.228 68.7764C279.797 68.3462 279.261 68.0373 278.673 67.8809C278.084 67.7245 277.465 67.7262 276.878 67.8858C276.291 68.0453 275.756 68.3572 275.328 68.7897C275.303 68.811 275.28 68.8339 275.259 68.8584L275.184 68.9395C274.505 69.7478 274.018 70.6992 273.758 71.7226C273.499 72.7459 273.474 73.8146 273.686 74.8488V74.88C273.686 74.986 273.749 75.0859 273.78 75.1795C274.078 75.9875 274.666 76.6553 275.43 77.0523C276.194 77.4493 277.079 77.5469 277.911 77.326C278.157 77.2558 278.395 77.1618 278.622 77.0452C278.949 76.8892 279.247 76.6782 279.502 76.4212C280.233 75.6104 280.763 74.6386 281.048 73.5848C281.333 72.531 281.366 71.4248 281.143 70.356L281.125 70.331Z" fill="#455A64"/>
<path d="M277.636 69.42C276.902 70.2323 276.37 71.2072 276.085 72.2647C275.799 73.3223 275.769 74.4323 275.995 75.504C276.513 77.4384 278.08 77.8627 279.496 76.4525C280.227 75.6416 280.757 74.6699 281.042 73.616C281.327 72.5622 281.36 71.456 281.137 70.3872C280.619 68.4278 279.053 68.016 277.636 69.42Z" fill="#37474F"/>
<path d="M291.096 74.6179H291.065L279.209 71.3232C279.058 71.2879 278.899 71.2961 278.753 71.3469C278.606 71.3977 278.476 71.489 278.379 71.6102C278.098 71.9211 277.895 72.2942 277.787 72.6988C277.678 73.1035 277.667 73.5281 277.755 73.9377C277.778 74.0892 277.841 74.2316 277.939 74.3493C278.037 74.4671 278.166 74.5557 278.31 74.6054L290.166 77.9001C290.316 77.9301 290.472 77.9186 290.616 77.867C290.76 77.8153 290.887 77.7254 290.984 77.6069C291.265 77.2948 291.468 76.9206 291.576 76.515C291.685 76.1093 291.696 75.6837 291.608 75.2731C291.586 75.1292 291.527 74.9933 291.438 74.8786C291.348 74.7638 291.23 74.6741 291.096 74.6179Z" fill="#263238"/>
<path d="M289.648 77.2387C289.655 77.3934 289.71 77.5421 289.807 77.6634C289.903 77.7846 290.035 77.872 290.185 77.913C290.334 77.954 290.493 77.9464 290.637 77.8914C290.782 77.8363 290.906 77.7367 290.99 77.6068C291.271 77.2947 291.474 76.9206 291.582 76.5149C291.691 76.1093 291.702 75.6837 291.614 75.2731C291.414 74.5305 290.815 74.3683 290.272 74.9111C289.992 75.222 289.789 75.5951 289.68 75.9997C289.572 76.4044 289.561 76.829 289.648 77.2387Z" fill="#455A64"/>
<path d="M289.405 72.646C288.862 71.0548 289.043 70.7241 287.72 70.4371C286.397 70.15 286.391 69.0518 285.074 69.1891C283.758 69.3263 282.766 69.8131 282.179 69.6071C281.593 69.4012 280.419 70.0689 279.877 70.9487C279.425 71.9069 279.266 72.9771 279.421 74.0251C279.496 74.9174 280.438 75.9782 282.254 76.7207C284.07 77.4633 286.709 78.5927 287.283 77.0764L286.535 76.8705C286.282 76.2967 286.246 75.6505 286.434 75.0523C286.622 74.4541 287.022 73.9448 287.558 73.6195L288.482 73.8753L289.405 72.646Z" fill="#B16668"/>
<path d="M295.202 74.206C294.965 73.3208 294.386 72.566 293.593 72.1073C292.8 71.6486 291.857 71.5237 290.971 71.76C290.377 71.9167 289.835 72.2315 289.405 72.671L289.343 72.7459L289.262 72.827C288.582 73.6347 288.094 74.5863 287.836 75.61C287.577 76.6337 287.555 77.7027 287.77 78.7363V78.7737C287.801 78.8736 287.833 78.9734 287.87 79.0732C288.168 79.8812 288.756 80.5491 289.52 80.9461C290.284 81.3431 291.169 81.4407 292.001 81.2198C292.247 81.1539 292.486 81.0618 292.712 80.9452C293.04 80.7874 293.339 80.5766 293.598 80.3212C294.326 79.5089 294.852 78.5362 295.133 77.4822C295.414 76.4282 295.442 75.3228 295.215 74.256C295.215 74.2385 295.211 74.2211 295.202 74.206Z" fill="#455A64"/>
<path d="M291.714 73.295C290.984 74.1064 290.456 75.0784 290.171 76.1322C289.887 77.186 289.856 78.292 290.079 79.3603C290.591 81.2947 292.157 81.719 293.58 80.3025C294.308 79.494 294.836 78.5251 295.12 77.4746C295.404 76.4241 295.436 75.3214 295.214 74.256C294.703 72.3091 293.137 71.8848 291.714 73.295Z" fill="#37474F"/>
<path d="M218.169 233.563C217.963 233.632 217.932 234.811 218.119 235.217C218.306 235.622 219.623 237.089 222.275 237.607C224.927 238.125 228.578 237.607 230.144 237.513C231.71 237.42 236.64 238.019 238.206 238.231C240.664 238.561 242.574 238.025 243.479 237.133C243.628 236.954 243.738 236.746 243.801 236.523C243.865 236.299 243.88 236.065 243.847 235.835C243.803 234.793 243.709 234.587 243.585 234.587L218.169 233.563Z" fill="#37474F"/>
<path d="M243.179 231.504C243.229 231.712 243.273 231.92 243.31 232.128C243.548 233.175 243.626 234.252 243.541 235.323C243.346 235.678 243.079 235.989 242.756 236.235C242.434 236.481 242.064 236.657 241.669 236.752C239.797 237.338 238.399 237.245 236.346 236.858C234.281 236.554 232.194 236.424 230.106 236.471C228.297 236.69 226.475 236.782 224.653 236.746C223.278 236.684 221.922 236.406 220.634 235.922C219.555 235.46 218.456 234.874 218.194 233.763C218.118 233.02 218.272 232.272 218.635 231.619C218.997 230.966 219.551 230.44 220.222 230.112C222.2 228.952 224.727 228.933 226.955 228.864C228.746 228.808 230.606 228.765 232.197 227.941C232.985 227.426 233.804 226.959 234.649 226.543C235.265 226.42 235.896 226.391 236.521 226.456C237.913 226.425 239.304 226.393 240.689 226.381C241.07 226.381 241.451 226.381 241.825 226.381C242.574 226.443 242.711 229.033 242.799 229.532C242.873 229.932 242.886 230.35 242.992 230.736C243.048 230.992 243.117 231.248 243.179 231.504Z" fill="#455A64"/>
<path d="M230.88 228.446C229.987 229.162 229.393 230.186 229.214 231.317C229.251 232.103 227.872 232.172 227.835 231.385C227.835 231.385 227.96 229.607 229.039 228.758C229.604 228.461 230.249 228.352 230.88 228.446Z" fill="#FAFAFA"/>
<path d="M227.685 228.84C227.685 228.84 226.618 229.401 226.344 231.336C226.344 231.916 225.096 231.866 225.139 231.286C225.139 231.286 225.327 229.613 226.238 228.858C226.618 228.615 227.56 228.609 227.685 228.84Z" fill="#FAFAFA"/>
<path d="M255.896 209.864C255.428 211.698 255.484 212.491 256.027 213.926C256.801 215.991 258.174 216.94 259.097 217.745C260.143 218.672 261.058 219.736 261.818 220.908C262.571 222.192 263.53 223.343 264.657 224.315C265.537 225.046 267.971 225.064 269.138 224.546C270.304 224.028 270.685 223.579 270.579 221.707C270.473 219.835 264.77 219.305 264.77 219.305L255.896 209.864Z" fill="#37474F"/>
<path d="M269.693 216.172C270.173 216.347 270.317 217.264 270.423 219.086C270.51 220.465 271.128 222.481 269.244 223.386C267.721 224.122 265.263 223.704 264.196 222.419C262.873 220.821 261.968 219.411 260.077 217.464C258.442 215.773 256.764 215.23 255.977 211.804C255.478 209.602 256.427 208.684 257.899 208.06C259.927 207.149 262.742 209.308 264.208 210.319C265.394 211.105 269.206 216.004 269.693 216.172Z" fill="#455A64"/>
<path d="M264.208 210.219L263.933 210.132C263.005 210.205 262.112 210.521 261.345 211.049C260.578 211.577 259.964 212.298 259.565 213.14C259.297 213.764 260.158 214.207 260.651 213.726C261.08 212.909 261.702 212.208 262.463 211.686C263.224 211.164 264.102 210.836 265.019 210.731C264.786 210.507 264.51 210.333 264.208 210.219Z" fill="#FAFAFA"/>
<path d="M265.562 211.243C264.682 211.353 263.845 211.683 263.127 212.203C262.409 212.724 261.834 213.417 261.456 214.219C261.194 214.843 262.049 215.286 262.542 214.806C262.903 214.091 263.419 213.465 264.051 212.973C264.683 212.481 265.417 212.135 266.198 211.96C265.999 211.704 265.774 211.455 265.562 211.243Z" fill="#FAFAFA"/>
<path d="M269.237 175.799C268.919 169.085 269.649 157.323 269.574 149.061C271.702 141.791 270.198 138.728 268.326 135.14C266.948 132.4 265.38 129.76 263.634 127.24L259.266 145.642L252.258 153.092C252.258 153.092 256.433 174.739 257.462 179.406C258.336 183.375 263.078 216.478 263.078 216.478C263.521 218.637 268.545 218.912 269.737 217.383C270.073 210.038 271.415 189.147 271.434 186.807C271.502 179.949 269.237 175.799 269.237 175.799Z" fill="#B16668"/>
<path d="M238.755 142.809C238.755 142.809 235.978 182.582 235.978 190.476C235.978 193.496 234.331 227.685 234.331 227.685C234.331 228.577 235.161 229.239 237.214 229.151C240.14 229.02 241.8 228.478 241.919 227.903C242.006 227.498 246.493 208.74 247.653 202.613C248.508 198.043 248.672 193.372 248.14 188.754C249.794 179.955 253.132 160.78 253.912 154.484C254.592 149.099 238.755 142.809 238.755 142.809Z" fill="#B16668"/>
<path d="M239.735 128.469C238.318 137.037 238.062 139.701 237.02 150.683C236.209 159.232 235.71 183.943 235.672 187.393C235.635 190.844 234.98 212.16 234.98 212.16C234.98 212.16 241.426 214.587 245.525 212.784C245.525 212.784 247.341 205.358 248.127 201.989C249.232 197.259 249.207 193.927 248.67 188.604L253.35 159.526C253.35 159.526 257.094 180.417 258.205 186.358C259.316 192.298 260.395 198.07 260.395 198.07C262.147 198.707 264.005 199.001 265.868 198.937C267.759 198.862 269.577 198.186 271.059 197.009C271.059 197.009 271.609 189.134 271.627 186.47C271.658 182.22 271.284 180.105 269.481 175.681L270.073 149.042C270.073 149.042 272.014 144.306 270.697 139.682C269.025 133.898 263.927 125.199 263.927 125.199L239.735 128.469Z" fill="#37474F"/>
<path d="M253.344 159.569L255.216 152.655C255.216 152.655 261.013 152.194 264.096 148.194C263.11 150.066 262.161 152.293 256.932 154.284L255.104 161.341L257.812 184.392L253.344 159.569Z" fill="#263238"/>
<path d="M269.3 103.172C268.907 100.383 267.914 97.0008 265.231 95.8401C262.548 94.6795 257.712 95.135 257.712 95.135C257.331 96.383 252.72 98.0366 250.411 95.8401C248.19 96.3081 245.463 96.8136 242.474 97.5437C240.103 98.1178 238.73 107.097 237.151 110.024C235.317 113.424 237.65 116.888 239.984 118.697C239.984 118.697 239.922 124.126 239.741 128.5C243.834 131.932 251.478 132.868 257.388 131.327C261.837 130.166 263.584 128.781 263.952 127.053C264.245 125.705 265.032 121.337 265.68 118.984C267.178 113.531 269.824 106.885 269.3 103.172Z" fill="#B16668"/>
<path d="M265.231 95.8401C262.542 94.6857 257.706 95.135 257.706 95.135C257.325 96.383 252.714 98.0366 250.405 95.8401C248.184 96.3081 245.457 96.8136 242.468 97.5437C240.097 98.1177 237.513 103.846 236.19 109.699C235.342 113.443 237.494 116.763 239.822 118.547C239.822 118.547 239.891 120.132 239.916 122.154C244.539 124.382 250.73 125.461 258.062 124.064C260.524 123.6 262.893 122.729 265.069 121.487C265.219 121.037 265.375 120.326 266.379 117.431C267.384 114.535 269.824 106.885 269.3 103.172C268.907 100.383 267.914 97.0008 265.231 95.8401Z" fill="#BB2525"/>
<path d="M242.468 97.5437C238.867 97.3003 234.899 98.3923 233.301 105.468C232.053 107.259 230.094 109.387 228.309 112.114C226.312 115.234 225.189 117.905 223.317 121.318C221.501 124.95 222.313 126.042 224.103 127.708C225.745 129.237 235.766 135.82 236.365 136.581C236.964 137.342 236.365 144.787 237.445 145.848C237.445 145.891 237.445 145.904 237.445 145.848C237.445 145.617 237.651 144.656 237.925 143.458C238.514 141.558 239.354 139.745 240.421 138.066C241.32 136.556 242.143 134.84 241.881 133.074C241.738 132.095 240.34 131.408 239.385 130.485C236.858 128.07 232.066 123.359 232.066 123.359L243.616 110.379C245.613 107.796 246.755 99.9024 242.468 97.5437Z" fill="#B16668"/>
<path opacity="0.1" d="M232.084 123.365C231.086 124.308 229.96 125.106 228.74 125.736C230.179 125.55 231.539 124.971 232.671 124.064L232.084 123.365Z" fill="black"/>
<path d="M240.914 69.4449V69.4013C240.856 68.9731 240.885 68.5375 241.001 68.1212C241.117 67.7049 241.317 67.3166 241.588 66.9801C242.058 66.58 242.616 66.2977 243.217 66.1565C244.82 65.651 246.424 65.1456 248.046 64.7025C251.104 63.8664 254.286 63.2486 257.444 63.648C260.601 64.0473 263.721 65.5824 265.406 68.2718C265.74 68.7289 265.966 69.2559 266.067 69.8131C266.099 70.1875 265.949 70.5245 265.968 70.9051C266.024 72.072 266.592 73.2077 266.741 74.3621C266.889 75.6043 266.949 76.8554 266.922 78.1061C266.922 83.2853 254.748 86.1245 254.829 89.675C252.807 86.9918 250.788 84.3044 248.77 81.6129C248.77 81.2885 247.915 80.4398 247.728 80.159C247.366 79.6286 247.048 79.0608 246.717 78.5117C245.694 76.7957 243.965 75.8909 242.774 74.3433C241.678 72.9332 241.03 71.2269 240.914 69.4449Z" fill="#263238"/>
<path d="M243.229 78.4867C243.229 78.4867 241.02 81.4757 241.276 81.8126C241.748 82.151 242.276 82.4024 242.836 82.5552L243.229 78.4867Z" fill="#9A4A4D"/>
<path d="M249.993 69.0019C247.934 69.9379 244.377 71.6789 243.129 78.936C241.881 86.3866 243.46 89.0635 244.458 90.0931C245.132 90.7858 248.739 91.1851 250.655 90.7171C253.045 90.0931 258.274 87.8342 260.838 84.0778C263.865 79.6474 264.713 73.6133 261.556 71.0923C257.144 67.523 251.74 68.2094 249.993 69.0019Z" fill="#B16668"/>
<path d="M249.675 90.2865L249.581 96.2957C251.616 98.9789 259.129 98.5233 258.754 95.2286L258.898 88.9512L249.675 90.2865Z" fill="#B16668"/>
<path d="M244.671 90.2304C245.5 90.7358 247.859 91.0416 249.663 90.8544L249.706 89.5003C248.922 89.7997 248.111 90.0253 247.285 90.1742C246.422 90.3288 245.54 90.3478 244.671 90.2304Z" fill="#9A4A4D"/>
<path d="M249.12 68.7398C248.254 69.0169 247.442 69.4389 246.717 69.9878C246.354 70.2649 246.055 70.6158 245.837 71.0174C245.663 71.3936 245.588 71.8082 245.619 72.2217C245.651 72.7847 245.832 73.3293 246.142 73.8003C246.452 74.2714 246.881 74.6524 247.385 74.9049C247.099 75.2643 246.896 75.6816 246.788 76.1278C246.68 76.5739 246.671 77.0382 246.761 77.4883C247.089 78.5393 247.687 79.486 248.496 80.2339C248.537 80.2833 248.588 80.3237 248.645 80.3525C248.704 80.3624 248.763 80.3598 248.82 80.3447C248.877 80.3297 248.93 80.3025 248.976 80.2651C250.28 79.4726 251.129 78.0499 252.895 78.7113C255.204 79.5849 255.235 81.8688 253.756 83.8281C253.509 84.2188 253.178 84.5496 252.787 84.7968C252.397 85.0439 251.956 85.2011 251.497 85.2571C251.236 85.2904 250.97 85.2638 250.72 85.1795C250.471 85.0952 250.243 84.9553 250.056 84.7704C250.056 84.7704 250.249 89.1384 253.475 90.767C253.475 90.767 256.782 91.9464 258.898 90.6984C260.214 88.4645 262.405 87.0355 263.89 85.0824C267.821 79.8969 271.247 71.1547 263.054 68.0721C262.773 67.9661 262.486 67.8662 262.199 67.7789C258.211 66.5598 253.922 66.7806 250.081 68.4029C249.762 68.5027 249.438 68.64 249.12 68.7398Z" fill="#263238"/>
<path d="M275.184 94.018C273.998 94.0189 272.823 93.7859 271.727 93.3325C270.631 92.8791 269.634 92.2142 268.795 91.3756C267.956 90.5371 267.291 89.5414 266.836 88.4456C266.382 87.3497 266.149 86.175 266.149 84.9888V70.2499C268.544 70.2499 270.841 71.201 272.535 72.8941C274.23 74.5873 275.182 76.8839 275.184 79.2792V94.018Z" fill="#263238"/>
<path d="M248.234 82.8672C248.019 82.7828 247.824 82.6566 247.659 82.4958C247.494 82.3351 247.362 82.1432 247.272 81.9312C247.182 81.7191 247.135 81.4913 247.134 81.261C247.133 81.0306 247.178 80.8024 247.266 80.5896C247.451 80.1595 247.797 79.8192 248.23 79.6418C248.663 79.4644 249.148 79.4641 249.581 79.6411L248.234 82.8672Z" fill="#263238"/>
<path d="M265.443 69.9566C265.599 70.087 265.779 70.1851 265.973 70.2451C266.167 70.3052 266.372 70.3259 266.574 70.3061C266.776 70.2864 266.972 70.2265 267.151 70.1301C267.33 70.0337 267.487 69.9026 267.615 69.7445C267.872 69.4207 267.992 69.0087 267.947 68.5976C267.903 68.1865 267.698 67.8094 267.378 67.548L265.443 69.9566Z" fill="#263238"/>
<path d="M80.9578 69.3826L78.312 64.3906L80.4399 58.238V54.494L73.9191 58.238V61.982L76.7208 66.8367C76.7639 66.9135 76.8322 66.9731 76.9143 67.0052L80.9578 69.3826Z" fill="#BB2525"/>
<path opacity="0.2" d="M80.9578 69.3826L78.312 64.3906L80.4399 58.238V54.494L73.9191 58.238V61.982L76.7208 66.8367C76.7639 66.9135 76.8322 66.9731 76.9143 67.0052L80.9578 69.3826Z" fill="black"/>
<path d="M93.4689 39.7052C93.4325 39.0275 93.2367 38.368 92.8973 37.7803C92.5579 37.1926 92.0846 36.6933 91.5158 36.3231L89.9246 35.3996C89.3174 35.0954 88.6476 34.937 87.9684 34.937C87.2892 34.937 86.6194 35.0954 86.0121 35.3996L39.7425 62.2316C39.1737 62.6032 38.7004 63.1036 38.3611 63.6923C38.0217 64.281 37.8259 64.9414 37.7894 65.6199V79.0359C37.8264 79.7134 38.0224 80.3727 38.3618 80.9604C38.7011 81.548 39.1742 82.0473 39.7425 82.418L41.3337 83.3352C41.94 83.6428 42.6102 83.803 43.29 83.803C43.9698 83.803 44.64 83.6428 45.2462 83.3352L78 64.3906L80.8018 69.2391C80.8423 69.3078 80.9016 69.3635 80.9727 69.3996C81.0438 69.4357 81.1238 69.4507 81.2032 69.4428C81.2826 69.435 81.358 69.4046 81.4207 69.3552C81.4834 69.3058 81.5306 69.2395 81.5568 69.1642L84.5146 60.6341L91.5033 56.5095C92.0722 56.1379 92.5455 55.6374 92.8848 55.0487C93.2242 54.46 93.42 53.7997 93.4565 53.1212L93.4689 39.7052Z" fill="#BB2525"/>
<path opacity="0.2" d="M37.7894 79.0172C37.8264 79.6947 38.0224 80.3541 38.3618 80.9417C38.7011 81.5293 39.1742 82.0286 39.7425 82.3993L41.3337 83.3166C41.8845 83.5946 42.4878 83.7528 43.1041 83.7807C43.7204 83.8087 44.3356 83.7058 44.9093 83.4788C43.992 83.822 43.2931 83.3041 43.2931 82.1871V68.7774C43.3168 68.097 43.5121 67.4338 43.8609 66.8492L38.3635 63.6481C38.01 64.2309 37.8123 64.8949 37.7894 65.5762V79.0172Z" fill="black"/>
<path opacity="0.4" d="M93.4065 39.1498C93.1756 38.3199 92.4206 38.0578 91.5345 38.5757L45.2649 65.4077C44.6856 65.7657 44.2102 66.2691 43.8859 66.8679L38.3884 63.6979C38.7105 63.0996 39.1839 62.5961 39.7612 62.2378L86.0308 35.4058C86.6371 35.0983 87.3073 34.938 87.9871 34.938C88.6669 34.938 89.3371 35.0983 89.9433 35.4058L91.5345 36.3231C92.0211 36.6435 92.4378 37.0592 92.7595 37.545C93.0812 38.0308 93.3013 38.5767 93.4065 39.1498Z" fill="white"/>
<path d="M45.552 72.0096C45.5038 71.9314 45.486 71.8381 45.5021 71.7476C45.5156 71.6354 45.5517 71.5271 45.6082 71.4293L47.6175 67.8975C47.6674 67.8101 47.7236 67.704 47.7984 67.5917C47.8581 67.4846 47.944 67.3944 48.048 67.3296L49.1837 66.6744C49.2081 66.6512 49.2405 66.6382 49.2742 66.6382C49.3079 66.6382 49.3403 66.6512 49.3647 66.6744C49.3926 66.7056 49.4137 66.7422 49.4266 66.7819C49.4395 66.8217 49.4439 66.8637 49.4396 66.9053V76.1967C49.4386 76.307 49.413 76.4157 49.3647 76.5149C49.3284 76.603 49.265 76.6773 49.1837 76.7271L47.9357 77.4384C47.9111 77.4587 47.8802 77.4698 47.8484 77.4698C47.8165 77.4698 47.7856 77.4587 47.761 77.4384C47.7337 77.4069 47.7131 77.3702 47.7002 77.3306C47.6873 77.2909 47.6826 77.2491 47.6861 77.2076V70.9176L46.5692 72.8583C46.5332 72.9403 46.469 73.0067 46.3882 73.0455C46.3582 73.059 46.3242 73.0607 46.293 73.0503C46.2618 73.0399 46.2356 73.0181 46.2197 72.9893L45.552 72.0096Z" fill="#FAFAFA"/>
<path d="M50.5877 73.8193C50.6052 73.6645 50.6451 73.5132 50.7063 73.37C50.7592 73.2257 50.8607 73.1044 50.9933 73.0268L52.1415 72.3841C52.1616 72.3673 52.187 72.3582 52.2132 72.3582C52.2394 72.3582 52.2648 72.3673 52.285 72.3841C52.3082 72.409 52.3258 72.4386 52.3366 72.4709C52.3473 72.5032 52.351 72.5374 52.3474 72.5713C52.3508 72.6065 52.3508 72.6421 52.3474 72.6773L51.6235 75.9596C51.5928 76.0885 51.5489 76.214 51.4925 76.334C51.4405 76.4686 51.3435 76.5811 51.2179 76.6522L50.5191 77.0578C50.4995 77.0758 50.4739 77.0858 50.4473 77.0858C50.4207 77.0858 50.3951 77.0758 50.3755 77.0578C50.3523 77.0329 50.3347 77.0033 50.3239 76.971C50.3132 76.9387 50.3095 76.9045 50.3131 76.8706L50.5877 73.8193Z" fill="#FAFAFA"/>
<path d="M58.3752 64.5903C58.3751 64.8699 58.3564 65.1493 58.319 65.4264C58.2771 65.7201 58.2124 66.0101 58.1256 66.2938C58.0303 66.6121 57.9114 66.9229 57.7699 67.2236C57.6105 67.5766 57.4314 67.9203 57.2333 68.2532L55.9229 70.512L58.2691 69.158C58.2935 69.1347 58.3259 69.1217 58.3596 69.1217C58.3933 69.1217 58.4257 69.1347 58.4501 69.158C58.478 69.1891 58.499 69.2257 58.5119 69.2655C58.5248 69.3052 58.5293 69.3473 58.525 69.3888V70.9114C58.5239 71.0217 58.4984 71.1304 58.4501 71.2296C58.4121 71.3184 58.3493 71.3943 58.2691 71.448L53.3395 74.2935C53.3145 74.3154 53.2823 74.3275 53.249 74.3275C53.2157 74.3275 53.1836 74.3154 53.1586 74.2935C53.1313 74.2619 53.1106 74.2253 53.0977 74.1856C53.0849 74.146 53.0801 74.1041 53.0837 74.0626V72.8146C53.0841 72.6483 53.105 72.4828 53.1461 72.3216C53.1863 72.14 53.2581 71.9668 53.3582 71.81L56.16 67.1549C56.3407 66.8683 56.4794 66.5573 56.5718 66.2314C56.6242 66.0273 56.6535 65.818 56.6592 65.6074C56.6592 65.5388 56.6592 65.4514 56.6592 65.3391C56.6438 65.2333 56.6077 65.1315 56.5531 65.0396C56.499 64.9547 56.4139 64.8943 56.316 64.8711C56.1677 64.8574 56.0194 64.8973 55.8979 64.9834C55.729 65.0758 55.5838 65.2061 55.4736 65.364C55.3709 65.5054 55.2851 65.6583 55.2177 65.8196C55.1653 65.9582 55.1216 66.0999 55.0867 66.2439L55.0306 66.5496C55.01 66.6766 54.9585 66.7966 54.8808 66.8991C54.8197 66.978 54.7433 67.0438 54.6561 67.0925L53.5017 67.7602C53.4816 67.7769 53.4562 67.7861 53.43 67.7861C53.4038 67.7861 53.3784 67.7769 53.3582 67.7602C53.3155 67.7077 53.2953 67.6404 53.3021 67.573C53.3126 67.1356 53.369 66.7006 53.4706 66.2751C53.5653 65.8 53.714 65.3374 53.9136 64.896C54.1274 64.4487 54.3957 64.0295 54.7123 63.648C55.0307 63.2644 55.4154 62.9411 55.848 62.6933C56.1741 62.4811 56.5513 62.3604 56.94 62.3439C57.2296 62.3395 57.5102 62.4442 57.7262 62.6372C57.9568 62.8552 58.1249 63.131 58.213 63.4359C58.3232 63.8107 58.3779 64.1996 58.3752 64.5903Z" fill="#FAFAFA"/>
<path d="M59.4921 68.6775C59.5096 68.5228 59.5495 68.3714 59.6107 68.2282C59.6658 68.0852 59.7667 67.9645 59.8977 67.885L61.0459 67.2173C61.066 67.2006 61.0914 67.1914 61.1176 67.1914C61.1438 67.1914 61.1692 67.2006 61.1894 67.2173C61.2126 67.2422 61.2302 67.2718 61.241 67.3041C61.2518 67.3364 61.2554 67.3707 61.2518 67.4045C61.2552 67.4398 61.2552 67.4753 61.2518 67.5106L60.528 70.8053C60.4972 70.9343 60.4533 71.0597 60.3969 71.1797C60.3449 71.3144 60.2479 71.4268 60.1224 71.498L59.4235 71.9036C59.4039 71.9215 59.3783 71.9315 59.3517 71.9315C59.3251 71.9315 59.2995 71.9215 59.28 71.9036C59.2567 71.8787 59.2391 71.8491 59.2284 71.8168C59.2176 71.7845 59.2139 71.7502 59.2176 71.7164L59.4921 68.6775Z" fill="#FAFAFA"/>
<path d="M66.9427 56.4096C66.966 56.3868 66.9974 56.374 67.03 56.374C67.0627 56.374 67.0941 56.3868 67.1174 56.4096C67.1448 56.4398 67.1656 56.4754 67.1785 56.5141C67.1914 56.5527 67.1961 56.5937 67.1923 56.6343V58.1631C67.1921 58.2742 67.171 58.3843 67.1299 58.4876C67.0862 58.5999 67.0425 58.6935 67.0051 58.7746L65.8756 61.1832C66.0812 61.1305 66.2965 61.1286 66.503 61.1775C66.7096 61.2264 66.9011 61.3247 67.0612 61.464C67.2377 61.6768 67.3695 61.9229 67.4489 62.1877C67.5282 62.4525 67.5534 62.7306 67.523 63.0053C67.552 63.9927 67.3089 64.969 66.8202 65.8274C66.3316 66.6859 65.6162 67.3934 64.7524 67.8725C64.3908 68.0979 63.9877 68.2486 63.5668 68.3156C63.2658 68.3602 62.9583 68.31 62.687 68.172C62.4431 68.0285 62.2526 67.8094 62.1441 67.548C62.0097 67.2567 61.9415 66.9391 61.9444 66.6183C61.9448 66.53 61.964 66.4428 62.0006 66.3624C62.0316 66.2904 62.0839 66.2294 62.1503 66.1877L63.3235 65.5076C63.4524 65.4327 63.5523 65.4202 63.623 65.4701L63.8539 65.6324C63.9514 65.6945 64.063 65.731 64.1783 65.7384C64.3843 65.7304 64.5836 65.6633 64.7524 65.545C65.0496 65.383 65.3108 65.1622 65.52 64.896C65.7134 64.6343 65.8164 64.3167 65.8132 63.9912C65.8132 63.6605 65.7134 63.4671 65.52 63.4296C65.2546 63.4058 64.9894 63.4765 64.7712 63.6293L63.9974 64.0786C63.9728 64.0989 63.9419 64.11 63.91 64.11C63.8781 64.11 63.8473 64.0989 63.8227 64.0786C63.7954 64.0471 63.7747 64.0104 63.7619 63.9707C63.749 63.9311 63.7442 63.8893 63.7478 63.8477V62.5997C63.7485 62.4886 63.7697 62.3787 63.8102 62.2752C63.8539 62.1629 63.8976 62.0631 63.9412 61.9695L64.896 59.904L62.4561 61.3143C62.4315 61.3346 62.4006 61.3457 62.3687 61.3457C62.3369 61.3457 62.306 61.3346 62.2814 61.3143C62.2541 61.2828 62.2334 61.2461 62.2206 61.2064C62.2077 61.1668 62.2029 61.1249 62.2065 61.0834V59.5172C62.2076 59.4088 62.2332 59.3022 62.2814 59.2052C62.3157 59.116 62.3767 59.0397 62.4561 58.9868L66.9427 56.4096Z" fill="#FAFAFA"/>
<path d="M70.1376 64.272C70.1366 64.3824 70.111 64.4911 70.0627 64.5903C70.0265 64.68 69.9632 64.7563 69.8818 64.8087L68.6338 65.5138C68.6104 65.5367 68.5791 65.5495 68.5464 65.5495C68.5137 65.5495 68.4824 65.5367 68.4591 65.5138C68.4312 65.4827 68.4101 65.446 68.3972 65.4063C68.3843 65.3665 68.3799 65.3245 68.3842 65.2829V63.4109C68.3853 63.3026 68.4109 63.1959 68.4591 63.0989C68.4933 63.0098 68.5544 62.9335 68.6338 62.8805L69.8818 62.1754C69.9068 62.1535 69.939 62.1414 69.9723 62.1414C70.0055 62.1414 70.0377 62.1535 70.0627 62.1754C70.09 62.2069 70.1107 62.2436 70.1235 62.2833C70.1364 62.3229 70.1412 62.3647 70.1376 62.4063V64.272Z" fill="#FAFAFA"/>
<path d="M72.8208 62.6933C72.8197 62.8036 72.7942 62.9123 72.7459 63.0115C72.7096 63.1013 72.6464 63.1776 72.5649 63.2299L71.3169 63.9351C71.2929 63.9565 71.2618 63.9684 71.2296 63.9684C71.1973 63.9684 71.1662 63.9565 71.1422 63.9351C71.1149 63.9035 71.0942 63.8669 71.0814 63.8272C71.0685 63.7875 71.0637 63.7457 71.0673 63.7042V61.8322C71.0683 61.7219 71.0939 61.6131 71.1422 61.5139C71.1779 61.4273 71.2388 61.3534 71.3169 61.3018L72.5649 60.5904C72.5909 60.5707 72.6227 60.56 72.6554 60.56C72.6881 60.56 72.7198 60.5707 72.7459 60.5904C72.7731 60.6219 72.7938 60.6586 72.8067 60.6983C72.8195 60.7379 72.8243 60.7798 72.8208 60.8213V62.6933Z" fill="#FAFAFA"/>
<path d="M75.504 61.152C75.503 61.2624 75.4774 61.3711 75.4291 61.4703C75.3932 61.5584 75.3325 61.6343 75.2544 61.6887L74.0064 62.3938C73.9813 62.4157 73.9492 62.4278 73.9159 62.4278C73.8826 62.4278 73.8505 62.4157 73.8254 62.3938C73.7981 62.3623 73.7775 62.3256 73.7646 62.2859C73.7517 62.2463 73.747 62.2044 73.7505 62.1629V60.2909C73.7515 60.1806 73.7771 60.0719 73.8254 59.9727C73.8634 59.8856 73.9264 59.8118 74.0064 59.7605L75.2544 59.0491C75.279 59.0289 75.3099 59.0178 75.3417 59.0178C75.3736 59.0178 75.4045 59.0289 75.4291 59.0491C75.4564 59.0807 75.477 59.1173 75.4899 59.157C75.5028 59.1967 75.5076 59.2385 75.504 59.28V61.152Z" fill="#FAFAFA"/>
<path d="M79.2106 51.48C79.0083 51.5968 78.8269 51.7465 78.674 51.9231C78.5329 52.0983 78.4154 52.2913 78.3245 52.4971C78.2362 52.6976 78.1693 52.9067 78.1248 53.1211C78.0809 53.348 78.0497 53.5772 78.0312 53.8076C78.0312 53.9386 78.0312 54.1133 78.0312 54.338V55.0243C78.0312 55.2552 78.0312 55.4861 78.0312 55.7107C78.0312 55.9354 78.0312 56.1039 78.0312 56.2224C78.0422 56.4182 78.0715 56.6124 78.1186 56.8027C78.1563 56.9535 78.2265 57.094 78.3245 57.2146C78.3691 57.2651 78.4238 57.3056 78.4851 57.3335C78.5464 57.3615 78.6128 57.3762 78.6802 57.3768C78.8697 57.3742 79.0543 57.3156 79.2106 57.2084C79.3773 57.1126 79.5305 56.9951 79.6661 56.8589C79.8141 56.7159 79.9402 56.5519 80.0405 56.3722C80.1498 56.1756 80.2337 55.9659 80.2901 55.7482C80.3546 55.4911 80.386 55.2269 80.3837 54.962L79.6037 55.4175C79.5777 55.4372 79.5459 55.4479 79.5132 55.4479C79.4806 55.4479 79.4488 55.4372 79.4227 55.4175C79.3955 55.3859 79.3748 55.3493 79.3619 55.3096C79.3491 55.27 79.3443 55.2281 79.3479 55.1866V53.664C79.3481 53.5556 79.3737 53.4487 79.4227 53.352C79.459 53.2623 79.5223 53.186 79.6037 53.1336L81.8626 51.8232C81.8866 51.8017 81.9177 51.7899 81.95 51.7899C81.9822 51.7899 82.0133 51.8017 82.0373 51.8232C82.0651 51.8532 82.0861 51.8887 82.099 51.9275C82.1119 51.9662 82.1164 52.0073 82.1122 52.0479V53.8887C82.1141 54.4907 82.0386 55.0905 81.8875 55.6733C81.7468 56.2317 81.5372 56.7704 81.2635 57.277C81.0133 57.7536 80.7029 58.1961 80.34 58.5936C80.0092 58.9602 79.6241 59.2737 79.1981 59.5234C78.839 59.753 78.4258 59.8843 78 59.904C77.6714 59.9064 77.3528 59.7913 77.1015 59.5796C76.8275 59.3366 76.6283 59.0205 76.5274 58.6685C76.3833 58.2248 76.3055 57.7622 76.2965 57.2957C76.2965 56.9171 76.2965 56.5011 76.2965 56.0477C76.2965 55.5984 76.2965 55.1616 76.2965 54.7436C76.3109 54.192 76.3863 53.6437 76.5211 53.1087C76.6561 52.5656 76.8485 52.0385 77.0952 51.5362C77.3374 51.0478 77.6415 50.5927 78 50.1821C78.3443 49.7841 78.7511 49.4448 79.2044 49.1775C79.5574 48.9545 79.9607 48.8236 80.3775 48.7968C80.6913 48.7829 81.0021 48.8633 81.2698 49.0277C81.5157 49.1951 81.7119 49.4258 81.8376 49.6954C81.9748 49.9758 82.0514 50.282 82.0623 50.594C82.067 50.6827 82.0476 50.7711 82.0061 50.8498C81.9731 50.9223 81.9214 50.9848 81.8563 51.0307L80.6083 51.7484C80.5147 51.7983 80.4399 51.7983 80.39 51.7484L80.234 51.5799C80.1459 51.4558 80.0217 51.3621 79.8783 51.3116C79.7614 51.2937 79.6421 51.2993 79.5274 51.3283C79.4127 51.3572 79.305 51.4088 79.2106 51.48Z" fill="#FAFAFA"/>
<path d="M87.9341 50.0698C87.9341 50.2071 87.9341 50.3943 87.9341 50.619C87.9341 50.8436 87.9341 51.0308 87.9341 51.1743C87.92 51.6528 87.8509 52.1281 87.7282 52.5908C87.6063 53.0591 87.4347 53.513 87.2165 53.9449C87.0028 54.3643 86.7387 54.7562 86.4303 55.1118C86.1333 55.4507 85.7835 55.7394 85.3944 55.9666C85.0845 56.1627 84.7307 56.2785 84.3648 56.3036C84.0784 56.3169 83.7969 56.2261 83.5723 56.0478C83.3363 55.8447 83.1595 55.5817 83.0607 55.2865C82.9277 54.9095 82.8581 54.5131 82.8547 54.1134C82.8547 53.9698 82.8547 53.7889 82.8547 53.5642C82.8547 53.3396 82.8547 53.1524 82.8547 53.0026C82.8616 52.5264 82.9266 52.0529 83.0482 51.5924C83.1722 51.1239 83.3458 50.67 83.5661 50.2383C83.784 49.8146 84.0522 49.4186 84.3648 49.059C84.6563 48.7152 85.0045 48.4239 85.3944 48.1978C85.7051 47.9995 86.0621 47.8855 86.4303 47.8671C86.7167 47.8609 86.9965 47.9535 87.2227 48.1292C87.4607 48.3305 87.6378 48.5941 87.7344 48.8905C87.8657 49.2699 87.9332 49.6684 87.9341 50.0698ZM84.5333 53.0401C84.5249 53.1698 84.5433 53.3 84.5873 53.4223C84.6313 53.5447 84.7 53.6567 84.7891 53.7514C84.883 53.814 84.9948 53.8442 85.1074 53.8375C85.2201 53.8307 85.3274 53.7874 85.4131 53.714C85.682 53.5601 85.8991 53.3299 86.0371 53.0526C86.1936 52.7399 86.2808 52.3973 86.293 52.0479C86.293 51.8982 86.293 51.7297 86.293 51.5487C86.293 51.3678 86.293 51.2055 86.293 51.0745C86.3014 50.9447 86.283 50.8146 86.239 50.6922C86.195 50.5698 86.1263 50.4578 86.0371 50.3631C85.9433 50.3005 85.8315 50.2703 85.7189 50.2771C85.6062 50.2838 85.4989 50.3272 85.4131 50.4006C85.1457 50.5562 84.929 50.7859 84.7891 51.062C84.6345 51.3753 84.5473 51.7175 84.5333 52.0666C84.5333 52.2164 84.5333 52.3849 84.5333 52.5658C84.5333 52.7468 84.5208 52.934 84.5333 53.0401Z" fill="#FAFAFA"/>
<path d="M90.5237 49.3772C90.5227 49.4875 90.4971 49.5962 90.4488 49.6954C90.4146 49.7845 90.3535 49.8608 90.2741 49.9138L89.0947 50.594C89.0707 50.6155 89.0396 50.6273 89.0074 50.6273C88.9751 50.6273 88.944 50.6155 88.92 50.594C88.8927 50.5624 88.8721 50.5258 88.8592 50.4861C88.8463 50.4465 88.8416 50.4046 88.8451 50.3631V44.148C88.8462 44.0397 88.8718 43.9331 88.92 43.836C88.9543 43.7469 89.0153 43.6706 89.0947 43.6176L90.2741 42.9375C90.2981 42.916 90.3292 42.9041 90.3615 42.9041C90.3937 42.9041 90.4248 42.916 90.4488 42.9375C90.4761 42.969 90.4968 43.0057 90.5096 43.0453C90.5225 43.085 90.5273 43.1268 90.5237 43.1684V49.3772ZM90.5237 52.4972C90.5227 52.6075 90.4971 52.7162 90.4488 52.8154C90.4129 52.9035 90.3522 52.9794 90.2741 53.0338L89.0947 53.664C89.0701 53.6843 89.0393 53.6954 89.0074 53.6954C88.9755 53.6954 88.9446 53.6843 88.92 53.664C88.8927 53.6325 88.8721 53.5958 88.8592 53.5562C88.8463 53.5165 88.8416 53.4747 88.8451 53.4332V51.9917C88.8462 51.8814 88.8717 51.7727 88.92 51.6735C88.956 51.5853 89.0166 51.5095 89.0947 51.4551L90.2741 50.7749C90.2987 50.7546 90.3296 50.7435 90.3615 50.7435C90.3933 50.7435 90.4242 50.7546 90.4488 50.7749C90.4761 50.8065 90.4968 50.8431 90.5096 50.8828C90.5225 50.9224 90.5273 50.9643 90.5237 51.0058V52.4972Z" fill="#FAFAFA"/>
<path d="M254.86 54.575L252.208 49.583L254.342 43.4304V39.6864L247.822 43.4304V47.1744L250.623 52.0291C250.669 52.1042 250.736 52.1631 250.817 52.1976L254.86 54.575Z" fill="#BB2525"/>
<path opacity="0.2" d="M254.86 54.575L252.208 49.583L254.342 43.4304V39.6864L247.822 43.4304V47.1744L250.623 52.0291C250.669 52.1042 250.736 52.1631 250.817 52.1976L254.86 54.575Z" fill="black"/>
<path d="M271.746 22.4266C271.709 21.7481 271.513 21.0877 271.174 20.499C270.835 19.9103 270.361 19.4099 269.793 19.0383L268.201 18.096C267.595 17.7885 266.925 17.6282 266.245 17.6282C265.565 17.6282 264.895 17.7885 264.289 18.096L231.286 37.1155C230.717 37.4862 230.243 37.9854 229.903 38.5729C229.562 39.1604 229.365 39.8197 229.326 40.4976V53.9136C229.364 54.5926 229.561 55.2531 229.901 55.8418C230.242 56.4304 230.716 56.9307 231.286 57.3019L232.877 58.2192C233.482 58.5267 234.151 58.6869 234.83 58.6869C235.509 58.6869 236.178 58.5267 236.783 58.2192L251.915 49.5831L254.71 54.4315C254.751 54.5003 254.81 54.556 254.881 54.5921C254.953 54.6282 255.033 54.6432 255.112 54.6353C255.191 54.6274 255.267 54.597 255.329 54.5476C255.392 54.4983 255.439 54.432 255.466 54.3567L258.423 45.8266L269.793 39.2309C270.361 38.8593 270.835 38.3588 271.174 37.7702C271.513 37.1815 271.709 36.5211 271.746 35.8426V22.4266Z" fill="#BB2525"/>
<path opacity="0.2" d="M229.326 53.9136C229.364 54.5926 229.561 55.2531 229.901 55.8418C230.242 56.4305 230.716 56.9307 231.286 57.302L232.877 58.2192C233.428 58.4963 234.031 58.6534 234.648 58.6803C235.264 58.7071 235.879 58.6032 236.452 58.3752C235.529 58.7247 234.83 58.2068 234.83 57.0898V43.68C234.853 43.0007 235.051 42.3388 235.404 41.7581L229.9 38.582C229.55 39.1639 229.352 39.8251 229.326 40.5039V53.9136Z" fill="black"/>
<path opacity="0.4" d="M271.683 21.8712C271.452 21.0413 270.697 20.7792 269.811 21.2972L236.802 40.2917C236.224 40.6513 235.749 41.1543 235.423 41.7519L229.925 38.5757C230.253 37.9795 230.728 37.4768 231.304 37.1156L264.289 18.096C264.896 17.7919 265.566 17.6335 266.245 17.6335C266.924 17.6335 267.594 17.7919 268.201 18.096L269.793 19.0196C270.285 19.341 270.707 19.7598 271.032 20.2501C271.358 20.7405 271.579 21.2922 271.683 21.8712Z" fill="white"/>
<path d="M237.382 46.8C237.333 46.7244 237.315 46.6327 237.332 46.5442C237.346 46.432 237.382 46.3238 237.438 46.2259L239.447 42.6879C239.497 42.6067 239.553 42.5007 239.628 42.3821C239.688 42.2768 239.774 42.1887 239.878 42.1263L241.014 41.5023C241.038 41.479 241.07 41.466 241.104 41.466C241.138 41.466 241.17 41.479 241.195 41.5023C241.222 41.5324 241.243 41.568 241.256 41.6067C241.269 41.6454 241.273 41.6863 241.269 41.7269V51.0245C241.269 51.1329 241.244 51.2398 241.195 51.3365C241.158 51.4263 241.095 51.5026 241.014 51.5549L239.766 52.2663C239.741 52.2865 239.71 52.2976 239.678 52.2976C239.646 52.2976 239.616 52.2865 239.591 52.2663C239.564 52.2347 239.543 52.1981 239.53 52.1584C239.517 52.1187 239.512 52.0769 239.516 52.0354V45.708L238.399 47.6487C238.359 47.728 238.296 47.7933 238.218 47.8359C238.188 47.8494 238.154 47.8511 238.123 47.8407C238.092 47.8303 238.066 47.8085 238.05 47.7797L237.382 46.8Z" fill="#FAFAFA"/>
<path d="M242.443 48.6034C242.461 48.4508 242.501 48.3017 242.561 48.1604C242.616 48.0155 242.717 47.8927 242.848 47.8109L243.984 47.1495C244.004 47.1315 244.029 47.1215 244.056 47.1215C244.082 47.1215 244.108 47.1315 244.128 47.1495C244.151 47.1744 244.168 47.204 244.179 47.2363C244.19 47.2686 244.194 47.3028 244.19 47.3367C244.193 47.372 244.193 47.4075 244.19 47.4428L243.466 50.725C243.435 50.854 243.391 50.9794 243.335 51.0994C243.283 51.234 243.186 51.3465 243.06 51.4176L242.362 51.8232C242.341 51.84 242.316 51.8492 242.29 51.8492C242.264 51.8492 242.238 51.84 242.218 51.8232C242.195 51.7983 242.177 51.7687 242.166 51.7364C242.156 51.7041 242.152 51.6699 242.156 51.636L242.443 48.6034Z" fill="#FAFAFA"/>
<path d="M250.224 39.3806C250.224 39.6603 250.205 39.9396 250.168 40.2168C250.125 40.5104 250.061 40.8003 249.974 41.0842C249.878 41.4021 249.759 41.7128 249.619 42.0139C249.459 42.3669 249.28 42.7107 249.082 43.0435L247.772 45.3274L250.118 43.9733C250.142 43.95 250.175 43.937 250.208 43.937C250.242 43.937 250.274 43.95 250.299 43.9733C250.326 44.0035 250.347 44.039 250.36 44.0777C250.373 44.1164 250.378 44.1573 250.374 44.1979V45.7392C250.373 45.8495 250.347 45.9582 250.299 46.0574C250.261 46.1445 250.198 46.2183 250.118 46.2696L245.188 49.1213C245.163 49.1432 245.131 49.1553 245.098 49.1553C245.065 49.1553 245.032 49.1432 245.007 49.1213C244.98 49.0898 244.959 49.0531 244.946 49.0134C244.934 48.9738 244.929 48.9319 244.932 48.8904V47.6424C244.933 47.4741 244.954 47.3065 244.995 47.1432C245.036 46.9639 245.108 46.7929 245.207 46.6378L247.996 41.9453C248.177 41.6587 248.316 41.3477 248.408 41.0218C248.46 40.8176 248.489 40.6083 248.495 40.3978C248.495 40.3291 248.495 40.2418 248.495 40.1294C248.481 40.0234 248.445 39.9214 248.389 39.8299C248.335 39.7451 248.25 39.6846 248.152 39.6614C248.004 39.6404 247.854 39.6786 247.734 39.7675C247.566 39.8642 247.422 39.9962 247.31 40.1544C247.206 40.295 247.12 40.448 247.054 40.6099C247.001 40.7482 246.957 40.89 246.923 41.0342L246.867 41.3338C246.847 41.4629 246.796 41.5852 246.717 41.6894C246.654 41.7668 246.578 41.8323 246.492 41.8829L245.338 42.5443C245.318 42.5623 245.293 42.5723 245.266 42.5723C245.24 42.5723 245.214 42.5623 245.195 42.5443C245.152 42.4918 245.132 42.4245 245.138 42.3571C245.148 41.9197 245.205 41.4847 245.307 41.0592C245.415 40.5869 245.576 40.1284 245.787 39.6926C246.001 39.2453 246.269 38.8261 246.586 38.4446C246.904 38.0447 247.291 37.7045 247.728 37.44C248.054 37.2292 248.432 37.1106 248.82 37.0968C249.11 37.0925 249.39 37.1972 249.606 37.3901C249.837 37.6081 250.005 37.8839 250.093 38.1888C250.196 38.5772 250.24 38.979 250.224 39.3806Z" fill="#FAFAFA"/>
<path d="M251.347 43.4679C251.365 43.3131 251.405 43.1618 251.466 43.0186C251.52 42.8737 251.621 42.7509 251.753 42.6691L252.901 42.0077C252.92 41.9897 252.946 41.9797 252.973 41.9797C252.999 41.9797 253.025 41.9897 253.044 42.0077C253.068 42.0326 253.085 42.0622 253.096 42.0945C253.107 42.1268 253.11 42.161 253.107 42.1949C253.11 42.2302 253.11 42.2657 253.107 42.301L252.383 45.5832C252.352 45.7122 252.308 45.8376 252.252 45.9576C252.2 46.0923 252.103 46.2047 251.977 46.2759L251.278 46.6814C251.258 46.6982 251.233 46.7074 251.207 46.7074C251.18 46.7074 251.155 46.6982 251.135 46.6814C251.112 46.6566 251.094 46.627 251.083 46.5947C251.073 46.5623 251.069 46.5281 251.073 46.4943L251.347 43.4679Z" fill="#FAFAFA"/>
<path d="M258.798 31.2C258.822 31.1797 258.853 31.1686 258.885 31.1686C258.917 31.1686 258.948 31.1797 258.972 31.2C259 31.2316 259.02 31.2682 259.033 31.3079C259.046 31.3475 259.051 31.3894 259.047 31.4309V32.9597C259.047 33.0708 259.026 33.1809 258.985 33.2842C258.941 33.3965 258.898 33.4901 258.86 33.5712L257.712 35.9799C257.918 35.9296 258.133 35.9294 258.34 35.9793C258.546 36.0293 258.737 36.1279 258.898 36.2669C259.075 36.4793 259.207 36.7254 259.286 36.9903C259.366 37.2552 259.39 37.5334 259.359 37.8082C259.38 38.8134 259.128 39.8054 258.629 40.6786C258.136 41.5103 257.432 42.197 256.589 42.6691C256.228 42.8985 255.825 43.0514 255.403 43.1184C255.102 43.1602 254.795 43.1102 254.523 42.9749C254.279 42.8313 254.089 42.6123 253.98 42.3509C253.846 42.0595 253.778 41.742 253.781 41.4211C253.781 41.3328 253.8 41.2456 253.837 41.1653C253.87 41.0928 253.922 41.0303 253.987 40.9843L255.16 40.3104C255.291 40.2293 255.391 40.2231 255.459 40.273L255.69 40.4352C255.788 40.4973 255.899 40.5338 256.015 40.5413C256.221 40.5333 256.42 40.4661 256.589 40.3479C256.88 40.1823 257.133 39.9569 257.331 39.6864C257.529 39.4264 257.634 39.1081 257.631 38.7816C257.631 38.4447 257.531 38.2575 257.331 38.22C257.068 38.1938 256.804 38.2648 256.589 38.4197L255.815 38.8627C255.792 38.8856 255.76 38.8984 255.728 38.8984C255.695 38.8984 255.664 38.8856 255.64 38.8627C255.613 38.8326 255.592 38.797 255.579 38.7583C255.566 38.7196 255.562 38.6787 255.565 38.6381V37.44C255.565 37.3289 255.587 37.2188 255.628 37.1155C255.671 37.0032 255.715 36.9034 255.759 36.8098L256.751 34.7007L254.311 36.1047C254.288 36.1275 254.256 36.1403 254.224 36.1403C254.191 36.1403 254.16 36.1275 254.136 36.1047C254.109 36.0745 254.088 36.0389 254.075 36.0002C254.062 35.9616 254.058 35.9206 254.062 35.88V34.32C254.063 34.2097 254.088 34.101 254.136 34.0018C254.172 33.9152 254.233 33.8413 254.311 33.7896L258.798 31.2Z" fill="#FAFAFA"/>
<path d="M261.993 39.0312C261.992 39.1415 261.966 39.2502 261.918 39.3494C261.88 39.4382 261.817 39.5141 261.737 39.5678L260.489 40.273C260.465 40.2944 260.434 40.3063 260.401 40.3063C260.369 40.3063 260.338 40.2944 260.314 40.273C260.287 40.2414 260.266 40.2047 260.253 40.1651C260.24 40.1254 260.236 40.0836 260.239 40.0421V38.1701C260.24 38.0597 260.266 37.951 260.314 37.8518C260.35 37.7652 260.411 37.6913 260.489 37.6397L261.737 36.9283C261.763 36.9086 261.795 36.8979 261.827 36.8979C261.86 36.8979 261.892 36.9086 261.918 36.9283C261.945 36.9598 261.966 36.9965 261.979 37.0362C261.991 37.0758 261.996 37.1177 261.993 37.1592V39.0312Z" fill="#FAFAFA"/>
<path d="M264.676 37.4837C264.675 37.594 264.649 37.7027 264.601 37.8019C264.563 37.8907 264.5 37.9666 264.42 38.0203L263.172 38.7255C263.148 38.747 263.117 38.7588 263.085 38.7588C263.052 38.7588 263.021 38.747 262.997 38.7255C262.97 38.6939 262.949 38.6573 262.936 38.6176C262.924 38.5779 262.919 38.5361 262.922 38.4946V36.6226C262.923 36.5123 262.949 36.4035 262.997 36.3043C263.033 36.2162 263.094 36.1404 263.172 36.0859L264.42 35.3808C264.446 35.3611 264.478 35.3504 264.51 35.3504C264.543 35.3504 264.575 35.3611 264.601 35.3808C264.628 35.4124 264.649 35.449 264.662 35.4887C264.675 35.5283 264.679 35.5702 264.676 35.6117V37.4837Z" fill="#FAFAFA"/>
<path d="M267.353 35.9362C267.352 36.0465 267.326 36.1552 267.278 36.2544C267.242 36.3426 267.181 36.4184 267.103 36.4728L265.855 37.178C265.83 37.1999 265.798 37.212 265.765 37.212C265.731 37.212 265.699 37.1999 265.674 37.178C265.647 37.1464 265.626 37.1098 265.613 37.0701C265.6 37.0304 265.596 36.9886 265.599 36.9471V35.0751C265.6 34.9648 265.626 34.856 265.674 34.7568C265.712 34.6681 265.775 34.5922 265.855 34.5384L267.103 33.8333C267.128 33.813 267.159 33.8019 267.19 33.8019C267.222 33.8019 267.253 33.813 267.278 33.8333C267.305 33.8649 267.326 33.9015 267.339 33.9412C267.352 33.9808 267.356 34.0227 267.353 34.0642V35.9362Z" fill="#FAFAFA"/>
</svg>
