<svg width="312" height="312" viewBox="0 0 312 312" fill="none" xmlns="http://www.w3.org/2000/svg">
<path d="M252.664 168.199C306.403 198.65 306.69 248.015 253.288 278.46C199.886 308.905 113.069 308.88 59.33 278.46C5.59109 248.04 5.3103 198.65 58.706 168.205C112.102 137.76 198.931 137.754 252.664 168.199Z" fill="#F5F5F5"/>
<path d="M200.734 30.7195L203.486 29.1221L203.324 85.9872L200.578 87.5909L200.734 30.7195Z" fill="#F0F0F0"/>
<path d="M200.578 87.5909L203.324 85.9872L282.659 131.789L279.908 133.386L200.578 87.5909Z" fill="#F5F5F5"/>
<path d="M197.583 25.2595L283.24 74.7115L283.059 138.852L197.402 89.3942L197.583 25.2595ZM279.908 133.386L280.07 76.5211L200.735 30.7195L200.579 87.5846L279.908 133.386Z" fill="#E0E0E0"/>
<path d="M197.583 25.2595L200.335 23.6558L285.992 73.1141L283.24 74.7115L197.583 25.2595Z" fill="#F5F5F5"/>
<path d="M283.24 74.7115L285.992 73.1141L285.811 137.255L283.059 138.852L283.24 74.7115Z" fill="#F0F0F0"/>
<path d="M238.817 52.7093L238.655 109.574L241.819 111.403L241.981 54.5314L238.817 52.7093Z" fill="#E0E0E0"/>
<path d="M241.981 54.5314L241.819 111.403L244.57 109.805L244.726 56.1163L241.981 54.5314Z" fill="#F0F0F0"/>
<path opacity="0.2" d="M241.981 57.0898L241.987 54.5314L238.824 52.7093L238.811 55.2614L241.981 57.0898Z" fill="black"/>
<path opacity="0.2" d="M241.975 57.0898L244.196 55.8106L241.981 54.5314L241.975 57.0898Z" fill="black"/>
<path d="M67.6104 204.048C65.8445 205.071 65.832 206.725 67.6104 207.742L73.9315 211.417C74.9202 211.92 76.0139 212.183 77.1233 212.183C78.2326 212.183 79.3263 211.92 80.315 211.417L156.524 167.145C158.29 166.127 158.309 164.468 156.524 163.444L150.197 159.769C149.208 159.266 148.114 159.004 147.005 159.004C145.896 159.004 144.802 159.266 143.813 159.769L67.6104 204.048Z" fill="#E6E6E6"/>
<path d="M78.3057 249.6L134.634 282.329C135.42 282.785 136.312 283.026 137.221 283.026C138.129 283.026 139.022 282.785 139.807 282.329L242.112 223.286C242.308 223.172 242.47 223.009 242.583 222.813C242.696 222.617 242.755 222.395 242.755 222.169C242.755 221.943 242.696 221.721 242.583 221.524C242.47 221.328 242.308 221.166 242.112 221.052L186.576 188.779C185.794 188.329 184.907 188.093 184.005 188.093C183.103 188.093 182.216 188.329 181.434 188.779L78.3182 247.372C78.1234 247.485 77.9616 247.647 77.8486 247.842C77.7357 248.036 77.6756 248.257 77.6743 248.483C77.6731 248.708 77.7307 248.929 77.8414 249.125C77.9522 249.321 78.1122 249.485 78.3057 249.6Z" fill="#E6E6E6"/>
<path d="M54.1945 54.5563L54.2381 68.2906L55.898 69.2578L55.8543 53.6016L54.1945 54.5563Z" fill="#F0F0F0"/>
<path d="M36.2668 78.6677L36.2731 80.5896L55.8979 69.2578L54.238 68.2906L36.2668 78.6677Z" fill="#F5F5F5"/>
<path d="M57.8574 50.1322L34.2078 63.7853L34.2639 84.0653L57.9198 70.4122L57.8574 50.1322ZM36.267 80.5896V78.6677L36.2233 64.9397L54.1945 54.5626L55.8543 53.6079L55.898 69.264L36.267 80.5896Z" fill="#E0E0E0"/>
<path d="M57.8573 50.1322L56.1975 49.165L32.5416 62.8181L34.2077 63.7853L57.8573 50.1322Z" fill="#F5F5F5"/>
<path d="M32.5416 62.8181L32.5978 83.0981L34.2639 84.0653L34.2077 63.7853L32.5416 62.8181Z" fill="#F0F0F0"/>
<path d="M54.1945 83.1792L54.2381 96.9135L55.898 97.8807L55.8543 82.2183L54.1945 83.1792Z" fill="#F0F0F0"/>
<path d="M36.2668 107.291L36.2731 109.212L55.8979 97.8807L54.238 96.9135L36.2668 107.291Z" fill="#F5F5F5"/>
<path d="M57.8574 78.7488L34.2078 92.4082L34.2639 112.688L57.9198 99.0288L57.8574 78.7488ZM36.267 109.2V107.272L36.2233 93.5439L54.1945 83.173L55.8543 82.212L55.898 97.8744L36.267 109.2Z" fill="#E0E0E0"/>
<path d="M57.8573 78.7488L56.1975 77.7816L32.5416 91.441L34.2077 92.4082L57.8573 78.7488Z" fill="#F5F5F5"/>
<path d="M32.5416 91.441L32.5978 111.715L34.2639 112.688L34.2077 92.4082L32.5416 91.441Z" fill="#F0F0F0"/>
<path d="M48.4848 59.7729L53.3895 63.6293L53.3957 67.3982L37.0968 76.8081L37.0844 73.0392L40.1919 66.8741L42.9811 69.0393L41.9952 72.1032L43.4304 69.3825L48.4848 59.7729Z" fill="#E0E0E0"/>
<path d="M43.1309 61.67C43.8984 61.2269 44.5224 61.5826 44.5286 62.4687C44.5073 62.9543 44.3705 63.4278 44.1296 63.8499C43.8887 64.2721 43.5506 64.6307 43.1434 64.896C42.3758 65.3391 41.7518 64.9834 41.7456 64.1036C41.766 63.6169 41.9023 63.1422 42.1433 62.7189C42.3842 62.2956 42.7228 61.9359 43.1309 61.67Z" fill="#E0E0E0"/>
<path d="M48.4848 88.3959L53.3895 92.2522L53.3957 96.0212L37.0968 105.431L37.0844 101.662L40.1919 95.4908L42.9811 97.656L41.9952 100.72L43.4304 97.9992L48.4848 88.3959Z" fill="#E0E0E0"/>
<path d="M43.1309 90.2928C43.8984 89.8498 44.5224 90.2054 44.5286 91.0853C44.5034 91.5666 44.3648 92.0351 44.124 92.4526C43.8833 92.8701 43.5473 93.2248 43.1434 93.4877C42.3758 93.9307 41.7518 93.575 41.7456 92.689C41.7718 92.2088 41.9109 91.7415 42.1516 91.3252C42.3923 90.9088 42.7278 90.5551 43.1309 90.2928Z" fill="#E0E0E0"/>
<path d="M247.797 174.321L247.79 176.448L212.759 156.218L212.765 154.091L247.797 174.321Z" fill="#BB2525"/>
<path d="M235.317 170.502L235.31 172.63L212.747 159.6L212.753 157.473L235.317 170.502Z" fill="#BB2525"/>
<path d="M225.083 140.98C225.45 141.193 225.774 141.472 226.038 141.804C227.149 143.133 227.423 144.924 227.573 146.478C227.785 148.631 228.003 150.783 228.197 152.936C228.276 154.067 228.486 155.185 228.821 156.268C229.181 157.443 229.861 158.493 230.786 159.301C230.893 159.384 231.006 159.459 231.123 159.526C231.446 159.741 231.825 159.856 232.212 159.856C232.6 159.856 232.979 159.741 233.301 159.526C233.92 158.965 234.409 158.278 234.736 157.51C235.143 156.609 235.81 155.85 236.652 155.332C237.082 155.146 237.552 155.069 238.019 155.108C238.486 155.147 238.936 155.301 239.329 155.557C239.494 155.654 239.653 155.763 239.803 155.881C241.619 157.273 242.692 160.006 243.547 162.377C244.402 164.748 245.494 167.5 247.322 168.829C247.443 168.919 247.568 169.002 247.697 169.079C248.25 169.413 248.894 169.565 249.538 169.512C250.182 169.459 250.793 169.205 251.285 168.786C252.29 168.018 253.101 166.914 254.355 166.577C255.02 166.447 255.71 166.544 256.314 166.851V177.21L212.784 152.094L212.834 134.878C213.651 136.289 214.229 137.826 214.544 139.427C214.918 141.498 214.831 143.751 216.229 145.579C216.568 146.024 216.992 146.397 217.477 146.677C218.001 147.009 218.631 147.134 219.242 147.027C220.104 146.802 220.646 145.997 221.002 145.049C221.483 143.801 221.701 142.241 222.462 141.305C222.787 140.944 223.231 140.713 223.712 140.654C224.194 140.594 224.68 140.71 225.083 140.98Z" fill="#BB2525"/>
<path opacity="0.4" d="M225.083 140.98C225.45 141.193 225.774 141.472 226.038 141.804C227.149 143.133 227.423 144.924 227.573 146.478C227.785 148.631 228.003 150.783 228.197 152.936C228.276 154.067 228.486 155.185 228.821 156.268C229.181 157.443 229.861 158.493 230.786 159.301C230.893 159.384 231.006 159.459 231.123 159.526C231.446 159.741 231.825 159.856 232.212 159.856C232.6 159.856 232.979 159.741 233.301 159.526C233.92 158.965 234.409 158.278 234.736 157.51C235.143 156.609 235.81 155.85 236.652 155.332C237.082 155.146 237.552 155.069 238.019 155.108C238.486 155.147 238.936 155.301 239.329 155.557C239.494 155.654 239.653 155.763 239.803 155.881C241.619 157.273 242.692 160.006 243.547 162.377C244.402 164.748 245.494 167.5 247.322 168.829C247.443 168.919 247.568 169.002 247.697 169.079C248.25 169.413 248.894 169.565 249.538 169.512C250.182 169.459 250.793 169.205 251.285 168.786C252.29 168.018 253.101 166.914 254.355 166.577C255.02 166.447 255.71 166.544 256.314 166.851V177.21L212.784 152.094L212.834 134.878C213.651 136.289 214.229 137.826 214.544 139.427C214.918 141.498 214.831 143.751 216.229 145.579C216.568 146.024 216.992 146.397 217.477 146.677C218.001 147.009 218.631 147.134 219.242 147.027C220.104 146.802 220.646 145.997 221.002 145.049C221.483 143.801 221.701 142.241 222.462 141.305C222.787 140.944 223.231 140.713 223.712 140.654C224.194 140.594 224.68 140.71 225.083 140.98Z" fill="white"/>
<path d="M263.203 86.5925L214.126 58.2566C213.94 58.1288 213.726 58.0474 213.503 58.0192C213.279 57.9909 213.052 58.0167 212.84 58.0944H212.803L212.728 58.1381L210.744 59.28H210.7H210.669C210.49 59.4227 210.349 59.6073 210.259 59.8173C210.169 60.0274 210.131 60.2565 210.151 60.4843L210.113 73.7131C210.148 74.3809 210.34 75.031 210.674 75.6103C211.008 76.1895 211.474 76.6813 212.035 77.0453L261.113 105.456C261.31 105.599 261.542 105.687 261.784 105.71C262.027 105.733 262.271 105.691 262.492 105.587L264.514 104.42C264.703 104.276 264.853 104.086 264.948 103.867C265.043 103.649 265.08 103.409 265.056 103.172L265.094 89.9434C265.064 89.2757 264.877 88.6245 264.548 88.0424C264.22 87.4603 263.759 86.9636 263.203 86.5925Z" fill="#BB2525"/>
<path opacity="0.3" d="M263.203 86.5925L214.126 58.2566C213.94 58.1288 213.726 58.0474 213.503 58.0192C213.279 57.9909 213.052 58.0167 212.84 58.0944H212.803L212.728 58.1381L210.744 59.28C210.961 59.1864 211.198 59.1504 211.433 59.1756C211.668 59.2007 211.893 59.2861 212.085 59.4235L261.163 87.7594C261.96 88.2775 262.56 89.049 262.866 89.9496L264.913 88.7827C264.606 87.8807 264.004 87.1089 263.203 86.5925Z" fill="white"/>
<path opacity="0.2" d="M262.866 89.9621C263.006 90.3268 263.08 90.7134 263.085 91.104L263.047 104.339C263.074 104.578 263.036 104.819 262.938 105.038C262.841 105.257 262.687 105.447 262.492 105.587L264.514 104.42C264.703 104.276 264.853 104.086 264.948 103.867C265.043 103.649 265.08 103.409 265.056 103.172L265.094 89.9434C265.087 89.5551 265.013 89.1709 264.876 88.8077L262.866 89.9621Z" fill="black"/>
<path d="M223.866 71.3918C224.933 73.2638 225.021 75.2294 224.135 76.0781L220.628 74.0563L220.384 71.9347C220.375 71.8737 220.354 71.8152 220.322 71.7626C220.29 71.7101 220.247 71.6646 220.197 71.6289C220.097 71.5728 220.016 71.6289 220.004 71.7101L219.492 74.8301L218.831 69.8381C218.82 69.7777 218.798 69.7201 218.764 69.6686C218.731 69.6171 218.688 69.5729 218.637 69.5385C218.621 69.5242 218.601 69.5148 218.58 69.5114C218.559 69.5079 218.537 69.5106 218.518 69.5192C218.498 69.5277 218.481 69.5417 218.469 69.5595C218.457 69.5773 218.45 69.5982 218.45 69.6197L217.969 73.0454L217.489 70.4745C217.465 70.3604 217.398 70.2599 217.302 70.1937C217.208 70.1438 217.133 70.1937 217.115 70.2499L216.678 71.7662L213.814 70.1126C212.934 68.2406 213.034 66.3686 214.113 65.7446C214.458 65.5895 214.837 65.528 215.213 65.5663C215.588 65.6047 215.947 65.7415 216.253 65.963C217.143 66.5177 217.876 67.2911 218.381 68.2094L219.005 69.2577L219.629 68.9083C219.973 68.755 220.351 68.6944 220.725 68.7328C221.1 68.7711 221.458 68.9069 221.763 69.1267C222.646 69.6903 223.37 70.47 223.866 71.3918ZM220.178 73.2638L219.679 76.3339C219.679 76.4275 219.586 76.4587 219.492 76.4025C219.44 76.371 219.396 76.3283 219.362 76.2776C219.329 76.2269 219.307 76.1694 219.299 76.1093L218.675 71.1921L218.232 74.3621C218.232 74.4619 218.138 74.4931 218.038 74.4494C217.989 74.4172 217.946 74.3751 217.914 74.3256C217.882 74.2762 217.86 74.2206 217.851 74.1624L217.308 71.2733L217.04 72.228C217.04 72.3091 216.94 72.3341 216.852 72.2841L214.182 70.7429L214.731 71.6976L218.987 79.067L223.267 76.6209L223.816 76.3089L220.49 74.387C220.439 74.3538 220.395 74.3099 220.361 74.2582C220.328 74.2066 220.306 74.1484 220.297 74.0875L220.178 73.2638Z" fill="#BB2525"/>
<path d="M218.637 69.5448C218.688 69.5791 218.731 69.6234 218.764 69.6748C218.798 69.7263 218.82 69.7839 218.831 69.8443L219.492 74.8363L220.004 71.7163C220.004 71.6165 220.097 71.579 220.197 71.6352C220.247 71.6708 220.29 71.7163 220.322 71.7689C220.354 71.8214 220.375 71.88 220.384 71.941L220.628 74.0626L224.135 76.0843L226.125 77.2325C226.181 77.2695 226.228 77.3194 226.262 77.3779C226.296 77.4364 226.315 77.502 226.319 77.5694C226.319 77.688 226.231 77.7379 226.119 77.6755L223.791 76.3339L220.465 74.412C220.414 74.3788 220.37 74.3349 220.336 74.2832C220.303 74.2315 220.281 74.1733 220.272 74.1125L220.178 73.2888L219.679 76.3589C219.679 76.4525 219.586 76.4837 219.492 76.4275C219.44 76.3959 219.396 76.3532 219.362 76.3025C219.329 76.2518 219.307 76.1944 219.299 76.1342L218.675 71.2171L218.231 74.387C218.231 74.4079 218.225 74.4283 218.214 74.4459C218.203 74.4635 218.187 74.4776 218.168 74.4866C218.149 74.4957 218.128 74.4994 218.108 74.4972C218.087 74.495 218.067 74.4871 218.051 74.4744C217.998 74.4448 217.952 74.4036 217.918 74.3539C217.883 74.3042 217.86 74.2472 217.851 74.1874L217.308 71.2982L217.04 72.253C217.04 72.3341 216.94 72.359 216.852 72.3091L214.182 70.7678L211.854 69.42C211.798 69.3853 211.752 69.3377 211.718 69.2812C211.684 69.2248 211.665 69.1611 211.661 69.0955C211.661 68.9707 211.748 68.9208 211.854 68.977L213.839 70.1251L216.703 71.7787L217.139 70.2624C217.139 70.1813 217.233 70.1563 217.314 70.2C217.365 70.2323 217.408 70.2743 217.443 70.3236C217.477 70.3729 217.501 70.4284 217.514 70.487L217.994 73.0579L218.475 69.6322C218.477 69.6142 218.483 69.597 218.493 69.582C218.504 69.567 218.517 69.5547 218.533 69.5461C218.549 69.5376 218.567 69.533 218.585 69.5327C218.603 69.5325 218.621 69.5366 218.637 69.5448Z" fill="white"/>
<path opacity="0.4" d="M223.866 71.3918C224.933 73.2638 225.021 75.2294 224.135 76.0781L220.628 74.0563L220.384 71.9347C220.375 71.8737 220.354 71.8152 220.322 71.7626C220.29 71.7101 220.247 71.6646 220.197 71.6289C220.097 71.5728 220.016 71.6289 220.004 71.7101L219.492 74.8301L218.831 69.8381C218.82 69.7777 218.798 69.7201 218.764 69.6686C218.731 69.6171 218.688 69.5729 218.637 69.5385C218.621 69.5242 218.601 69.5148 218.58 69.5114C218.559 69.5079 218.537 69.5106 218.518 69.5192C218.498 69.5277 218.481 69.5417 218.469 69.5595C218.457 69.5773 218.45 69.5982 218.45 69.6197L217.969 73.0454L217.489 70.4745C217.465 70.3604 217.398 70.2599 217.302 70.1937C217.208 70.1438 217.133 70.1937 217.115 70.2499L216.678 71.7662L213.814 70.1126C212.934 68.2406 213.034 66.3686 214.113 65.7446C214.458 65.5895 214.837 65.528 215.213 65.5663C215.588 65.6047 215.947 65.7415 216.253 65.963C217.143 66.5177 217.876 67.2911 218.381 68.2094L219.005 69.2577L219.629 68.9083C219.973 68.755 220.351 68.6944 220.725 68.7328C221.1 68.7711 221.458 68.9069 221.763 69.1267C222.646 69.6903 223.37 70.47 223.866 71.3918ZM220.178 73.2638L219.679 76.3339C219.679 76.4275 219.586 76.4587 219.492 76.4025C219.44 76.371 219.396 76.3283 219.362 76.2776C219.329 76.2269 219.307 76.1694 219.299 76.1093L218.675 71.1921L218.232 74.3621C218.232 74.4619 218.138 74.4931 218.038 74.4494C217.989 74.4172 217.946 74.3751 217.914 74.3256C217.882 74.2762 217.86 74.2206 217.851 74.1624L217.308 71.2733L217.04 72.228C217.04 72.3091 216.94 72.3341 216.852 72.2841L214.182 70.7429L214.731 71.6976L218.987 79.067L223.267 76.6209L223.816 76.3089L220.49 74.387C220.439 74.3538 220.395 74.3099 220.361 74.2582C220.328 74.2066 220.306 74.1484 220.297 74.0875L220.178 73.2638Z" fill="white"/>
<path d="M253.094 95.8277L253.088 98.0117L227.648 83.3227L227.654 81.1387L253.094 95.8277Z" fill="white"/>
<path d="M257.993 94.3675L257.987 96.5578L227.66 79.0483L227.666 76.8581L257.993 94.3675Z" fill="white"/>
<path d="M238.1 78.5928L238.093 80.7768L227.673 74.7615L227.679 72.5775L238.1 78.5928Z" fill="white"/>
<path d="M263.203 112.389L214.126 84.0528C213.94 83.925 213.726 83.8435 213.503 83.8153C213.279 83.7871 213.052 83.8129 212.84 83.8905H212.803L212.728 83.9342L210.744 85.0761H210.7H210.669C210.49 85.2189 210.349 85.4034 210.259 85.6135C210.169 85.8235 210.131 86.0526 210.151 86.2805L210.113 99.5093C210.148 100.177 210.34 100.827 210.674 101.406C211.008 101.986 211.474 102.477 212.035 102.841L261.113 131.177C261.31 131.321 261.542 131.408 261.784 131.431C262.027 131.455 262.271 131.412 262.492 131.308L264.514 130.141C264.705 129.999 264.855 129.808 264.951 129.589C265.046 129.371 265.082 129.131 265.056 128.893L265.094 115.658C265.052 115.005 264.859 114.369 264.531 113.802C264.203 113.235 263.749 112.751 263.203 112.389Z" fill="#BB2525"/>
<path opacity="0.3" d="M263.203 112.389L214.126 84.0528C213.94 83.925 213.726 83.8435 213.503 83.8153C213.279 83.7871 213.052 83.8129 212.84 83.8905H212.803L212.728 83.9342L210.744 85.0761C210.961 84.9825 211.198 84.9466 211.433 84.9717C211.668 84.9968 211.893 85.0823 212.085 85.2197L261.163 113.568C261.96 114.086 262.56 114.858 262.866 115.758L264.913 114.591C264.609 113.685 264.006 112.908 263.203 112.389Z" fill="white"/>
<path opacity="0.2" d="M262.866 115.758C263.007 116.123 263.08 116.51 263.085 116.9L263.047 130.135C263.074 130.374 263.036 130.615 262.938 130.834C262.841 131.054 262.687 131.243 262.492 131.383L264.514 130.216C264.705 130.073 264.855 129.883 264.951 129.664C265.046 129.445 265.082 129.206 265.056 128.968L265.094 115.733C265.086 115.347 265.012 114.965 264.876 114.604L262.866 115.758Z" fill="black"/>
<path d="M255.653 123.047L255.647 125.231L241.756 117.212L241.763 115.022L255.653 123.047Z" fill="white"/>
<path d="M257.406 119.764L257.4 121.955L241.763 112.925L241.769 110.741L257.406 119.764Z" fill="white"/>
<path d="M248.733 110.473L248.726 112.657L241.775 108.645L241.781 106.461L248.733 110.473Z" fill="white"/>
<path d="M220.347 97.8369C220.572 97.9825 220.76 98.1795 220.894 98.4116C221.029 98.6437 221.106 98.9044 221.121 99.1723V100.651C221.121 101.138 220.765 101.338 220.341 101.094L219.055 100.352C218.832 100.204 218.647 100.007 218.513 99.7749C218.38 99.5431 218.303 99.2833 218.288 99.0163V97.5374C218.288 97.0444 218.637 96.851 219.061 97.0944L220.347 97.8369Z" fill="white"/>
<path opacity="0.4" d="M219.723 92.1835L219.91 92.3021V94.0805C219.848 94.0353 219.783 93.9936 219.717 93.9557C217.252 92.5329 215.243 93.6749 215.23 96.5141C215.263 97.7788 215.574 99.0208 216.141 100.152L214.818 100.32C214.112 98.8523 213.727 97.2504 213.689 95.6217C213.695 91.8091 216.403 90.2678 219.723 92.1835Z" fill="white"/>
<path d="M219.91 92.3021C223.142 94.2864 225.732 98.8291 225.72 102.567C225.707 106.305 222.999 107.921 219.685 106.005C217.535 104.635 215.84 102.657 214.818 100.32L216.141 100.152C216.905 101.825 218.136 103.242 219.685 104.233C222.181 105.656 224.166 104.508 224.172 101.675C224.089 100.167 223.662 98.699 222.923 97.3825C222.184 96.0661 221.154 94.9365 219.91 94.0805V92.3021Z" fill="white"/>
<path opacity="0.4" d="M233.101 99.9086L233.295 100.027V101.806C233.233 101.76 233.168 101.719 233.101 101.681C230.637 100.258 228.627 101.4 228.621 104.239C228.652 105.504 228.961 106.746 229.526 107.877L228.209 108.046C227.498 106.579 227.111 104.976 227.074 103.347C227.08 99.5342 229.788 97.968 233.101 99.9086Z" fill="white"/>
<path d="M233.732 105.562C233.955 105.709 234.141 105.907 234.274 106.138C234.408 106.37 234.485 106.63 234.499 106.897V108.37C234.499 108.863 234.156 109.063 233.725 108.819L232.44 108.077C232.216 107.93 232.03 107.733 231.897 107.501C231.763 107.269 231.687 107.009 231.672 106.741V105.263C231.672 104.77 232.022 104.576 232.452 104.82L233.732 105.562Z" fill="white"/>
<path d="M233.295 100.027C236.521 102.012 239.111 106.554 239.098 110.292C239.086 114.03 236.384 115.646 233.064 113.73C230.914 112.362 229.221 110.382 228.203 108.046L229.52 107.877C230.286 109.551 231.518 110.968 233.07 111.958C235.535 113.381 237.544 112.233 237.557 109.4C237.474 107.892 237.046 106.423 236.306 105.106C235.566 103.79 234.534 102.661 233.289 101.806L233.295 100.027Z" fill="white"/>
<path d="M216.179 113.125C216.494 113.329 216.756 113.605 216.943 113.931C217.129 114.256 217.235 114.622 217.252 114.997V117.05C217.252 117.73 216.771 118.005 216.172 117.674L214.388 116.644C214.075 116.438 213.815 116.161 213.63 115.836C213.445 115.511 213.339 115.146 213.321 114.772V112.719C213.321 112.039 213.807 111.765 214.394 112.095L216.179 113.125Z" fill="#BB2525"/>
<path d="M216.166 118.903C216.481 119.107 216.742 119.384 216.927 119.709C217.113 120.035 217.218 120.401 217.233 120.775V122.828C217.233 123.508 216.753 123.783 216.16 123.452L214.375 122.423C214.061 122.218 213.8 121.942 213.614 121.616C213.428 121.291 213.323 120.925 213.308 120.551V118.491C213.308 117.811 213.789 117.537 214.381 117.867L216.166 118.903Z" fill="#BB2525"/>
<path d="M216.147 124.688C216.462 124.892 216.724 125.168 216.911 125.494C217.097 125.819 217.204 126.185 217.221 126.56V128.613C217.221 129.293 216.734 129.567 216.141 129.237L214.356 128.207C214.042 128.003 213.782 127.726 213.596 127.4C213.41 127.075 213.305 126.709 213.289 126.335V124.282C213.289 123.608 213.77 123.334 214.363 123.658L216.147 124.688Z" fill="#BB2525"/>
<path d="M246.18 143.264L246.174 145.305L219.055 129.642L219.061 127.602L246.18 143.264Z" fill="#BB2525"/>
<path d="M256.994 143.713L256.988 145.76L219.068 123.87L219.074 121.823L256.994 143.713Z" fill="#BB2525"/>
<path d="M251.99 135.04L251.984 137.08L219.086 118.092L219.093 116.045L251.99 135.04Z" fill="#BB2525"/>
<path d="M152.443 44.6223C152.443 39.3619 150.571 35.6679 147.57 33.9269L140.837 29.952L140.743 29.9021C140.474 29.7462 140.195 29.6086 139.907 29.4903C139.854 29.4688 139.8 29.45 139.745 29.4341L139.458 29.3343C139.314 29.2843 139.177 29.2219 139.027 29.1783C138.877 29.1346 138.703 29.1034 138.547 29.0659L138.247 29.0035C138.196 28.9874 138.144 28.9749 138.091 28.9661C137.757 28.9074 137.419 28.8678 137.08 28.8475H136.775C136.512 28.8475 136.25 28.8475 135.976 28.8475L135.701 28.8787L135.202 28.9287C135.046 28.9287 134.89 28.9287 134.734 28.9723L134.316 29.0659C134.091 29.1034 133.867 29.1533 133.636 29.2095C133.511 29.2095 133.392 29.2531 133.268 29.2906C132.987 29.3655 132.706 29.4528 132.419 29.5464H132.332C131.988 29.6587 131.651 29.7898 131.302 29.9333L130.89 30.1205L130.497 30.3015C129.992 30.5386 129.486 30.7944 128.968 31.0939L79.7472 59.5171C79.2105 59.8291 78.6801 60.1661 78.156 60.528L77.6568 60.8899C77.3011 61.1458 76.9517 61.4079 76.6022 61.6824L76.0344 62.1567C75.7161 62.425 75.4104 62.6995 75.0921 62.9803L74.5305 63.5045L74.1749 63.8352C74.0563 63.9538 73.9377 64.0911 73.8192 64.2159C73.4448 64.5965 73.0704 64.9896 72.7084 65.3952C72.5961 65.5263 72.4713 65.6448 72.3528 65.7759L72.072 66.1191C71.8536 66.3749 71.6414 66.6432 71.448 66.9053C71.2545 67.1674 71.1609 67.2485 71.0236 67.4232C70.8864 67.5979 70.8053 67.7227 70.6992 67.8725C70.5931 68.0223 70.3872 68.2843 70.2374 68.4965L69.9129 68.9271C69.7382 69.1767 69.576 69.4325 69.4075 69.6883L69.083 70.1688L68.952 70.3685C68.6524 70.8365 68.3654 71.3045 68.0846 71.785L68.0347 71.8786L67.8724 72.1656C67.679 72.5026 67.4856 72.8458 67.3046 73.189C67.2172 73.345 67.1424 73.5072 67.0612 73.6695L66.8054 74.1687C66.7368 74.3184 66.6556 74.4619 66.587 74.6055C66.3936 74.9986 66.2188 75.3917 66.0441 75.7911L65.9505 75.997L65.9193 76.0531C65.7072 76.5523 65.5012 77.0515 65.2953 77.5507C65.2641 77.6443 65.2329 77.7379 65.1955 77.8315C65.1581 77.9251 65.0707 78.1935 65.002 78.3744C64.9334 78.5554 64.8148 78.8736 64.7337 79.1295C64.6526 79.3853 64.6152 79.5163 64.5528 79.716C64.4904 79.9157 64.4093 80.1715 64.3469 80.3962C64.2845 80.6208 64.2533 80.6832 64.2158 80.8267C64.1409 81.0826 64.091 81.3384 64.0286 81.5943C63.9662 81.8501 63.8788 82.1621 63.8164 82.4429C63.8164 82.5427 63.7665 82.6426 63.7416 82.7424C63.6979 82.9483 63.6792 83.148 63.6417 83.3664C63.5544 83.8095 63.4733 84.2525 63.4109 84.6955C63.4109 84.8203 63.3609 84.9451 63.3484 85.0637C63.311 85.3445 63.2923 85.6191 63.2673 85.8999C63.2424 86.1807 63.2237 86.293 63.2112 86.4864C63.1613 87.1104 63.13 87.7344 63.1363 88.3272L63.3484 183.306C63.3484 188.567 65.2204 192.267 68.2219 194.008L74.9611 197.995C74.7718 197.878 74.5885 197.751 74.412 197.615C77.482 199.755 81.9 199.68 86.8233 196.835L136.032 168.405C145.242 163.089 152.693 150.191 152.662 139.595L152.443 44.6223Z" fill="#BB2525"/>
<path opacity="0.6" d="M152.443 44.6223C152.443 39.3619 150.571 35.6679 147.57 33.9269L140.837 29.952L140.743 29.9021C140.474 29.7462 140.195 29.6086 139.907 29.4903C139.854 29.4688 139.8 29.45 139.745 29.4341L139.458 29.3343C139.314 29.2843 139.177 29.2219 139.027 29.1783C138.877 29.1346 138.703 29.1034 138.547 29.0659L138.247 29.0035C138.196 28.9874 138.144 28.9749 138.091 28.9661C137.757 28.9074 137.419 28.8678 137.08 28.8475H136.775C136.512 28.8475 136.25 28.8475 135.976 28.8475L135.701 28.8787L135.202 28.9287C135.046 28.9287 134.89 28.9287 134.734 28.9723L134.316 29.0659C134.091 29.1034 133.867 29.1533 133.636 29.2095C133.511 29.2095 133.392 29.2531 133.268 29.2906C132.987 29.3655 132.706 29.4528 132.419 29.5464H132.332C131.988 29.6587 131.651 29.7898 131.302 29.9333L130.89 30.1205L130.497 30.3015C129.992 30.5386 129.486 30.7944 128.968 31.0939L79.7472 59.5171C79.2105 59.8291 78.6801 60.1661 78.156 60.528L77.6568 60.8899C77.3011 61.1458 76.9517 61.4079 76.6022 61.6824L76.0344 62.1567C75.7161 62.425 75.4104 62.6995 75.0921 62.9803L74.5305 63.5045L74.1749 63.8352C74.0563 63.9538 73.9377 64.0911 73.8192 64.2159C73.4448 64.5965 73.0704 64.9896 72.7084 65.3952C72.5961 65.5263 72.4713 65.6448 72.3528 65.7759L72.072 66.1191C71.8536 66.3749 71.6414 66.6432 71.448 66.9053C71.2545 67.1674 71.1609 67.2485 71.0236 67.4232C70.8864 67.5979 70.8053 67.7227 70.6992 67.8725C70.5931 68.0223 70.3872 68.2843 70.2374 68.4965L69.9129 68.9271C69.7382 69.1767 69.576 69.4325 69.4075 69.6883L69.083 70.1688L68.952 70.3685C68.6524 70.8365 68.3654 71.3045 68.0846 71.785L68.0347 71.8786L67.8724 72.1656C67.679 72.5026 67.4856 72.8458 67.3046 73.189C67.2172 73.345 67.1424 73.5072 67.0612 73.6695L66.8054 74.1687C66.7368 74.3184 66.6556 74.4619 66.587 74.6055C66.3936 74.9986 66.2188 75.3917 66.0441 75.7911L65.9505 75.997L65.9193 76.0531C65.7072 76.5523 65.5012 77.0515 65.2953 77.5507C65.2641 77.6443 65.2329 77.7379 65.1955 77.8315C65.1581 77.9251 65.0707 78.1935 65.002 78.3744C64.9334 78.5554 64.8148 78.8736 64.7337 79.1295C64.6526 79.3853 64.6152 79.5163 64.5528 79.716C64.4904 79.9157 64.4093 80.1715 64.3469 80.3962C64.2845 80.6208 64.2533 80.6832 64.2158 80.8267C64.1409 81.0826 64.091 81.3384 64.0286 81.5943C63.9662 81.8501 63.8788 82.1621 63.8164 82.4429C63.8164 82.5427 63.7665 82.6426 63.7416 82.7424C63.6979 82.9483 63.6792 83.148 63.6417 83.3664C63.5544 83.8095 63.4733 84.2525 63.4109 84.6955C63.4109 84.8203 63.3609 84.9451 63.3484 85.0637C63.311 85.3445 63.2923 85.6191 63.2673 85.8999C63.2424 86.1807 63.2237 86.293 63.2112 86.4864C63.1613 87.1104 63.13 87.7344 63.1363 88.3272L63.3484 183.306C63.3484 188.567 65.2204 192.267 68.2219 194.008L74.9611 197.995C74.7718 197.878 74.5885 197.751 74.412 197.615C77.482 199.755 81.9 199.68 86.8233 196.835L136.032 168.405C145.242 163.089 152.693 150.191 152.662 139.595L152.443 44.6223Z" fill="white"/>
<path opacity="0.1" d="M70.0752 187.275L69.888 92.3021L63.1488 88.3148L63.361 183.294C63.361 188.554 65.233 192.254 68.2344 193.995L74.9736 197.983C71.9534 196.242 70.0939 192.541 70.0752 187.275Z" fill="black"/>
<path opacity="0.3" d="M137.629 34.1141C138.1 33.8981 138.581 33.7065 139.071 33.54H139.158C139.57 33.4027 139.976 33.2967 140.406 33.2031L141.086 33.0533C141.386 32.9971 141.679 32.9535 141.972 32.9223L142.472 32.8661C142.829 32.8475 143.187 32.8475 143.545 32.8661H143.788C144.207 32.8911 144.624 32.9432 145.036 33.0221L145.336 33.0907C145.644 33.1632 145.948 33.2528 146.247 33.3591L146.534 33.4527C146.911 33.5994 147.276 33.7747 147.626 33.9768L140.837 29.952L140.743 29.9021C140.474 29.7462 140.195 29.6086 139.907 29.4903C139.854 29.4688 139.8 29.45 139.745 29.4341L139.458 29.3343C139.314 29.2843 139.177 29.2219 139.027 29.1783C138.877 29.1346 138.703 29.1034 138.547 29.0659L138.247 29.0035C138.196 28.9874 138.144 28.9749 138.091 28.9661C137.757 28.9074 137.419 28.8678 137.08 28.8475H136.775C136.512 28.8475 136.25 28.8475 135.976 28.8475L135.701 28.8787L135.202 28.9287C135.046 28.9287 134.89 28.9287 134.734 28.9723L134.316 29.0659C134.091 29.1034 133.867 29.1533 133.636 29.2095C133.511 29.2095 133.392 29.2531 133.268 29.2906C132.987 29.3655 132.706 29.4528 132.419 29.5464H132.332C131.988 29.6587 131.651 29.7898 131.302 29.9333L130.89 30.1205L130.497 30.3015C129.992 30.5386 129.486 30.7944 128.968 31.0939L79.7472 59.5171C79.2105 59.8291 78.6801 60.1661 78.156 60.528L77.6568 60.8962C77.3011 61.1458 76.9517 61.4079 76.6022 61.6824L76.0344 62.1567C75.7161 62.425 75.4104 62.6995 75.0921 62.9803L74.5305 63.5045L74.1749 63.8352C74.0563 63.9538 73.9377 64.0911 73.8192 64.2159C73.4448 64.5965 73.0704 64.9896 72.7084 65.3952C72.5961 65.5263 72.4713 65.6448 72.3528 65.7759L72.072 66.1191C71.8536 66.3749 71.6414 66.6432 71.448 66.9053C71.2545 67.1674 71.1609 67.2485 71.0236 67.4232C70.8864 67.5979 70.8053 67.7227 70.6992 67.8725C70.5931 68.0223 70.3872 68.2843 70.2374 68.4965L69.9129 68.9271C69.7382 69.1767 69.576 69.4325 69.4075 69.6883L69.083 70.1688L68.952 70.3685C68.6524 70.8365 68.3654 71.3045 68.0846 71.785L68.0347 71.8786L67.8724 72.1656C67.679 72.5088 67.4856 72.8458 67.3046 73.189C67.2172 73.345 67.1424 73.5072 67.0612 73.6695L66.8054 74.1687C66.7368 74.3184 66.6556 74.4619 66.587 74.6055C66.3936 74.9986 66.2188 75.3917 66.0441 75.7911L65.9505 75.997L65.9193 76.0531C65.7072 76.5523 65.5012 77.0515 65.2953 77.5507C65.2641 77.6443 65.2329 77.7379 65.1955 77.8315C65.1581 77.9251 65.0707 78.1935 65.002 78.3744C64.9334 78.5554 64.8148 78.8736 64.7337 79.1295C64.6526 79.3853 64.6152 79.5163 64.5528 79.716C64.4904 79.9157 64.4093 80.1715 64.3469 80.3962C64.2845 80.6208 64.2533 80.6832 64.2158 80.8267C64.1409 81.0826 64.091 81.3384 64.0286 81.5943C63.9662 81.8501 63.8788 82.1621 63.8164 82.4429C63.8164 82.5427 63.7665 82.6426 63.7416 82.7424C63.6979 82.9483 63.6792 83.148 63.6417 83.3664C63.5544 83.8095 63.4733 84.2525 63.4109 84.6955C63.4109 84.8203 63.3609 84.9451 63.3484 85.0637C63.311 85.3445 63.2923 85.6191 63.2673 85.8999C63.2424 86.1807 63.2237 86.293 63.2112 86.4864C63.1613 87.1104 63.13 87.7344 63.1363 88.3272L69.8755 92.3146C69.8755 91.6906 69.8755 91.0666 69.9441 90.4738C69.9441 90.2741 69.9878 90.0807 70.0065 89.881C70.044 89.4816 70.0939 89.0823 70.15 88.6829C70.2062 88.2835 70.2936 87.7968 70.3809 87.3538C70.4371 87.048 70.487 86.7298 70.5556 86.4427C70.6243 86.1557 70.6929 85.8749 70.7678 85.5879C70.8677 85.1947 70.9675 84.7954 71.0798 84.396C71.1485 84.1714 71.2233 83.9405 71.292 83.7096C71.4355 83.2666 71.5852 82.8173 71.7413 82.3743C71.8036 82.1933 71.866 82.0061 71.9347 81.8251C72.1656 81.2011 72.4089 80.5771 72.6772 79.9968L72.7709 79.7847C73.0142 79.2418 73.2638 78.7051 73.5321 78.1685C73.6132 78 73.7006 77.8315 73.788 77.6693C74.0438 77.1639 74.3184 76.6647 74.5992 76.1655L74.7614 75.8784C75.0984 75.2981 75.4478 74.7303 75.8097 74.1687L76.1342 73.6819C76.4025 73.2826 76.6771 72.8895 76.9579 72.4963L77.4259 71.8723C77.6693 71.5479 77.9251 71.2483 78.1747 70.9114L78.7987 70.1189L79.4227 69.4013C79.7846 68.9957 80.159 68.6026 80.5334 68.2219C80.7705 67.9786 81.0014 67.7415 81.2448 67.5106C81.4881 67.2797 81.6192 67.1549 81.8064 66.9864C82.1184 66.6994 82.4304 66.4248 82.7486 66.1627L83.3165 65.6885C83.6659 65.4139 84.0153 65.1519 84.371 64.896C84.5395 64.7775 84.7017 64.6464 84.8702 64.5341C85.3944 64.1722 85.9248 63.8352 86.4614 63.5232L135.683 35.1063C136.2 34.8067 136.706 34.5509 137.211 34.3138L137.629 34.1141Z" fill="white"/>
<path d="M78.468 187.25C78.468 189.315 78.9235 190.37 79.1544 190.694C79.2249 190.7 79.2959 190.7 79.3665 190.694C79.7472 190.694 80.8204 190.582 82.6176 189.546L131.839 161.129C138.484 157.292 144.319 147.239 144.269 139.608L144.219 115.209L78.3868 153.629L78.468 187.25Z" fill="#BB2525"/>
<path d="M144.057 44.6472C144.057 42.5568 143.582 41.5272 143.358 41.2028H143.077H142.883L142.609 41.2464L142.347 41.3026C142.185 41.34 141.954 41.4024 141.785 41.4586H141.704C141.536 41.521 141.311 41.6084 141.08 41.7269L140.849 41.833C140.475 42.0077 140.182 42.1575 139.926 42.3072L90.7046 70.7242C90.3988 70.9052 90.0806 71.1173 89.6999 71.3482L89.3255 71.6165C89.0822 71.7975 88.8388 71.9784 88.6017 72.1656L88.2647 72.4402L88.1961 72.5026C87.959 72.696 87.7344 72.8957 87.5097 73.0954L87.0916 73.4885L86.6424 73.944L86.5612 74.0252C86.2742 74.3122 85.9934 74.6117 85.7251 74.9175L85.6315 75.0173L85.2321 75.4666L84.7267 76.0906C84.527 76.3402 84.3273 76.5898 84.1401 76.8456L83.7719 77.3324C83.5535 77.6444 83.3351 77.9564 83.1479 78.2746L82.8859 78.6615C82.5863 79.1295 82.3055 79.585 82.0622 80.0031L81.9249 80.2464C81.7003 80.6396 81.4881 81.0389 81.3009 81.4383L81.1012 81.8314C80.8891 82.2557 80.6894 82.68 80.4772 83.0794C80.4398 83.1605 80.4086 83.2416 80.3649 83.329C80.1902 83.7408 80.0092 84.1901 79.8158 84.6956L79.666 85.1199C79.5412 85.4631 79.4289 85.8063 79.3228 86.1495C79.2667 86.3242 79.2105 86.4989 79.1606 86.6674C79.0732 86.9669 78.9983 87.2602 78.9235 87.5722L78.8798 87.7407L78.7675 88.19L78.6926 88.5768L78.6427 88.8514C78.5803 89.1696 78.5241 89.4754 78.4804 89.7999C78.4367 90.1244 78.4055 90.349 78.3806 90.6236L78.3369 91.0229C78.2995 91.4909 78.287 91.8778 78.287 92.221L78.418 150.783L144.25 112.364L144.057 44.6472Z" fill="#455A64"/>
<path d="M78.3806 150.846L78.3869 153.641L144.219 115.222L144.206 112.426L78.3806 150.846Z" fill="white"/>
<path d="M133.567 77.6631L127.296 81.2885C129.555 76.2965 129.243 71.3045 126.36 69.6821C124.75 68.7648 122.616 69.0581 120.544 70.3061C118.118 71.8142 116.12 73.9198 114.741 76.4213L113.025 79.3916L112.732 75.5976C112.732 75.2794 112.47 75.1546 112.151 75.3168C112.001 75.4153 111.872 75.5436 111.774 75.6939C111.675 75.8442 111.608 76.0132 111.577 76.1904L111.041 79.6911L110.055 79.1295C108.445 78.2122 106.311 78.5055 104.233 79.7223C101.808 81.2292 99.8112 83.3352 98.4359 85.8375C95.5655 90.8295 95.2847 96.1085 97.5686 98.486L91.2849 102.111C91.1141 102.219 90.972 102.367 90.8709 102.542C90.7698 102.717 90.7127 102.914 90.7046 103.116C90.7046 103.484 90.9667 103.634 91.2849 103.453L98.5919 99.216L100.845 100.501L112.507 107.141L113.836 104.838L113.892 105.556C113.892 105.88 114.167 106.005 114.473 105.837C114.631 105.732 114.764 105.595 114.864 105.435C114.964 105.275 115.029 105.094 115.053 104.907L115.284 102.33L124.089 87.0792L126.329 83.2042L133.605 79.0047C133.768 78.8914 133.904 78.7417 134 78.5674C134.096 78.3932 134.151 78.199 134.16 78C134.16 77.6256 133.892 77.4759 133.567 77.6631Z" fill="#BB2525"/>
<path d="M112.145 75.2856C112.464 75.1233 112.701 75.2481 112.726 75.5664L113.019 79.3603L114.51 98.3049L116.314 78.5678C116.332 78.3849 116.391 78.2084 116.486 78.0509C116.581 77.8934 116.71 77.7588 116.863 77.6568C117.162 77.4821 117.406 77.5632 117.456 77.8565L119.59 89.388L119.989 86.0745C120.015 85.8924 120.079 85.7179 120.178 85.5629C120.277 85.4079 120.409 85.276 120.563 85.176L127.296 81.2885L133.573 77.663C133.898 77.4758 134.16 77.6256 134.16 78C134.148 78.2011 134.09 78.3967 133.989 78.5711C133.888 78.7456 133.748 78.894 133.58 79.0046L126.304 83.2041L121.056 86.2243L120.226 93.0883C120.201 93.2684 120.138 93.4412 120.042 93.595C119.945 93.7489 119.816 93.8803 119.665 93.9806C119.371 94.1491 119.134 94.0617 119.078 93.7747L117.037 82.6987L115.253 102.336L115.022 104.913C114.998 105.101 114.933 105.281 114.833 105.441C114.733 105.602 114.599 105.739 114.442 105.843C114.136 106.011 113.886 105.887 113.861 105.562L113.805 104.844L111.933 80.9328L108.813 101.207C108.782 101.382 108.715 101.549 108.618 101.698C108.52 101.847 108.393 101.975 108.245 102.074C107.921 102.242 107.69 102.118 107.665 101.799L106.417 87.4473L105.001 95.0165C104.966 95.1864 104.897 95.3477 104.8 95.4912C104.703 95.6347 104.578 95.7575 104.433 95.8526L98.592 99.216L91.3099 103.422C90.9917 103.603 90.7296 103.422 90.7296 103.085C90.7378 102.883 90.7949 102.686 90.8959 102.511C90.997 102.336 91.1391 102.188 91.3099 102.08L97.5936 98.4547L103.996 94.7544L106.117 83.4413C106.151 83.2699 106.218 83.1069 106.316 82.9622C106.413 82.8175 106.539 82.6939 106.685 82.5989C107.01 82.4366 107.234 82.5677 107.266 82.8734L108.476 96.6014L111.066 79.6473L111.602 76.1467C111.631 75.9742 111.694 75.8092 111.787 75.6613C111.88 75.5134 112.002 75.3857 112.145 75.2856Z" fill="white"/>
<path d="M104.308 119.303L104.326 127.446L101.937 128.825L101.918 122.753L100.701 123.452V121.387L104.308 119.303Z" fill="white"/>
<path d="M107.821 117.087C109.499 116.12 110.685 116.463 110.691 117.986C110.691 118.785 110.517 119.608 109.481 121.281L108.476 122.928L110.86 121.555V123.683L105.181 126.965V125.28L107.74 121.075C108.059 120.657 108.252 120.157 108.295 119.633C108.295 119.246 108.058 119.134 107.603 119.396C107.109 119.713 106.741 120.192 106.56 120.75H104.757C105.315 119.206 106.4 117.909 107.821 117.087Z" fill="white"/>
<path d="M114.541 113.206C116.413 112.133 117.755 112.913 117.761 115.609C117.802 116.816 117.529 118.013 116.969 119.084C116.409 120.154 115.581 121.062 114.566 121.717C112.694 122.803 111.347 122.017 111.34 119.315C111.302 118.107 111.576 116.91 112.137 115.84C112.698 114.769 113.526 113.862 114.541 113.206ZM114.541 119.521C115.003 119.253 115.346 118.566 115.34 117.025C115.334 115.484 114.991 115.153 114.529 115.44C114.067 115.727 113.718 116.395 113.724 117.936C113.73 119.477 114.08 119.808 114.541 119.527" fill="white"/>
<path d="M120.85 115.296C121.43 114.96 121.93 115.178 121.93 115.995C121.925 116.384 121.825 116.766 121.637 117.106C121.45 117.447 121.182 117.736 120.856 117.948C120.582 118.104 120.382 118.142 120.232 118.048V118.254L119.359 118.76V115.284L120.276 114.754V115.846C120.412 115.612 120.611 115.422 120.85 115.296ZM120.632 117.256C120.749 117.178 120.843 117.07 120.907 116.945C120.97 116.819 121 116.679 120.994 116.538C120.994 116.208 120.831 116.133 120.632 116.251C120.515 116.327 120.421 116.432 120.359 116.556C120.296 116.68 120.268 116.818 120.276 116.956C120.276 117.287 120.432 117.368 120.632 117.256Z" fill="white"/>
<path d="M123.702 113.643C124.282 113.312 124.775 113.537 124.775 114.361C124.773 114.747 124.674 115.127 124.488 115.466C124.302 115.805 124.033 116.092 123.708 116.301C123.465 116.438 123.277 116.482 123.14 116.407V117.493L122.223 118.023V114.56L123.097 114.055V114.261C123.237 114.002 123.446 113.788 123.702 113.643ZM123.49 115.609C123.607 115.532 123.701 115.426 123.765 115.301C123.828 115.176 123.858 115.037 123.852 114.897C123.852 114.566 123.689 114.485 123.483 114.604C123.366 114.682 123.271 114.789 123.207 114.915C123.144 115.041 123.114 115.181 123.121 115.321C123.121 115.652 123.284 115.727 123.49 115.609Z" fill="white"/>
<path d="M128.014 111.153C128.519 110.866 128.9 110.997 128.9 111.777V113.237L127.982 113.768V112.52C127.982 112.195 127.882 112.133 127.739 112.214C127.64 112.283 127.56 112.377 127.51 112.487C127.459 112.596 127.439 112.718 127.452 112.838V114.086L126.535 114.616V113.368C126.535 113.044 126.435 112.981 126.279 113.069C126.179 113.138 126.1 113.232 126.05 113.341C125.999 113.451 125.979 113.573 125.992 113.693V114.941L125.068 115.471V112.913L125.942 112.414V112.644C126.093 112.387 126.308 112.172 126.566 112.02C126.859 111.852 127.109 111.833 127.265 112.02C127.426 111.665 127.686 111.364 128.014 111.153Z" fill="white"/>
<path d="M89.9122 154.128C92.1211 152.849 93.9183 153.878 93.9307 156.412C93.8589 157.798 93.4596 159.147 92.7654 160.349C92.0712 161.551 91.1019 162.571 89.9371 163.326C87.7219 164.605 85.9248 163.582 85.9186 161.036C85.9918 159.651 86.3919 158.303 87.086 157.102C87.7801 155.902 88.7486 154.883 89.9122 154.128Z" fill="white"/>
<path d="M138.116 130.01L138.122 131.739L98.2737 154.746L98.2675 153.024L138.116 130.01Z" fill="white"/>
<path d="M138.16 143.433V145.161L98.3112 168.168L98.3049 166.44L138.16 143.433Z" fill="white"/>
<path d="M119.683 157.335L119.689 159.058L98.3174 171.394V169.672L119.683 157.335Z" fill="white"/>
<path d="M113.986 154.153V155.881L98.2987 164.942V163.213L113.986 154.153Z" fill="white"/>
<path d="M133.779 135.751L133.786 137.473L98.28 157.972V156.25L133.779 135.751Z" fill="white"/>
<path d="M122.735 135.664L122.741 137.386L98.2612 151.52V149.791L122.735 135.664Z" fill="white"/>
<path d="M89.9495 167.525C92.1585 166.246 93.9619 167.269 93.9681 169.809C93.8948 171.195 93.4948 172.544 92.8007 173.745C92.1067 174.947 91.1382 175.967 89.9745 176.723C87.7655 178.002 85.9622 176.973 85.9559 174.433C86.0292 173.048 86.4292 171.7 87.1234 170.5C87.8175 169.299 88.7859 168.28 89.9495 167.525Z" fill="white"/>
<path d="M189.659 185.709L182.838 181.746L91.9526 227.005L98.7917 230.955L189.659 185.709Z" fill="#455A64"/>
<path d="M233.744 211.33L143.033 256.495L150.371 260.732L241.051 215.573L233.744 211.33Z" fill="#455A64"/>
<path opacity="0.3" d="M189.659 185.709L182.838 181.746L91.9526 227.005L98.7917 230.955L189.659 185.709Z" fill="white"/>
<path d="M143.033 256.495L98.7916 230.955L91.9526 227.005L79.2355 225.333L137.455 259.166L150.371 260.732L143.033 256.495Z" fill="#455A64"/>
<path opacity="0.5" d="M143.033 256.495L98.7916 230.955L91.9526 227.005L79.2355 225.333L137.455 259.166L150.371 260.732L143.033 256.495Z" fill="white"/>
<path opacity="0.3" d="M233.744 211.33L143.033 256.495L150.371 260.732L241.051 215.573L233.744 211.33Z" fill="white"/>
<path d="M137.455 259.166L79.2355 225.333L79.248 240.683L79.2604 247.447L137.473 281.28L137.455 259.166Z" fill="#455A64"/>
<path d="M84.8639 242.405V237.301C84.863 237.081 84.9201 236.866 85.0292 236.675C85.1384 236.485 85.2959 236.327 85.4857 236.216C85.6756 236.106 85.8912 236.048 86.1107 236.048C86.3301 236.048 86.5458 236.105 86.7359 236.215L130.241 261.5C130.715 261.773 131.109 262.167 131.383 262.642C131.657 263.116 131.801 263.654 131.801 264.202V269.306C131.802 269.525 131.745 269.741 131.636 269.932C131.527 270.122 131.369 270.28 131.179 270.39C130.989 270.501 130.774 270.559 130.554 270.559C130.335 270.559 130.119 270.501 129.929 270.392L86.4426 245.107C85.9648 244.836 85.5672 244.443 85.29 243.968C85.0128 243.494 84.8658 242.955 84.8639 242.405Z" fill="#37474F"/>
<path d="M137.455 259.166L137.473 281.281L241.076 221.464L241.051 215.573L150.372 260.732L137.455 259.166Z" fill="#455A64"/>
<path opacity="0.1" d="M137.455 259.166L137.473 281.281L241.076 221.464L241.051 215.573L150.372 260.732L137.455 259.166Z" fill="white"/>
<path d="M189.658 185.709L189.652 188.498H184.055L189.658 185.709Z" fill="#455A64"/>
<path d="M184.96 188.049L98.7916 230.955L143.033 256.495L231.155 212.616L189.109 188.18C188.483 187.815 187.776 187.613 187.051 187.59C186.327 187.567 185.608 187.725 184.96 188.049Z" fill="#37474F"/>
<path d="M138.597 191.687C138.1 191.687 137.624 191.884 137.273 192.235C136.922 192.586 136.725 193.062 136.725 193.559V255.765C137.856 256.471 139.139 256.899 140.469 257.013V193.565C140.469 193.319 140.422 193.074 140.328 192.847C140.234 192.619 140.096 192.412 139.923 192.237C139.749 192.063 139.542 191.924 139.314 191.83C139.087 191.735 138.843 191.687 138.597 191.687Z" fill="#E0E0E0"/>
<path opacity="0.2" d="M138.597 191.687C138.1 191.687 137.624 191.884 137.273 192.235C136.922 192.586 136.725 193.062 136.725 193.559V255.765C137.856 256.471 139.139 256.899 140.469 257.013V193.565C140.469 193.319 140.422 193.074 140.328 192.847C140.234 192.619 140.096 192.412 139.923 192.237C139.749 192.063 139.542 191.924 139.314 191.83C139.087 191.735 138.843 191.687 138.597 191.687Z" fill="black"/>
<path opacity="0.3" d="M138.597 191.687C138.1 191.687 137.624 191.884 137.273 192.235C136.922 192.586 136.725 193.062 136.725 193.559V198.944C137.831 199.14 138.952 199.241 140.075 199.243H140.475V193.565C140.476 193.318 140.428 193.073 140.334 192.845C140.239 192.617 140.101 192.409 139.927 192.235C139.752 192.06 139.545 191.922 139.316 191.828C139.088 191.734 138.843 191.686 138.597 191.687Z" fill="black"/>
<path d="M89.3193 165.079C88.8228 165.079 88.3466 165.276 87.9956 165.628C87.6445 165.979 87.4473 166.455 87.4473 166.951V227.929C88.5937 228.579 89.8752 228.955 91.1913 229.027V166.957C91.1921 166.711 91.1443 166.467 91.0506 166.239C90.9569 166.011 90.8191 165.804 90.6452 165.63C90.4713 165.455 90.2646 165.317 90.0371 165.222C89.8096 165.128 89.5656 165.079 89.3193 165.079Z" fill="#E0E0E0"/>
<path opacity="0.2" d="M89.3193 165.079C88.8228 165.079 88.3466 165.276 87.9956 165.628C87.6445 165.979 87.4473 166.455 87.4473 166.951V227.929C88.5937 228.579 89.8752 228.955 91.1913 229.027V166.957C91.1921 166.711 91.1443 166.467 91.0506 166.239C90.9569 166.011 90.8191 165.804 90.6452 165.63C90.4713 165.455 90.2646 165.317 90.0371 165.222C89.8096 165.128 89.5656 165.079 89.3193 165.079Z" fill="black"/>
<path opacity="0.3" d="M89.3193 165.079C88.8228 165.079 88.3466 165.276 87.9956 165.628C87.6445 165.979 87.4473 166.455 87.4473 166.951V171.837L91.1913 174.009V166.957C91.1921 166.711 91.1443 166.467 91.0506 166.239C90.9569 166.011 90.8191 165.804 90.6452 165.63C90.4713 165.455 90.2646 165.317 90.0371 165.222C89.8096 165.128 89.5656 165.079 89.3193 165.079Z" fill="black"/>
<path d="M103.547 152.406C103.421 152.231 103.253 152.09 103.059 151.996C102.865 151.903 102.651 151.859 102.436 151.869L90.3801 154.615C90.603 154.592 90.8278 154.63 91.0309 154.725C91.234 154.819 91.408 154.967 91.5345 155.151C91.9108 155.65 92.1636 156.23 92.2721 156.845C92.3805 157.46 92.3416 158.092 92.1585 158.689C92.109 158.908 92.0018 159.108 91.8481 159.271C91.6944 159.433 91.4999 159.551 91.2849 159.613L103.284 156.867C103.502 156.808 103.699 156.69 103.855 156.528C104.011 156.365 104.12 156.163 104.171 155.944C104.35 155.346 104.387 154.715 104.279 154.101C104.17 153.486 103.92 152.906 103.547 152.406Z" fill="#455A64"/>
<path d="M92.1834 158.689C92.3665 158.092 92.4054 157.46 92.297 156.845C92.1885 156.23 91.9357 155.65 91.5594 155.151C91.4329 154.967 91.2589 154.819 91.0558 154.725C90.8527 154.63 90.6279 154.592 90.405 154.615L90.3301 154.646C90.1331 154.718 89.9564 154.837 89.8152 154.993C89.674 155.148 89.5723 155.335 89.5189 155.538C89.3369 156.135 89.2985 156.767 89.4069 157.382C89.5153 157.997 89.7675 158.577 90.1429 159.076C90.2677 159.26 90.4393 159.408 90.6401 159.503C90.8408 159.599 91.0634 159.639 91.2849 159.619H91.3161C91.5307 159.556 91.7244 159.437 91.877 159.273C92.0296 159.11 92.1354 158.908 92.1834 158.689Z" fill="#263238"/>
<path d="M162.096 186.857C161.973 186.681 161.807 186.539 161.614 186.444C161.421 186.349 161.207 186.304 160.992 186.314L148.936 189.072C149.16 189.05 149.385 189.089 149.588 189.185C149.791 189.28 149.965 189.429 150.091 189.615C150.466 190.113 150.717 190.692 150.826 191.306C150.934 191.92 150.896 192.55 150.715 193.147C150.661 193.364 150.552 193.563 150.397 193.725C150.243 193.887 150.049 194.006 149.835 194.07L161.834 191.331C162.05 191.267 162.244 191.149 162.4 190.987C162.555 190.825 162.666 190.625 162.72 190.407C162.905 189.808 162.944 189.174 162.836 188.557C162.727 187.94 162.474 187.357 162.096 186.857Z" fill="#455A64"/>
<path d="M148.849 189.072C148.874 189.069 148.899 189.069 148.924 189.072H148.849Z" fill="#455A64"/>
<path d="M150.74 193.134C150.921 192.538 150.959 191.907 150.851 191.294C150.742 190.68 150.49 190.1 150.116 189.602C149.99 189.416 149.816 189.268 149.613 189.172C149.41 189.077 149.185 189.038 148.961 189.06C148.936 189.057 148.911 189.057 148.886 189.06C148.689 189.133 148.513 189.253 148.373 189.41C148.233 189.566 148.133 189.754 148.081 189.958C147.898 190.554 147.859 191.185 147.968 191.799C148.076 192.413 148.329 192.993 148.705 193.49C148.83 193.674 149.002 193.821 149.202 193.917C149.403 194.012 149.626 194.052 149.847 194.033C150.061 193.973 150.255 193.859 150.412 193.701C150.568 193.544 150.681 193.348 150.74 193.134Z" fill="#263238"/>
<g opacity="0.4">
<path d="M103.546 152.406C103.421 152.231 103.253 152.09 103.059 151.996C102.865 151.903 102.651 151.859 102.436 151.869L90.38 154.615C90.6029 154.592 90.8277 154.63 91.0308 154.725C91.2339 154.819 91.4079 154.967 91.5344 155.151C91.9107 155.65 92.1635 156.23 92.2719 156.845C92.3804 157.46 92.3415 158.092 92.1584 158.689C92.1089 158.908 92.0017 159.108 91.848 159.271C91.6943 159.433 91.4998 159.551 91.2848 159.613L103.284 156.867C103.502 156.808 103.699 156.69 103.855 156.528C104.011 156.365 104.12 156.163 104.17 155.944C104.35 155.346 104.387 154.715 104.279 154.101C104.17 153.486 103.92 152.906 103.546 152.406Z" fill="white"/>
</g>
<g opacity="0.4">
<path d="M162.096 186.857C161.973 186.681 161.807 186.539 161.614 186.444C161.421 186.349 161.207 186.304 160.992 186.314L148.936 189.072C149.16 189.05 149.385 189.089 149.588 189.185C149.791 189.28 149.965 189.429 150.091 189.615C150.466 190.113 150.717 190.692 150.826 191.306C150.934 191.92 150.896 192.55 150.715 193.147C150.661 193.364 150.552 193.563 150.397 193.725C150.243 193.887 150.049 194.006 149.835 194.07L161.834 191.331C162.05 191.267 162.244 191.149 162.4 190.987C162.555 190.825 162.666 190.625 162.72 190.407C162.905 189.808 162.944 189.174 162.836 188.557C162.727 187.94 162.474 187.357 162.096 186.857Z" fill="white"/>
<path d="M148.849 189.072C148.874 189.069 148.899 189.069 148.924 189.072H148.849Z" fill="white"/>
</g>
<path d="M148.687 190.021L143.894 191.219C139.961 192.21 135.796 191.625 132.288 189.59L88.3833 164.243C87.9494 163.997 87.599 163.627 87.3775 163.18C87.1561 162.733 87.0736 162.23 87.1407 161.736C87.2079 161.241 87.4216 160.778 87.7543 160.407C88.087 160.035 88.5235 159.772 89.0073 159.65L90.9292 159.176C91.5907 158.64 91.5158 155.725 90.1118 155.513L88.0963 156.006C86.8816 156.302 85.7837 156.955 84.9447 157.882C84.1057 158.808 83.5644 159.966 83.391 161.204C83.2175 162.442 83.4198 163.703 83.9717 164.825C84.5236 165.946 85.3997 166.876 86.4864 167.494L130.416 192.816C133.354 194.522 136.691 195.421 140.088 195.424C141.688 195.411 143.281 195.202 144.83 194.8L149.523 193.633C150.166 193.153 150.091 190.239 148.687 190.021Z" fill="#E0E0E0"/>
<path d="M93.5438 171.837V158.827L121.699 175.088V188.092L93.5438 171.837Z" fill="#455A64"/>
<path d="M121.699 175.088L138.597 183.331V188.092H121.699V175.088Z" fill="#455A64"/>
<path d="M93.5438 158.827L121.699 175.088L138.597 183.331L110.435 167.076L93.5438 158.827Z" fill="#455A64"/>
<path opacity="0.1" d="M121.699 175.088L138.597 183.331V188.092H121.699V175.088Z" fill="white"/>
<path opacity="0.3" d="M93.5438 158.827L121.699 175.088L138.597 183.331L110.435 167.076L93.5438 158.827Z" fill="white"/>
<path opacity="0.2" d="M187.543 210.413C198.32 216.653 198.376 226.718 187.674 232.939C176.973 239.16 159.557 239.179 148.78 232.939C138.004 226.699 137.954 216.634 148.656 210.413C159.357 204.192 176.773 204.192 187.543 210.413Z" fill="black"/>
<path d="M167.151 140.107L169.516 129.792C166.291 130.243 163.242 131.534 160.674 133.536L148.294 143.27L156.811 145.897L167.151 140.107Z" fill="#FFA8A7"/>
<path d="M172.935 186.489L174.664 190.389C175.148 191.487 175.972 192.402 177.014 192.998C178.056 193.595 179.262 193.841 180.455 193.702L195.056 192.036C196.283 191.897 197.525 191.988 198.719 192.304L201.914 193.153V185.665L201.04 185.921C199.36 186.42 197.576 186.463 195.874 186.046L190.551 184.735C188.032 184.116 185.393 184.181 182.907 184.922L182.364 180.505L172.935 186.489Z" fill="#F28F8F"/>
<path d="M212.616 196.348C212.56 194.54 211.801 192.825 210.5 191.568C209.539 190.657 208.329 190.045 207.418 189.072C206.363 187.943 205.926 186.701 205.028 185.422C204.869 185.206 204.653 185.039 204.404 184.941C204.312 184.932 204.22 184.932 204.129 184.941C203.811 184.966 203.501 185.055 203.218 185.203C203.581 185.266 203.906 185.467 204.123 185.765C205.028 187.013 205.664 188.51 206.725 189.615C207.63 190.557 208.84 191.156 209.801 192.049C211.097 193.263 211.858 194.941 211.917 196.716C211.967 198.469 211.324 201.496 210.045 201.496C210.448 201.594 210.874 201.529 211.23 201.315C212.341 200.21 212.647 197.652 212.616 196.348Z" fill="#EBEBEB"/>
<path d="M205.028 185.422C205.926 186.701 206.363 187.918 207.418 189.072C208.329 190.045 209.539 190.657 210.5 191.568C211.801 192.825 212.56 194.54 212.616 196.348C212.616 197.652 212.341 200.21 211.274 201.296C212.634 200.479 213.009 197.59 212.965 196.179C212.905 194.406 212.147 192.729 210.856 191.512C209.895 190.62 208.678 190.021 207.773 189.072C206.713 187.968 206.282 186.751 205.377 185.509C205.265 185.355 205.122 185.225 204.958 185.128C204.794 185.03 204.612 184.967 204.422 184.941C204.665 185.042 204.874 185.208 205.028 185.422Z" fill="#455A64"/>
<path d="M200.716 185.727C200.406 185.863 200.066 185.913 199.73 185.871C199.73 185.871 198.744 185.771 198.42 185.709C197.796 185.59 197.733 186.295 197.733 186.295C198.104 186.335 198.479 186.335 198.85 186.295C198.935 186.425 199.045 186.535 199.176 186.619C199.306 186.703 199.452 186.759 199.605 186.782C199.918 186.843 200.223 186.937 200.516 187.063C200.661 187.129 200.784 187.237 200.868 187.372C200.952 187.507 200.995 187.665 200.99 187.824C200.934 188.173 200.591 188.379 200.366 188.673C200.262 188.843 200.203 189.037 200.194 189.237C200.185 189.437 200.227 189.636 200.317 189.815C200.116 189.729 199.893 189.714 199.683 189.775C199.474 189.835 199.292 189.966 199.168 190.145C198.934 190.523 198.793 190.951 198.757 191.393C198.692 191.688 198.671 191.991 198.694 192.292C198.705 192.444 198.746 192.592 198.816 192.727C198.885 192.862 198.982 192.982 199.1 193.078C199.219 193.171 199.366 193.222 199.518 193.222C199.669 193.222 199.816 193.171 199.936 193.078C200.735 194.376 204.385 194.869 206.213 197.321C208.042 199.774 208.441 201.515 210.063 201.515C211.311 201.515 211.935 198.488 211.935 196.735C211.876 194.96 211.116 193.281 209.82 192.067C208.859 191.175 207.649 190.576 206.744 189.634C205.683 188.529 205.046 187.032 204.142 185.784C203.925 185.486 203.6 185.284 203.237 185.222C203.127 185.209 203.016 185.209 202.906 185.222C202.151 185.252 201.408 185.423 200.716 185.727Z" fill="#BB2525"/>
<path d="M209.589 201.059L210.001 199.93C210.029 199.856 210.076 199.792 210.138 199.744C210.199 199.695 210.273 199.665 210.35 199.655C211.598 199.505 211.992 199.318 212.534 198.744C212.457 199.445 212.231 200.121 211.873 200.728C211.663 201.093 211.32 201.361 210.916 201.478C210.512 201.594 210.079 201.549 209.708 201.352C209.654 201.328 209.612 201.284 209.59 201.229C209.568 201.175 209.568 201.114 209.589 201.059Z" fill="#455A64"/>
<path d="M201.689 190.551C201.689 190.596 201.679 190.64 201.661 190.681C201.643 190.721 201.616 190.758 201.583 190.788C201.169 191.144 200.886 191.629 200.778 192.165C200.671 192.701 200.746 193.257 200.99 193.746C201.021 193.818 201.022 193.9 200.995 193.974C200.968 194.048 200.913 194.109 200.843 194.144C200.773 194.18 200.692 194.187 200.616 194.166C200.54 194.144 200.476 194.094 200.435 194.027C200.13 193.413 200.036 192.715 200.167 192.042C200.299 191.37 200.653 190.761 201.171 190.314C201.235 190.26 201.316 190.233 201.399 190.239C201.482 190.245 201.559 190.283 201.614 190.345C201.663 190.402 201.69 190.475 201.689 190.551Z" fill="#37474F"/>
<path d="M203.605 191.431C203.605 191.515 203.571 191.596 203.511 191.655C203.117 192.047 202.83 192.533 202.678 193.067C202.526 193.602 202.514 194.166 202.644 194.707C202.654 194.748 202.656 194.79 202.649 194.832C202.642 194.873 202.628 194.913 202.606 194.949C202.584 194.985 202.555 195.016 202.521 195.041C202.487 195.066 202.448 195.084 202.407 195.094C202.366 195.103 202.323 195.105 202.282 195.098C202.24 195.092 202.2 195.077 202.164 195.055C202.128 195.033 202.097 195.004 202.072 194.97C202.048 194.936 202.03 194.897 202.02 194.856C201.866 194.21 201.881 193.535 202.062 192.896C202.244 192.257 202.586 191.675 203.056 191.206C203.085 191.177 203.119 191.154 203.157 191.138C203.195 191.122 203.236 191.114 203.277 191.114C203.319 191.114 203.359 191.122 203.397 191.138C203.435 191.154 203.47 191.177 203.499 191.206C203.531 191.234 203.558 191.268 203.576 191.307C203.594 191.346 203.604 191.388 203.605 191.431Z" fill="#37474F"/>
<path d="M205.296 192.816C205.296 192.863 205.286 192.909 205.265 192.952C205.245 192.994 205.215 193.031 205.178 193.059C204.825 193.349 204.554 193.724 204.391 194.15C204.228 194.576 204.179 195.036 204.248 195.487C204.261 195.569 204.241 195.652 204.193 195.72C204.145 195.787 204.073 195.833 203.992 195.849C203.91 195.861 203.827 195.842 203.759 195.794C203.692 195.746 203.645 195.674 203.63 195.593C203.541 195.031 203.602 194.456 203.805 193.924C204.009 193.393 204.349 192.925 204.791 192.566C204.855 192.515 204.938 192.492 205.019 192.501C205.101 192.511 205.176 192.552 205.227 192.616C205.273 192.673 205.297 192.744 205.296 192.816Z" fill="#37474F"/>
<path d="M206.688 194.158C206.687 194.201 206.677 194.244 206.659 194.284C206.64 194.324 206.614 194.359 206.581 194.389C206.281 194.665 206.051 195.009 205.909 195.392C205.767 195.775 205.717 196.186 205.764 196.591C205.775 196.673 205.752 196.756 205.702 196.821C205.652 196.887 205.578 196.93 205.496 196.941C205.455 196.947 205.414 196.945 205.374 196.934C205.334 196.924 205.297 196.906 205.264 196.881C205.231 196.856 205.204 196.824 205.184 196.789C205.164 196.753 205.151 196.713 205.146 196.672C205.086 196.167 205.146 195.654 205.323 195.177C205.5 194.699 205.788 194.271 206.163 193.927C206.192 193.898 206.227 193.874 206.265 193.858C206.303 193.843 206.344 193.834 206.385 193.834C206.426 193.834 206.467 193.843 206.505 193.858C206.543 193.874 206.577 193.898 206.606 193.927C206.661 193.991 206.69 194.073 206.688 194.158Z" fill="#37474F"/>
<path d="M166.608 159.781C166.14 166.408 167.912 174.133 168.48 176.417L167.5 178.764C167.257 184.785 176.13 188.074 180.199 185.727C186.576 175.531 189.808 170.003 188.554 163.588L166.608 159.781Z" fill="#263238"/>
<path opacity="0.3" d="M169.01 175.394L172.935 167.581C169.653 166.602 167.151 162.689 167.151 162.689C167.656 166.015 170.826 168.124 170.826 168.124C169.433 170.28 168.794 172.837 169.01 175.394Z" fill="black"/>
<path d="M180.336 183.506C179.5 179.762 173.815 175.687 168.967 176.991L164.437 187.007C163.674 188.694 163.214 190.502 163.076 192.348L161.273 216.528C161.15 218.22 160.844 219.894 160.362 221.52L160.306 221.707L166.608 223.392C166.633 220.599 167.157 217.833 168.156 215.224L172.973 202.656C173.906 200.209 174.33 197.598 174.221 194.981L174.146 193.003L180.336 183.506Z" fill="#FFA8A7"/>
<path d="M156.761 234C158.567 233.943 160.28 233.184 161.535 231.885C162.452 230.924 163.064 229.713 164.031 228.808C165.16 227.747 166.408 227.311 167.681 226.412C167.897 226.254 168.064 226.037 168.162 225.788C168.171 225.697 168.171 225.605 168.162 225.514C168.138 225.196 168.051 224.886 167.906 224.603C167.846 224.967 167.644 225.292 167.344 225.507C166.096 226.412 164.605 227.049 163.5 228.109C162.552 229.014 161.953 230.231 161.061 231.186C159.846 232.481 158.168 233.242 156.393 233.301C154.646 233.351 151.613 232.715 151.613 231.429C151.515 231.833 151.58 232.259 151.794 232.615C152.88 233.7 155.451 234 156.761 234Z" fill="#EBEBEB"/>
<path d="M167.681 226.387C166.433 227.286 165.185 227.723 164.031 228.783C163.064 229.688 162.452 230.899 161.535 231.86C160.28 233.159 158.567 233.918 156.761 233.975C155.451 234.012 152.899 233.7 151.807 232.633C152.624 233.994 155.52 234.368 156.924 234.324C158.697 234.268 160.376 233.509 161.591 232.215C162.483 231.254 163.082 230.044 164.031 229.133C165.135 228.078 166.352 227.641 167.6 226.737C167.755 226.625 167.885 226.483 167.982 226.318C168.078 226.154 168.14 225.971 168.162 225.782C168.061 226.024 167.894 226.234 167.681 226.387Z" fill="#455A64"/>
<path d="M167.382 222.075C167.244 221.768 167.195 221.429 167.238 221.096C167.238 221.096 167.332 220.104 167.394 219.785C167.513 219.161 167.032 219.13 167.032 219.13C167.032 219.13 166.939 219.623 166.858 220.203C166.724 220.289 166.608 220.401 166.517 220.531C166.426 220.662 166.361 220.809 166.327 220.965C166.266 221.277 166.172 221.583 166.046 221.876C165.981 222.021 165.874 222.144 165.738 222.229C165.602 222.313 165.445 222.355 165.285 222.35C164.942 222.3 164.73 221.951 164.443 221.726C164.271 221.622 164.076 221.562 163.875 221.553C163.674 221.545 163.475 221.587 163.295 221.676C163.383 221.477 163.398 221.254 163.337 221.045C163.277 220.836 163.145 220.655 162.964 220.534C162.587 220.297 162.159 220.153 161.716 220.116C161.418 220.055 161.114 220.034 160.811 220.054C160.66 220.063 160.513 220.105 160.378 220.174C160.244 220.244 160.126 220.341 160.031 220.459C159.937 220.578 159.886 220.726 159.886 220.877C159.886 221.029 159.937 221.176 160.031 221.295C158.727 222.094 158.234 225.745 155.782 227.573C153.329 229.401 151.588 229.807 151.588 231.423C151.588 232.671 154.621 233.295 156.368 233.295C158.143 233.236 159.822 232.475 161.036 231.18C161.928 230.225 162.527 229.008 163.476 228.103C164.58 227.042 166.071 226.406 167.319 225.501C167.511 225.356 167.665 225.167 167.767 224.95C167.869 224.732 167.917 224.493 167.906 224.253C167.863 223.502 167.685 222.764 167.382 222.075Z" fill="#BB2525"/>
<path d="M152.044 230.949L153.173 231.36C153.249 231.387 153.316 231.435 153.365 231.498C153.415 231.561 153.446 231.636 153.454 231.716C153.598 232.964 153.785 233.357 154.359 233.894C153.66 233.819 152.986 233.596 152.381 233.239C152.016 233.028 151.747 232.684 151.631 232.279C151.515 231.874 151.56 231.44 151.757 231.067C151.782 231.016 151.826 230.976 151.878 230.954C151.931 230.933 151.99 230.931 152.044 230.949Z" fill="#455A64"/>
<path d="M162.558 223.055C162.513 223.055 162.468 223.045 162.427 223.026C162.386 223.006 162.35 222.978 162.321 222.943C161.962 222.531 161.478 222.248 160.942 222.138C160.404 222.031 159.846 222.108 159.357 222.356C159.283 222.393 159.196 222.4 159.117 222.373C159.039 222.347 158.973 222.29 158.936 222.216C158.899 222.141 158.893 222.055 158.919 221.976C158.945 221.897 159.002 221.832 159.076 221.795C159.693 221.48 160.398 221.382 161.077 221.517C161.756 221.651 162.37 222.011 162.82 222.537C162.874 222.599 162.9 222.68 162.894 222.762C162.888 222.844 162.851 222.92 162.789 222.974C162.758 223.002 162.722 223.024 162.682 223.038C162.642 223.052 162.6 223.058 162.558 223.055Z" fill="#37474F"/>
<path d="M161.672 224.965C161.588 224.964 161.507 224.931 161.448 224.871C161.057 224.477 160.572 224.19 160.039 224.038C159.505 223.886 158.942 223.874 158.402 224.004C158.362 224.014 158.321 224.016 158.28 224.01C158.239 224.004 158.199 223.989 158.164 223.968C158.128 223.946 158.097 223.918 158.073 223.885C158.049 223.851 158.031 223.813 158.022 223.773C158.012 223.733 158.009 223.692 158.015 223.652C158.021 223.612 158.035 223.573 158.056 223.538C158.076 223.503 158.104 223.473 158.137 223.449C158.17 223.425 158.207 223.408 158.246 223.398C158.893 223.243 159.568 223.257 160.207 223.439C160.846 223.62 161.428 223.963 161.897 224.434C161.94 224.478 161.969 224.534 161.981 224.594C161.992 224.655 161.985 224.717 161.961 224.774C161.937 224.831 161.897 224.879 161.846 224.913C161.794 224.947 161.734 224.965 161.672 224.965Z" fill="#37474F"/>
<path d="M160.312 226.631C160.264 226.63 160.217 226.619 160.174 226.599C160.131 226.578 160.093 226.549 160.062 226.512C159.774 226.158 159.399 225.886 158.973 225.722C158.547 225.557 158.086 225.507 157.635 225.576C157.552 225.589 157.468 225.569 157.4 225.52C157.332 225.471 157.286 225.397 157.273 225.314C157.26 225.231 157.28 225.147 157.329 225.079C157.378 225.011 157.452 224.965 157.535 224.952C158.096 224.864 158.67 224.924 159.201 225.128C159.731 225.332 160.198 225.671 160.555 226.113C160.593 226.158 160.618 226.214 160.625 226.273C160.633 226.332 160.623 226.393 160.597 226.446C160.572 226.5 160.531 226.546 160.481 226.577C160.43 226.609 160.372 226.625 160.312 226.624V226.631Z" fill="#37474F"/>
<path d="M158.952 228.047C158.908 228.047 158.864 228.038 158.824 228.02C158.784 228.001 158.749 227.974 158.721 227.941C158.442 227.642 158.097 227.412 157.713 227.271C157.329 227.13 156.918 227.082 156.512 227.13C156.429 227.137 156.348 227.113 156.283 227.062C156.218 227.011 156.175 226.937 156.162 226.855C156.157 226.814 156.16 226.772 156.171 226.733C156.182 226.693 156.201 226.656 156.226 226.623C156.252 226.59 156.284 226.563 156.32 226.543C156.356 226.523 156.396 226.51 156.437 226.506C156.942 226.446 157.455 226.507 157.932 226.683C158.41 226.86 158.838 227.148 159.182 227.523C159.221 227.568 159.246 227.624 159.255 227.683C159.264 227.742 159.255 227.803 159.231 227.857C159.207 227.912 159.168 227.959 159.119 227.992C159.069 228.026 159.011 228.045 158.952 228.047Z" fill="#37474F"/>
<path d="M183.144 129.249C179.729 128.981 176.298 128.956 172.879 129.174C171.344 129.197 169.834 129.559 168.455 130.235C167.577 130.795 166.82 131.526 166.228 132.383C165.637 133.24 165.223 134.207 165.011 135.227C164.604 137.266 164.474 139.35 164.624 141.423C164.805 148.2 165.31 153.985 166.04 160.724C172.773 164.611 181.64 166.452 189.128 164.318C189.234 155.582 188.804 146.341 187.044 137.779C186.42 134.684 185.515 131.34 183.144 129.249Z" fill="#455A64"/>
<path opacity="0.3" d="M183.144 129.249C179.729 128.981 176.298 128.956 172.879 129.174C171.344 129.197 169.834 129.559 168.455 130.235C167.577 130.795 166.82 131.526 166.228 132.383C165.637 133.24 165.223 134.207 165.011 135.227C164.604 137.266 164.474 139.35 164.624 141.423C164.805 148.2 165.31 153.985 166.04 160.724C172.773 164.611 181.64 166.452 189.128 164.318C189.234 155.582 188.804 146.341 187.044 137.779C186.42 134.684 185.515 131.34 183.144 129.249Z" fill="white"/>
<path d="M203.493 146.64C203.578 145.717 203.433 144.787 203.072 143.933C202.711 143.08 202.143 142.329 201.421 141.748L189.003 131.72C187.322 130.357 185.292 129.493 183.144 129.224L181.927 129.131C180.817 130.16 180.33 137.492 185.334 140.469L196.13 146.771L196.023 160.643L192.329 164.861C192.263 164.934 192.214 165.022 192.188 165.118C192.163 165.214 192.16 165.314 192.181 165.411C192.201 165.508 192.245 165.599 192.308 165.676C192.37 165.753 192.451 165.813 192.542 165.853C192.754 165.952 192.99 165.99 193.223 165.961C193.456 165.933 193.676 165.839 193.858 165.691L195.056 164.711C194.314 166.109 193.665 167.7 192.922 169.079C192.737 169.35 192.645 169.674 192.66 170.003C192.685 170.141 192.741 170.272 192.823 170.387C192.905 170.501 193.011 170.596 193.134 170.664C193.378 170.803 193.648 170.888 193.927 170.914C194.902 171.028 195.89 170.852 196.766 170.408C197.64 169.965 198.411 169.344 199.031 168.586C200.217 167.158 200.928 165.395 201.065 163.544C202.181 157.958 202.991 152.315 203.493 146.64Z" fill="#FFA8A7"/>
<path d="M170.645 126.597V127.72C170.617 128.543 170.465 129.357 170.196 130.135C170.083 130.463 170.083 130.819 170.196 131.146C170.312 131.421 170.488 131.667 170.711 131.865C170.935 132.062 171.2 132.207 171.488 132.288C172.058 132.441 172.656 132.46 173.235 132.344C174.966 132.049 176.539 131.154 177.678 129.817L177.422 122.135L170.645 126.597Z" fill="#FFA8A7"/>
<path opacity="0.2" d="M176.062 125.474C176.611 124.513 176.963 123.453 177.098 122.354L170.645 126.591V127.714C170.639 128.043 170.608 128.37 170.552 128.694C171.462 128.536 172.348 128.266 173.191 127.889C174.363 127.381 175.361 126.542 176.062 125.474Z" fill="black"/>
<path d="M163.488 114.136C162.751 114.16 162.021 113.981 161.379 113.619C160.736 113.257 160.205 112.726 159.844 112.083C159.793 111.989 159.77 111.881 159.779 111.774C159.789 111.668 159.829 111.566 159.895 111.481C159.962 111.397 160.051 111.334 160.153 111.3C160.255 111.266 160.364 111.263 160.468 111.29C160.978 111.381 161.499 111.381 162.009 111.29C161.421 110.525 160.991 109.65 160.745 108.717C160.499 107.784 160.44 106.811 160.574 105.855C160.59 105.749 160.632 105.648 160.694 105.561C160.757 105.473 160.839 105.402 160.935 105.352C161.03 105.302 161.136 105.275 161.243 105.274C161.351 105.273 161.457 105.296 161.554 105.344C163.669 106.393 166.023 106.868 168.38 106.723C169.628 106.635 170.876 106.367 172.124 106.273C173.38 106.118 174.654 106.312 175.806 106.835C176.385 107.101 176.88 107.52 177.239 108.047C177.597 108.573 177.805 109.188 177.84 109.824C177.983 109.62 178.169 109.45 178.385 109.325C178.6 109.2 178.84 109.123 179.088 109.1C179.347 109.069 179.61 109.091 179.86 109.165C180.11 109.239 180.342 109.363 180.542 109.531L178.383 110.729C178.788 110.648 179.208 110.703 179.578 110.886C179.948 111.069 180.248 111.369 180.43 111.74C180.747 112.466 180.884 113.258 180.829 114.048C180.87 115.09 180.824 116.134 180.692 117.168C180.55 118.214 180.14 119.206 179.5 120.045C178.938 120.731 178.187 121.239 177.341 121.505C176.188 121.827 174.964 121.788 173.834 121.393C172.712 121.002 171.645 120.469 170.658 119.808C168.099 118.141 165.699 116.242 163.488 114.136Z" fill="#263238"/>
<path d="M163.351 112.045C162.628 116.389 163.107 120.847 164.736 124.937C165.033 125.918 165.65 126.771 166.49 127.358C167.413 127.889 168.561 127.776 169.61 127.62C171.319 127.427 172.986 126.957 174.545 126.229C176.117 125.488 177.342 124.169 177.965 122.547C178.523 122.661 179.102 122.611 179.633 122.403C180.163 122.195 180.622 121.837 180.954 121.374C181.612 120.413 181.953 119.269 181.927 118.104C181.927 117.368 181.79 116.495 181.129 116.17C180.803 116.071 180.457 116.062 180.128 116.144C179.798 116.227 179.497 116.397 179.257 116.638C178.368 117.353 177.716 118.318 177.385 119.409C176.898 117.605 176.137 115.864 175.65 114.067C175.54 113.336 175.167 112.671 174.602 112.195C173.846 111.708 172.861 111.989 171.987 112.195C169.143 112.882 166.17 112.831 163.351 112.045Z" fill="#FFA8A7"/>
<path d="M168.599 117.512L166.496 121.062L169.004 121.53L168.599 117.512Z" fill="#F28F8F"/>
<path d="M171.425 122.753L169.516 123.683C169.679 123.9 169.909 124.057 170.171 124.132C170.432 124.206 170.71 124.193 170.964 124.095C171.184 123.959 171.351 123.752 171.435 123.507C171.519 123.262 171.516 122.996 171.425 122.753Z" fill="#F28F8F"/>
<path opacity="0.3" d="M171.425 122.753L169.516 123.683C169.679 123.9 169.909 124.057 170.171 124.132C170.432 124.206 170.71 124.193 170.964 124.095C171.184 123.959 171.351 123.752 171.435 123.507C171.519 123.262 171.516 122.996 171.425 122.753Z" fill="black"/>
<path d="M170.302 124.176C170.524 124.219 170.754 124.198 170.964 124.114C171.138 124.015 171.28 123.867 171.371 123.689C171.462 123.51 171.499 123.308 171.475 123.109C171.203 123.106 170.938 123.199 170.726 123.371C170.606 123.47 170.506 123.593 170.434 123.731C170.361 123.869 170.316 124.02 170.302 124.176Z" fill="#F28F8F"/>
<path d="M172.224 117.655C172.243 117.798 172.219 117.944 172.155 118.073C172.091 118.203 171.99 118.31 171.864 118.381C171.739 118.452 171.595 118.485 171.451 118.473C171.307 118.462 171.17 118.408 171.057 118.319C170.944 118.229 170.86 118.108 170.816 117.97C170.773 117.832 170.772 117.685 170.813 117.546C170.854 117.408 170.935 117.285 171.046 117.193C171.158 117.101 171.294 117.045 171.438 117.031C171.625 117.01 171.812 117.064 171.96 117.181C172.107 117.298 172.202 117.468 172.224 117.655Z" fill="#263238"/>
<path d="M166.19 118.03C166.209 118.128 166.206 118.229 166.184 118.327C166.161 118.425 166.118 118.517 166.058 118.597C165.998 118.677 165.922 118.744 165.834 118.793C165.747 118.843 165.65 118.873 165.551 118.883C165.451 118.893 165.35 118.882 165.255 118.851C165.159 118.82 165.071 118.77 164.997 118.703C164.922 118.636 164.862 118.555 164.82 118.464C164.778 118.372 164.756 118.273 164.755 118.173C164.752 117.992 164.818 117.816 164.939 117.681C165.059 117.546 165.226 117.461 165.407 117.443C165.587 117.425 165.767 117.475 165.913 117.584C166.058 117.692 166.157 117.851 166.19 118.03Z" fill="#263238"/>
<path d="M165.204 115.247L163.719 116.495C163.63 116.304 163.602 116.09 163.638 115.883C163.673 115.676 163.771 115.484 163.919 115.334C164.103 115.2 164.321 115.12 164.549 115.105C164.776 115.09 165.003 115.139 165.204 115.247Z" fill="#263238"/>
<path d="M171.338 114.535L173.042 115.477C173.091 115.274 173.077 115.06 173.001 114.865C172.925 114.669 172.791 114.502 172.617 114.385C172.411 114.292 172.182 114.256 171.957 114.283C171.731 114.309 171.517 114.396 171.338 114.535Z" fill="#263238"/>
<path d="M171.812 156.674C171.812 156.499 171.812 156.331 171.769 156.162C171.559 154.723 170.938 153.375 169.98 152.28C169.023 151.185 167.769 150.39 166.371 149.991L157.086 144.375L150.846 141.255L148.275 143.283C147.696 143.733 147.262 144.342 147.027 145.036C146.725 145.963 146.795 146.97 147.224 147.845C147.653 148.72 148.406 149.394 149.323 149.723L164.299 155.002C165.279 156.026 165.9 157.339 166.071 158.746C166.111 159.158 166.192 159.566 166.315 159.962C166.525 160.433 166.881 160.823 167.331 161.074C167.781 161.325 168.3 161.423 168.811 161.354C169.316 161.277 169.797 161.083 170.214 160.787C170.631 160.491 170.973 160.102 171.213 159.65C171.695 158.736 171.903 157.703 171.812 156.674Z" fill="#FFA8A7"/>
<path d="M166.808 149.991V149.086H166.146V149.417L164.736 148.593C164.589 148.508 164.422 148.463 164.252 148.463C164.083 148.463 163.916 148.508 163.769 148.593L161.416 149.953V149.56L160.792 149.617V150.509C160.793 150.565 160.808 150.62 160.837 150.668C160.865 150.716 160.906 150.756 160.955 150.783L162.889 151.907C163.037 151.99 163.203 152.033 163.373 152.033C163.542 152.033 163.709 151.99 163.856 151.907L166.695 150.265C166.742 150.239 166.781 150.201 166.808 150.155C166.836 150.109 166.851 150.057 166.851 150.003L166.808 149.991Z" fill="#BB2525"/>
<path d="M163.744 147.851L161.341 149.242C161.298 149.265 161.262 149.299 161.237 149.341C161.212 149.383 161.199 149.43 161.199 149.479C161.199 149.528 161.212 149.576 161.237 149.618C161.262 149.659 161.298 149.693 161.341 149.716L162.989 150.665C163.114 150.738 163.256 150.777 163.401 150.777C163.546 150.777 163.688 150.738 163.813 150.665L166.221 149.273C166.263 149.249 166.297 149.214 166.321 149.173C166.345 149.131 166.357 149.084 166.357 149.036C166.357 148.988 166.345 148.941 166.321 148.899C166.297 148.858 166.263 148.823 166.221 148.799L164.568 147.851C164.443 147.777 164.301 147.738 164.156 147.738C164.011 147.738 163.869 147.777 163.744 147.851Z" fill="#BB2525"/>
<path opacity="0.3" d="M166.808 149.991V149.086H166.146V149.417L164.736 148.593C164.589 148.508 164.422 148.463 164.252 148.463C164.083 148.463 163.916 148.508 163.769 148.593L161.416 149.953V149.56L160.792 149.617V150.509C160.793 150.565 160.808 150.62 160.837 150.668C160.865 150.716 160.906 150.756 160.955 150.783L162.889 151.907C163.037 151.99 163.203 152.033 163.373 152.033C163.542 152.033 163.709 151.99 163.856 151.907L166.695 150.265C166.742 150.239 166.781 150.201 166.808 150.155C166.836 150.109 166.851 150.057 166.851 150.003L166.808 149.991Z" fill="black"/>
<path d="M163.738 147.701L160.911 149.336C160.862 149.363 160.82 149.404 160.792 149.452C160.763 149.501 160.748 149.557 160.748 149.613C160.748 149.67 160.763 149.725 160.792 149.774C160.82 149.823 160.862 149.863 160.911 149.891L162.864 151.008C163.012 151.091 163.178 151.135 163.348 151.135C163.517 151.135 163.684 151.091 163.831 151.008L166.67 149.367C166.718 149.338 166.758 149.297 166.785 149.249C166.813 149.2 166.827 149.145 166.827 149.089C166.827 149.033 166.813 148.978 166.785 148.93C166.758 148.881 166.718 148.84 166.67 148.812L164.736 147.701C164.586 147.609 164.413 147.561 164.237 147.561C164.061 147.561 163.888 147.609 163.738 147.701Z" fill="#BB2525"/>
<path opacity="0.5" d="M163.744 147.851L161.341 149.242C161.298 149.265 161.262 149.299 161.237 149.341C161.212 149.383 161.199 149.43 161.199 149.479C161.199 149.528 161.212 149.576 161.237 149.618C161.262 149.659 161.298 149.693 161.341 149.716L162.989 150.665C163.114 150.738 163.256 150.777 163.401 150.777C163.546 150.777 163.688 150.738 163.813 150.665L166.221 149.273C166.263 149.249 166.297 149.214 166.321 149.173C166.345 149.131 166.357 149.084 166.357 149.036C166.357 148.988 166.345 148.941 166.321 148.899C166.297 148.858 166.263 148.823 166.221 148.799L164.568 147.851C164.443 147.777 164.301 147.738 164.156 147.738C164.011 147.738 163.869 147.777 163.744 147.851Z" fill="white"/>
<path d="M162.677 154.415C162.296 154.059 162.09 152.119 162.845 151.488L160.911 150.371C160.287 151.164 160.443 152.867 160.792 153.729C160.833 153.827 160.895 153.916 160.974 153.988C161.053 154.06 161.146 154.114 161.248 154.147C161.622 154.271 162.253 154.49 162.496 154.571C162.57 154.598 162.65 154.608 162.729 154.6C162.807 154.593 162.883 154.568 162.951 154.527L162.677 154.415Z" fill="#455A64"/>
</svg>
