<svg width="300" height="300" viewBox="0 0 300 300" fill="none" xmlns="http://www.w3.org/2000/svg">
<path d="M300 229.44H0V229.59H300V229.44Z" fill="#EBEBEB"/>
<path d="M269.94 239.094H250.068V239.244H269.94V239.094Z" fill="#EBEBEB"/>
<path d="M198.732 240.726H193.518V240.876H198.732V240.726Z" fill="#EBEBEB"/>
<path d="M249.468 233.526H237.954V233.676H249.468V233.526Z" fill="#EBEBEB"/>
<path d="M57.3901 234.534H31.4761V234.684H57.3901V234.534Z" fill="#EBEBEB"/>
<path d="M66.5341 234.534H62.7361V234.684H66.5341V234.534Z" fill="#EBEBEB"/>
<path d="M135.09 237.066H78.8821V237.216H135.09V237.066Z" fill="#EBEBEB"/>
<path d="M142.2 202.68H26.346C25.4384 202.678 24.5686 202.317 23.9274 201.674C23.2862 201.032 22.926 200.162 22.926 199.254V36.396C22.9339 35.4936 23.2975 34.6308 23.9379 33.9949C24.5782 33.3591 25.4436 33.0015 26.346 33H142.2C143.109 33 143.98 33.361 144.623 34.0035C145.265 34.646 145.626 35.5174 145.626 36.426V199.254C145.626 200.163 145.265 201.034 144.623 201.677C143.98 202.319 143.109 202.68 142.2 202.68ZM26.346 33.12C25.4782 33.1216 24.6465 33.4674 24.0334 34.0816C23.4204 34.6958 23.076 35.5282 23.076 36.396V199.254C23.076 200.122 23.4204 200.954 24.0334 201.568C24.6465 202.183 25.4782 202.528 26.346 202.53H142.2C143.068 202.528 143.901 202.183 144.515 201.569C145.129 200.955 145.474 200.122 145.476 199.254V36.396C145.474 35.5276 145.129 34.6953 144.515 34.0813C143.901 33.4672 143.068 33.1216 142.2 33.12H26.346Z" fill="#EBEBEB"/>
<path d="M271.986 202.68H156.126C155.218 202.678 154.347 202.317 153.705 201.675C153.063 201.033 152.702 200.162 152.7 199.254V36.396C152.709 35.4931 153.074 34.6302 153.716 33.9946C154.357 33.3589 155.223 33.0015 156.126 33H271.986C272.887 33.0031 273.751 33.3613 274.39 33.997C275.029 34.6327 275.392 35.4947 275.4 36.396V199.254C275.4 200.161 275.041 201.03 274.401 201.672C273.761 202.314 272.893 202.677 271.986 202.68ZM156.126 33.12C155.258 33.1216 154.425 33.4672 153.811 34.0813C153.197 34.6953 152.852 35.5276 152.85 36.396V199.254C152.852 200.122 153.197 200.955 153.811 201.569C154.425 202.183 155.258 202.528 156.126 202.53H271.986C272.854 202.528 273.687 202.183 274.301 201.569C274.915 200.955 275.26 200.122 275.262 199.254V36.396C275.26 35.5276 274.915 34.6953 274.301 34.0813C273.687 33.4672 272.854 33.1216 271.986 33.12H156.126Z" fill="#EBEBEB"/>
<path d="M98.6941 39.45H55.9441V184.476H98.6941V39.45Z" fill="#FAFAFA"/>
<path d="M92.3281 39.45H89.8321L74.9221 184.476H77.4181L92.3281 39.45Z" fill="#F5F5F5"/>
<path d="M97.938 40.0081H55.668V41.2861H97.938V40.0081Z" fill="#E0E0E0"/>
<path d="M97.938 183.204H55.668V185.94H97.938V183.204Z" fill="#EBEBEB"/>
<path d="M97.2359 185.82H57.2939V185.94H97.2359V185.82Z" fill="#EBEBEB"/>
<path d="M57.2939 40.0081H97.2359V185.82H99.6299V38.2141H54.8999V185.82H57.2939V40.0081Z" fill="#EBEBEB"/>
<path d="M146.268 39.45H103.518V184.476H146.268V39.45Z" fill="#FAFAFA"/>
<path d="M134.406 39.45H120.78L105.87 184.476H119.496L134.406 39.45Z" fill="#F5F5F5"/>
<path d="M146.712 40.0081H103.242V41.2861H146.712V40.0081Z" fill="#E0E0E0"/>
<path d="M146.712 183.204H103.242V185.94H146.712V183.204Z" fill="#EBEBEB"/>
<path d="M144.81 185.82H104.868V185.94H144.81V185.82Z" fill="#EBEBEB"/>
<path d="M104.868 40.0081H144.81V185.82H147.198V38.2141H102.474V185.82H104.868V40.0081Z" fill="#EBEBEB"/>
<path d="M192.636 39.45H151.086V184.476H192.636V39.45Z" fill="#FAFAFA"/>
<path d="M174.63 39.45H172.134L157.224 184.476H159.72L174.63 39.45Z" fill="#F5F5F5"/>
<path d="M193.086 40.0081H150.816V41.2861H193.086V40.0081Z" fill="#E0E0E0"/>
<path d="M193.086 183.204H150.816V185.94H193.086V183.204Z" fill="#EBEBEB"/>
<path d="M192.384 185.82H152.442V185.94H192.384V185.82Z" fill="#EBEBEB"/>
<path d="M152.442 40.0081H192.378V185.82H194.772V38.2141H150.048V185.82H152.442V40.0081Z" fill="#EBEBEB"/>
<path d="M241.41 39.45H198.66V184.476H241.41V39.45Z" fill="#FAFAFA"/>
<path d="M237.228 39.45H223.602L208.686 184.476H222.318L237.228 39.45Z" fill="#F5F5F5"/>
<path d="M240.654 40.0081H198.384V41.2861H240.654V40.0081Z" fill="#E0E0E0"/>
<path d="M240.654 183.204H198.384V185.94H240.654V183.204Z" fill="#EBEBEB"/>
<path d="M200.01 40.0081H239.952V185.82H242.346V38.2141H197.622V185.82H200.01V40.0081Z" fill="#EBEBEB"/>
<path d="M239.952 185.82H200.01V185.94H239.952V185.82Z" fill="#EBEBEB"/>
<path d="M88.464 151.116H69.906V183.21H88.464V151.116Z" fill="#EBEBEB"/>
<path d="M84.9 146.628V154.68H83.442H74.934H73.47V146.628H84.9Z" fill="#EBEBEB"/>
<path d="M84.8999 154.68H87.2759V152.304H84.8999V154.68Z" fill="#FAFAFA"/>
<path d="M80.3039 154.68H82.6799V152.304H80.3039V154.68Z" fill="#FAFAFA"/>
<path d="M75.7019 154.68H78.0779V152.304H75.7019V154.68Z" fill="#FAFAFA"/>
<path d="M71.1001 154.68H73.4761V152.304H71.1001V154.68Z" fill="#F0F0F0"/>
<path d="M84.8999 158.994H87.2759V156.618H84.8999V158.994Z" fill="#F0F0F0"/>
<path d="M80.3039 158.994H82.6799V156.618H80.3039V158.994Z" fill="#F0F0F0"/>
<path d="M75.7019 158.994H78.0779V156.618H75.7019V158.994Z" fill="#FAFAFA"/>
<path d="M71.1001 158.994H73.4761V156.618H71.1001V158.994Z" fill="#FAFAFA"/>
<path d="M84.8999 163.314H87.2759V160.938H84.8999V163.314Z" fill="#F0F0F0"/>
<path d="M80.3039 163.314H82.6799V160.938H80.3039V163.314Z" fill="#FAFAFA"/>
<path d="M75.7019 163.314H78.0779V160.938H75.7019V163.314Z" fill="#FAFAFA"/>
<path d="M80.3039 150.948H82.6799V148.572H80.3039V150.948Z" fill="#FAFAFA"/>
<path d="M75.7019 150.948H78.0779V148.572H75.7019V150.948Z" fill="#F0F0F0"/>
<path d="M71.1001 163.314H73.4761V160.938H71.1001V163.314Z" fill="#F0F0F0"/>
<path d="M84.8999 167.634H87.2759V165.258H84.8999V167.634Z" fill="#FAFAFA"/>
<path d="M80.3039 167.634H82.6799V165.258H80.3039V167.634Z" fill="#F0F0F0"/>
<path d="M75.7019 167.634H78.0779V165.258H75.7019V167.634Z" fill="#F0F0F0"/>
<path d="M71.1001 167.634H73.4761V165.258H71.1001V167.634Z" fill="#FAFAFA"/>
<path d="M84.8999 171.954H87.2759V169.578H84.8999V171.954Z" fill="#F0F0F0"/>
<path d="M80.3039 171.954H82.6799V169.578H80.3039V171.954Z" fill="#FAFAFA"/>
<path d="M75.7019 171.954H78.0779V169.578H75.7019V171.954Z" fill="#FAFAFA"/>
<path d="M71.1001 171.954H73.4761V169.578H71.1001V171.954Z" fill="#F0F0F0"/>
<path d="M84.8999 176.268H87.2759V173.892H84.8999V176.268Z" fill="#F0F0F0"/>
<path d="M80.3039 176.268H82.6799V173.892H80.3039V176.268Z" fill="#FAFAFA"/>
<path d="M75.7019 176.268H78.0779V173.892H75.7019V176.268Z" fill="#F0F0F0"/>
<path d="M71.1001 176.268H73.4761V173.892H71.1001V176.268Z" fill="#FAFAFA"/>
<path d="M84.8999 180.588H87.2759V178.212H84.8999V180.588Z" fill="#FAFAFA"/>
<path d="M80.3039 180.588H82.6799V178.212H80.3039V180.588Z" fill="#FAFAFA"/>
<path d="M75.7019 180.588H78.0779V178.212H75.7019V180.588Z" fill="#F0F0F0"/>
<path d="M71.1001 180.588H73.4761V178.212H71.1001V180.588Z" fill="#F0F0F0"/>
<path d="M219.204 162.804H202.578V183.204H219.204V162.804Z" fill="#F0F0F0"/>
<path d="M204.024 165.072H207.888H208.956H210.018V167.196H208.956H207.888H204.024V165.072Z" fill="#E6E6E6"/>
<path d="M204.024 169.194H207.888H208.956H210.018V171.324H208.956H207.888H204.024V169.194Z" fill="#FAFAFA"/>
<path d="M204.024 173.316H207.888H208.956H210.018V175.446H208.956H207.888H204.024V173.316Z" fill="#E6E6E6"/>
<path d="M204.024 177.438H207.888H209.532H210.018V179.568H209.532H207.888H204.024V177.438Z" fill="#FAFAFA"/>
<path d="M211.758 165.072H215.628H216.69H217.752V167.196H216.69H215.628H211.758V165.072Z" fill="#FAFAFA"/>
<path d="M211.758 169.194H215.628H217.128H217.752V171.324H217.128H215.628H211.758V169.194Z" fill="#FAFAFA"/>
<path d="M211.758 173.316H215.628H216.69H217.752V175.446H216.69H215.628H211.758V173.316Z" fill="#E6E6E6"/>
<path d="M211.758 177.438H215.628H216.69H217.752V179.568H216.69H215.628H211.758V177.438Z" fill="#FAFAFA"/>
<path d="M139.086 170.532H123.978V183.21H139.086V170.532Z" fill="#F0F0F0"/>
<path d="M136.188 174.048H138.12V172.116H136.188V174.048Z" fill="#FAFAFA"/>
<path d="M132.444 174.048H134.376V172.116H132.444V174.048Z" fill="#FAFAFA"/>
<path d="M128.694 174.048H130.626V172.116H128.694V174.048Z" fill="#FAFAFA"/>
<path d="M124.95 174.048H126.882V172.116H124.95V174.048Z" fill="#FAFAFA"/>
<path d="M136.188 177.558H138.12V175.626H136.188V177.558Z" fill="#FAFAFA"/>
<path d="M132.444 177.558H134.376V175.626H132.444V177.558Z" fill="#FAFAFA"/>
<path d="M128.694 177.558H130.626V175.626H128.694V177.558Z" fill="#FAFAFA"/>
<path d="M124.95 177.558H126.882V175.626H124.95V177.558Z" fill="#E6E6E6"/>
<path d="M136.188 181.074H138.12V179.142H136.188V181.074Z" fill="#E6E6E6"/>
<path d="M132.444 181.074H134.376V179.142H132.444V181.074Z" fill="#E6E6E6"/>
<path d="M128.694 181.074H130.626V179.142H128.694V181.074Z" fill="#FAFAFA"/>
<path d="M124.95 181.074H126.882V179.142H124.95V181.074Z" fill="#E6E6E6"/>
<path d="M121.932 161.16H106.824V183.21H121.932V161.16Z" fill="#F0F0F0"/>
<path d="M120.966 162.126H115.284V167.574H120.966V162.126Z" fill="#FAFAFA"/>
<path d="M113.472 162.126H107.79V167.574H113.472V162.126Z" fill="#FAFAFA"/>
<path d="M120.966 169.152H115.284V174.6H120.966V169.152Z" fill="#FAFAFA"/>
<path d="M113.472 169.152H107.79V174.6H113.472V169.152Z" fill="#FAFAFA"/>
<path d="M120.966 176.178H115.284V181.626H120.966V176.178Z" fill="#FAFAFA"/>
<path d="M113.472 176.178H107.79V181.626H113.472V176.178Z" fill="#FAFAFA"/>
<path d="M150 256.536C214.249 256.536 266.334 253.495 266.334 249.744C266.334 245.993 214.249 242.952 150 242.952C85.7505 242.952 33.666 245.993 33.666 249.744C33.666 253.495 85.7505 256.536 150 256.536Z" fill="#F5F5F5"/>
<path opacity="0.2" d="M250.842 195.81V180.378H266.742L251.154 195.966" fill="black"/>
<path d="M247.2 80.148L247.086 80.052C246.762 79.806 246.576 79.89 246.426 79.416C246.318 79.074 246.426 78.69 246.3 78.336C246.014 77.7267 245.687 77.1373 245.322 76.572L243.846 73.914C243.516 73.3255 242.967 72.8914 242.318 72.707C241.669 72.5226 240.974 72.6028 240.384 72.93L226.794 80.502C226.74 80.958 226.362 81.27 226.284 81.702C226.257 81.8297 226.264 81.9621 226.304 82.0863C226.344 82.2104 226.416 82.322 226.512 82.41C226.359 82.407 226.212 82.3544 226.092 82.26C225.282 81.81 225.066 81.45 224.232 81.906C223.872 82.098 223.518 82.302 223.164 82.506L219.564 84.516L208.284 90.798L195.084 98.166L184.086 104.292C182.586 105.126 180.768 105.858 179.43 106.92C179.802 107.112 179.868 107.406 179.538 107.694L178.938 108.24C178.938 108.39 179.154 108.39 179.292 108.33L180.036 108.012C179.519 108.668 178.896 109.234 178.194 109.686C177.014 110.371 175.746 110.892 174.426 111.234L175.062 110.436C175.11 110.37 175.17 110.286 175.128 110.208C175.086 110.13 175.008 110.124 174.936 110.118C174.618 110.082 174.3 110.118 174.066 109.884C172.014 111.084 169.866 112.224 167.778 113.388C167.189 113.718 166.755 114.267 166.571 114.916C166.386 115.565 166.467 116.26 166.794 116.85L180.498 141.45C180.66 141.742 180.878 141.999 181.139 142.206C181.401 142.414 181.701 142.568 182.022 142.659C182.343 142.75 182.679 142.778 183.01 142.739C183.342 142.7 183.662 142.597 183.954 142.434L187.56 140.4C187.56 139.974 187.896 139.5 187.644 139.11C187.608 139.063 187.585 139.007 187.578 138.948C187.578 138.87 187.65 138.81 187.716 138.768C188.085 138.533 188.509 138.397 188.946 138.372C189.096 138.372 189.294 138.438 189.27 138.582C189.27 138.45 190.044 138.174 190.17 138.132C190.23 138.456 190.008 138.804 190.386 138.87C190.764 138.936 191.34 138.27 191.586 138.15L195.186 136.14L206.586 129.798L219.09 122.832L227.4 118.2C227.7 118.026 228.054 117.822 228.342 117.678C228.446 117.128 228.714 116.622 229.11 116.226C229.71 115.812 230.658 116.268 231.156 115.68C231.252 115.566 231.312 115.428 231.396 115.308C231.563 115.113 231.767 114.952 231.996 114.834C232.141 114.72 232.316 114.651 232.5 114.636C232.68 114.636 232.872 114.786 232.848 114.966C234.084 114.678 235.2 113.844 236.292 113.226C236.688 113.004 240.162 111.372 240.15 111.114C240.102 110.316 240.588 109.632 240.564 108.81C240.564 108.654 240.258 107.61 240.396 107.532C237.276 109.392 234.036 111.084 230.856 112.848C230.748 112.914 230.34 113.052 230.256 113.172C230.256 113.172 230.226 113.226 230.214 113.256L230.124 113.454V113.502C229.995 113.91 229.842 114.311 229.668 114.702C229.668 114.756 228.99 115.596 228.936 115.398C228.672 114.432 228.336 114.282 227.598 114.678L226.542 115.278L223.188 117.144L211.89 123.444L198.576 130.86L187.482 137.04L182.832 139.626C181.904 137.946 180.97 136.268 180.03 134.592L178.23 131.358C178.048 130.91 177.778 130.502 177.438 130.158C177.18 129.966 176.742 130.014 176.514 129.84C175.956 129.414 175.554 128.64 175.026 128.142C174.666 127.806 174.12 126.798 174.27 126.24C174.45 126.312 174.63 126.39 174.81 126.444C174.716 126.075 174.737 125.685 174.87 125.328C173.07 122.298 171.414 119.13 169.692 116.034L169.578 115.836L173.778 113.496L176.844 111.786C177.474 111.515 178.077 111.183 178.644 110.796C179.034 110.46 179.43 110.04 179.844 109.68C180.122 109.469 180.424 109.291 180.744 109.152L181.878 108.6C181.936 108.565 182.002 108.544 182.07 108.54C182.138 108.547 182.204 108.564 182.268 108.588C182.868 108.714 184.356 107.604 184.896 107.304L188.388 105.36L198.924 99.486L212.052 92.178L225.192 84.852L235.764 78.966L241.164 75.966L241.416 75.828L247.254 86.31C247.615 87.0166 248.193 87.5886 248.904 87.942C249.144 88.02 249.414 88.188 249.384 88.434C249.354 88.68 248.994 88.884 249.078 89.136C249.162 89.388 249.624 89.292 249.732 89.52C249.84 89.748 249.546 90.12 249.582 90.432C249.706 90.8055 249.89 91.1562 250.128 91.47L251.826 94.524C252.774 96.216 253.716 97.914 254.67 99.624L244.29 105.408C244.341 105.449 244.384 105.5 244.416 105.558L244.47 105.696C244.676 105.769 244.877 105.857 245.07 105.96C245.153 106.006 245.221 106.074 245.268 106.157C245.314 106.24 245.337 106.333 245.334 106.428C245.332 106.522 245.306 106.613 245.258 106.693C245.209 106.774 245.14 106.839 245.058 106.884L244.422 107.244C244.399 107.383 244.335 107.512 244.237 107.614C244.14 107.716 244.014 107.785 243.876 107.814C243.802 107.82 243.728 107.82 243.654 107.814C243.591 107.86 243.518 107.892 243.442 107.908C243.365 107.923 243.286 107.922 243.21 107.904C243.074 107.862 242.96 107.77 242.89 107.646C242.821 107.522 242.802 107.376 242.838 107.238C242.863 107.176 242.895 107.118 242.934 107.064C242.888 106.977 242.868 106.878 242.874 106.78C242.88 106.682 242.913 106.587 242.97 106.506H242.778C242.67 106.506 242.574 106.446 242.472 106.416C241.932 106.749 241.512 107.245 241.272 107.832C241.246 107.864 241.233 107.905 241.236 107.946C241.236 108.03 241.368 108.036 241.446 108.072C241.626 108.156 241.584 108.42 241.494 108.594C241.404 108.768 241.296 108.99 241.416 109.146C241.461 109.199 241.511 109.247 241.566 109.29C241.824 109.584 241.428 110.436 242.058 110.088C242.014 109.903 242.041 109.708 242.136 109.542C242.242 109.375 242.407 109.253 242.598 109.2C243.064 109.087 243.54 109.019 244.02 108.996L256.53 102C257.118 101.67 257.552 101.121 257.737 100.472C257.921 99.8234 257.841 99.1279 257.514 98.538L257.442 98.412L251.79 88.266L248.526 82.398C248.208 81.84 247.926 81.258 247.578 80.706C247.482 80.5012 247.355 80.3128 247.2 80.148Z" fill="#BB2525"/>
<path d="M189.396 113.298C188.982 112.794 189.108 112.782 189.03 112.242C189.03 112.242 189.03 112.242 189.03 112.206L188.982 112.152L188.91 112.068C188.628 112.194 188.346 112.332 188.064 112.488L182.538 115.566L184.764 119.556C184.452 119.004 185.556 119.166 185.598 119.16C185.715 119.126 185.836 119.106 185.958 119.1C186.078 119.126 186.183 119.197 186.252 119.298C186.483 119.702 186.551 120.178 186.444 120.63C186.378 121.23 186.696 121.83 186.354 122.43C186.648 122.91 189.306 127.746 189.318 127.74L194.844 124.662C195.162 124.482 195.918 124.164 196.104 123.846C196.29 123.528 195.996 123.03 196.326 122.88C196.45 122.835 196.583 122.817 196.715 122.83C196.847 122.842 196.974 122.884 197.088 122.952C198.14 121.91 198.817 120.548 199.011 119.08C199.206 117.611 198.907 116.12 198.162 114.84C196.608 112.05 193.08 110.388 189.99 111.684C189.774 111.774 190.062 112.74 189.546 112.848C189.644 112.655 189.786 112.486 189.96 112.356M193.404 122.4L190.83 123.834C190.62 123.456 190.416 123.078 190.2 122.712C190.47 123.168 189.726 123.024 189.57 122.922C189.192 122.67 189.09 121.944 189.078 121.536C189.069 120.837 188.861 120.154 188.478 119.568C187.874 118.476 187.274 117.384 186.678 116.292L189.252 114.858C191.652 113.514 194.052 114.072 195.348 116.4C196.644 118.728 195.822 121.074 193.404 122.4Z" fill="#BB2525"/>
<path d="M207.666 103.08C207.797 103.365 207.835 103.684 207.774 103.992C207.744 104.16 207.474 104.592 207.51 104.7C207.606 104.94 207.702 105.18 207.792 105.42C207.808 105.459 207.83 105.496 207.858 105.528C207.904 105.559 207.958 105.576 208.014 105.576C208.968 105.66 208.926 105.756 208.986 106.56C209.04 107.25 209.634 107.646 209.97 108.246C210.421 109.034 210.617 109.943 210.531 110.847C210.445 111.752 210.081 112.607 209.489 113.296C208.898 113.985 208.107 114.474 207.226 114.696C206.345 114.918 205.417 114.861 204.57 114.534C204.547 114.556 204.523 114.576 204.498 114.594C204.372 114.658 204.227 114.675 204.09 114.642C203.778 114.554 203.496 114.383 203.273 114.147C203.05 113.912 202.895 113.621 202.824 113.304C202.815 113.257 202.815 113.208 202.824 113.16C202.654 112.95 202.503 112.725 202.374 112.488C202.066 111.992 201.863 111.438 201.779 110.861C201.694 110.283 201.73 109.694 201.884 109.131C202.038 108.568 202.306 108.042 202.672 107.587C203.038 107.133 203.494 106.758 204.012 106.488C204.762 106.06 205.622 105.864 206.484 105.924L206.436 105.852C205.92 105.168 207.78 104.892 206.94 104.43C206.586 104.238 206.646 103.368 206.556 103.014C205.193 103.045 203.859 103.414 202.674 104.088C198.834 106.23 197.508 110.472 199.524 114.09C200.372 115.647 201.775 116.827 203.454 117.396C203.849 117.568 204.272 117.666 204.702 117.684C205.194 117.642 204.954 117.684 205.164 117.39C205.374 117.096 205.248 116.97 205.566 116.658C205.884 116.346 206.256 116.16 206.322 115.68C206.322 115.896 206.562 116.052 206.562 116.28C206.562 116.346 206.562 116.412 206.562 116.472C206.575 116.551 206.61 116.624 206.664 116.682C206.868 116.958 207.21 117.282 207.216 117.6C208.094 117.455 208.936 117.145 209.7 116.688C213.522 114.558 214.878 110.322 212.85 106.692C211.8 104.838 209.826 103.2 207.666 103.08Z" fill="#BB2525"/>
<path d="M219.936 94.728L224.052 102.114L213.888 98.094L211.56 99.396C213.132 102.216 214.8 105.006 216.276 107.88C216.378 107.568 216.618 107.508 216.906 107.466C217.446 107.394 217.428 107.664 217.722 108.198C217.758 108.264 217.8 108.33 217.866 108.342C217.932 108.354 218.064 108.246 218.172 108.258C218.28 108.27 218.322 108.402 218.292 108.504C218.254 108.604 218.203 108.699 218.142 108.786C217.968 109.116 218.256 109.326 218.22 109.626C218.22 109.782 217.698 110.418 217.758 110.526L218.358 111.558L221.142 110.01L220.398 108.678H220.26C219.45 108.786 219.81 107.724 219.63 107.286C219.338 106.666 219.008 106.064 218.64 105.486L217.002 102.6L225.264 105.852C225.242 105.615 225.271 105.376 225.348 105.15C225.414 105.024 225.948 104.79 225.948 104.67C225.979 105.057 226.16 105.417 226.452 105.672C226.77 105.954 226.77 105.912 226.71 106.41L227.202 106.608L229.518 105.318L222.738 93.156L219.936 94.728Z" fill="#BB2525"/>
<path d="M233.922 99.918L232.35 97.104L238.002 93.954L236.802 91.764L231.156 94.914L229.686 92.268L233.502 90.144C233.663 89.9362 233.868 89.7662 234.102 89.646C234.22 89.5851 234.357 89.5702 234.486 89.604L236.1 88.71C236.1 88.71 234.954 86.664 234.846 86.448C234.294 86.7 234.846 87.396 234.288 87.732C234.402 87.852 234.57 88.278 234.288 88.332C234.126 88.332 234.006 88.128 233.844 88.146C233.682 88.164 233.676 88.242 233.592 88.218C233.566 88.2108 233.543 88.1979 233.523 88.1802C233.503 88.1625 233.488 88.1406 233.478 88.116C233.4 87.935 233.301 87.7639 233.184 87.606C232.806 87.24 229.356 89.538 228.876 89.808L225.666 91.608L232.44 103.77L235.146 102.264L235.2 102.192C235.398 101.94 235.59 101.682 235.8 101.448C235.885 101.367 235.994 101.316 236.111 101.302C236.228 101.287 236.346 101.311 236.448 101.37C236.496 101.395 236.539 101.43 236.574 101.472L241.86 98.526L240.6 96.264L233.922 99.918Z" fill="#BB2525"/>
<path d="M241.14 229.326C241.14 229.326 237.192 220.722 241.698 212.232C246.204 203.742 247.518 201.744 244.644 200.01C241.77 198.276 240.444 206.796 240.444 206.796C240.444 206.796 238.044 200.928 240.018 194.796C241.992 188.664 243.276 178.656 240.546 177.582C237.816 176.508 240.024 190.056 237.654 194.676C236.446 191.433 235.665 188.047 235.332 184.602C235.008 179.67 235.518 171.798 233.358 169.776C231.198 167.754 229.824 169.176 231.942 180.036C233.215 186.54 233.92 193.143 234.048 199.77C234.048 199.77 229.362 185.49 226.248 185.076C223.134 184.662 223.11 189.276 225.804 193.29C228.498 197.304 233.658 204.48 234.504 208.2C234.504 208.2 229.368 197.46 224.742 200.748C220.116 204.036 228.768 210.534 232.62 212.88C236.472 215.226 239.154 229.92 239.154 229.92L241.14 229.326Z" fill="#BB2525"/>
<path opacity="0.2" d="M241.14 229.326C241.14 229.326 237.192 220.722 241.698 212.232C246.204 203.742 247.518 201.744 244.644 200.01C241.77 198.276 240.444 206.796 240.444 206.796C240.444 206.796 238.044 200.928 240.018 194.796C241.992 188.664 243.276 178.656 240.546 177.582C237.816 176.508 240.024 190.056 237.654 194.676C236.446 191.433 235.665 188.047 235.332 184.602C235.008 179.67 235.518 171.798 233.358 169.776C231.198 167.754 229.824 169.176 231.942 180.036C233.215 186.54 233.92 193.143 234.048 199.77C234.048 199.77 229.362 185.49 226.248 185.076C223.134 184.662 223.11 189.276 225.804 193.29C228.498 197.304 233.658 204.48 234.504 208.2C234.504 208.2 229.368 197.46 224.742 200.748C220.116 204.036 228.768 210.534 232.62 212.88C236.472 215.226 239.154 229.92 239.154 229.92L241.14 229.326Z" fill="black"/>
<path d="M238.02 232.86C238.02 232.86 241.866 224.19 237.258 215.772C232.65 207.354 231.312 205.374 234.168 203.592C237.024 201.81 238.44 210.318 238.44 210.318C238.44 210.318 240.792 204.42 238.722 198.318C236.652 192.216 235.272 182.226 237.99 181.116C240.708 180.006 238.662 193.584 241.086 198.162C242.256 194.905 242.995 191.508 243.282 188.058C243.552 183.12 242.946 175.254 245.082 173.202C247.218 171.15 248.616 172.53 246.624 183.444C245.43 189.963 244.806 196.574 244.758 203.202C244.758 203.202 249.27 188.856 252.408 188.394C255.546 187.932 255.594 192.552 252.954 196.602C250.314 200.652 245.214 207.912 244.404 211.602C244.404 211.602 249.414 200.802 254.076 204.012C258.738 207.222 250.17 213.852 246.348 216.252C242.526 218.652 240 233.4 240 233.4L238.02 232.86Z" fill="#BB2525"/>
<path d="M255.744 226.68H224.004L226.572 249.396H253.176L255.744 226.68Z" fill="#263238"/>
<path d="M93.3779 83.8501H72.4319C71.6251 83.8501 70.8514 84.1706 70.2809 84.7411C69.7104 85.3116 69.3899 86.0853 69.3899 86.8921V107.256C69.3899 108.063 69.7104 108.837 70.2809 109.407C70.8514 109.978 71.6251 110.298 72.4319 110.298H79.1339L74.6219 116.43L82.4219 110.298H93.3719C94.1787 110.298 94.9524 109.978 95.5229 109.407C96.0934 108.837 96.4139 108.063 96.4139 107.256V86.8921C96.4139 86.0864 96.0942 85.3135 95.525 84.7432C94.9558 84.1729 94.1836 83.8517 93.3779 83.8501Z" fill="#BB2525"/>
<path opacity="0.6" d="M93.3779 83.8501H72.4319C71.6251 83.8501 70.8514 84.1706 70.2809 84.7411C69.7104 85.3116 69.3899 86.0853 69.3899 86.8921V107.256C69.3899 108.063 69.7104 108.837 70.2809 109.407C70.8514 109.978 71.6251 110.298 72.4319 110.298H79.1339L74.6219 116.43L82.4219 110.298H93.3719C94.1787 110.298 94.9524 109.978 95.5229 109.407C96.0934 108.837 96.4139 108.063 96.4139 107.256V86.8921C96.4139 86.0864 96.0942 85.3135 95.525 84.7432C94.9558 84.1729 94.1836 83.8517 93.3779 83.8501Z" fill="white"/>
<path d="M82.9079 106.584C88.1602 106.584 92.4179 102.326 92.4179 97.0742C92.4179 91.822 88.1602 87.5642 82.9079 87.5642C77.6557 87.5642 73.3979 91.822 73.3979 97.0742C73.3979 102.326 77.6557 106.584 82.9079 106.584Z" fill="#BB2525"/>
<path opacity="0.2" d="M90.8409 98.941C91.8754 94.5581 89.1609 90.1665 84.778 89.132C80.3951 88.0975 76.0035 90.812 74.969 95.1949C73.9345 99.5778 76.649 103.969 81.0319 105.004C85.4148 106.038 89.8065 103.324 90.8409 98.941Z" fill="black"/>
<path d="M81.8938 100.968C81.7833 100.97 81.6734 100.951 81.5705 100.911C81.4675 100.871 81.3735 100.811 81.2938 100.734L77.8318 97.3441C77.6727 97.1897 77.5814 96.9785 77.578 96.7568C77.5746 96.5352 77.6594 96.3212 77.8138 96.1621C77.9681 96.003 78.1794 95.9117 78.4011 95.9083C78.6227 95.9049 78.8367 95.9897 78.9958 96.1441L81.8338 98.9221L86.7418 93.4441C86.8923 93.2924 87.0952 93.2043 87.3088 93.1979C87.5224 93.1915 87.7303 93.2673 87.8896 93.4097C88.0489 93.552 88.1475 93.7501 88.165 93.9631C88.1825 94.176 88.1177 94.3876 87.9838 94.5541L82.4938 100.68C82.4181 100.765 82.3257 100.833 82.2225 100.881C82.1193 100.928 82.0074 100.954 81.8938 100.956V100.968Z" fill="white"/>
<path d="M55.7401 235.752L73.0261 234.048V214.554H79.8781V234.042L97.2361 235.752C98.0679 235.833 98.8398 236.22 99.4011 236.839C99.9625 237.458 100.273 238.264 100.272 239.1V241.698H52.7041V239.1C52.7032 238.264 53.0137 237.458 53.5751 236.839C54.1364 236.22 54.9083 235.833 55.7401 235.752Z" fill="#263238"/>
<path opacity="0.1" d="M55.7401 235.752L73.0261 234.048V214.554H79.8781V234.042L97.2361 235.752C98.0679 235.833 98.8398 236.22 99.4011 236.839C99.9625 237.458 100.273 238.264 100.272 239.1V241.698H52.7041V239.1C52.7032 238.264 53.0137 237.458 53.5751 236.839C54.1364 236.22 54.9083 235.833 55.7401 235.752Z" fill="white"/>
<path d="M98.4422 249.396C100.918 249.396 102.924 247.389 102.924 244.914C102.924 242.439 100.918 240.432 98.4422 240.432C95.9669 240.432 93.9602 242.439 93.9602 244.914C93.9602 247.389 95.9669 249.396 98.4422 249.396Z" fill="#263238"/>
<path d="M54.534 249.396C57.0093 249.396 59.016 247.389 59.016 244.914C59.016 242.439 57.0093 240.432 54.534 240.432C52.0587 240.432 50.052 242.439 50.052 244.914C50.052 247.389 52.0587 249.396 54.534 249.396Z" fill="#263238"/>
<path d="M78.5762 219.774H74.3042C73.647 219.774 73.0167 219.513 72.552 219.048C72.0873 218.583 71.8262 217.953 71.8262 217.296V198.132H81.0542V217.296C81.0542 217.953 80.7931 218.583 80.3284 219.048C79.8637 219.513 79.2334 219.774 78.5762 219.774Z" fill="#263238"/>
<path opacity="0.2" d="M78.5762 219.774H74.3042C73.647 219.774 73.0167 219.513 72.552 219.048C72.0873 218.583 71.8262 217.953 71.8262 217.296V198.132H81.0542V217.296C81.0542 217.953 80.7931 218.583 80.3284 219.048C79.8637 219.513 79.2334 219.774 78.5762 219.774Z" fill="white"/>
<path d="M52.5242 160.572C52.5242 160.572 57.6602 192.6 67.8002 198.138H57.4922C57.4922 198.138 47.2922 187.218 44.2202 160.572H52.5242Z" fill="#263238"/>
<path opacity="0.1" d="M52.5242 160.572C52.5242 160.572 57.6602 192.6 67.8002 198.138H57.4922C57.4922 198.138 47.2922 187.218 44.2202 160.572H52.5242Z" fill="white"/>
<path d="M57 193.608H97.152C97.9476 193.608 98.7107 193.924 99.2733 194.487C99.8359 195.049 100.152 195.812 100.152 196.608V200.622H54V196.608C54 195.812 54.3161 195.049 54.8787 194.487C55.4413 193.924 56.2044 193.608 57 193.608Z" fill="#BB2525"/>
<path d="M100.848 197.112H53.2621C52.5961 197.112 52.0562 197.652 52.0562 198.318V199.41C52.0562 200.076 52.5961 200.616 53.2621 200.616H100.848C101.514 200.616 102.054 200.076 102.054 199.41V198.318C102.054 197.652 101.514 197.112 100.848 197.112Z" fill="#263238"/>
<path opacity="0.6" d="M100.848 197.112H53.2621C52.5961 197.112 52.0562 197.652 52.0562 198.318V199.41C52.0562 200.076 52.5961 200.616 53.2621 200.616H100.848C101.514 200.616 102.054 200.076 102.054 199.41V198.318C102.054 197.652 101.514 197.112 100.848 197.112Z" fill="white"/>
<path d="M43.0021 167.088H59.4961C64.3321 167.088 67.4701 163.212 66.5101 158.43L65.2261 152.046C64.2661 147.246 59.5681 143.394 54.7381 143.394H38.2441C33.4081 143.394 30.2701 147.27 31.2301 152.046L32.5141 158.43C33.4741 163.2 38.1661 167.088 43.0021 167.088Z" fill="#BB2525"/>
<path d="M130.524 220.734L126.744 222.216L124.026 217.092L121.554 212.43L125.742 209.922L128.274 215.64L130.524 220.734Z" fill="#E4897B"/>
<path opacity="0.2" d="M128.274 215.64L124.026 217.092L121.554 212.43L125.742 209.922L128.274 215.64Z" fill="black"/>
<path d="M127.488 212.844L122.346 215.604C122.346 215.604 102.912 181.434 99.9242 181.722C96.9362 182.01 68.5862 200.07 59.9402 193.398C51.2942 186.726 59.7062 166.638 59.7062 166.638C59.7062 166.638 77.5922 161.526 79.5062 165.438C80.0106 166.609 80.4395 167.812 80.7902 169.038C81.1682 170.268 81.4562 171.306 81.4562 171.306C82.0022 171.084 99.6662 163.842 107.55 167.706C115.596 171.678 127.488 212.844 127.488 212.844Z" fill="#263238"/>
<path opacity="0.3" d="M127.488 212.844L122.346 215.604C122.346 215.604 102.912 181.434 99.9242 181.722C96.9362 182.01 68.5862 200.07 59.9402 193.398C51.2942 186.726 59.7062 166.638 59.7062 166.638C59.7062 166.638 77.5922 161.526 79.5062 165.438C80.0106 166.609 80.4395 167.812 80.7902 169.038C81.1682 170.268 81.4562 171.306 81.4562 171.306C82.0022 171.084 99.6662 163.842 107.55 167.706C115.596 171.678 127.488 212.844 127.488 212.844Z" fill="white"/>
<path d="M99.5522 240.708L95.5202 240.246L95.4962 234.558L95.4902 229.338L100.368 229.11L99.9362 235.248L99.5522 240.708Z" fill="#E4897B"/>
<path opacity="0.2" d="M99.9241 235.374L95.4841 234.666V229.392L100.362 229.134L99.9241 235.374Z" fill="black"/>
<path d="M119.832 213.906L127.356 210.138L128.142 213.33L122.442 216.27L119.832 213.906Z" fill="#BB2525"/>
<path d="M73.2961 193.452C73.2961 193.452 74.5321 193.314 93.5461 189.792C93.5461 189.792 93.9781 214.104 94.8781 232.23L100.734 232.416C100.734 232.416 109.134 192.216 108.144 186.12C107.154 180.024 99.9301 179.226 99.9301 179.226C99.9301 179.226 87.3841 189 73.2961 193.452Z" fill="#263238"/>
<path opacity="0.4" d="M73.2961 193.452C73.2961 193.452 74.5321 193.314 93.5461 189.792C93.5461 189.792 93.9781 214.104 94.8781 232.23L100.734 232.416C100.734 232.416 109.134 192.216 108.144 186.12C107.154 180.024 99.9301 179.226 99.9301 179.226C99.9301 179.226 87.3841 189 73.2961 193.452Z" fill="white"/>
<path opacity="0.3" d="M73.2961 193.452C73.2961 193.452 74.5321 193.314 93.5461 189.792C93.5461 189.792 93.9781 214.104 94.8781 232.23L100.734 232.416C100.734 232.416 109.134 192.216 108.144 186.12C107.154 180.024 99.9301 179.226 99.9301 179.226C99.9301 179.226 87.3841 189 73.2961 193.452Z" fill="black"/>
<path d="M93.8042 230.61L101.79 230.424L100.698 233.712L94.2182 233.772L93.8042 230.61Z" fill="#BB2525"/>
<path opacity="0.3" d="M81.4802 171.318L71.1182 175.008C71.1182 175.008 76.5662 170.94 80.8142 169.05C81.1922 170.28 81.4802 171.318 81.4802 171.318Z" fill="black"/>
<path d="M58.5061 165.402L58.8901 168.276L78.3121 164.154L77.8621 160.758L58.5061 165.402Z" fill="#263238"/>
<path opacity="0.2" d="M58.5061 165.402L58.8901 168.276L78.3121 164.154L77.8621 160.758L58.5061 165.402Z" fill="black"/>
<path d="M64.9414 163.314L63.9739 163.493L64.8877 168.419L65.8552 168.24L64.9414 163.314Z" fill="#263238"/>
<path d="M73.4103 162.067L69.1726 163.022L69.8968 166.236L74.1345 165.281L73.4103 162.067Z" fill="white"/>
<path d="M76.1352 160.06L75.1709 160.238L76.0727 165.147L77.037 164.97L76.1352 160.06Z" fill="#263238"/>
<path opacity="0.3" d="M64.9414 163.314L63.9739 163.493L64.8877 168.419L65.8552 168.24L64.9414 163.314Z" fill="white"/>
<path opacity="0.3" d="M76.1352 160.06L75.1709 160.238L76.0727 165.147L77.037 164.97L76.1352 160.06Z" fill="white"/>
<path d="M138.036 227.442C137.405 227.248 136.744 227.173 136.086 227.22C136.086 227.22 133.644 226.2 130.686 221.346L128.166 221.676C127.742 221.74 127.348 221.932 127.037 222.227C126.725 222.522 126.512 222.906 126.426 223.326C126.408 223.445 126.408 223.567 126.426 223.686C126.535 224.295 126.683 224.896 126.87 225.486C127.516 227.436 128.28 229.346 129.156 231.204L129.564 231.036L128.262 227.4C127.83 226.158 129.336 227.208 130.134 228.408C130.932 229.608 132.066 230.772 134.76 229.752C137.892 228.528 139.134 227.88 138.036 227.442Z" fill="#263238"/>
<path d="M130.056 220.056C130.056 220.056 134.1 226.2 136.086 227.22C136.086 227.22 133.86 229.02 130.89 226.128C127.056 222.414 126.414 223.686 126.414 223.686C126.38 222.958 126.414 222.229 126.516 221.508C126.822 220.098 130.056 220.056 130.056 220.056Z" fill="#E4897B"/>
<path d="M105.6 247.86C105.025 247.529 104.395 247.305 103.74 247.2C103.74 247.2 101.61 245.634 99.9001 240.222L97.3741 239.946C96.9455 239.905 96.5148 239.999 96.1418 240.214C95.7688 240.429 95.4718 240.755 95.2921 241.146C95.2383 241.254 95.2018 241.369 95.1841 241.488C95.1421 242.101 95.1421 242.717 95.1841 243.33C95.3469 245.378 95.6354 247.414 96.0481 249.426L96.4861 249.36L96.0961 245.508C95.9701 244.2 97.1881 245.58 97.6801 246.936C98.1721 248.292 98.9941 249.69 101.85 249.336C105.186 248.886 106.542 248.55 105.6 247.86Z" fill="#263238"/>
<path d="M99.6002 238.8C99.6002 238.8 102.072 245.73 103.758 247.2C103.758 247.2 101.172 248.4 98.9582 244.908C96.1082 240.39 95.1902 241.476 95.1902 241.476C95.3244 240.763 95.5253 240.064 95.7902 239.388C96.4262 238.068 99.6002 238.8 99.6002 238.8Z" fill="#E4897B"/>
<path d="M54.276 116.4L49.2 117.42C49.0017 117.587 48.7674 117.706 48.5155 117.767C48.2636 117.829 48.0009 117.831 47.748 117.774C46.236 117.174 44.058 115.416 43.782 114.774C43.374 113.868 43.782 111.21 44.85 110.73C45.918 110.25 49.596 114.69 49.596 114.69L55.05 113.46L54.276 116.4Z" fill="#E4897B"/>
<path d="M70.2841 133.272C70.2841 133.272 69.8221 116.826 67.9201 116.124C66.0181 115.422 51.7201 117.384 51.7201 117.384L51.3721 113.628C51.3721 113.628 68.0101 111.066 71.2321 112.584C74.4541 114.102 75.5161 138.612 74.9281 143.334L70.2841 133.272Z" fill="#BB2525"/>
<path opacity="0.6" d="M70.2841 133.272C70.2841 133.272 69.8221 116.826 67.9201 116.124C66.0181 115.422 51.7201 117.384 51.7201 117.384L51.3721 113.628C51.3721 113.628 68.0101 111.066 71.2321 112.584C74.4541 114.102 75.5161 138.612 74.9281 143.334L70.2841 133.272Z" fill="white"/>
<path d="M51.9662 117.744L50.9702 113.616L52.3982 113.1L53.3042 117.87L51.9662 117.744Z" fill="#BB2525"/>
<path opacity="0.7" d="M51.9662 117.744L50.9702 113.616L52.3982 113.1L53.3042 117.87L51.9662 117.744Z" fill="white"/>
<path d="M70.2 131.22C70.2 131.22 68.922 136.224 62.766 137.82C56.61 139.416 49.8 135.246 49.8 135.246L51.1561 147.186L58.692 165.996L77.952 160.974C77.952 160.974 76.8 139.092 70.2 131.22Z" fill="#BB2525"/>
<path opacity="0.7" d="M70.2 131.22C70.2 131.22 68.922 136.224 62.766 137.82C56.61 139.416 49.8 135.246 49.8 135.246L51.1561 147.186L58.692 165.996L77.952 160.974C77.952 160.974 76.8 139.092 70.2 131.22Z" fill="white"/>
<path opacity="0.6" d="M73.5474 151.062L75.8019 150.35C76.0515 150.272 76.1901 150.005 76.1113 149.756L74.7682 145.499C74.6894 145.249 74.4232 145.11 74.1736 145.189L71.9191 145.9C71.6694 145.979 71.5309 146.245 71.6097 146.495L72.9528 150.752C73.0315 151.002 73.2978 151.14 73.5474 151.062Z" fill="#BB2525"/>
<path opacity="0.2" d="M73.0882 149.764L75.6516 148.955L74.545 145.448L71.9816 146.256L73.0882 149.764Z" fill="black"/>
<path d="M73.0025 144.18L72.436 144.358L73.0877 146.424L73.6542 146.245L73.0025 144.18Z" fill="#263238"/>
<path d="M57.1081 112.53C52.3621 112.53 49.2301 117.558 50.3401 125.532C51.4501 133.506 55.8961 135.804 55.8961 135.804L55.6141 133.878C60.5498 134.998 65.6384 135.282 70.6681 134.718C70.6681 134.718 68.3761 128.214 69.1201 121.572C69.1201 121.572 70.6261 112.518 57.1081 112.53Z" fill="#263238"/>
<path opacity="0.2" d="M66.5341 136.2L68.4721 143.4L65.0641 140.802C65.0641 140.802 68.3821 148.386 69.2641 152.802C69.2641 152.802 66.3961 145.284 63.9241 141.162L62.4781 145.29L56.6641 139.368C56.6641 139.368 61.8001 135.432 66.5341 136.2Z" fill="black"/>
<path d="M63.7022 138.522L57.7862 138.702C60.4082 135.348 55.6682 129.504 55.6682 129.504L61.5122 130.77C62.9042 136.554 65.3102 136.728 65.3102 136.728L63.7022 138.522Z" fill="#E4897B"/>
<path opacity="0.2" d="M63.1442 134.922C60.8868 134.733 58.7872 133.688 57.2762 132C56.8094 131.133 56.2715 130.306 55.6682 129.528L61.5122 130.8C61.8217 132.256 62.3734 133.649 63.1442 134.922Z" fill="black"/>
<path d="M61.5061 114.972C66.6001 115.398 68.0161 118.26 67.9501 123.546C67.8721 130.146 66.0241 134.688 59.7721 132.756C51.2761 130.134 53.0401 114.264 61.5061 114.972Z" fill="#E4897B"/>
<path d="M64.6802 123C65.0251 123.796 65.4643 124.547 65.9882 125.238C65.8205 125.435 65.602 125.582 65.3567 125.663C65.1113 125.745 64.8483 125.757 64.5962 125.7L64.6802 123Z" fill="#DE5753"/>
<path d="M61.2302 122.148L62.3342 121.788C62.3342 121.788 61.7462 122.664 61.2302 122.148Z" fill="#263238"/>
<path d="M61.6141 122.022C61.4088 121.921 61.1738 121.898 60.953 121.958C60.7322 122.018 60.5407 122.156 60.4141 122.346C60.6024 122.26 60.807 122.216 61.0141 122.216C61.2211 122.216 61.4257 122.26 61.6141 122.346V122.022Z" fill="#263238"/>
<path d="M59.5621 119.592C59.5054 119.591 59.4515 119.567 59.4121 119.526C59.3912 119.506 59.3746 119.483 59.3632 119.456C59.3518 119.43 59.3459 119.402 59.3459 119.373C59.3459 119.344 59.3518 119.316 59.3632 119.29C59.3746 119.263 59.3912 119.24 59.4121 119.22C59.7467 118.927 60.1447 118.717 60.5747 118.604C61.0048 118.492 61.4551 118.481 61.8901 118.572C61.9466 118.584 61.996 118.618 62.0275 118.666C62.059 118.715 62.07 118.774 62.0581 118.83C62.0462 118.887 62.0123 118.936 61.9639 118.967C61.9155 118.999 61.8566 119.01 61.8001 118.998C61.4371 118.924 61.062 118.932 60.7027 119.023C60.3433 119.113 60.0089 119.283 59.7241 119.52C59.704 119.543 59.6791 119.562 59.6511 119.574C59.6231 119.586 59.5927 119.593 59.5621 119.592Z" fill="#263238"/>
<path d="M67.554 119.682C67.5065 119.684 67.4598 119.669 67.422 119.64C67.1819 119.42 66.8957 119.256 66.5844 119.161C66.273 119.065 65.9442 119.04 65.622 119.088C65.5944 119.096 65.5656 119.097 65.5373 119.094C65.509 119.09 65.4816 119.081 65.4568 119.067C65.432 119.053 65.4103 119.034 65.3928 119.011C65.3753 118.988 65.3625 118.963 65.355 118.935C65.3475 118.907 65.3455 118.879 65.3492 118.85C65.3528 118.822 65.362 118.795 65.3762 118.77C65.3904 118.745 65.4094 118.723 65.432 118.706C65.4546 118.688 65.4804 118.676 65.508 118.668C65.8969 118.599 66.2964 118.62 66.676 118.729C67.0555 118.839 67.4051 119.033 67.698 119.298C67.7424 119.334 67.771 119.387 67.7777 119.444C67.7844 119.501 67.7688 119.558 67.734 119.604C67.7123 119.63 67.6847 119.651 67.6534 119.665C67.6221 119.678 67.588 119.684 67.554 119.682Z" fill="#263238"/>
<path d="M55.2002 123.096C55.2002 123.096 57.9302 119.112 57.8402 115.848C57.8402 115.848 68.2862 112.56 67.9322 122.856C67.9322 122.856 69.6722 113.856 60.9302 112.902C52.1882 111.948 51.1742 124.8 55.3802 129C55.3802 129 53.5262 125.592 55.2002 123.096Z" fill="#263238"/>
<path d="M55.9622 124.242C55.9622 123.648 55.7266 123.078 55.3071 122.657C54.8875 122.237 54.3183 122 53.7242 121.998C52.1282 122.04 51.1082 125.22 54.9722 126.33C55.5242 126.486 55.8902 125.964 55.9622 124.242Z" fill="#E4897B"/>
<path d="M64.6382 127.2C64.2646 127.702 63.9296 128.231 63.6362 128.784C63.5342 128.748 63.4262 128.718 63.3242 128.676C61.9142 128.178 61.4222 127.476 61.3082 126.876C61.2545 126.571 61.2772 126.258 61.3742 125.964C61.4242 125.795 61.4968 125.633 61.5902 125.484C62.3233 126.181 63.1997 126.709 64.1582 127.032C64.4462 127.14 64.6382 127.2 64.6382 127.2Z" fill="#263238"/>
<path d="M64.158 127.02L63.852 127.482C62.52 127.008 61.65 126.498 61.374 125.952C61.424 125.783 61.4967 125.621 61.59 125.472C62.3232 126.169 63.1996 126.697 64.158 127.02Z" fill="white"/>
<path d="M63.3241 128.676C61.9141 128.178 61.4221 127.476 61.3081 126.876C61.8415 127.072 62.3353 127.363 62.7661 127.734C63.0454 127.982 63.2404 128.312 63.3241 128.676Z" fill="#DE5753"/>
<path d="M61.3682 115.35C61.3682 115.35 58.6142 123.564 53.3462 123C48.0782 122.436 57.1082 112.512 57.1082 112.512C57.1082 112.512 65.9942 109.974 69.8642 114.912C73.7342 119.85 67.9502 122.844 67.9502 122.844C67.9502 122.844 68.8142 116.4 61.3682 115.35Z" fill="#263238"/>
<path d="M57.1681 122.34C57.1376 122.339 57.1081 122.329 57.0828 122.312C57.0574 122.295 57.0371 122.272 57.0241 122.244C57.0103 122.206 57.0121 122.164 57.0289 122.127C57.0457 122.09 57.0762 122.061 57.1141 122.046C61.3141 120.444 61.2181 114.81 61.2181 114.75C61.2163 114.73 61.2188 114.711 61.2254 114.692C61.2319 114.673 61.2423 114.656 61.256 114.642C61.2696 114.628 61.2861 114.617 61.3044 114.61C61.3227 114.602 61.3424 114.599 61.3621 114.6C61.401 114.601 61.4383 114.616 61.4669 114.643C61.4956 114.669 61.5138 114.705 61.5181 114.744C61.5181 114.804 61.6141 120.648 57.2221 122.328L57.1681 122.34Z" fill="#263238"/>
<path d="M66.4021 122.646L67.5061 122.292C67.5061 122.292 66.9121 123.162 66.4021 122.646Z" fill="#263238"/>
<path d="M66.7862 122.52C66.5805 122.418 66.3446 122.396 66.1234 122.457C65.9022 122.517 65.711 122.657 65.5862 122.85C65.7717 122.758 65.9751 122.707 66.1822 122.7C66.3894 122.694 66.5954 122.733 66.7862 122.814V122.52Z" fill="#263238"/>
<path d="M58.62 136.278L63.078 138.546L63.006 143.064L56.634 139.35L58.62 136.278Z" fill="#BB2525"/>
<path d="M63.7561 135.426L64.0201 138.168L66.9301 141.246L66.5341 136.182L63.7561 135.426Z" fill="#BB2525"/>
<path d="M43.1581 104.4L41.2981 99.6C41.3321 99.3434 41.3058 99.0824 41.2215 98.8377C41.1371 98.5929 40.997 98.3712 40.8121 98.19C39.5161 97.224 36.8401 96.348 36.1681 96.45C35.1901 96.594 33.1681 98.364 33.3421 99.522C33.5161 100.68 39.2281 101.394 39.2281 101.394L41.1241 106.656L43.1581 104.4Z" fill="#E4897B"/>
<path d="M51.1682 147.186C51.1682 147.186 54.7682 144.324 53.3342 138L49.4642 120.504L42.8162 102.432L39.5642 104.076C39.5642 104.076 45.0242 121.734 45.5282 122.928C45.7862 123.528 46.8122 132.69 48.2102 138.828C49.4942 144.48 51.1682 147.186 51.1682 147.186Z" fill="#BB2525"/>
<path opacity="0.6" d="M51.1682 147.186C51.1682 147.186 54.7682 144.324 53.3342 138L49.4642 120.504L42.8162 102.432L39.5642 104.076C39.5642 104.076 45.0242 121.734 45.5282 122.928C45.7862 123.528 46.8122 132.69 48.2102 138.828C49.4942 144.48 51.1682 147.186 51.1682 147.186Z" fill="white"/>
<path d="M38.9941 103.56L42.7921 101.658L43.6201 102.924L39.1801 104.892L38.9941 103.56Z" fill="#BB2525"/>
<path opacity="0.7" d="M38.9941 103.56L42.7921 101.658L43.6201 102.924L39.1801 104.892L38.9941 103.56Z" fill="white"/>
<path opacity="0.6" d="M58.62 136.278L63.078 138.546L63.006 143.064L56.634 139.35L58.62 136.278Z" fill="white"/>
<path opacity="0.6" d="M63.7561 135.426L64.0201 138.168L66.9301 141.246L66.5341 136.182L63.7561 135.426Z" fill="white"/>
<path d="M190.356 126.846H172.38V140.814H190.356V126.846Z" fill="white"/>
<path opacity="0.1" d="M190.356 126.846H185.748V140.814H190.356V126.846Z" fill="black"/>
<path d="M171.348 153.15H191.67V127.8H185.124L171.348 134.394V153.15Z" fill="#BB2525"/>
<path opacity="0.2" d="M191.67 127.8H185.124V153.15H191.67V127.8Z" fill="black"/>
<path opacity="0.7" d="M182.958 139.392H173.442V143.952H182.958V139.392Z" fill="white"/>
<path opacity="0.7" d="M182.958 145.476H173.442V146.13H182.958V145.476Z" fill="white"/>
<path opacity="0.7" d="M191.034 147.39H185.748V151.26H191.034V147.39Z" fill="white"/>
<path d="M182.718 126.084H164.742V140.814H182.718V126.084Z" fill="white"/>
<path opacity="0.1" d="M182.718 126.084H178.11V140.814H182.718V126.084Z" fill="black"/>
<path d="M163.71 153.15H184.032V127.8H177.486L163.71 134.394V153.15Z" fill="#BB2525"/>
<path opacity="0.2" d="M184.032 127.8H177.486V153.15H184.032V127.8Z" fill="black"/>
<path opacity="0.7" d="M175.32 139.392H165.804V143.952H175.32V139.392Z" fill="white"/>
<path opacity="0.7" d="M175.32 145.476H165.804V146.13H175.32V145.476Z" fill="white"/>
<path opacity="0.7" d="M183.396 147.39H178.11V151.26H183.396V147.39Z" fill="white"/>
<path d="M151.086 249.396H154.764L161.364 157.446H156.486L151.086 249.396Z" fill="#263238"/>
<path opacity="0.1" d="M151.086 249.396H154.764L161.04 162.012L161.364 157.596H156.486L156.228 162.012L151.086 249.396Z" fill="white"/>
<path opacity="0.2" d="M156.228 161.796H161.04L161.364 157.596H156.486L156.228 161.796Z" fill="black"/>
<path d="M124.11 249.396H127.788L128.388 157.446H123.51L124.11 249.396Z" fill="#263238"/>
<path opacity="0.1" d="M123.504 157.596L123.606 172.428L124.104 249.396H127.782L128.286 172.428L128.382 157.596H123.504Z" fill="white"/>
<path opacity="0.2" d="M123.504 157.596L123.606 172.596H128.286L128.382 157.596H123.504Z" fill="black"/>
<path d="M85.0859 249.396H88.7639L95.3639 157.446H90.4859L85.0859 249.396Z" fill="#263238"/>
<path opacity="0.1" d="M85.0859 249.396H88.7639L95.0459 162.012L95.3639 157.596H90.4859L90.2279 162.012L85.0859 249.396Z" fill="white"/>
<path opacity="0.2" d="M90.2278 161.796H95.0458L95.3638 157.596H90.4858L90.2278 161.796Z" fill="black"/>
<path d="M193.134 249.396H196.812L191.406 157.446H186.528L193.134 249.396Z" fill="#263238"/>
<path opacity="0.1" d="M186.528 157.596L186.858 162.012L193.134 249.396H196.806L191.67 162.012L191.406 157.596H186.528Z" fill="white"/>
<path opacity="0.2" d="M191.406 157.596H186.528L186.858 161.796H191.67L191.406 157.596Z" fill="black"/>
<path d="M193.98 159.75H87.9239C87.7537 159.75 87.5851 159.716 87.4279 159.651C87.2707 159.586 87.1278 159.491 87.0075 159.37C86.8871 159.25 86.7916 159.107 86.7265 158.95C86.6614 158.793 86.6279 158.624 86.6279 158.454V155.148H195.276V158.454C195.276 158.624 195.242 158.793 195.177 158.95C195.112 159.107 195.017 159.25 194.896 159.37C194.776 159.491 194.633 159.586 194.476 159.651C194.319 159.716 194.15 159.75 193.98 159.75Z" fill="#BB2525"/>
<path opacity="0.4" d="M193.98 159.75H87.9239C87.7537 159.75 87.5851 159.716 87.4279 159.651C87.2707 159.586 87.1278 159.491 87.0075 159.37C86.8871 159.25 86.7916 159.107 86.7265 158.95C86.6614 158.793 86.6279 158.624 86.6279 158.454V155.148H195.276V158.454C195.276 158.624 195.242 158.793 195.177 158.95C195.112 159.107 195.017 159.25 194.896 159.37C194.776 159.491 194.633 159.586 194.476 159.651C194.319 159.716 194.15 159.75 193.98 159.75Z" fill="white"/>
<path opacity="0.2" d="M86.6279 157.446H195.276V155.142H86.6279V157.446Z" fill="black"/>
<path d="M84.3479 155.742H197.55C197.72 155.743 197.889 155.71 198.047 155.645C198.204 155.58 198.348 155.485 198.468 155.364C198.589 155.244 198.684 155.1 198.749 154.943C198.814 154.785 198.847 154.616 198.846 154.446C198.846 154.102 198.709 153.773 198.466 153.529C198.223 153.286 197.894 153.15 197.55 153.15H84.3479C84.0036 153.15 83.6734 153.286 83.4294 153.529C83.1854 153.772 83.0475 154.102 83.0459 154.446C83.0459 154.617 83.0796 154.786 83.1451 154.943C83.2106 155.101 83.3066 155.244 83.4276 155.364C83.5486 155.485 83.6922 155.58 83.8501 155.645C84.008 155.71 84.1772 155.743 84.3479 155.742Z" fill="#BB2525"/>
<path opacity="0.4" d="M84.3479 155.742H197.55C197.72 155.743 197.889 155.71 198.047 155.645C198.204 155.58 198.348 155.485 198.468 155.364C198.589 155.244 198.684 155.1 198.749 154.943C198.814 154.785 198.847 154.616 198.846 154.446C198.846 154.102 198.709 153.773 198.466 153.529C198.223 153.286 197.894 153.15 197.55 153.15H84.3479C84.0036 153.15 83.6734 153.286 83.4294 153.529C83.1854 153.772 83.0475 154.102 83.0459 154.446C83.0459 154.617 83.0796 154.786 83.1451 154.943C83.2106 155.101 83.3066 155.244 83.4276 155.364C83.5486 155.485 83.6922 155.58 83.8501 155.645C84.008 155.71 84.1772 155.743 84.3479 155.742Z" fill="white"/>
<path d="M173.226 153.138V151.11H174.588L173.226 150.318H174.246L172.884 149.43H171.594V148.41H173.094L171.594 147.816V145.602H173.094V144.156H174.588L173.094 143.652V142.62H174.162L173.286 141.75L172.53 140.988H149.346V142.026H147.816L149.52 142.794V143.652H146.394V145.248H145.008L146.394 145.944V147.726H147.378V148.578H149.346V151.11H148.242L149.148 152.016V153.15L173.226 153.138Z" fill="#BB2525"/>
<path opacity="0.7" d="M173.226 153.138V151.11H174.588L173.226 150.318H174.246L172.884 149.43H171.594V148.41H173.094L171.594 147.816V145.602H173.094V144.156H174.588L173.094 143.652V142.62H174.162L173.286 141.75L172.53 140.988H149.346V142.026H147.816L149.52 142.794V143.652H146.394V145.248H145.008L146.394 145.944V147.726H147.378V148.578H149.346V151.11H148.242L149.148 152.016V153.15L173.226 153.138Z" fill="white"/>
<path opacity="0.1" d="M173.226 153.138V151.11H174.588L173.226 150.318H174.246L172.884 149.43H171.594V148.41H173.094L171.594 147.816V145.602H173.094V144.156H174.588L173.094 143.652V142.62H174.162L173.286 141.75L172.53 140.988H160.32V142.026H158.79L160.488 142.794V143.652H157.362V145.248H155.976L157.362 145.944V147.726H158.346V148.578H160.32V151.11H159.216L160.116 152.016V153.15L173.226 153.138Z" fill="black"/>
<path opacity="0.1" d="M149.52 143.652H160.488L149.52 143.256V143.652Z" fill="black"/>
<path opacity="0.1" d="M149.346 148.578H160.32L160.368 149.346L149.346 148.578Z" fill="black"/>
<path opacity="0.1" d="M147.378 147.726H158.346L147.378 148.11V147.726Z" fill="black"/>
<path opacity="0.1" d="M149.346 151.11H160.32L149.346 150.708V151.11Z" fill="black"/>
<path opacity="0.1" d="M149.148 152.016H160.116V152.436L149.148 152.016Z" fill="black"/>
<path opacity="0.1" d="M146.394 145.248H157.362L146.394 144.9V145.248Z" fill="black"/>
<path opacity="0.1" d="M149.346 142.026H160.32L149.346 141.642V142.026Z" fill="black"/>
<path opacity="0.1" d="M173.094 142.62H161.964L173.094 142.962V142.62Z" fill="black"/>
<path opacity="0.1" d="M160.488 143.652H173.094L161.664 144.024L160.488 143.652Z" fill="black"/>
<path opacity="0.1" d="M157.362 145.248L173.094 145.602V145.248H157.362Z" fill="black"/>
<path opacity="0.1" d="M157.362 145.944H165.144L157.362 146.322V145.944Z" fill="black"/>
<path opacity="0.1" d="M171.594 147.816L160.32 147.726L171.594 147.474V147.816Z" fill="black"/>
<path opacity="0.1" d="M171.594 148.41H160.116L171.594 148.794V148.41Z" fill="black"/>
<path opacity="0.1" d="M173.226 150.318H160.488V150.708L173.226 150.318Z" fill="black"/>
<path opacity="0.1" d="M173.226 151.11H163.998L173.226 151.368V151.11Z" fill="black"/>
<path d="M143.706 150.522V152.448C143.706 152.94 143.106 153.144 142.632 153.144H104.16C103.668 153.144 103.074 152.94 103.074 152.448V150.522H143.706Z" fill="#263238"/>
<path opacity="0.4" d="M143.706 150.522V152.448C143.706 152.94 143.106 153.144 142.632 153.144H104.16C103.668 153.144 103.074 152.94 103.074 152.448V150.522H143.706Z" fill="white"/>
<path opacity="0.2" d="M143.706 150.522V152.448C143.706 152.94 143.106 153.144 142.632 153.144H117.258C116.766 153.144 116.178 152.94 116.178 152.448V150.522H143.706Z" fill="black"/>
<path d="M150.144 130.53L145.56 151.308C145.481 151.645 145.292 151.946 145.022 152.164C144.753 152.381 144.418 152.502 144.072 152.508H119.058C118.902 152.505 118.75 152.465 118.612 152.393C118.474 152.32 118.355 152.217 118.263 152.091C118.172 151.965 118.111 151.819 118.086 151.666C118.06 151.512 118.07 151.355 118.116 151.206L122.688 130.59C122.782 130.275 122.981 130.002 123.251 129.817C123.522 129.631 123.849 129.544 124.176 129.57H149.196C149.868 129.546 150.288 129.852 150.144 130.53Z" fill="#263238"/>
<path opacity="0.4" d="M150.144 130.53L145.56 151.308C145.481 151.645 145.292 151.947 145.022 152.164C144.753 152.381 144.418 152.502 144.072 152.508H119.904C119.748 152.505 119.595 152.465 119.458 152.393C119.32 152.321 119.201 152.217 119.109 152.091C119.018 151.965 118.957 151.819 118.932 151.666C118.906 151.512 118.916 151.355 118.962 151.206L123.54 130.59C123.633 130.275 123.831 130.001 124.102 129.815C124.373 129.63 124.7 129.543 125.028 129.57H149.196C149.868 129.546 150.288 129.852 150.144 130.53Z" fill="white"/>
<path opacity="0.2" d="M137.808 141.09C137.808 142.89 135.9 144.312 134.502 144.312C133.104 144.312 132.276 142.866 132.702 141.09C133.128 139.314 134.502 137.928 135.858 137.874C135.462 139.674 136.314 141.09 137.706 141.09H137.808Z" fill="black"/>
</svg>
