<svg width="17" height="22" viewBox="0 0 17 22" fill="none" xmlns="http://www.w3.org/2000/svg">
<path d="M14.9762 8.23639V7.0224C14.9762 5.3044 14.2939 3.65739 13.0794 2.44339C11.8648 1.22839 10.2176 0.546387 8.5 0.546387C6.7824 0.546387 5.1352 1.22839 3.9206 2.44339C2.7061 3.65739 2.0238 5.3044 2.0238 7.0224V8.23639H0V12.9534C0 17.6404 3.8131 21.4534 8.5 21.4534C13.1869 21.4534 17 17.6404 17 12.9534V8.23639H14.9762ZM3.6429 7.0224C3.6429 5.7344 4.1546 4.4984 5.0655 3.5874C5.9764 2.6774 7.2118 2.16541 8.5 2.16541C9.7882 2.16541 11.0236 2.6774 11.9345 3.5874C12.8454 4.4984 13.3571 5.7344 13.3571 7.0224V8.23639H3.6429V7.0224ZM15.381 12.9534C15.381 16.7474 12.2941 19.8344 8.5 19.8344C4.7059 19.8344 1.619 16.7474 1.619 12.9534V9.85541H15.381V12.9534Z" fill="#A8A8A8"/>
</svg>
