<svg width="207" height="156" viewBox="0 0 207 156" fill="none" xmlns="http://www.w3.org/2000/svg">
<mask id="mask0_69_729" style="mask-type:luminance" maskUnits="userSpaceOnUse" x="0" y="0" width="207" height="156">
<path d="M0 0H206.672V155.263H0V0Z" fill="white"/>
</mask>
<g mask="url(#mask0_69_729)">
<path fill-rule="evenodd" clip-rule="evenodd" d="M203.903 96.8536L201.197 92.7214C205.513 86.9335 207.204 81.6483 205.269 78.6921L198.409 68.2232L198.387 68.2416C196.105 65.3546 190.584 65.1886 183.702 67.3008C183.612 67.3239 183.553 67.3838 183.521 67.4715C183.49 67.5637 183.499 67.6467 183.553 67.7251C183.896 68.1955 184.099 68.7259 184.166 69.307C184.234 69.8927 184.157 70.4553 183.936 70.9949C182.822 73.4807 179.259 76.5015 176.824 77.6867C176.725 77.7421 176.639 77.719 176.576 77.6222C176.508 77.5253 176.517 77.4377 176.603 77.3593L179.435 74.4492C180.558 73.3746 181.212 72.0556 181.402 70.4968C181.46 70.008 181.402 69.5376 181.226 69.0764C181.054 68.6152 180.784 68.2278 180.414 67.9096L179.949 67.5038C179.417 67.038 179.02 66.4707 178.763 65.802C178.506 65.1333 178.416 64.4461 178.497 63.7313L178.732 61.6098C178.84 60.6644 178.56 59.8573 177.897 59.1886L175.827 57.0994C175.624 56.8965 175.444 56.6751 175.286 56.4307C174.853 55.7712 174.614 55.0425 174.578 54.2447L174.434 51.3254C174.411 50.7996 174.253 50.3108 173.973 49.868C173.689 49.4253 173.315 49.084 172.85 48.8488L169.829 47.3038C169.166 46.9626 168.624 46.4783 168.214 45.8465C168.034 45.5744 167.889 45.2838 167.772 44.9795L167.055 43.0379C166.875 42.5536 166.59 42.1432 166.207 41.8111C165.819 41.4744 165.382 41.2531 164.886 41.147L157.236 39.5282C157.133 39.5052 157.07 39.4406 157.042 39.3392C157.015 39.2331 157.042 39.1455 157.119 39.0763C165.467 31.2223 169.77 23.4052 167.204 19.4897L160.425 9.14074C158.418 6.08308 153.001 5.83404 146.092 7.90015L143.178 3.44971C141.068 0.230641 134.483 0.77484 127.149 4.33519L124.858 0.834793C124.326 0.0184944 121.214 -0.0184006 117.732 2.36132C114.25 4.74565 113.1 7.70184 113.637 8.51814L115.924 12.0139C109.907 17.5804 106.912 23.5989 109.023 26.8226L111.941 31.273C107.44 37.0148 105.6 42.2308 107.607 45.2885L114.386 55.6328C116.118 58.28 120.664 58.6352 126.599 57.081C126.689 57.0579 126.757 57.0856 126.811 57.164C126.861 57.2424 126.856 57.3208 126.798 57.3946C125.598 58.9073 124.556 60.3877 124.06 61.8819C123.429 63.7728 122.197 67.0656 119.884 68.6475L117.57 69.4131C116.704 69.7313 115.924 70.2063 115.234 70.8289L113.89 72.1387C112.099 73.8035 110.092 75.1271 107.869 76.1095C106.534 76.7413 105 77.4008 103.313 78.088C101.622 77.4008 100.089 76.7413 98.7536 76.1095C96.5302 75.1271 94.5232 73.8035 92.7326 72.1387L91.3886 70.8289C90.6986 70.2063 89.9183 69.7313 89.0479 69.4131L86.7387 68.6475C84.425 67.0656 83.1937 63.7774 82.5623 61.8819C82.0617 60.3877 81.0198 58.9073 79.8202 57.3946C79.7615 57.3208 79.757 57.2424 79.8111 57.164C79.8607 57.0856 79.9329 57.0579 80.0231 57.081C85.9584 58.6352 90.5001 58.28 92.2365 55.6328L99.0107 45.2931C101.013 42.2308 99.1776 37.0148 94.6765 31.2776L97.5946 26.8226C99.7053 23.5989 96.7061 17.5804 90.6896 12.0139L92.9807 8.51814C93.5174 7.70184 92.3673 4.74565 88.8855 2.36593C85.4037 -0.0184004 82.2917 0.0231074 81.7595 0.839405L79.4684 4.3398C72.1394 0.77484 65.5546 0.230641 63.4394 3.44971L60.5258 7.90477C53.6163 5.83865 48.1952 6.0877 46.1927 9.14535L39.414 19.4897C36.8477 23.4052 41.1504 31.2269 49.4986 39.0763C49.5753 39.1501 49.6023 39.2377 49.5753 39.3392C49.5482 39.4406 49.4806 39.5052 49.3813 39.5282L41.7322 41.1516C40.9429 41.3176 40.3205 41.7465 39.874 42.4337C39.7477 42.6228 39.644 42.8257 39.5628 43.0425L38.8457 44.9795C38.7284 45.2838 38.5841 45.5744 38.4037 45.8465C37.9888 46.4783 37.4521 46.9626 36.7846 47.3038L33.7628 48.8488C33.3027 49.0886 32.9284 49.4253 32.6443 49.8726C32.3601 50.3154 32.2068 50.7996 32.1797 51.33L32.0399 54.2447C31.9858 55.3654 31.5709 56.3154 30.7906 57.104L28.7205 59.1886C28.0575 59.8619 27.7824 60.669 27.8861 61.6144L28.1206 63.7313C28.2379 64.7828 28.0079 65.7466 27.4351 66.6229C27.2186 66.9549 26.9615 67.2455 26.6684 67.5038L26.2038 67.9096C26.0009 68.0848 25.825 68.2832 25.6806 68.5091C25.2837 69.1133 25.1304 69.7774 25.2161 70.5015C25.401 72.0603 26.0595 73.3746 27.178 74.4492L30.0149 77.3639C30.096 77.4423 30.1051 77.5299 30.0419 77.6222C29.9743 77.719 29.8931 77.7421 29.7894 77.6867C27.3539 76.5015 23.7954 73.4853 22.6814 70.9949C22.4559 70.4553 22.3792 69.8927 22.4469 69.3116C22.5145 68.7259 22.722 68.2001 23.0603 67.7251C23.1144 67.6467 23.1234 67.5637 23.0918 67.4761C23.0648 67.3885 23.0016 67.3285 22.9159 67.3008C16.029 65.1886 10.5086 65.3592 8.22646 68.2416L8.20391 68.2278L1.34852 78.6921C-0.586324 81.6437 1.10046 86.9335 5.41665 92.7214L2.71058 96.849C0.64043 100.013 3.58103 105.916 9.48027 111.381L8.12272 113.461C7.85212 113.871 7.63112 115.435 8.27607 116.671C8.30764 116.721 8.35274 116.754 8.41588 116.754C8.47902 116.754 8.52412 116.731 8.56021 116.68L10.1342 114.277L10.9055 113.097L11.0994 112.801C12.2269 113.747 13.4356 114.669 14.7255 115.55L11.9067 119.858C11.8481 119.945 11.83 120.037 11.8526 120.143C11.8706 120.245 11.9248 120.323 12.015 120.383C15.3254 122.468 18.6268 121.771 19.1319 120.997L20.494 118.917C23.3444 120.374 26.3526 121.324 29.5097 121.771C30.3396 121.038 31.21 120.36 32.1256 119.742C33.2351 118.99 34.1597 118.045 34.8948 116.911C35.63 115.771 36.1171 114.535 36.3561 113.193C36.8522 110.657 37.0461 109.02 38.8186 105.999C29.6811 102.955 21.1434 95.8943 17.7158 92.9796C17.6436 92.9151 17.5714 92.9151 17.5038 92.9796C17.4316 93.0488 17.4226 93.118 17.4812 93.201C18.3742 94.52 20.4354 97.1026 24.6478 100.405L22.4739 103.725C22.4108 103.817 22.3341 103.831 22.2439 103.771C7.08088 93.344 2.78274 82.5937 4.1042 80.5784L7.55445 75.307C7.59053 75.2517 7.64014 75.224 7.70779 75.2332C7.77544 75.2378 7.81604 75.2747 7.83859 75.3393C10.0531 81.5468 17.2467 89.6729 27.2141 96.4939C31.2957 99.3117 35.6074 101.687 40.1581 103.615C41.9081 100.917 44.1 98.6753 46.7384 96.8813C47.7577 96.1803 48.8852 95.4885 50.0849 94.7967C50.1977 94.7321 50.2518 94.6353 50.2518 94.5062C50.2518 94.3724 50.1932 94.2802 50.0849 94.2156C47.5367 92.749 45.0877 91.1257 42.7289 89.3547L41.6825 90.9596C40.9023 92.1403 36.1757 91.49 32.3737 88.6214C30.9214 87.5238 28.7791 85.015 28.6934 82.8889C28.6889 82.7736 28.743 82.7044 28.8558 82.6814C28.964 82.6629 29.0407 82.7044 29.0768 82.8105C29.5278 84.1018 30.8086 85.9235 33.1088 87.5007C36.5906 89.8805 39.7026 89.8436 40.2348 89.0273L41.9396 86.4216C48.1816 90.0142 54.595 92.9289 60.1741 94.2894C60.2868 94.3171 60.3499 94.3909 60.3635 94.5108C60.3725 94.6261 60.3274 94.7137 60.2192 94.7598C56.4036 96.4385 52.7459 98.4216 49.246 100.704C43.7527 104.463 41.5969 109.882 40.7805 114.093C40.4152 116.039 39.6981 117.838 38.6247 119.489C37.5513 121.135 36.2073 122.505 34.5926 123.602C29.4285 127.043 23.8991 134.592 28.4949 140.924C31.8324 145.527 31.3454 148.792 33.2441 151.818C33.6816 152.491 34.2093 153.077 34.8272 153.575C35.4496 154.077 36.1306 154.465 36.8702 154.742C37.6144 155.018 38.3766 155.171 39.1659 155.198C39.9552 155.226 40.7309 155.129 41.4886 154.903C43.1664 154.437 44.8036 153.861 46.4001 153.169C48.2673 152.357 50.2112 152.071 52.2227 152.316C58.3745 153.104 73.0414 153.815 85.3676 145.375C91.9434 140.878 97.3961 134.274 102.853 127.403C102.971 127.25 103.124 127.177 103.313 127.177C103.503 127.177 103.656 127.25 103.773 127.403C109.226 134.274 114.683 140.878 121.259 145.375C133.59 153.815 148.257 153.104 154.404 152.316C156.42 152.071 158.355 152.353 160.222 153.164C161.823 153.856 163.46 154.437 165.138 154.903C165.896 155.129 166.672 155.226 167.461 155.198C168.25 155.171 169.012 155.018 169.757 154.742C170.496 154.465 171.177 154.077 171.795 153.575C172.417 153.077 172.945 152.491 173.383 151.818C175.281 148.792 174.79 145.527 178.132 140.924C181.695 136.013 179.169 130.368 175.444 126.48H175.439C175.155 126.48 174.876 126.471 174.609 126.452C174.452 126.443 174.303 126.429 174.149 126.416C174.023 126.406 173.892 126.397 173.771 126.379C173.613 126.36 173.464 126.337 173.311 126.314C173.207 126.3 173.099 126.282 172.995 126.263C172.837 126.236 172.688 126.208 172.539 126.176C172.454 126.153 172.363 126.134 172.278 126.111C172.124 126.074 171.971 126.037 171.827 125.996C171.764 125.977 171.696 125.959 171.633 125.936C171.475 125.89 171.317 125.839 171.168 125.784C171.155 125.784 171.146 125.779 171.132 125.775C169.269 125.138 167.777 123.999 166.663 122.348L165.819 121.061C164.141 121.379 162.446 121.541 160.741 121.55C155.671 121.55 151.752 119.834 149.709 116.717L147.955 114.037C147.887 113.936 147.788 113.881 147.666 113.881C147.54 113.881 147.445 113.936 147.373 114.037C143.832 119.341 142.642 124.179 144.653 127.278C147.549 131.742 156.294 131.355 166.442 127.02C171.29 129.284 174.727 134.634 171.186 138.13C169.635 139.739 168.764 141.667 168.579 143.918C168.471 144.928 168.264 146.26 167.055 147.238C163.257 150.31 158.594 147.081 154.197 143.383C145.271 135.87 133.987 136.58 124.466 131.936C124.313 131.858 124.191 131.894 124.101 132.047C124.01 132.194 124.033 132.323 124.168 132.429C128.872 135.999 134.027 138.637 139.642 140.348C139.778 140.385 139.85 140.473 139.863 140.615C139.877 140.758 139.823 140.86 139.697 140.92C132.183 144.904 121.652 138.485 112.514 129.552C115.685 121.933 120.177 115.241 125.995 109.481C126.121 109.356 126.13 109.218 126.022 109.075C125.918 108.927 125.787 108.904 125.634 108.992C120.781 111.824 116.929 115.841 109.055 126.18C108.058 125.166 107.097 124.16 106.186 123.183C111.716 116.237 117.471 109.398 124.583 104.528L129.17 102.586C130.618 101.977 131.885 101.101 132.981 99.962C133.594 99.3255 134.131 98.56 134.781 97.7345C135.425 96.9043 136.215 96.2587 137.148 95.8021C138.082 95.3455 139.065 95.1195 140.102 95.1241C146.759 95.1933 155.892 91.4854 164.678 86.4216L166.383 89.0273C166.92 89.8436 170.032 89.8805 173.513 87.5007C175.814 85.9235 177.094 84.1018 177.545 82.8105C177.582 82.7044 177.658 82.6629 177.766 82.686C177.879 82.709 177.933 82.7736 177.929 82.8889C177.843 85.015 175.701 87.5238 174.249 88.6214C170.447 91.49 165.715 92.1403 164.944 90.9596L163.893 89.3547C163.893 89.3547 154.278 96.2172 146.223 98.9428C145.821 100.769 145.93 102.383 146.62 103.675L146.597 103.688L153.452 114.153C155.392 117.109 160.98 117.773 167.844 115.877L170.401 119.784C172.476 122.947 178.935 122.417 186.128 118.921L187.486 120.997C187.995 121.771 191.297 122.468 194.607 120.383C194.693 120.328 194.747 120.245 194.77 120.143C194.792 120.042 194.774 119.945 194.716 119.858L191.897 115.555C193.187 114.669 194.395 113.747 195.523 112.806L195.717 113.101L196.488 114.277L198.062 116.68C198.098 116.731 198.143 116.758 198.206 116.754C198.27 116.754 198.315 116.726 198.346 116.671C198.987 115.439 198.77 113.876 198.5 113.461L197.137 111.386C203.041 105.92 205.982 100.017 203.907 96.8536H203.903ZM110.836 25.582C109.889 24.1293 111.878 19.296 117.331 14.1584L120.488 18.9778C120.934 19.6604 123.884 19.4528 127.366 17.0731L120.763 6.99162L119.825 5.55733C117.786 6.95011 115.915 7.87709 115.473 7.19915C115.143 6.69646 116.754 4.86555 118.558 3.62497C120.253 2.46739 121.557 2.03849 122.342 1.9647C122.766 1.93241 123.09 2.09383 123.325 2.45355L124.114 3.65725L130.586 13.5405C130.64 13.6142 130.708 13.6557 130.798 13.6557C130.888 13.6557 130.956 13.6189 131.01 13.5451C131.714 12.4843 131.935 11.6358 131.709 11.2945L128.552 6.47048C135.277 3.28369 140.409 3.23757 141.361 4.6903C142.574 6.54427 139.016 13.9186 129.544 20.3937C120.078 26.8733 112.054 27.4314 110.836 25.5774V25.582ZM110.412 43.3699C109.596 42.1201 110.696 38.8964 113.754 34.6858C113.808 34.612 113.881 34.5751 113.975 34.5751C114.066 34.5751 114.138 34.612 114.196 34.6858C117.047 38.1631 126.532 36.0832 135.705 29.8065C144.883 23.5251 150.377 15.3529 148.315 11.3314C148.27 11.2484 148.266 11.1653 148.302 11.0823C148.338 10.9947 148.401 10.9394 148.487 10.9163C153.461 9.6296 156.794 9.81407 157.615 11.0639C159.266 13.582 153.331 24.3368 138.691 34.3537C124.051 44.3753 112.059 45.8834 110.412 43.3699ZM124.682 45.9664C124.588 45.9756 124.529 45.9341 124.506 45.8373C124.484 45.7404 124.52 45.6758 124.606 45.6436C130.266 43.4991 135.583 40.695 140.572 37.2269C150.733 30.2723 158.125 22.0632 160.448 15.851C160.47 15.7864 160.515 15.7541 160.583 15.7449C160.646 15.7403 160.696 15.7634 160.732 15.8187L164.394 21.4083C165.706 23.4098 160.75 33.5974 145.176 44.2508L142.966 40.8795C145.722 38.5229 148.329 36.1293 150.079 33.4775C150.133 33.3945 150.124 33.3207 150.056 33.2561C149.984 33.1916 149.912 33.1916 149.84 33.2561C140.418 41.1562 131.47 45.0625 124.682 45.9664ZM65.257 4.6903C66.2086 3.24218 71.3411 3.2883 78.0657 6.47509L74.9041 11.2945C74.6831 11.6358 74.8996 12.4843 75.6077 13.5451C75.6573 13.6189 75.7295 13.6557 75.8197 13.6557C75.9099 13.6557 75.9775 13.6142 76.0271 13.5405L82.5037 3.65725L83.2929 2.45355C83.5275 2.09383 83.8522 1.93241 84.2762 1.9647C85.0609 2.03849 86.3643 2.46739 88.0556 3.62497C89.8642 4.86555 91.4743 6.69646 91.1451 7.19915C90.6986 7.87709 88.8314 6.95011 86.7928 5.55733L85.8547 6.99162L79.2519 17.0731C82.7292 19.4528 85.6833 19.6604 86.1298 18.9778L89.2869 14.1584C94.7396 19.296 96.7331 24.1293 95.777 25.582C94.5637 27.436 86.5357 26.8779 77.069 20.3983C67.6022 13.9186 64.0392 6.54888 65.257 4.6903ZM49.0025 11.0639C49.8188 9.81407 53.1518 9.62499 58.1265 10.9117C58.2167 10.9394 58.2798 10.9947 58.3159 11.0777C58.3475 11.1653 58.3429 11.2484 58.3024 11.3314C56.2367 15.3483 61.73 23.5205 70.9036 29.8018C80.0817 36.0878 89.5665 38.1631 92.4169 34.6812C92.471 34.612 92.5477 34.5751 92.6379 34.5751C92.7281 34.5751 92.8048 34.612 92.8589 34.6858C95.9213 38.8964 97.0173 42.1201 96.2009 43.3699C94.5502 45.8834 82.5623 44.3753 67.9224 34.3537C53.2826 24.3368 47.3473 13.582 48.998 11.0639H49.0025ZM42.2193 21.4129L45.886 15.8187C45.9176 15.7634 45.9672 15.7403 46.0348 15.7449C46.098 15.7541 46.1431 15.7864 46.1656 15.851C48.4928 22.0632 55.8849 30.2723 66.0462 37.2269C71.0299 40.695 76.3519 43.4991 82.0076 45.6436C82.1023 45.6758 82.1338 45.7404 82.1158 45.8373C82.0933 45.9387 82.0301 45.9802 81.9354 45.971C75.1432 45.0671 66.1996 41.1608 56.7779 33.2561C56.7058 33.1916 56.6336 33.1962 56.5614 33.2607C56.4893 33.3253 56.4803 33.3945 56.5344 33.4775C58.2888 36.1293 60.8957 38.5229 63.6514 40.8841L61.4414 44.2554C45.8679 33.5974 40.9113 23.4144 42.2193 21.4129ZM33.9342 86.2325C32.2429 85.0749 31.3544 84.005 30.9936 83.2947C30.7996 82.9073 30.8222 82.5338 31.0612 82.1787L31.846 80.975L32.527 79.9419L32.7841 80.2048C33.5418 80.9888 34.3762 81.6852 35.2827 82.294C35.5668 82.4831 35.86 82.6675 36.1486 82.8566L33.9342 86.2371V86.2325ZM50.3916 72.4892C46.7023 70.9903 43.2927 67.9972 43.2927 67.9972C42.6387 63.6667 48.0508 53.8527 49.5888 51.164C49.6339 51.0855 49.6249 51.0164 49.5572 50.9564C49.4941 50.8965 49.4264 50.8965 49.3543 50.9518C40.4829 57.8004 35.8059 70.483 34.2634 74.7674C34.2363 74.8366 34.2003 74.8966 34.1461 74.9427C34.092 74.9934 34.0334 75.0257 33.9612 75.0441C33.8936 75.0626 33.8259 75.0626 33.7538 75.0441C33.6861 75.0257 33.623 74.9934 33.5733 74.9427C32.3827 73.9142 31.3093 72.7751 30.3486 71.5207C30.2088 71.3131 30.1457 71.0872 30.1592 70.8335C30.1727 70.5799 30.2629 70.3585 30.4298 70.1694C31.2597 69.224 31.864 68.1402 32.2429 66.9273C32.6217 65.7143 32.739 64.4784 32.5992 63.2101L32.5901 63.1271C32.4954 62.3062 32.7345 61.6098 33.3118 61.0287L33.9567 60.3784C34.3716 59.9541 34.746 59.493 35.0752 58.9949C35.9727 57.6252 36.4598 56.1171 36.541 54.4753L36.5636 54.0141C36.5861 53.5575 36.7169 53.1332 36.965 52.7504C37.2085 52.3676 37.5332 52.0725 37.9346 51.865L38.8006 51.4222C39.7793 50.9195 40.6362 50.2554 41.3714 49.4253C42.102 48.5952 42.6658 47.6589 43.0536 46.6121L43.0626 46.5844C43.3378 45.8511 43.8384 45.353 44.5645 45.0901L53.481 42.5721C55.3708 44.1217 57.4048 45.6482 59.5607 47.124C62.2938 49.001 65.1262 50.712 68.0532 52.257C67.9315 55.4345 67.7962 58.6951 68.7523 59.6083C73.5556 64.1971 79.2383 69.8742 84.2265 72.4799L84.5242 72.5122C85.6743 72.6414 86.7161 73.0564 87.6497 73.7574C88.5833 74.4584 89.2779 75.3577 89.7334 76.4415C90.4009 78.0557 91.3435 79.679 92.2546 80.4123C92.5883 80.6844 92.9356 80.9473 93.2964 81.2056C93.4362 81.307 93.4949 81.4408 93.4723 81.6114C93.4497 81.7821 93.3595 81.8973 93.2017 81.9527C89.4899 83.3178 85.5074 84.7567 81.4754 86.2417C81.4032 84.7475 81.0063 83.3547 80.2847 82.0542C80.2441 81.9804 80.181 81.9527 80.1043 81.9758C80.0231 81.9988 79.9825 82.0495 79.9825 82.1372C79.969 82.626 79.8923 83.1057 79.757 83.5714C79.4548 84.7521 78.8956 85.7898 78.0838 86.6798C77.2674 87.5745 76.2932 88.2156 75.1612 88.603C72.6445 89.387 69.7039 88.2802 67.1377 85.7851C58.2302 77.1241 55.2084 74.4446 50.3916 72.4892ZM157.263 50.9518C157.191 50.8965 157.124 50.9011 157.061 50.961C156.993 51.0164 156.984 51.0855 157.024 51.164C158.571 53.8527 163.975 63.6667 163.325 67.9972C163.325 67.9972 159.915 70.9903 156.226 72.4892C151.409 74.44 148.383 77.1195 139.476 85.7851C131.236 93.7959 126.662 85.3931 126.631 82.1279C126.631 82.0403 126.59 81.9896 126.509 81.9665C126.428 81.9481 126.369 81.9758 126.329 82.0495C125.526 83.47 123.952 87.2702 126.554 91.942C126.581 91.9881 126.586 92.0388 126.568 92.0895C126.545 92.1403 126.513 92.1726 126.464 92.1864C125.869 92.3616 123.947 92.583 121.633 89.3547C121.548 89.2348 121.431 89.1564 121.286 89.1241C121.146 89.0918 121.007 89.1103 120.88 89.1841C108.117 96.7475 95.0869 103.877 81.7821 110.578C81.6242 110.652 81.5746 110.772 81.6377 110.938C81.6964 111.104 81.8091 111.164 81.976 111.118C94.672 107.724 107.598 102.858 119.257 98.1818C119.455 98.108 119.613 98.1587 119.735 98.3386C119.857 98.5139 119.852 98.6891 119.712 98.8551C112.794 107.092 104.224 115.024 95.2403 123.021C95.114 123.137 95.1005 123.261 95.1952 123.404C95.2899 123.547 95.4117 123.579 95.5605 123.501C99.0919 121.628 101.73 120.157 103.67 119.032C103.764 118.977 103.846 118.99 103.913 119.078C103.981 119.166 103.976 119.249 103.904 119.332C95.1095 129.381 78.0251 146.8 66.9257 140.924C66.7994 140.86 66.7408 140.758 66.7543 140.615C66.7679 140.473 66.8445 140.38 66.9798 140.343C72.5904 138.637 77.75 135.999 82.4496 132.429C82.5849 132.323 82.6074 132.194 82.5172 132.047C82.427 131.894 82.3052 131.858 82.1519 131.936C72.6355 136.575 61.3512 135.87 52.4257 143.378C48.0283 147.077 43.3648 150.31 39.5673 147.233C38.3586 146.26 38.1511 144.923 38.0429 143.918C37.858 141.667 36.9875 139.735 35.436 138.13C31.8099 134.546 35.3188 129.478 39.7838 127.379C48.2763 123.381 58.812 117.778 65.5095 111.842C65.6358 111.727 65.6493 111.602 65.5637 111.459C65.4734 111.321 65.3517 111.284 65.2028 111.353C62.1856 112.751 58.8842 113.853 56.6156 113.825C56.345 113.821 56.0924 113.751 55.8534 113.618C55.6143 113.489 55.4159 113.309 55.258 113.078C55.1047 112.852 55.01 112.598 54.9694 112.326C54.9333 112.05 54.9558 111.782 55.046 111.519C60.2327 95.0826 100.58 91.573 114.359 80.4123C115.27 79.679 116.212 78.0557 116.88 76.4415C117.335 75.3531 118.03 74.4584 118.964 73.7574C119.897 73.0518 120.939 72.6414 122.089 72.5122L122.387 72.4799C127.375 69.8742 133.058 64.1971 137.861 59.6083C138.813 58.6951 138.686 55.4345 138.56 52.257C141.487 50.712 144.319 49.001 147.053 47.124C149.208 45.6482 151.242 44.117 153.132 42.5675L162.053 45.0901C162.775 45.353 163.275 45.8511 163.551 46.5844L163.56 46.6121C163.947 47.6589 164.511 48.5952 165.242 49.4253C165.977 50.2554 166.834 50.9195 167.813 51.4222L168.679 51.865C169.08 52.0725 169.405 52.3676 169.648 52.7504C169.892 53.1332 170.027 53.5529 170.05 54.0141L170.072 54.4753C170.149 56.1171 170.641 57.6252 171.534 58.9949C171.863 59.493 172.237 59.9541 172.657 60.3784L173.301 61.0287C173.874 61.6052 174.113 62.3062 174.023 63.1225L174.014 63.2101C173.897 64.2616 173.96 65.2993 174.203 66.3277C174.447 67.3516 174.857 68.3062 175.435 69.1825C175.66 69.533 175.908 69.8604 176.183 70.1694C176.346 70.3585 176.436 70.5799 176.45 70.8335C176.463 71.0826 176.4 71.3131 176.26 71.5207C175.299 72.7751 174.226 73.9142 173.04 74.9427C172.986 74.9934 172.927 75.0257 172.855 75.0441C172.787 75.058 172.72 75.058 172.648 75.0441C172.58 75.0257 172.521 74.9934 172.467 74.9427C172.413 74.8919 172.377 74.8366 172.35 74.7674C170.807 70.483 166.126 57.8004 157.259 50.9518H157.263ZM175.624 83.2901C175.259 84.005 174.375 85.0749 172.684 86.2325L170.469 82.852C170.758 82.6675 171.051 82.4784 171.335 82.2894C172.242 81.6852 173.071 80.9888 173.834 80.2002L174.091 79.9373L174.772 80.975L175.557 82.1741C175.796 82.5338 175.818 82.9027 175.624 83.2901ZM184.374 103.767C184.279 103.831 184.202 103.817 184.144 103.721L181.965 100.4C186.178 97.1026 188.244 94.52 189.137 93.1964C189.191 93.118 189.186 93.0442 189.114 92.9796C189.042 92.9105 188.97 92.9105 188.897 92.975C184.856 96.4201 172.742 104.316 162.103 105.57C162.008 105.579 161.949 105.533 161.927 105.436C161.909 105.339 161.945 105.275 162.035 105.243C167.317 103.587 173.383 100.612 179.404 96.4939C189.371 89.6729 196.565 81.5468 198.779 75.3393C198.797 75.2747 198.842 75.2378 198.91 75.2332C198.973 75.224 199.027 75.2471 199.059 75.307L202.514 80.5737C203.835 82.5937 199.537 93.344 184.374 103.767Z" fill="white"/>
</g>
</svg>
